<svg width="343" height="43" viewBox="0 0 343 43" fill="none" xmlns="http://www.w3.org/2000/svg">
<g clip-path="url(#clip0)">
<path d="M34.1 40.73C32.7874 39.7887 31.6644 38.608 30.79 37.25C28.92 34.64 26.98 31.81 21.3 30.58C20.0823 30.2765 18.8347 30.1088 17.58 30.08V32C17.58 36.49 18.16 40 19.37 42.36C11.62 42.23 7.75 42.16 0 42C0.673624 39.8263 1.13577 37.5926 1.38 35.33C1.69788 32.6753 1.85484 30.0037 1.85 27.33V15.72C1.83831 12.8497 1.6714 9.98223 1.35 7.13C1.11495 4.71763 0.663129 2.33132 0 0H32.58C40.43 0 46.41 2.58 49.83 8.21C51.5754 11.2086 52.4579 14.6313 52.38 18.1C52.38 23.62 50.62 27.43 47.08 29.7C43.54 31.97 38.82 32.1 32.93 31.06L30.64 30.65V31.08H30.82C33.6606 31.6677 36.371 32.7654 38.82 34.32C40.6285 35.2447 42.5972 35.8149 44.62 36C49.62 36.52 52.97 37.7 54.62 33C54.67 42.43 54.69 39.56 54.74 41.8C53.5364 42.2506 52.2727 42.5202 50.99 42.6C49.1111 42.8161 47.2213 42.9229 45.33 42.92C39.5 42.93 36.15 42.17 34.1 40.73ZM17.58 25.31C22.78 26.63 25.38 27.19 30.58 28.15C34.3 28.84 36.64 27.69 36.64 24.67C36.64 21.65 34.27 19.79 30.75 19.3C25.48 18.57 22.84 18.15 17.57 17.17L17.58 25.31Z" fill="white"/>
<path d="M56.09 42.71C56.745 42.1499 57.2069 41.3976 57.41 40.56C57.7524 39.3096 57.9107 38.016 57.88 36.72V24.72C57.88 20.81 57.7 16.54 57.38 11.89C57.06 7.24 56.62 3.22 56.09 0H75.46C74.9 3.34 74.46 7.54 74.11 12.26C73.76 16.98 73.61 21.32 73.61 25.26V37.26C73.5778 38.5384 73.7465 39.8139 74.11 41.04C74.1953 41.4093 74.3603 41.7556 74.5935 42.0544C74.8267 42.3532 75.1224 42.5975 75.46 42.77C67.71 42.77 63.84 42.75 56.09 42.71Z" fill="white"/>
<path d="M79.17 42.8C79.5025 42.6322 79.7945 42.3941 80.0259 42.1023C80.2573 41.8105 80.4225 41.4719 80.51 41.11C80.8746 39.8704 81.0433 38.5816 81.01 37.29V25.29C81.01 21.5 80.85 17.29 80.51 12.49C80.17 7.68997 79.72 3.48997 79.17 0.0099698H107.47C111.081 -0.017282 114.652 0.760157 117.925 2.2858C121.198 3.81145 124.089 6.04698 126.39 8.82997C130.857 14.1438 133.26 20.8888 133.16 27.83C133.16 34.83 130.9 38.35 126.39 40.48C121.88 42.61 115.58 42.84 107.47 42.85C98.03 42.8366 88.5967 42.82 79.17 42.8ZM96.69 37.85C100.49 37.71 102.4 37.62 106.21 37.41C113 37.05 117 35.09 117 30.17C117 25.25 113 22 106.19 22.32C102.38 22.51 100.47 22.58 96.67 22.71L96.69 37.85Z" fill="white"/>
<path d="M134.41 42.54C135.118 41.3875 135.578 40.1001 135.76 38.76C136.101 36.7449 136.265 34.7037 136.25 32.66V20.88C136.25 17.77 136.09 14.31 135.76 10.39C135.43 6.47 135 2.94 134.41 0H162.71C170.82 0 177.14 1.82 181.63 4.6C186.12 7.38 188.4 11.2 188.4 17.82C188.4 24.44 186.13 31.17 181.63 35.63C177.13 40.09 170.82 42 162.71 42.14L134.41 42.54ZM151.93 31.54L161.45 30C168.25 28.9 172.26 25.63 172.26 20.83C172.26 16.03 168.26 14.12 161.45 15.18C157.64 15.78 155.74 16.08 151.93 16.66V31.54Z" fill="white"/>
<path d="M203.21 39C198.439 39.1967 193.787 40.5451 189.65 42.93C190.322 39.8697 190.773 36.765 191 33.64C191.32 29.86 191.47 26.45 191.47 23.4V11.86C191.47 9.57749 191.303 7.29806 190.97 5.03998C190.745 3.32695 190.312 1.64782 189.68 0.039978H209C208.225 1.2386 207.771 2.61575 207.68 4.03998C207.324 6.35625 207.147 8.6965 207.15 11.04V22.92C212.88 22.08 215.75 21.68 221.48 20.92C224.027 20.5371 226.537 19.9349 228.98 19.12C230.994 18.528 232.901 17.62 234.63 16.43C234.56 23.93 234.53 28.57 234.45 39.63C234.54 39.52 229.78 42.93 226.22 42.91C219.3 42.87 211.63 38.58 203.21 39Z" fill="white"/>
<path d="M236.31 41.21C236.87 37.76 237.31 33.62 237.66 29.11C238.01 24.6 238.15 20.66 238.15 17.21V5.86C238.198 4.43019 238.033 3.00123 237.66 1.62C237.32 0.62 236.87 0.18 236.31 0H282.13C282.97 1.21 283.39 2.37 284.24 5.62C282.33 4.84 278.58 4.34 272.96 4.19C265.31 3.99 261.48 3.98 253.83 4.09V7C259.42 6.79 262.21 6.74 267.83 6.76C271.03 6.76 273.57 6.76 275.51 6.68V13.12C272.982 12.6181 270.407 12.3902 267.83 12.44C262.24 12.44 259.45 12.5 253.83 12.73V19.36C261.39 19.22 265.17 19.22 272.72 19.41C278.94 19.57 283.39 18.41 286.11 15.97C285.05 24.97 284.51 29.97 283.45 41.28C267.73 41.2067 252.017 41.1833 236.31 41.21Z" fill="white"/>
<path d="M321.93 36.5C320.555 33.8841 319.447 31.137 318.62 28.3C316.75 22.68 314.81 17.63 309.13 16.71C307.904 16.4431 306.636 16.4431 305.41 16.71V20.1C305.301 27.2616 305.901 34.4164 307.2 41.46C299.45 41.38 295.58 41.35 287.83 41.3C288.498 37.5046 288.959 33.6756 289.21 29.83C289.53 25.4 289.68 21.23 289.68 17.27V6.06C289.696 4.75617 289.528 3.45658 289.18 2.2C288.975 1.34208 288.502 0.571645 287.83 0L320.41 0C328.26 0 334.24 1 337.66 4.42C338.48 5.21677 339.128 6.17206 339.567 7.22766C340.005 8.28326 340.224 9.41707 340.21 10.56C340.21 14.02 338.45 16.23 334.91 16.9C331.37 17.57 326.65 17.15 320.76 15.76L318.47 15.24V16H318.65C322.52 16.85 324.65 19.43 326.65 21.5C328.243 23.1063 330.251 24.2384 332.45 24.77C337.45 25.98 340.8 24.2 342.45 21.21C342.45 28.21 342.52 31.81 342.57 38.86C341.604 40.1181 340.305 41.081 338.82 41.64C337.037 42.431 335.111 42.8495 333.16 42.87C327.34 42.94 324 40.26 321.93 36.5ZM305.41 10.71C310.61 11.5 313.21 11.98 318.41 13.11C322.13 13.92 324.47 13.61 324.47 11.92C324.47 10.23 322.1 8.92 318.58 8.39C313.31 7.53 310.67 7.17 305.4 6.55L305.41 10.71Z" fill="white"/>
</g>
<defs>
<clipPath id="clip0">
<rect width="342.53" height="42.92" fill="white"/>
</clipPath>
</defs>
</svg>
