<svg width="250" height="95" viewBox="0 0 250 95" fill="none" xmlns="http://www.w3.org/2000/svg">
<path d="M208.333 12H41.6667C19.2071 12 1 30.2071 1 52.6666C1 75.1262 19.2071 93.3333 41.6667 93.3333H208.333C230.793 93.3333 249 75.1262 249 52.6666C249 30.2071 230.793 12 208.333 12Z" fill="#FE3176" stroke="black" stroke-width="2"/>
<path d="M208.333 1H41.6667C19.2071 1 1 19.2071 1 41.6666C1 64.1262 19.2071 82.3333 41.6667 82.3333H208.333C230.793 82.3333 249 64.1262 249 41.6666C249 19.2071 230.793 1 208.333 1Z" fill="#DBF429" stroke="black" stroke-width="2"/>
<path d="M58.4182 52.6671L54.1432 46.4921H53.8899H49.4249V52.6671H44.2949V30.5004H53.8899C55.8532 30.5004 57.5527 30.8276 58.9882 31.4821C60.4449 32.1365 61.5638 33.0654 62.3449 34.2688C63.126 35.4721 63.5166 36.8971 63.5166 38.5438C63.5166 40.1904 63.1155 41.6154 62.3132 42.8188C61.5321 44.001 60.4132 44.9088 58.9566 45.5421L63.9282 52.6671H58.4182ZM58.3232 38.5438C58.3232 37.2982 57.9221 36.3482 57.1199 35.6938C56.3177 35.0182 55.146 34.6804 53.6049 34.6804H49.4249V42.4071H53.6049C55.146 42.4071 56.3177 42.0693 57.1199 41.3938C57.9221 40.7182 58.3232 39.7682 58.3232 38.5438ZM84.7444 48.5504V52.6671H67.581V30.5004H84.3327V34.6171H72.6794V39.4304H82.971V43.4204H72.6794V48.5504H84.7444ZM103.743 41.2354H108.429V50.2288C107.226 51.1365 105.833 51.8332 104.249 52.3188C102.666 52.8043 101.072 53.0471 99.4676 53.0471C97.1665 53.0471 95.0976 52.5615 93.261 51.5904C91.4243 50.5982 89.9782 49.2365 88.9226 47.5054C87.8882 45.7532 87.371 43.7793 87.371 41.5838C87.371 39.3882 87.8882 37.4249 88.9226 35.6938C89.9782 33.9415 91.4349 32.5799 93.2926 31.6088C95.1504 30.6165 97.2404 30.1204 99.5626 30.1204C101.505 30.1204 103.268 30.4476 104.851 31.1021C106.434 31.7565 107.764 32.7065 108.841 33.9521L105.548 36.9921C103.964 35.3243 102.054 34.4904 99.816 34.4904C98.4015 34.4904 97.1454 34.786 96.0476 35.3771C94.9499 35.9682 94.0949 36.8021 93.4826 37.8788C92.8704 38.9554 92.5643 40.1904 92.5643 41.5838C92.5643 42.956 92.8704 44.1804 93.4826 45.2571C94.0949 46.3338 94.9393 47.1782 96.016 47.7904C97.1137 48.3815 98.3593 48.6771 99.7526 48.6771C101.231 48.6771 102.561 48.3604 103.743 47.7271V41.2354ZM113.195 30.5004H118.325V52.6671H113.195V30.5004ZM130.869 53.0471C129.116 53.0471 127.417 52.8149 125.77 52.3504C124.145 51.8649 122.836 51.2421 121.844 50.4821L123.585 46.6188C124.535 47.3154 125.665 47.8749 126.974 48.2971C128.283 48.7193 129.591 48.9304 130.9 48.9304C132.357 48.9304 133.434 48.7193 134.13 48.2971C134.827 47.8538 135.175 47.2732 135.175 46.5554C135.175 46.0276 134.964 45.5949 134.542 45.2571C134.141 44.8982 133.613 44.6132 132.959 44.4021C132.325 44.191 131.46 43.9588 130.362 43.7054C128.673 43.3043 127.29 42.9032 126.214 42.5021C125.137 42.101 124.208 41.4571 123.427 40.5704C122.667 39.6838 122.287 38.5015 122.287 37.0238C122.287 35.736 122.635 34.5749 123.332 33.5404C124.029 32.4849 125.074 31.651 126.467 31.0388C127.881 30.4265 129.602 30.1204 131.629 30.1204C133.043 30.1204 134.426 30.2893 135.777 30.6271C137.128 30.9649 138.31 31.4504 139.324 32.0838L137.74 35.9788C135.693 34.8176 133.645 34.2371 131.597 34.2371C130.161 34.2371 129.095 34.4693 128.399 34.9338C127.723 35.3982 127.385 36.0104 127.385 36.7704C127.385 37.5304 127.776 38.1004 128.557 38.4804C129.359 38.8393 130.573 39.1982 132.199 39.5571C133.888 39.9582 135.27 40.3593 136.347 40.7604C137.424 41.1615 138.342 41.7949 139.102 42.6604C139.883 43.526 140.274 44.6976 140.274 46.1754C140.274 47.4421 139.915 48.6032 139.197 49.6588C138.5 50.6932 137.445 51.5165 136.03 52.1288C134.616 52.741 132.895 53.0471 130.869 53.0471ZM148.061 34.6804H140.968V30.5004H160.285V34.6804H153.191V52.6671H148.061V34.6804ZM180.208 48.5504V52.6671H163.045V30.5004H179.797V34.6171H168.143V39.4304H178.435V43.4204H168.143V48.5504H180.208ZM198.413 52.6671L194.138 46.4921H193.885H189.42V52.6671H184.29V30.5004H193.885C195.848 30.5004 197.548 30.8276 198.983 31.4821C200.44 32.1365 201.559 33.0654 202.34 34.2688C203.121 35.4721 203.512 36.8971 203.512 38.5438C203.512 40.1904 203.111 41.6154 202.308 42.8188C201.527 44.001 200.408 44.9088 198.952 45.5421L203.923 52.6671H198.413ZM198.318 38.5438C198.318 37.2982 197.917 36.3482 197.115 35.6938C196.313 35.0182 195.141 34.6804 193.6 34.6804H189.42V42.4071H193.6C195.141 42.4071 196.313 42.0693 197.115 41.3938C197.917 40.7182 198.318 39.7682 198.318 38.5438Z" fill="black"/>
</svg>
