<svg width="766" height="1762" viewBox="0 0 766 1762" fill="none" xmlns="http://www.w3.org/2000/svg">
<path fill-rule="evenodd" clip-rule="evenodd" d="M12.7165 6.36498C9.73344 4.15565 6.9604 2.16565 4.42086 0.381723L3.43495 0.380116L3.02668 250.829C7.09962 251.947 12.7228 253.855 19.7421 256.571C49.6162 268.131 53.1936 262.545 27.2202 245.262C-0.280613 226.963 16.3346 229.992 50.0468 239.876C73.5742 246.774 70.5469 244.255 59.2809 234.882L59.2765 234.878L59.2684 234.872L59.2529 234.859C56.5734 232.629 53.4298 230.013 50.0677 227.045C21.6608 210.149 19.8275 204.178 53.9481 215.467C56.0743 216.17 58.0754 216.838 59.952 217.464L60.0372 217.493C85.9487 226.141 88.0145 226.83 67.657 204.256C67.0044 203.532 66.3722 202.832 65.7608 202.154L65.7597 202.153L65.7567 202.15L65.7549 202.148L65.7536 202.147C57.1024 192.561 52.625 187.6 53.363 186.638C54.1549 185.605 60.9502 189.175 75.0354 196.574L75.0385 196.576L75.0417 196.577L75.045 196.579L75.7607 196.955C90.2036 202.351 96.735 206.069 106.087 212.947C111.322 218.843 117.236 224.248 122.198 228.784C133.508 239.122 139.875 244.942 122.008 241.761L120.21 241.441L120.209 241.441C96.268 237.173 95.839 237.097 116.379 249.124C137.422 261.444 93.0696 250.069 93.0696 250.069C93.0696 250.069 78.119 246.955 100.918 258.722C123.716 270.489 96.693 266.086 90.727 265.024C84.761 263.962 67.5606 263.551 90.7082 276.577C113.856 289.604 110.695 290.332 84.7227 287.481C75.3142 286.448 69.2229 285.145 66.2302 284.504L66.2291 284.504L66.2208 284.502L66.2151 284.501C64.793 284.197 64.0754 284.044 64.0386 284.143C64.0011 284.244 64.6742 284.609 66.0327 285.345L66.0347 285.347C68.2514 286.548 72.2914 288.738 78.0449 292.385C81.629 294.657 84.5133 296.409 86.6854 297.728L86.6928 297.733C90.0674 299.782 91.7203 300.787 91.6045 301.071C91.4933 301.345 89.7526 300.956 86.341 300.193C82.8461 299.412 77.5976 298.238 70.551 296.984C66.3178 296.23 62.9681 295.552 60.4028 295.033C55.9474 294.131 53.858 293.708 53.6148 294.2C53.4 294.633 54.625 295.78 56.932 297.94C59.6422 300.477 63.8456 304.411 68.9617 310.23C68.9617 310.23 70.821 311.884 73.2714 316.1C74.8816 318.871 69.0194 316.927 64.0132 315.267L64.0101 315.265C61.399 314.399 59.0212 313.611 58.0587 313.609C58.0587 313.609 28.2719 298.114 12.2536 290.365C8.88017 287.866 5.77538 285.648 2.97311 283.692L2.65175 480.829C6.72469 481.947 12.3478 483.854 19.3672 486.571C49.2413 498.13 52.8186 492.544 26.8453 475.262C-0.655543 456.963 15.9596 459.992 49.6719 469.876C73.1993 476.774 70.172 474.255 58.906 464.882L58.9016 464.878L58.8934 464.872L58.8779 464.859C56.1984 462.629 53.0549 460.013 49.6928 457.045C21.2859 440.148 19.4526 434.178 53.5731 445.467C55.6994 446.17 57.7005 446.838 59.5771 447.464L59.6623 447.493C85.5738 456.14 87.6396 456.83 67.2821 434.256L66.5946 433.493L65.3859 432.154L65.3847 432.153L65.3817 432.15L65.38 432.148L65.3787 432.146C56.7274 422.561 52.25 417.6 52.9881 416.637C53.78 415.604 60.5753 419.174 74.6605 426.574L74.6636 426.575L74.6668 426.577L74.6701 426.579L75.3857 426.955C89.8287 432.351 96.36 436.069 105.712 442.947C110.947 448.843 116.861 454.248 121.823 458.784C133.133 469.122 139.5 474.942 121.633 471.761L119.835 471.44L119.834 471.44C95.8931 467.173 95.464 467.097 116.004 479.123C137.047 491.444 92.6947 480.068 92.6947 480.068C92.6947 480.068 77.744 476.955 100.543 488.722C123.341 500.489 96.3181 496.086 90.3521 495.024C84.3861 493.962 67.1857 493.551 90.3332 506.577C113.481 519.603 110.32 520.332 84.3477 517.481C74.9393 516.448 68.8479 515.145 65.8552 514.504L65.8542 514.504L65.8458 514.502L65.8402 514.501C64.4181 514.197 63.7005 514.043 63.6637 514.143C63.6261 514.244 64.2992 514.609 65.6578 515.345L65.6597 515.346C67.8765 516.548 71.9164 518.738 77.6699 522.385C81.254 524.656 84.1384 526.408 86.3105 527.728L86.3179 527.732C89.6925 529.782 91.3453 530.786 91.2295 531.071C91.1184 531.344 89.3777 530.955 85.9661 530.193C82.4712 529.411 77.2227 528.238 70.176 526.984C65.9428 526.23 62.5932 525.552 60.0279 525.033C55.5725 524.131 53.4831 523.708 53.2398 524.199C53.025 524.633 54.2501 525.78 56.5571 527.939C59.2673 530.476 63.4707 534.411 68.5868 540.229C68.5868 540.229 70.4461 541.884 72.8965 546.1C74.5066 548.871 68.6445 546.927 63.6382 545.266L63.6351 545.265C61.024 544.399 58.6463 543.611 57.6838 543.609C57.6838 543.609 27.897 528.113 11.8786 520.364C8.50524 517.866 5.40045 515.648 2.59818 513.691L2.1888 764.828C6.26173 765.947 11.8849 767.854 18.9042 770.57C48.7784 782.13 52.3557 776.544 26.3824 759.261C-1.1185 740.962 15.4967 743.991 49.2089 753.875C72.7363 760.773 69.709 758.255 58.443 748.881L58.4422 748.881C55.7568 746.646 52.6033 744.023 49.2298 741.044C20.8229 724.148 18.9896 718.177 53.1102 729.466C55.2364 730.17 57.2375 730.837 59.1141 731.464L59.1994 731.492C85.1108 740.14 87.1767 740.829 66.8191 718.255C66.247 717.621 65.6907 717.004 65.1502 716.406L64.9229 716.154L64.9218 716.153L64.9188 716.149L64.917 716.147L64.9157 716.146C56.2645 706.56 51.7871 701.6 52.5252 700.637C53.317 699.604 60.1123 703.174 74.1975 710.573L74.2006 710.575L74.2038 710.577L74.2071 710.579L74.9228 710.955C89.3657 716.351 95.8971 720.068 105.249 726.947C110.483 732.842 116.396 738.246 121.357 742.781L121.359 742.783L121.36 742.783C132.67 753.121 139.037 758.941 121.17 755.76L119.372 755.44C95.4301 751.173 95.001 751.096 115.541 763.123C136.584 775.444 92.2317 764.068 92.2317 764.068C92.2317 764.068 77.2811 760.954 100.08 772.721C122.878 784.488 95.8551 780.086 89.8891 779.024C83.9231 777.961 66.7227 777.55 89.8703 790.577C113.018 803.603 109.857 804.331 83.8848 801.48C74.4759 800.448 68.3845 799.144 65.3919 798.504L65.3909 798.503C63.9597 798.197 63.2377 798.043 63.2008 798.142C63.1632 798.244 63.8363 798.608 65.1948 799.345L65.1962 799.345L65.1982 799.347L65.1991 799.347C67.4164 800.549 71.4555 802.739 77.207 806.384C80.7956 808.659 83.6826 810.413 85.8556 811.732L85.8565 811.733C89.23 813.782 90.8824 814.786 90.7666 815.071C90.6555 815.344 88.9172 814.955 85.5102 814.194L85.5074 814.193L85.5036 814.192L85.5029 814.192C82.008 813.411 76.7596 812.238 69.7131 810.983C65.4801 810.23 62.1306 809.552 59.5654 809.033C55.1097 808.131 53.0201 807.708 52.7769 808.199C52.5621 808.633 53.7871 809.78 56.0941 811.939C58.8043 814.476 63.0077 818.411 68.1238 824.229C68.1238 824.229 69.9831 825.883 72.4335 830.1C74.0437 832.871 68.1816 830.926 63.1753 829.266C60.563 828.399 58.1837 827.61 57.2208 827.609C57.2208 827.609 27.434 812.113 11.4157 804.364C8.04228 801.866 4.93749 799.648 2.13523 797.691L1.81387 994.828C5.8868 995.946 11.51 997.854 18.5293 1000.57C48.4034 1012.13 51.9807 1006.54 26.0074 989.261C-1.49343 970.962 15.1217 973.991 48.834 983.875C72.3614 990.773 69.3341 988.254 58.0681 978.881L58.0673 978.88C55.3819 976.646 52.2284 974.022 48.8549 971.044C20.448 954.148 18.6147 948.177 52.7353 959.466C54.8937 960.18 56.9233 960.857 58.8244 961.492C84.7359 970.14 86.8017 970.829 66.4442 948.255C65.7913 947.531 65.1589 946.83 64.5473 946.153C55.8918 936.563 51.412 931.6 52.1502 930.637C52.9423 929.603 59.7411 933.175 73.834 940.579L74.5479 940.954C88.9908 946.35 95.5221 950.068 104.874 956.946C110.109 962.842 116.023 968.248 120.985 972.783C132.295 983.121 138.662 988.941 120.795 985.76L118.997 985.44C95.0552 981.172 94.626 981.096 115.166 993.123C136.209 1005.44 91.8568 994.068 91.8568 994.068C91.8568 994.068 76.9062 990.954 99.7047 1002.72C122.503 1014.49 95.4802 1010.09 89.5142 1009.02C83.5482 1007.96 66.3478 1007.55 89.4953 1020.58C112.643 1033.6 109.482 1034.33 83.5099 1031.48C74.101 1030.45 68.0095 1029.14 65.017 1028.5L65.0159 1028.5C63.5848 1028.2 62.8627 1028.04 62.8258 1028.14C62.7882 1028.24 63.4613 1028.61 64.8199 1029.34L64.8213 1029.35L64.8233 1029.35L64.8242 1029.35C67.0414 1030.55 71.0806 1032.74 76.8321 1036.38C80.4206 1038.66 83.3077 1040.41 85.4807 1041.73L85.4816 1041.73C88.8551 1043.78 90.5074 1044.79 90.3916 1045.07C90.2806 1045.34 88.5422 1044.96 85.1353 1044.19L85.1324 1044.19L85.1287 1044.19L85.128 1044.19C81.633 1043.41 76.3846 1042.24 69.3382 1040.98C65.1052 1040.23 61.7557 1039.55 59.1905 1039.03C54.7348 1038.13 52.6452 1037.71 52.402 1038.2C52.1872 1038.63 53.4122 1039.78 55.7192 1041.94C58.4294 1044.48 62.6328 1048.41 67.7489 1054.23C67.7489 1054.23 69.6082 1055.88 72.0586 1060.1C73.6687 1062.87 67.8066 1060.93 62.8004 1059.27C60.1881 1058.4 57.8088 1057.61 56.8459 1057.61C56.8459 1057.61 27.0591 1042.11 11.0408 1034.36C7.66735 1031.87 4.56256 1029.65 1.7603 1027.69L1.35091 1278.83C5.42384 1279.95 11.047 1281.85 18.0664 1284.57C47.9405 1296.13 51.5178 1290.54 25.5445 1273.26C-1.95639 1254.96 14.6588 1257.99 48.371 1267.87C71.8985 1274.77 68.8711 1272.25 57.6051 1262.88C54.9195 1260.65 51.7657 1258.02 48.3919 1255.04C19.985 1238.15 18.1518 1232.18 52.2723 1243.47C54.4307 1244.18 56.4602 1244.86 58.3613 1245.49C84.2729 1254.14 86.3388 1254.83 65.9813 1232.25C65.3284 1231.53 64.6959 1230.83 64.0844 1230.15C55.4289 1220.56 50.949 1215.6 51.6873 1214.64C52.4793 1213.6 59.2781 1217.17 73.371 1224.58L74.0849 1224.95C88.5278 1230.35 95.0592 1234.07 104.411 1240.95C109.646 1246.84 115.56 1252.25 120.522 1256.78L120.522 1256.78C131.832 1267.12 138.199 1272.94 120.332 1269.76L118.533 1269.44C94.5922 1265.17 94.1631 1265.1 114.703 1277.12C135.746 1289.44 91.3938 1278.07 91.3938 1278.07C91.3938 1278.07 76.4432 1274.95 99.2418 1286.72C122.04 1298.49 95.0172 1294.09 89.0512 1293.02C83.0852 1291.96 65.8848 1291.55 89.0324 1304.58C112.18 1317.6 109.019 1318.33 83.0469 1315.48C73.6378 1314.45 67.5462 1313.14 64.5538 1312.5L64.5527 1312.5C63.1218 1312.2 62.3998 1312.04 62.3629 1312.14C62.3253 1312.24 62.9984 1312.61 64.3571 1313.34L64.3575 1313.34L64.3578 1313.34L64.3581 1313.34C66.5747 1314.55 70.6149 1316.74 76.3691 1320.38C79.9578 1322.66 82.845 1324.41 85.0181 1325.73C88.392 1327.78 90.0445 1328.79 89.9287 1329.07C89.8175 1329.34 88.0768 1328.95 84.6651 1328.19C81.1702 1327.41 75.9217 1326.24 68.8752 1324.98C64.6421 1324.23 61.2925 1323.55 58.7273 1323.03C54.2717 1322.13 52.1822 1321.71 51.939 1322.2C51.7242 1322.63 52.9493 1323.78 55.2562 1325.94C57.9664 1328.48 62.1698 1332.41 67.2859 1338.23C67.2859 1338.23 69.1452 1339.88 71.5956 1344.1C73.2058 1346.87 67.3437 1344.93 62.3374 1343.27L62.3371 1343.27C59.7249 1342.4 57.3458 1341.61 56.3829 1341.61C56.3829 1341.61 26.5961 1326.11 10.5778 1318.36C7.20439 1315.86 4.0996 1313.65 1.29734 1311.69L0.975979 1508.83C5.04891 1509.95 10.6721 1511.85 17.6914 1514.57C47.5655 1526.13 51.1428 1520.54 25.1695 1503.26C-2.33132 1484.96 14.2839 1487.99 47.9961 1497.87C71.5236 1504.77 68.4962 1502.25 57.2301 1492.88C54.5445 1490.65 51.3908 1488.02 48.017 1485.04C19.6101 1468.15 17.7768 1462.18 51.8974 1473.47C54.0548 1474.18 56.0835 1474.86 57.9839 1475.49L57.9864 1475.49C83.898 1484.14 85.9639 1484.83 65.6063 1462.25C64.9538 1461.53 64.3216 1460.83 63.7104 1460.15C55.0542 1450.56 50.5741 1445.6 51.3123 1444.64C52.1044 1443.6 58.9026 1447.17 72.9944 1454.58L73.71 1454.95C88.1529 1460.35 94.6842 1464.07 104.036 1470.95C109.271 1476.84 115.185 1482.25 120.147 1486.78L120.147 1486.78C131.457 1497.12 137.824 1502.94 119.957 1499.76L118.159 1499.44C94.2173 1495.17 93.7882 1495.1 114.328 1507.12C135.371 1519.44 91.0189 1508.07 91.0189 1508.07C91.0189 1508.07 76.0683 1504.95 98.8669 1516.72C121.665 1528.49 94.6423 1524.08 88.6763 1523.02C82.7103 1521.96 65.5099 1521.55 88.6575 1534.58C111.805 1547.6 108.644 1548.33 82.672 1545.48C73.2629 1544.45 67.1713 1543.14 64.1788 1542.5C62.7472 1542.2 62.0248 1542.04 61.9879 1542.14C61.9503 1542.24 62.6235 1542.61 63.9822 1543.34C66.1986 1544.55 70.2392 1546.74 75.9942 1550.38C79.5809 1552.66 82.4668 1554.41 84.6394 1555.73L84.6415 1555.73L84.6425 1555.73L84.6431 1555.73C88.017 1557.78 89.6695 1558.78 89.5538 1559.07C89.4426 1559.34 87.7018 1558.95 84.29 1558.19C80.7951 1557.41 75.5467 1556.24 68.5003 1554.98C64.2677 1554.23 60.9185 1553.55 58.3533 1553.03L58.3522 1553.03L58.3521 1553.03L58.3514 1553.03L58.3512 1553.03C53.8964 1552.13 51.8073 1551.71 51.5641 1552.2C51.3493 1552.63 52.5743 1553.78 54.8813 1555.94C57.5915 1558.48 61.7949 1562.41 66.911 1568.23C66.911 1568.23 68.7703 1569.88 71.2207 1574.1C72.8309 1576.87 66.9687 1574.93 61.9625 1573.26C59.3502 1572.4 56.9709 1571.61 56.008 1571.61C56.008 1571.61 26.2212 1556.11 10.2029 1548.36C6.82946 1545.86 3.72467 1543.65 0.922408 1541.69L0.565918 1760.38L34.009 1760.43C19.8048 1750.47 23.9853 1748.38 51.4344 1757.46C53.5928 1758.18 55.6224 1758.86 57.5235 1759.49L57.5284 1759.49C58.5481 1759.83 59.5308 1760.16 60.4767 1760.48L77.2356 1760.5C75.1592 1757.5 71.1165 1752.88 65.1434 1746.25C64.4913 1745.53 63.8596 1744.83 63.2487 1744.15L63.2471 1744.15L63.247 1744.15L63.2469 1744.15C54.5911 1734.56 50.1111 1729.6 50.8494 1728.64C51.6414 1727.6 58.4398 1731.17 72.5319 1738.58L72.532 1738.58L73.247 1738.95C87.6899 1744.35 94.2213 1748.07 103.573 1754.95C105.284 1756.87 107.067 1758.75 108.865 1760.55L250.009 1760.78C235.805 1750.82 239.985 1748.74 267.434 1757.82C269.593 1758.53 271.622 1759.21 273.523 1759.84C274.545 1760.18 275.529 1760.51 276.476 1760.83L293.235 1760.85C291.159 1757.85 287.116 1753.23 281.143 1746.61C280.529 1745.93 279.933 1745.26 279.356 1744.63L279.271 1744.53L279.247 1744.5C270.591 1734.91 266.111 1729.95 266.849 1728.99C267.641 1727.95 274.44 1731.53 288.532 1738.93L289.247 1739.31C303.69 1744.7 310.221 1748.42 319.573 1755.3C321.283 1757.22 323.066 1759.1 324.865 1760.91L466.008 1761.14C451.804 1751.18 455.985 1749.09 483.434 1758.17C485.592 1758.88 487.622 1759.56 489.523 1760.2L489.558 1760.21C490.567 1760.54 491.54 1760.87 492.476 1761.18L509.235 1761.21C507.159 1758.2 503.116 1753.58 497.143 1746.96C496.5 1746.24 495.876 1745.55 495.273 1744.89L495.247 1744.86C486.591 1735.27 482.111 1730.3 482.849 1729.34C483.641 1728.31 490.439 1731.88 504.531 1739.28L505.246 1739.66C519.689 1745.05 526.221 1748.77 535.572 1755.65C537.283 1757.58 539.066 1759.45 540.865 1761.26L682.008 1761.49C667.804 1751.53 671.984 1749.44 699.434 1758.52C701.563 1759.23 703.567 1759.89 705.446 1760.52L705.477 1760.53L705.511 1760.54L705.518 1760.55L705.523 1760.55C706.544 1760.89 707.528 1761.22 708.476 1761.53L725.235 1761.56C723.158 1758.55 719.116 1753.93 713.143 1747.31L712.556 1746.66L711.947 1745.98L711.246 1745.21C702.59 1735.62 698.11 1730.65 698.849 1729.69C699.641 1728.66 706.439 1732.23 720.531 1739.63L721.246 1740.01C735.689 1745.41 742.22 1749.12 751.572 1756C753.283 1757.93 755.066 1759.8 756.864 1761.61L762.565 1761.62L762.969 1513.81C754.673 1513.14 739.018 1509.12 739.018 1509.12C739.018 1509.12 724.067 1506.01 746.866 1517.78C769.665 1529.54 742.641 1525.14 736.675 1524.08C730.709 1523.02 713.509 1522.61 736.657 1535.63C759.804 1548.66 756.644 1549.39 730.671 1546.54C721.262 1545.5 715.17 1544.2 712.178 1543.56C710.746 1543.25 710.024 1543.1 709.987 1543.2C709.949 1543.3 710.623 1543.66 711.981 1544.4L711.982 1544.4L711.983 1544.4L711.983 1544.4C714.2 1545.6 718.24 1547.79 723.993 1551.44C727.582 1553.71 730.469 1555.47 732.642 1556.79C736.016 1558.84 737.669 1559.84 737.553 1560.13C737.442 1560.4 735.701 1560.01 732.289 1559.25C728.794 1558.47 723.546 1557.29 716.499 1556.04C712.267 1555.29 708.917 1554.61 706.352 1554.09L706.352 1554.09C701.896 1553.19 699.806 1552.76 699.563 1553.25C699.348 1553.69 700.573 1554.83 702.88 1556.99C705.591 1559.53 709.794 1563.47 714.91 1569.28C714.91 1569.28 716.769 1570.94 719.22 1575.16C720.83 1577.93 714.968 1575.98 709.962 1574.32C707.349 1573.45 704.97 1572.67 704.007 1572.66C704.007 1572.66 674.22 1557.17 658.202 1549.42C650.009 1543.35 643.401 1538.94 638.862 1535.91L638.862 1535.91L638.861 1535.91C634.216 1532.8 631.74 1531.15 631.954 1530.65C632.198 1530.09 635.948 1531.03 643.98 1533.05L643.98 1533.05C646.747 1533.74 650.021 1534.56 653.835 1535.5C685.53 1543.25 691.369 1537.26 662.228 1522.59C631.39 1507.06 636.309 1504.26 665.691 1515.63C695.565 1527.19 699.142 1521.6 673.169 1504.32C645.668 1486.02 662.283 1489.05 695.995 1498.93C719.523 1505.83 716.495 1503.31 705.229 1493.94L705.228 1493.94C702.543 1491.7 699.389 1489.08 696.016 1486.1C667.609 1469.2 665.776 1463.23 699.896 1474.52C702.017 1475.22 704.012 1475.89 705.884 1476.51L705.979 1476.55L705.985 1476.55C731.897 1485.2 733.963 1485.88 713.605 1463.31L712.787 1462.4L711.709 1461.21C703.053 1451.62 698.573 1446.66 699.311 1445.69C700.103 1444.66 706.902 1448.23 720.994 1455.63L721.709 1456.01C736.152 1461.41 742.683 1465.12 752.035 1472C755.555 1475.97 759.381 1479.71 763.019 1483.11L763.344 1283.81C755.048 1283.14 739.393 1279.12 739.393 1279.12C739.393 1279.12 724.442 1276.01 747.241 1287.78C770.04 1299.54 743.016 1295.14 737.05 1294.08C731.084 1293.02 713.884 1292.61 737.032 1305.63C760.179 1318.66 757.019 1319.39 731.046 1316.54C721.637 1315.5 715.545 1314.2 712.553 1313.56C711.121 1313.25 710.399 1313.1 710.362 1313.2C710.324 1313.3 710.998 1313.66 712.356 1314.4L712.357 1314.4L712.359 1314.4L712.359 1314.4C714.576 1315.6 718.616 1317.79 724.368 1321.44C727.957 1323.71 730.844 1325.47 733.017 1326.79L733.018 1326.79L733.019 1326.79L733.021 1326.79L733.022 1326.79L733.025 1326.79C736.393 1328.84 738.044 1329.84 737.928 1330.13C737.817 1330.4 736.076 1330.01 732.664 1329.25C729.169 1328.47 723.921 1327.29 716.874 1326.04C712.641 1325.29 709.292 1324.61 706.727 1324.09C702.271 1323.19 700.181 1322.76 699.938 1323.25C699.723 1323.69 700.948 1324.84 703.255 1326.99C705.965 1329.53 710.169 1333.47 715.285 1339.28C715.285 1339.28 717.144 1340.94 719.595 1345.16C721.205 1347.93 715.343 1345.98 710.337 1344.32L710.336 1344.32C707.724 1343.45 705.345 1342.67 704.382 1342.66C704.382 1342.66 674.595 1327.17 658.577 1319.42C650.384 1313.35 643.776 1308.94 639.237 1305.91L639.237 1305.91L639.236 1305.91C634.591 1302.8 632.115 1301.15 632.329 1300.65C632.573 1300.09 636.323 1301.03 644.355 1303.05C647.122 1303.74 650.396 1304.56 654.21 1305.5C685.905 1313.25 691.744 1307.26 662.603 1292.59C631.765 1277.06 636.684 1274.26 666.066 1285.63C695.94 1297.19 699.517 1291.6 673.544 1274.32C646.043 1256.02 662.658 1259.05 696.37 1268.93C719.898 1275.83 716.87 1273.31 705.604 1263.94L705.603 1263.94C702.918 1261.7 699.764 1259.08 696.391 1256.1C667.984 1239.2 666.151 1233.23 700.271 1244.52C702.43 1245.24 704.459 1245.91 706.36 1246.55C732.272 1255.2 734.338 1255.89 713.98 1233.31C713.609 1232.9 713.244 1232.49 712.887 1232.1L712.083 1231.21C703.428 1221.62 698.948 1216.66 699.686 1215.69C700.478 1214.66 707.277 1218.23 721.37 1225.63L721.37 1225.64L722.084 1226.01C736.527 1231.41 743.058 1235.12 752.41 1242C755.93 1245.97 759.756 1249.71 763.394 1253.11L763.807 999.815C755.511 999.139 739.856 995.124 739.856 995.124C739.856 995.124 724.905 992.01 747.704 1003.78C770.503 1015.54 743.479 1011.14 737.513 1010.08C731.547 1009.02 714.347 1008.61 737.494 1021.63C760.642 1034.66 757.481 1035.39 731.509 1032.54C722.1 1031.5 716.009 1030.2 713.016 1029.56L713.015 1029.56C711.584 1029.25 710.862 1029.1 710.825 1029.2C710.787 1029.3 711.46 1029.66 712.819 1030.4L712.821 1030.4C715.037 1031.6 719.077 1033.79 724.831 1037.44C728.42 1039.72 731.307 1041.47 733.48 1042.79L733.481 1042.79L733.482 1042.79C736.855 1044.84 738.507 1045.84 738.391 1046.13C738.28 1046.4 736.539 1046.01 733.127 1045.25C729.632 1044.47 724.384 1043.29 717.337 1042.04C713.105 1041.29 709.756 1040.61 707.191 1040.09L707.19 1040.09L707.189 1040.09L707.186 1040.09C702.733 1039.19 700.644 1038.76 700.401 1039.26C700.186 1039.69 701.411 1040.84 703.718 1042.99L703.719 1043L703.719 1043C706.429 1045.53 710.632 1049.47 715.748 1055.29C715.748 1055.29 717.607 1056.94 720.058 1061.16C721.668 1063.93 715.806 1061.98 710.8 1060.32C708.187 1059.46 705.808 1058.67 704.845 1058.66C704.845 1058.66 675.058 1043.17 659.04 1035.42C650.848 1029.35 644.24 1024.94 639.701 1021.91L639.701 1021.91C635.055 1018.8 632.578 1017.15 632.792 1016.65C633.036 1016.09 636.786 1017.03 644.818 1019.05C647.585 1019.74 650.859 1020.57 654.673 1021.5C686.368 1029.25 692.207 1023.26 663.066 1008.59C632.228 993.057 637.147 990.257 666.528 1001.63C696.403 1013.19 699.98 1007.6 674.007 990.317C646.506 972.018 663.121 975.047 696.833 984.931C720.361 991.829 717.333 989.311 706.067 979.937L706.066 979.936L706.063 979.934C703.379 977.7 700.226 975.078 696.854 972.1C668.447 955.204 666.614 949.233 700.734 960.522C702.893 961.236 704.922 961.914 706.823 962.548C732.735 971.196 734.801 971.885 714.443 949.311L713.284 948.026L712.546 947.209C703.891 937.619 699.411 932.656 700.149 931.693C700.941 930.66 707.74 934.232 721.833 941.635L721.833 941.636L722.547 942.01C736.99 947.407 743.521 951.124 752.873 958.003C756.393 961.967 760.219 965.709 763.857 969.114L764.182 769.815C755.886 769.14 740.231 765.124 740.231 765.124C740.231 765.124 725.28 762.011 748.079 773.778C770.877 785.545 743.854 781.142 737.888 780.08C731.922 779.018 714.722 778.607 737.869 791.633C761.017 804.659 757.856 805.387 731.884 802.537C722.475 801.504 716.384 800.2 713.391 799.56L713.39 799.56C711.959 799.253 711.237 799.099 711.2 799.199C711.162 799.3 711.835 799.665 713.194 800.401L713.196 800.402C715.412 801.604 719.452 803.793 725.206 807.441C728.795 809.715 731.682 811.469 733.855 812.789L733.856 812.789L733.857 812.79C737.23 814.839 738.882 815.842 738.766 816.127C738.655 816.4 736.914 816.011 733.502 815.249C730.007 814.467 724.759 813.294 717.712 812.04C713.48 811.286 710.131 810.608 707.566 810.089L707.565 810.089L707.564 810.089L707.561 810.088C703.108 809.187 701.019 808.764 700.776 809.255C700.561 809.689 701.786 810.836 704.093 812.995L704.094 812.996L704.094 812.996C706.804 815.533 711.007 819.467 716.123 825.285C716.123 825.285 717.982 826.939 720.433 831.156C722.043 833.927 716.181 831.983 711.174 830.322C708.562 829.456 706.183 828.667 705.22 828.665C705.22 828.665 675.433 813.169 659.415 805.42C651.223 799.353 644.615 794.939 640.076 791.908L640.076 791.908C635.43 788.805 632.953 787.151 633.167 786.654C633.411 786.088 637.161 787.03 645.193 789.048C647.96 789.743 651.234 790.565 655.048 791.498C686.742 799.248 692.582 793.264 663.441 778.588C632.603 763.058 637.522 760.258 666.903 771.627C696.778 783.186 700.355 777.6 674.382 760.318C646.881 742.019 663.496 745.048 697.208 754.932C720.735 761.83 717.708 759.311 706.442 749.938L706.441 749.936L706.438 749.934C703.753 747.701 700.601 745.078 697.229 742.101C668.822 725.204 666.989 719.234 701.109 730.523C701.977 730.81 702.824 731.091 703.65 731.366C704.683 731.709 705.683 732.043 706.651 732.366L706.704 732.383L706.814 732.42L706.959 732.468L707.126 732.524L707.198 732.548C733.11 741.196 735.176 741.886 714.818 719.311C714.166 718.588 713.533 717.887 712.922 717.21C704.266 707.62 699.786 702.656 700.524 701.693C701.316 700.66 708.108 704.229 722.187 711.625L722.189 711.626L722.19 711.627L722.192 711.628L722.193 711.628L722.195 711.629L722.196 711.63L722.198 711.631L722.199 711.631L722.201 711.632L722.202 711.633L722.204 711.634L722.205 711.634L722.207 711.635L722.922 712.011C737.365 717.407 743.896 721.125 753.248 728.003C756.768 731.967 760.594 735.709 764.232 739.114L764.645 485.816C756.349 485.14 740.694 481.125 740.694 481.125C740.694 481.125 725.743 478.011 748.542 489.778C771.34 501.545 744.317 497.142 738.351 496.08C732.385 495.018 715.185 494.607 738.332 507.633C761.48 520.66 758.319 521.388 732.347 518.537C722.938 517.505 716.847 516.201 713.854 515.56L713.853 515.56L713.844 515.558C712.419 515.253 711.7 515.1 711.663 515.199C711.625 515.3 712.298 515.665 713.657 516.401L713.659 516.403C715.875 517.604 719.915 519.794 725.669 523.441C729.253 525.713 732.137 527.465 734.309 528.784L734.317 528.789C737.692 530.839 739.344 531.843 739.229 532.127C739.118 532.401 737.377 532.012 733.965 531.249C730.47 530.468 725.222 529.294 718.175 528.04C713.942 527.286 710.592 526.608 708.027 526.089C703.572 525.187 701.482 524.764 701.239 525.256C701.024 525.689 702.249 526.836 704.556 528.996L704.557 528.997C707.268 531.534 711.47 535.468 716.586 541.286C716.586 541.286 718.445 542.94 720.896 547.156C722.506 549.927 716.644 547.983 711.638 546.323L711.637 546.323L711.634 546.321C709.023 545.455 706.645 544.667 705.683 544.665C705.683 544.665 675.896 529.17 659.878 521.421C651.686 515.354 645.079 510.941 640.541 507.91L640.538 507.908C635.892 504.805 633.416 503.151 633.63 502.655C633.874 502.088 637.623 503.03 645.652 505.047L645.656 505.048C648.422 505.743 651.697 506.566 655.511 507.498C687.205 515.248 693.045 509.265 663.904 494.589C633.066 479.058 637.985 476.258 667.366 487.627C697.241 499.187 700.818 493.601 674.844 476.318C647.344 458.019 663.959 461.048 697.671 470.932C721.198 477.83 718.171 475.311 706.905 465.938C704.219 463.704 701.066 461.08 697.692 458.101C669.285 441.205 667.452 435.234 701.572 446.523C703.703 447.228 705.709 447.897 707.589 448.525L707.661 448.549C733.573 457.197 735.639 457.886 715.281 435.312L714.265 434.186L713.385 433.21C704.729 423.62 700.249 418.656 700.987 417.694C701.779 416.66 708.571 420.229 722.649 427.625L722.65 427.626L722.652 427.627L722.653 427.627L722.655 427.628L722.656 427.629L722.658 427.63L722.659 427.63L722.661 427.631L722.662 427.632L722.664 427.632L722.665 427.633L722.667 427.634L722.668 427.635L722.669 427.635L723.385 428.011C737.828 433.407 744.359 437.125 753.711 444.003C757.231 447.967 761.057 451.709 764.695 455.114L765.02 255.816C756.724 255.14 741.069 251.125 741.069 251.125C741.069 251.125 726.118 248.011 748.917 259.778C771.715 271.545 744.692 267.143 738.726 266.081C732.76 265.018 715.56 264.607 738.707 277.634C761.855 290.66 758.694 291.388 732.722 288.537C723.313 287.505 717.222 286.201 714.229 285.561L714.228 285.56C712.797 285.254 712.075 285.1 712.038 285.199C712 285.301 712.673 285.665 714.032 286.402L714.033 286.403C716.25 287.604 720.29 289.794 726.044 293.441C729.628 295.713 732.512 297.465 734.684 298.784L734.692 298.789C738.067 300.839 739.719 301.843 739.604 302.128C739.492 302.401 737.752 302.012 734.34 301.249C730.845 300.468 725.597 299.295 718.55 298.04C714.317 297.287 710.967 296.609 708.402 296.089C703.947 295.188 701.857 294.765 701.614 295.256C701.399 295.69 702.624 296.837 704.931 298.996L704.932 298.997C707.643 301.534 711.845 305.468 716.961 311.286C716.961 311.286 718.82 312.94 721.271 317.157C722.881 319.927 717.019 317.983 712.013 316.323L712.012 316.323L712.009 316.322C709.398 315.456 707.02 314.667 706.058 314.666C706.058 314.666 676.271 299.17 660.253 291.421C652.061 285.354 645.454 280.941 640.916 277.91L640.913 277.908C636.267 274.805 633.791 273.151 634.005 272.655C634.248 272.088 637.998 273.03 646.027 275.048L646.031 275.048C648.797 275.744 652.072 276.566 655.886 277.499C687.58 285.248 693.42 279.265 664.279 264.589C633.441 249.058 638.36 246.258 667.741 257.627C697.615 269.187 701.193 263.601 675.219 246.318C647.719 228.019 664.334 231.048 698.046 240.932C721.573 247.83 718.546 245.312 707.28 235.938C704.594 233.704 701.441 231.08 698.067 228.101C669.66 211.205 667.827 205.234 701.947 216.523C704.015 217.207 705.965 217.858 707.797 218.469L707.964 218.525L708.036 218.549C733.948 227.197 736.014 227.887 715.656 205.312C715.003 204.588 714.371 203.888 713.76 203.211C705.104 193.62 700.624 188.657 701.362 187.694C702.154 186.661 708.952 190.232 723.043 197.635L723.044 197.636L723.76 198.012C738.203 203.408 744.734 207.125 754.086 214.004C757.606 217.968 761.432 221.71 765.07 225.115L765.434 1.62228L752.147 1.60062C759.007 6.79418 752.227 6.62785 733.185 4.53785C723.775 3.50505 717.683 2.2013 714.691 1.5608L714.591 1.53939L712.93 1.53669C713.262 1.73388 713.785 2.01709 714.494 2.40179C716.711 3.60303 720.751 5.79322 726.507 9.44152C730.091 11.7132 732.975 13.4653 735.147 14.7846L735.155 14.7894C738.53 16.8392 740.182 17.8432 740.067 18.1281C739.955 18.4014 738.215 18.0124 734.803 17.2497C731.308 16.4684 726.06 15.2952 719.013 14.0406C714.78 13.287 711.43 12.6091 708.865 12.0898C704.41 11.188 702.32 10.7651 702.077 11.2563C701.862 11.6902 703.087 12.8369 705.394 14.9963L705.395 14.9974C708.106 17.5343 712.308 21.4688 717.424 27.2865C717.424 27.2865 719.283 28.9405 721.733 33.1572C723.344 35.9279 717.482 33.9838 712.476 32.3236L712.475 32.3232L712.472 32.3221C709.861 31.4562 707.483 30.6677 706.521 30.6662C706.521 30.6662 676.734 15.1703 660.716 7.42131C657.733 5.21197 654.96 3.22198 652.42 1.43805L536.147 1.24851C543.007 6.44207 536.227 6.27574 517.185 4.18574C507.79 3.15455 501.703 1.85313 498.705 1.21213L498.701 1.21139L498.697 1.21029L498.693 1.20918L498.692 1.20881L498.591 1.18729L496.93 1.18458C497.109 1.29095 497.344 1.42231 497.633 1.58111C497.88 1.71677 498.168 1.87251 498.495 2.04968C500.711 3.25093 504.752 5.44111 510.507 9.08941C514.091 11.3611 516.975 13.1131 519.148 14.4325L519.155 14.4373C522.53 16.4871 524.183 17.4911 524.067 17.776C523.956 18.0493 522.215 17.6603 518.803 16.8976C515.308 16.1163 510.06 14.9431 503.013 13.6885C498.78 12.9349 495.431 12.257 492.865 11.7377C488.41 10.8359 486.32 10.413 486.077 10.9042C485.862 11.3381 487.087 12.4848 489.394 14.6444C492.105 17.1813 496.308 21.116 501.424 26.9344C501.424 26.9344 503.283 28.5884 505.734 32.8051C507.344 35.5757 501.482 33.6317 496.476 31.9715L496.476 31.9711L496.472 31.97C493.861 31.1041 491.484 30.3156 490.521 30.3141C490.521 30.3141 460.734 14.8182 444.716 7.0692C441.733 4.85986 438.96 2.86987 436.42 1.08594L320.148 0.8964C327.007 6.08996 320.227 5.92364 301.185 3.83363C291.79 2.80245 285.703 1.50102 282.706 0.860023L282.702 0.859284L282.697 0.858178L282.693 0.857072L282.692 0.856704L282.591 0.835178L280.931 0.832471C281.261 1.02857 281.78 1.30981 282.483 1.69133L282.495 1.69757C284.711 2.89882 288.752 5.089 294.508 8.7373C298.079 11.0013 300.956 12.7493 303.126 14.0675L303.135 14.073L303.146 14.0793L303.149 14.0811L303.155 14.0851C306.53 16.135 308.183 17.139 308.067 17.4238C307.956 17.6972 306.215 17.3082 302.804 16.5455C299.309 15.7642 294.06 14.591 287.014 13.3364C282.78 12.5828 279.431 11.9049 276.865 11.3856C272.41 10.4838 270.321 10.0609 270.077 10.5521C269.863 10.986 271.088 12.1327 273.395 14.2923C276.105 16.8291 280.308 20.7639 285.424 26.5823C285.424 26.5823 287.284 28.2363 289.734 32.4529C291.344 35.2236 285.483 33.2796 280.477 31.6194L280.476 31.619L280.473 31.6179C277.862 30.7519 275.484 29.9635 274.521 29.962C274.521 29.962 244.735 14.4661 228.716 6.71709C225.733 4.50776 222.96 2.51776 220.421 0.733831L104.148 0.544291C111.008 5.73785 104.228 5.57153 85.1856 3.48152C75.7761 2.44873 69.6844 1.14497 66.6921 0.504595L66.5917 0.48307L64.9311 0.480362C65.2552 0.672908 65.7611 0.947414 66.4455 1.31865L66.4698 1.33187L66.4843 1.33958L66.4952 1.34546C68.7114 2.54671 72.7522 4.73689 78.5078 8.3852C82.0919 10.657 84.9763 12.4092 87.1483 13.7286L87.1557 13.733C90.5304 15.7829 92.1832 16.7869 92.0674 17.0717C91.9562 17.3451 90.2156 16.956 86.804 16.1934C83.3091 15.4121 78.0606 14.2388 71.0139 12.9843C66.7807 12.2307 63.4311 11.5528 60.8658 11.0334C56.4104 10.1316 54.321 9.70881 54.0777 10.2C53.8629 10.6338 55.088 11.7806 57.395 13.9401C60.1052 16.477 64.3086 20.4117 69.4247 26.2302C69.4247 26.2302 71.284 27.8842 73.7343 32.1008C75.3445 34.8717 69.4824 32.9273 64.4761 31.2669L64.473 31.2658C61.8619 30.3998 59.4842 29.6114 58.5216 29.6098C58.5216 29.6098 28.7349 14.114 12.7165 6.36498ZM765.042 241.933C744.272 238.248 744.786 238.708 764.378 250.18C764.602 250.311 764.819 250.44 765.028 250.565L765.042 241.933ZM2.9869 275.233C4.50922 275.612 6.1415 276.016 7.88676 276.442C39.5812 284.192 45.421 278.209 16.2799 263.533C10.7181 260.732 6.31948 258.345 3.01763 256.38L2.9869 275.233ZM764.204 755.933C743.434 752.248 743.949 752.708 763.54 764.179C763.764 764.31 763.981 764.439 764.19 764.565L764.204 755.933ZM7.51183 506.442C5.76657 506.015 4.13429 505.612 2.61197 505.233L2.6427 486.38C5.94455 488.344 10.3432 490.731 15.905 493.532C45.0461 508.209 39.2063 514.192 7.51183 506.442ZM764.653 480.565L764.667 471.933C743.897 468.248 744.412 468.708 764.003 480.18C764.227 480.311 764.444 480.439 764.653 480.565ZM2.14902 789.232C3.67133 789.611 5.30361 790.015 7.04887 790.442C38.7433 798.191 44.5832 792.208 15.442 777.532C9.88025 774.731 5.48159 772.344 2.17975 770.38L2.14902 789.232ZM763.366 1269.93C742.596 1266.25 743.111 1266.71 762.702 1278.18C762.926 1278.31 763.143 1278.44 763.352 1278.56L763.366 1269.93ZM6.67394 1020.44C4.92868 1020.01 3.2964 1019.61 1.77408 1019.23L1.80482 1000.38C5.10666 1002.34 9.50532 1004.73 15.0671 1007.53C44.2082 1022.21 38.3684 1028.19 6.67394 1020.44ZM763.815 994.564L763.829 985.932C743.059 982.247 743.574 982.708 763.165 994.179C763.389 994.31 763.606 994.439 763.815 994.564ZM1.31113 1303.23C2.83345 1303.61 4.46572 1304.01 6.21099 1304.44C37.9055 1312.19 43.7453 1306.21 14.6041 1291.53C9.04237 1288.73 4.6437 1286.34 1.34186 1284.38L1.31113 1303.23ZM5.83606 1534.44C4.09079 1534.01 2.45852 1533.61 0.936197 1533.23L0.966929 1514.38C4.26877 1516.34 8.66744 1518.73 14.2292 1521.53C43.3703 1536.21 37.5305 1542.19 5.83606 1534.44ZM762.992 1499.93C742.222 1496.25 742.736 1496.71 762.328 1508.18L762.467 1508.26C762.528 1508.3 762.589 1508.33 762.65 1508.37C762.761 1508.43 762.87 1508.5 762.977 1508.56L762.992 1499.93ZM422.863 1535.55C418.217 1532.45 415.741 1530.8 415.954 1530.3C416.198 1529.73 419.948 1530.68 427.981 1532.69L427.981 1532.69L427.984 1532.7C430.75 1533.39 434.023 1534.21 437.835 1535.14C469.53 1542.89 475.37 1536.91 446.229 1522.24C415.39 1506.7 420.31 1503.9 449.691 1515.27C479.565 1526.83 483.142 1521.25 457.169 1503.96C429.668 1485.67 446.283 1488.69 479.996 1498.58C503.523 1505.48 500.496 1502.96 489.23 1493.58C486.544 1491.35 483.39 1488.73 480.016 1485.75C451.61 1468.85 449.776 1462.88 483.897 1474.17C486.053 1474.88 488.08 1475.56 489.979 1476.19L489.986 1476.2C515.897 1484.84 517.963 1485.53 497.606 1462.96C496.953 1462.23 496.321 1461.53 495.71 1460.86C487.054 1451.27 482.574 1446.3 483.312 1445.34C484.104 1444.31 490.902 1447.88 504.994 1455.28L505.709 1455.66C520.152 1461.05 526.684 1464.77 536.035 1471.65C541.271 1477.55 547.184 1482.95 552.146 1487.49C563.456 1497.82 569.824 1503.64 551.956 1500.46L550.158 1500.14C526.217 1495.88 525.788 1495.8 546.328 1507.83C567.37 1520.15 523.018 1508.77 523.018 1508.77C523.018 1508.77 508.068 1505.66 530.866 1517.42C553.665 1529.19 526.642 1524.79 520.676 1523.73C514.71 1522.66 497.509 1522.25 520.657 1535.28C543.804 1548.31 540.644 1549.03 514.671 1546.18C505.262 1545.15 499.171 1543.85 496.178 1543.21C494.747 1542.9 494.024 1542.75 493.987 1542.85C493.95 1542.95 494.623 1543.31 495.982 1544.05C498.198 1545.25 502.239 1547.44 507.994 1551.09C511.582 1553.36 514.47 1555.12 516.643 1556.44C520.017 1558.49 521.669 1559.49 521.553 1559.77C521.442 1560.05 519.701 1559.66 516.29 1558.9C512.795 1558.11 507.546 1556.94 500.5 1555.69C496.267 1554.93 492.918 1554.26 490.353 1553.74L490.352 1553.74C485.896 1552.83 483.807 1552.41 483.564 1552.9C483.349 1553.34 484.574 1554.48 486.881 1556.64C489.591 1559.18 493.794 1563.11 498.91 1568.93C498.91 1568.93 500.77 1570.59 503.22 1574.8C504.83 1577.57 498.968 1575.63 493.962 1573.97C491.35 1573.1 488.97 1572.31 488.007 1572.31C488.007 1572.31 458.221 1556.82 442.202 1549.07C434.01 1543 427.401 1538.59 422.863 1535.55ZM199.954 1529.95C199.741 1530.45 202.217 1532.1 206.863 1535.2C211.401 1538.23 218.01 1542.65 226.203 1548.72C242.221 1556.46 272.008 1571.96 272.008 1571.96C272.971 1571.96 275.35 1572.75 277.962 1573.62C282.968 1575.28 288.831 1577.22 287.22 1574.45C284.77 1570.23 282.911 1568.58 282.911 1568.58C277.795 1562.76 273.591 1558.83 270.881 1556.29C268.574 1554.13 267.349 1552.98 267.564 1552.55C267.807 1552.06 269.896 1552.48 274.352 1553.38L274.353 1553.38C276.918 1553.9 280.268 1554.58 284.5 1555.33C291.546 1556.59 296.795 1557.76 300.29 1558.54C303.702 1559.31 305.442 1559.7 305.553 1559.42C305.669 1559.14 304.017 1558.13 300.643 1556.08L300.643 1556.08L300.642 1556.08C298.469 1554.76 295.582 1553.01 291.994 1550.74C286.239 1547.09 282.198 1544.9 279.982 1543.7C278.623 1542.96 277.95 1542.59 277.988 1542.49C278.025 1542.39 278.747 1542.55 280.179 1542.85C283.171 1543.5 289.263 1544.8 298.672 1545.83C324.644 1548.68 327.805 1547.95 304.657 1534.93C281.51 1521.9 298.71 1522.31 304.676 1523.37C310.642 1524.44 337.665 1528.84 314.867 1517.07C292.068 1505.31 307.019 1508.42 307.019 1508.42C307.019 1508.42 351.371 1519.79 330.328 1507.47C309.788 1495.45 310.217 1495.52 334.158 1499.79L335.957 1500.11C353.824 1503.29 347.457 1497.47 336.147 1487.13L336.146 1487.13L336.146 1487.13L336.145 1487.13C331.183 1482.6 325.271 1477.19 320.036 1471.3C310.684 1464.42 304.153 1460.7 289.71 1455.31L288.994 1454.93C274.902 1447.53 268.104 1443.95 267.312 1444.99C266.574 1445.95 271.054 1450.91 279.71 1460.51L280.671 1461.57L281.606 1462.61C301.964 1485.18 299.898 1484.49 273.986 1475.84C272.085 1475.21 270.056 1474.53 267.897 1473.82C233.777 1462.53 235.61 1468.5 264.017 1485.4C267.391 1488.37 270.544 1491 273.23 1493.23C284.496 1502.61 287.523 1505.12 263.996 1498.23C230.284 1488.34 213.668 1485.31 241.169 1503.61C267.143 1520.9 263.565 1526.48 233.691 1514.92C204.31 1503.55 199.391 1506.35 230.229 1521.88C259.37 1536.56 253.53 1542.54 221.836 1534.79C218.032 1533.86 214.765 1533.04 212.003 1532.35L211.986 1532.34L211.981 1532.34L211.981 1532.34C203.949 1530.32 200.198 1529.38 199.954 1529.95ZM207.238 1305.2L207.238 1305.2C202.592 1302.1 200.116 1300.45 200.329 1299.95C200.573 1299.38 204.324 1300.32 212.356 1302.34L212.366 1302.35C215.13 1303.04 218.401 1303.86 222.211 1304.79C253.905 1312.54 259.745 1306.56 230.604 1291.88C199.766 1276.35 204.685 1273.55 234.066 1284.92C263.94 1296.48 267.518 1290.9 241.544 1273.61C214.043 1255.31 230.659 1258.34 264.371 1268.23C287.898 1275.12 284.871 1272.61 273.605 1263.23C270.919 1261 267.765 1258.37 264.392 1255.4C235.985 1238.5 234.151 1232.53 268.272 1243.82C270.43 1244.53 272.46 1245.21 274.361 1245.84C300.273 1254.49 302.339 1255.18 281.981 1232.61C281.328 1231.88 280.696 1231.18 280.084 1230.5L280.084 1230.5L280.084 1230.5L280.083 1230.5L280.083 1230.5L280.082 1230.5L280.082 1230.5L280.082 1230.5L280.081 1230.5L280.081 1230.5L280.08 1230.5L280.079 1230.5L280.079 1230.5C271.427 1220.91 266.949 1215.95 267.687 1214.99C268.479 1213.96 275.278 1217.53 289.371 1224.93L290.085 1225.31C304.528 1230.7 311.059 1234.42 320.41 1241.3C325.646 1247.19 331.559 1252.6 336.521 1257.13L336.521 1257.13C347.832 1267.47 354.199 1273.29 336.332 1270.11L334.533 1269.79C310.592 1265.52 310.163 1265.45 330.703 1277.47C351.746 1289.8 307.394 1278.42 307.394 1278.42C307.394 1278.42 292.443 1275.31 315.242 1287.07C338.04 1298.84 311.017 1294.44 305.051 1293.37C299.085 1292.31 281.885 1291.9 305.032 1304.93C328.18 1317.95 325.019 1318.68 299.047 1315.83C289.638 1314.8 283.546 1313.5 280.554 1312.86L280.553 1312.85C279.122 1312.55 278.399 1312.39 278.363 1312.49C278.325 1312.59 278.998 1312.96 280.357 1313.7L280.357 1313.7C282.574 1314.9 286.614 1317.09 292.369 1320.74C295.958 1323.01 298.845 1324.76 301.018 1326.08C304.392 1328.13 306.044 1329.14 305.928 1329.42C305.817 1329.7 304.077 1329.31 300.665 1328.54C297.17 1327.76 291.921 1326.59 284.875 1325.33C280.642 1324.58 277.292 1323.9 274.727 1323.38C270.271 1322.48 268.182 1322.06 267.939 1322.55C267.724 1322.98 268.949 1324.13 271.256 1326.29C273.966 1328.83 278.17 1332.76 283.286 1338.58C283.286 1338.58 285.145 1340.23 287.595 1344.45C289.206 1347.22 283.343 1345.28 278.337 1343.62C275.725 1342.75 273.346 1341.96 272.383 1341.96C272.383 1341.96 242.596 1326.46 226.578 1318.72C218.385 1312.65 211.776 1308.23 207.238 1305.2ZM423.701 1021.56C419.055 1018.45 416.578 1016.8 416.792 1016.3C417.036 1015.74 420.786 1016.68 428.819 1018.7L428.835 1018.7L428.854 1018.7C431.613 1019.4 434.875 1020.22 438.673 1021.15C470.368 1028.9 476.208 1022.91 447.067 1008.24C416.228 992.705 421.148 989.905 450.529 1001.27C480.403 1012.83 483.98 1007.25 458.007 989.965C430.506 971.666 447.121 974.695 480.833 984.579C504.361 991.477 501.334 988.959 490.068 979.585L490.066 979.584L490.065 979.583L490.064 979.582L490.06 979.579C487.376 977.346 484.225 974.724 480.854 971.748C452.447 954.852 450.614 948.881 484.735 960.17C486.893 960.884 488.923 961.562 490.824 962.196C516.735 970.844 518.801 971.533 498.444 948.959L497.722 948.159L496.547 946.857L496.547 946.857L496.546 946.856L496.546 946.856L496.546 946.856L496.545 946.855L496.545 946.855L496.544 946.854L496.544 946.854L496.544 946.854L496.542 946.852L496.542 946.852L496.542 946.852C487.89 937.265 483.411 932.304 484.15 931.341C484.942 930.308 491.74 933.879 505.833 941.283L506.547 941.658C520.99 947.054 527.522 950.772 536.873 957.651C542.109 963.547 548.022 968.952 552.984 973.487C564.294 983.825 570.662 989.645 552.794 986.464L550.996 986.144C527.055 981.877 526.625 981.8 547.166 993.827C568.208 1006.15 523.856 994.772 523.856 994.772C523.856 994.772 508.906 991.658 531.704 1003.43C554.503 1015.19 527.48 1010.79 521.514 1009.73C515.548 1008.67 498.347 1008.25 521.495 1021.28C544.642 1034.31 541.482 1035.04 515.509 1032.18C506.1 1031.15 500.009 1029.85 497.016 1029.21L497.015 1029.21C495.584 1028.9 494.862 1028.75 494.825 1028.85C494.788 1028.95 495.461 1029.31 496.819 1030.05C499.036 1031.25 503.076 1033.44 508.831 1037.09C512.42 1039.36 515.308 1041.12 517.481 1042.44L517.481 1042.44L517.482 1042.44C520.855 1044.49 522.507 1045.49 522.391 1045.77C522.28 1046.05 520.539 1045.66 517.127 1044.9L517.126 1044.9C513.631 1044.11 508.383 1042.94 501.338 1041.69C497.105 1040.93 493.755 1040.26 491.19 1039.74C486.734 1038.83 484.645 1038.41 484.401 1038.9C484.187 1039.34 485.412 1040.48 487.719 1042.64C490.429 1045.18 494.632 1049.11 499.748 1054.93C499.748 1054.93 501.608 1056.59 504.058 1060.8C505.668 1063.57 499.806 1061.63 494.8 1059.97C492.188 1059.1 489.808 1058.31 488.845 1058.31C488.845 1058.31 459.059 1042.82 443.04 1035.07C434.848 1029 428.239 1024.59 423.701 1021.56ZM200.792 1015.95C200.579 1016.45 203.055 1018.1 207.701 1021.2L207.702 1021.2C212.24 1024.23 218.848 1028.65 227.04 1034.72C243.059 1042.46 272.846 1057.96 272.846 1057.96C273.809 1057.96 276.188 1058.75 278.8 1059.62C283.806 1061.28 289.668 1063.22 288.058 1060.45C285.608 1056.23 283.749 1054.58 283.749 1054.58C278.632 1048.76 274.429 1044.83 271.719 1042.29C269.412 1040.13 268.187 1038.98 268.402 1038.55C268.645 1038.06 270.734 1038.48 275.19 1039.38C277.755 1039.9 281.105 1040.58 285.338 1041.34C292.384 1042.59 297.633 1043.76 301.128 1044.54L301.128 1044.54L301.132 1044.55L301.136 1044.55L301.137 1044.55C304.543 1045.31 306.28 1045.7 306.391 1045.42C306.507 1045.14 304.856 1044.13 301.483 1042.09L301.483 1042.09L301.482 1042.09L301.481 1042.08L301.48 1042.08L301.48 1042.08L301.479 1042.08L301.47 1042.08L301.466 1042.08L301.464 1042.07C299.292 1040.76 296.411 1039 292.832 1036.74C287.076 1033.09 283.036 1030.9 280.82 1029.7C279.461 1028.96 278.788 1028.6 278.826 1028.49C278.862 1028.39 279.585 1028.55 281.017 1028.86C284.009 1029.5 290.101 1030.8 299.51 1031.83C325.482 1034.68 328.643 1033.95 305.495 1020.93C282.347 1007.9 299.548 1008.31 305.514 1009.38C311.48 1010.44 338.503 1014.84 315.704 1003.07C292.906 991.306 307.857 994.42 307.857 994.42C307.857 994.42 352.208 1005.8 331.166 993.475C310.626 981.448 311.055 981.524 334.996 985.792L336.795 986.112C354.662 989.293 348.295 983.473 336.984 973.135C332.022 968.6 326.109 963.195 320.873 957.299C311.522 950.42 304.99 946.702 290.548 941.306L289.834 940.931C275.741 933.527 268.942 929.956 268.15 930.989C267.412 931.952 271.89 936.913 280.542 946.499L280.542 946.5L280.543 946.5L280.544 946.502L280.544 946.502L280.545 946.502L280.545 946.503L280.545 946.503L280.546 946.503L280.546 946.504L280.547 946.504L280.547 946.505L280.547 946.505C281.159 947.182 281.791 947.883 282.444 948.607C302.801 971.181 300.736 970.492 274.824 961.844C272.923 961.21 270.893 960.532 268.735 959.818C234.614 948.529 236.448 954.5 264.855 971.396C268.225 974.372 271.376 976.994 274.06 979.227L274.064 979.23L274.065 979.231L274.067 979.232L274.068 979.233C285.334 988.607 288.361 991.125 264.834 984.227C231.121 974.343 214.506 971.314 242.007 989.613C267.98 1006.9 264.403 1012.48 234.529 1000.92C205.148 989.553 200.229 992.353 231.067 1007.88C260.208 1022.56 254.368 1028.54 222.674 1020.79C218.868 1019.86 215.599 1019.04 212.837 1018.35L212.819 1018.34C204.787 1016.33 201.036 1015.38 200.792 1015.95ZM423.237 1305.55L423.238 1305.55C427.776 1308.59 434.384 1313 442.577 1319.07C458.596 1326.82 488.382 1342.31 488.382 1342.31C489.345 1342.31 491.725 1343.1 494.337 1343.97C499.343 1345.63 505.205 1347.57 503.595 1344.8C501.145 1340.59 499.285 1338.93 499.285 1338.93C494.169 1333.11 489.966 1329.18 487.256 1326.64C484.949 1324.48 483.724 1323.34 483.938 1322.9C484.182 1322.41 486.271 1322.83 490.727 1323.74C493.292 1324.26 496.641 1324.93 500.875 1325.69C507.921 1326.94 513.17 1328.11 516.665 1328.9C520.076 1329.66 521.817 1330.05 521.928 1329.77C522.044 1329.49 520.394 1328.49 517.025 1326.44L517.022 1326.44L517.021 1326.44L517.019 1326.44L517.018 1326.44L517.018 1326.44C514.845 1325.12 511.957 1323.36 508.369 1321.09C502.613 1317.44 498.573 1315.25 496.356 1314.05C494.998 1313.31 494.325 1312.95 494.362 1312.85C494.399 1312.75 495.122 1312.9 496.553 1313.21C499.546 1313.85 505.637 1315.15 515.046 1316.18C541.019 1319.03 544.179 1318.31 521.032 1305.28C497.884 1292.25 515.085 1292.66 521.051 1293.73C527.017 1294.79 554.04 1299.19 531.241 1287.42C508.443 1275.66 523.393 1278.77 523.393 1278.77C523.393 1278.77 567.745 1290.15 546.703 1277.83C526.163 1265.8 526.592 1265.88 550.533 1270.14L552.331 1270.46C570.199 1273.64 563.831 1267.82 552.521 1257.49C547.559 1252.95 541.646 1247.55 536.41 1241.65C527.059 1234.77 520.527 1231.05 506.084 1225.66L505.37 1225.28C491.278 1217.88 484.479 1214.31 483.687 1215.34C482.948 1216.3 487.427 1221.26 496.079 1230.85L496.079 1230.85L496.079 1230.85L496.081 1230.85L496.081 1230.85L496.081 1230.85L496.082 1230.85L496.082 1230.85L496.083 1230.86L496.083 1230.86L496.083 1230.86L496.084 1230.86L496.084 1230.86L496.663 1231.5C497.093 1231.97 497.532 1232.46 497.981 1232.96C518.338 1255.53 516.272 1254.84 490.361 1246.2C488.46 1245.56 486.43 1244.88 484.272 1244.17C450.151 1232.88 451.984 1238.85 480.391 1255.75C483.765 1258.73 486.919 1261.35 489.604 1263.58C500.871 1272.96 503.898 1275.48 480.37 1268.58C446.658 1258.69 430.043 1255.67 457.544 1273.96C483.517 1291.25 479.94 1296.83 450.066 1285.27C420.685 1273.9 415.765 1276.7 446.604 1292.24C475.745 1306.91 469.905 1312.89 438.21 1305.15C434.397 1304.21 431.122 1303.39 428.356 1302.7C420.323 1300.68 416.573 1299.73 416.329 1300.3C416.115 1300.8 418.592 1302.45 423.237 1305.55ZM208.076 791.204C203.43 788.101 200.954 786.447 201.167 785.95C201.411 785.383 205.162 786.326 213.194 788.344L213.212 788.348C215.974 789.042 219.243 789.863 223.049 790.794C254.743 798.543 260.583 792.56 231.442 777.884C200.604 762.353 205.523 759.553 234.904 770.922C264.778 782.482 268.355 776.896 242.382 759.613C214.881 741.314 231.496 744.343 265.209 754.228C288.736 761.126 285.709 758.607 274.443 749.233L274.441 749.232L274.44 749.231L274.439 749.231L274.435 749.227C271.751 746.994 268.6 744.372 265.23 741.396C236.823 724.5 234.989 718.529 269.11 729.818C271.237 730.522 273.24 731.19 275.117 731.817L275.199 731.844C301.111 740.492 303.176 741.182 282.819 718.607L281.697 717.364L280.923 716.506C272.267 706.916 267.787 701.952 268.525 700.989C269.317 699.956 276.111 703.526 290.195 710.924L290.197 710.925L290.2 710.927L290.204 710.929L290.207 710.931L290.922 711.307C305.365 716.703 311.897 720.42 321.248 727.299C326.482 733.193 332.394 738.597 337.355 743.131L337.357 743.134L337.358 743.135L337.359 743.135C348.67 753.473 355.037 759.293 337.17 756.112L335.371 755.792C311.43 751.525 311.001 751.448 331.541 763.475C352.583 775.796 308.231 764.42 308.231 764.42C308.231 764.42 293.281 761.306 316.079 773.073C338.878 784.841 311.855 780.438 305.889 779.376C299.923 778.314 282.722 777.903 305.87 790.929C329.018 803.955 325.857 804.683 299.885 801.833C290.476 800.8 284.384 799.496 281.392 798.856C279.96 798.549 279.237 798.395 279.2 798.494C279.163 798.596 279.836 798.96 281.194 799.697C283.411 800.898 287.451 803.088 293.207 806.736C296.786 809.005 299.667 810.755 301.838 812.074L301.841 812.076L301.845 812.079L301.854 812.084L301.855 812.084L301.855 812.085L301.856 812.085L301.857 812.085L301.858 812.086L301.858 812.086C305.23 814.135 306.882 815.138 306.766 815.423C306.655 815.696 304.918 815.308 301.512 814.547L301.51 814.546L301.507 814.546L301.503 814.545L301.503 814.544C298.008 813.763 292.759 812.59 285.713 811.335C281.48 810.582 278.13 809.904 275.565 809.385C271.109 808.483 269.02 808.06 268.777 808.551C268.562 808.985 269.787 810.132 272.094 812.291C274.804 814.828 279.007 818.763 284.124 824.581C284.124 824.581 285.983 826.235 288.433 830.452C290.043 833.223 284.181 831.278 279.175 829.618C276.563 828.752 274.183 827.962 273.221 827.961C273.221 827.961 243.434 812.465 227.415 804.716C219.223 798.649 212.615 794.235 208.077 791.204L208.076 791.204ZM424.538 507.556C419.893 504.453 417.416 502.799 417.63 502.303C417.874 501.736 421.618 502.677 429.636 504.691L429.644 504.693L429.645 504.693L429.647 504.694L429.655 504.696L429.656 504.696C432.423 505.391 435.697 506.214 439.511 507.146C471.206 514.896 477.046 508.913 447.904 494.237C417.066 478.706 421.985 475.906 451.367 487.275C481.241 498.834 484.818 493.249 458.845 475.966C431.344 457.667 447.959 460.696 481.671 470.58C505.199 477.478 502.171 474.959 490.905 465.586C488.22 463.352 485.066 460.728 481.692 457.749C453.285 440.853 451.452 434.882 485.573 446.171C487.731 446.885 489.761 447.562 491.662 448.197C517.573 456.845 519.639 457.534 499.282 434.96L498.134 433.687L497.386 432.859C488.729 423.268 484.249 418.304 484.988 417.341C485.779 416.309 492.574 419.878 506.657 427.276L506.66 427.278L506.663 427.28L506.666 427.281L506.67 427.283L507.385 427.659C521.828 433.055 528.359 436.773 537.711 443.651C542.947 449.547 548.86 454.952 553.822 459.488C565.132 469.826 571.5 475.646 553.632 472.465L551.834 472.145L551.834 472.145C527.893 467.877 527.463 467.801 548.004 479.828C569.046 492.148 524.694 480.773 524.694 480.773C524.694 480.773 509.743 477.659 532.542 489.426C555.341 501.193 528.317 496.79 522.351 495.728C516.386 494.666 499.185 494.255 522.333 507.281C545.48 520.308 542.32 521.036 516.347 518.185C506.939 517.152 500.847 515.849 497.855 515.208L497.854 515.208L497.845 515.206L497.84 515.205C496.418 514.901 495.7 514.748 495.663 514.847C495.626 514.948 496.299 515.313 497.657 516.049C499.874 517.251 503.914 519.441 509.669 523.089C513.253 525.36 516.138 527.112 518.31 528.432L518.317 528.437C521.692 530.486 523.345 531.49 523.229 531.775C523.118 532.049 521.377 531.66 517.966 530.897C514.471 530.116 509.222 528.942 502.175 527.688C497.942 526.934 494.593 526.256 492.027 525.737C487.572 524.835 485.483 524.412 485.239 524.904C485.024 525.337 486.25 526.484 488.557 528.644C491.267 531.181 495.47 535.115 500.586 540.934C500.586 540.934 502.446 542.588 504.896 546.804C506.506 549.575 500.645 547.631 495.639 545.971L495.638 545.97L495.635 545.969C493.023 545.103 490.646 544.315 489.683 544.313C489.683 544.313 459.896 528.818 443.878 521.069C435.687 515.002 429.08 510.589 424.542 507.558L424.538 507.556ZM201.63 501.951C201.417 502.447 203.893 504.101 208.538 507.204L208.543 507.206L208.547 507.209L208.552 507.213C213.09 510.244 219.694 514.655 227.878 520.716C243.897 528.465 273.683 543.961 273.683 543.961C274.646 543.963 277.024 544.751 279.635 545.617L279.638 545.618L279.639 545.619C284.645 547.279 290.506 549.223 288.896 546.452C286.446 542.236 284.586 540.582 284.586 540.582C279.47 534.763 275.267 530.828 272.557 528.292C270.25 526.132 269.025 524.985 269.24 524.551C269.483 524.06 271.572 524.483 276.028 525.385C278.593 525.904 281.943 526.582 286.176 527.336C293.222 528.59 298.471 529.764 301.966 530.545C305.377 531.307 307.118 531.697 307.229 531.423C307.345 531.138 305.692 530.134 302.317 528.084L302.311 528.08L302.308 528.079L302.297 528.072L302.288 528.067C300.118 526.749 297.241 525.001 293.67 522.737C287.914 519.089 283.874 516.899 281.657 515.697C280.299 514.961 279.626 514.596 279.663 514.495C279.7 514.395 280.418 514.549 281.84 514.853L281.846 514.854L281.854 514.856L281.855 514.856C284.848 515.497 290.939 516.8 300.347 517.833C326.32 520.684 329.481 519.956 306.333 506.929C283.185 493.903 300.386 494.314 306.352 495.376C312.318 496.438 339.341 500.841 316.542 489.074C293.744 477.307 308.694 480.42 308.694 480.42C308.694 480.42 353.046 491.796 332.004 479.475C311.464 467.449 311.893 467.525 335.834 471.792L335.835 471.792L337.633 472.113C355.5 475.294 349.133 469.474 337.822 459.136C332.86 454.6 326.947 449.195 321.711 443.299C312.36 436.421 305.828 432.703 291.385 427.307L290.67 426.931L290.667 426.929L290.663 426.927L290.66 426.926L290.657 426.924C276.574 419.526 269.78 415.957 268.988 416.989C268.25 417.952 272.73 422.916 281.386 432.506L282.418 433.65L283.282 434.608C303.639 457.182 301.574 456.492 275.662 447.845L275.58 447.817C273.703 447.191 271.7 446.523 269.573 445.819C235.452 434.53 237.286 440.5 265.693 457.397C269.066 460.376 272.22 462.999 274.906 465.234C286.172 474.607 289.199 477.126 265.672 470.228C231.959 460.344 215.344 457.315 242.845 475.614C268.818 492.896 265.241 498.482 235.367 486.923C205.986 475.554 201.067 478.354 231.905 493.885C261.046 508.561 255.206 514.544 223.512 506.794C219.698 505.862 216.423 505.039 213.657 504.344L213.653 504.343C205.623 502.326 201.874 501.384 201.63 501.951ZM417.167 786.302C416.953 786.799 419.43 788.453 424.076 791.556C428.614 794.587 435.222 799.001 443.415 805.068C459.433 812.817 489.22 828.313 489.22 828.313C490.183 828.315 492.562 829.104 495.175 829.97C500.181 831.631 506.043 833.575 504.433 830.804C501.983 826.587 500.123 824.933 500.123 824.933C495.007 819.115 490.804 815.18 488.094 812.643C485.787 810.484 484.562 809.337 484.776 808.903C485.02 808.412 487.109 808.835 491.565 809.737C494.13 810.256 497.48 810.934 501.713 811.688C508.758 812.942 514.006 814.115 517.501 814.896L517.502 814.896C520.914 815.659 522.655 816.048 522.766 815.775C522.882 815.49 521.23 814.487 517.857 812.438L517.856 812.437L517.856 812.437C515.682 811.117 512.795 809.363 509.206 807.088C503.451 803.44 499.41 801.25 497.194 800.049C495.836 799.313 495.163 798.948 495.2 798.846C495.237 798.747 495.959 798.901 497.39 799.208L497.391 799.208C500.384 799.848 506.475 801.152 515.884 802.185C541.857 805.035 545.017 804.307 521.87 791.281C498.722 778.255 515.923 778.666 521.889 779.728C527.855 780.79 554.878 785.193 532.079 773.426C509.281 761.658 524.231 764.772 524.231 764.772C524.231 764.772 568.583 776.148 547.541 763.827C527 751.8 527.43 751.877 551.371 756.144L553.169 756.464C571.037 759.646 564.669 753.825 553.359 743.487L553.359 743.487L553.357 743.486L553.357 743.485L553.355 743.484L553.355 743.484L553.351 743.48L553.349 743.478C548.389 738.944 542.48 733.543 537.248 727.651C527.897 720.773 521.365 717.055 506.922 711.659L506.207 711.283L506.203 711.281L506.2 711.279L506.197 711.277L506.194 711.276C492.111 703.878 485.316 700.308 484.525 701.341C483.786 702.304 488.266 707.268 496.923 716.858L497.826 717.859L498.819 718.959C519.176 741.534 517.11 740.844 491.199 732.196L491.108 732.166C489.233 731.54 487.234 730.873 485.11 730.17C450.989 718.881 452.822 724.852 481.229 741.749C484.6 744.725 487.751 747.346 490.435 749.579L490.439 749.583L490.44 749.584L490.441 749.584L490.442 749.586C501.708 758.959 504.736 761.478 481.208 754.58C447.496 744.696 430.881 741.666 458.382 759.965C484.355 777.248 480.778 782.834 450.904 771.274C421.522 759.905 416.603 762.706 447.441 778.236C476.583 792.912 470.743 798.895 439.048 791.146C435.242 790.215 431.973 789.394 429.21 788.7L429.193 788.696C421.161 786.678 417.411 785.736 417.167 786.302ZM208.913 277.204C204.268 274.101 201.792 272.447 202.005 271.951C202.249 271.384 205.998 272.326 214.028 274.344L214.032 274.344C216.798 275.039 220.072 275.862 223.886 276.795C255.581 284.544 261.421 278.561 232.28 263.885C201.441 248.354 206.361 245.554 235.742 256.923C265.616 268.483 269.193 262.897 243.22 245.614C215.719 227.315 232.334 230.344 266.047 240.228C289.574 247.126 286.547 244.607 275.281 235.234C272.595 233 269.441 230.376 266.067 227.397C237.661 210.501 235.827 204.53 269.948 215.819C272.106 216.533 274.136 217.21 276.037 217.845C301.948 226.493 304.014 227.182 283.657 204.608C283.004 203.884 282.372 203.184 281.761 202.507C273.105 192.916 268.625 187.953 269.363 186.99C270.155 185.957 276.949 189.526 291.032 196.924L291.035 196.926L291.038 196.928L291.042 196.93L291.045 196.931L291.76 197.307C306.203 202.703 312.735 206.421 322.086 213.3C327.322 219.195 333.235 224.601 338.197 229.136C349.507 239.474 355.875 245.294 338.007 242.113L336.21 241.793L336.209 241.793C312.268 237.525 311.839 237.449 332.379 249.476C353.421 261.796 309.069 250.421 309.069 250.421C309.069 250.421 294.119 247.307 316.917 259.074C339.716 270.841 312.693 266.438 306.727 265.376C300.761 264.314 283.56 263.903 306.708 276.93C329.855 289.956 326.695 290.684 300.722 287.833C291.314 286.801 285.223 285.497 282.23 284.856L282.229 284.856L282.221 284.854L282.215 284.853C280.793 284.549 280.075 284.396 280.038 284.495C280.001 284.596 280.674 284.961 282.032 285.698C284.249 286.899 288.289 289.089 294.045 292.737C297.616 295.001 300.493 296.749 302.663 298.067L302.672 298.073L302.683 298.079L302.686 298.081L302.692 298.085C306.067 300.135 307.72 301.139 307.604 301.423C307.493 301.697 305.752 301.308 302.341 300.545C298.846 299.764 293.597 298.591 286.551 297.336C282.317 296.582 278.968 295.904 276.403 295.385C271.947 294.483 269.858 294.061 269.614 294.552C269.4 294.986 270.625 296.132 272.932 298.292C275.642 300.829 279.845 304.763 284.961 310.582C284.961 310.582 286.821 312.236 289.271 316.453C290.881 319.223 285.02 317.279 280.014 315.619L280.013 315.619L280.01 315.618C277.399 314.752 275.021 313.963 274.058 313.962C274.058 313.962 244.272 298.466 228.253 290.717C220.069 284.655 213.465 280.244 208.927 277.213L208.922 277.21L208.918 277.207L208.913 277.204ZM418.005 272.303C417.791 272.799 420.268 274.453 424.913 277.556L424.917 277.558C429.455 280.589 436.062 285.002 444.253 291.069C460.271 298.818 490.058 314.314 490.058 314.314C491.021 314.315 493.398 315.104 496.009 315.97L496.013 315.971L496.014 315.971C501.02 317.631 506.881 319.575 505.271 316.805C502.82 312.588 500.961 310.934 500.961 310.934C495.845 305.116 491.642 301.181 488.931 298.644C486.624 296.484 485.399 295.338 485.614 294.904C485.857 294.413 487.947 294.835 492.402 295.737C494.968 296.257 498.317 296.935 502.55 297.688C509.597 298.943 514.846 300.116 518.34 300.897C521.752 301.66 523.493 302.049 523.604 301.776C523.72 301.491 522.067 300.487 518.692 298.437L518.685 298.432C516.513 297.113 513.628 295.361 510.044 293.089C504.289 289.441 500.248 287.251 498.032 286.05C496.674 285.313 496 284.948 496.038 284.847C496.075 284.748 496.792 284.901 498.215 285.205L498.22 285.206L498.228 285.208L498.23 285.209C501.222 285.849 507.314 287.153 516.722 288.185C542.695 291.036 545.855 290.308 522.708 277.282C499.56 264.255 516.76 264.666 522.726 265.728C528.692 266.791 555.716 271.193 532.917 259.426C510.118 247.659 525.069 250.773 525.069 250.773C525.069 250.773 569.421 262.149 548.379 249.828C527.838 237.801 528.267 237.878 552.208 242.145L552.209 242.145L554.007 242.465C571.875 245.646 565.507 239.826 554.197 229.488C549.235 224.953 543.322 219.548 538.086 213.652C528.734 206.773 522.203 203.056 507.76 197.659L507.044 197.283L507.041 197.282L507.038 197.28L507.035 197.278C492.95 189.879 486.154 186.309 485.362 187.342C484.624 188.305 489.104 193.268 497.76 202.859L498.875 204.094L499.656 204.96C520.014 227.534 517.948 226.845 492.037 218.197L491.984 218.18C491.036 217.863 490.056 217.536 489.044 217.199C488.043 216.866 487.011 216.523 485.948 216.171C451.827 204.882 453.66 210.853 482.067 227.749C485.441 230.728 488.595 233.352 491.28 235.586C502.546 244.96 505.574 247.478 482.046 240.58C448.334 230.696 431.719 227.667 459.22 245.966C485.193 263.249 481.616 268.835 451.742 257.275C422.36 245.906 417.441 248.706 448.279 264.237C477.42 278.913 471.581 284.896 439.886 277.147C436.072 276.214 432.798 275.392 430.031 274.696L430.03 274.696L430.022 274.694L430.02 274.694C421.996 272.678 418.249 271.736 418.005 272.303Z" fill="white"/>
</svg>
