<svg width="1760" height="762" viewBox="0 0 1760 762" fill="none" xmlns="http://www.w3.org/2000/svg">
<path fill-rule="evenodd" clip-rule="evenodd" d="M1754.03 9.29132C1756.23 6.30463 1758.22 3.52836 1760 0.985914V0H1509.55C1508.44 4.07475 1506.54 9.70101 1503.84 16.7248C1492.33 46.6177 1497.92 50.1859 1515.16 24.1845C1533.41 -3.3462 1530.41 13.2739 1520.58 47.0022C1513.72 70.5408 1516.23 67.5094 1525.59 56.2282L1525.59 56.2237L1525.6 56.2156L1525.61 56.2001C1527.84 53.5169 1530.45 50.3691 1533.41 47.0022C1550.26 18.5678 1556.23 16.7248 1545 50.8637C1544.3 52.9911 1543.63 54.9933 1543.01 56.8708L1542.98 56.9561C1534.37 82.8817 1533.69 84.9486 1556.23 64.5543C1556.95 63.9005 1557.65 63.2672 1558.33 62.6547L1558.33 62.6536L1558.33 62.6505L1558.33 62.6488L1558.34 62.6475C1567.91 53.9806 1572.86 49.4952 1573.82 50.2317C1574.86 51.0218 1571.3 57.823 1563.92 71.9202L1563.92 71.9233L1563.92 71.9265L1563.92 71.9298L1563.54 72.6461C1558.17 87.0978 1554.46 93.6352 1547.6 102.998C1541.71 108.243 1536.32 114.165 1531.79 119.135C1521.47 130.462 1515.66 136.839 1518.81 118.966L1519.13 117.168V117.167C1523.36 93.2189 1523.43 92.7898 1511.44 113.35C1499.15 134.412 1510.46 90.0416 1510.46 90.0416C1510.46 90.0416 1513.55 75.0859 1501.82 97.9036C1490.09 120.721 1494.45 93.6911 1495.5 87.7233C1496.55 81.7556 1496.93 64.5546 1483.95 87.7233C1470.96 110.892 1470.22 107.733 1473.03 81.7556C1474.05 72.3455 1475.34 66.252 1475.98 63.2583L1475.98 63.2572L1475.98 63.2489L1475.98 63.2433C1476.28 61.8207 1476.44 61.1028 1476.34 61.0662C1476.23 61.0288 1475.87 61.7025 1475.14 63.0622L1475.14 63.0642C1473.94 65.2829 1471.75 69.3264 1468.12 75.0858C1465.85 78.6736 1464.1 81.5608 1462.79 83.735L1462.78 83.7425C1460.74 87.1204 1459.74 88.7749 1459.45 88.6596C1459.18 88.5488 1459.57 86.8075 1460.32 83.3947C1461.1 79.8985 1462.26 74.6481 1463.51 67.5994C1464.25 63.365 1464.93 60.0143 1465.44 57.4481C1466.33 52.9913 1466.75 50.9011 1466.26 50.6587C1465.83 50.4446 1464.68 51.6716 1462.53 53.9821C1460 56.6964 1456.07 60.9062 1450.26 66.0318C1450.26 66.0318 1448.61 67.8938 1444.39 70.351C1441.63 71.9657 1443.56 66.1004 1445.21 61.0914L1445.21 61.0883C1446.08 58.4758 1446.86 56.0968 1446.86 55.1343C1446.86 55.1343 1462.31 25.3223 1470.03 9.29132C1472.52 5.91385 1474.74 2.80545 1476.69 0H1279.55C1278.44 4.07475 1276.54 9.70101 1273.84 16.7248C1262.33 46.6177 1267.92 50.1859 1285.16 24.1845C1303.41 -3.3462 1300.41 13.2739 1290.58 47.0022C1283.72 70.5408 1286.23 67.5094 1295.59 56.2282L1295.59 56.2237L1295.6 56.2156L1295.61 56.2001C1297.84 53.5169 1300.45 50.3691 1303.41 47.0022C1320.26 18.5678 1326.23 16.7248 1315 50.8637C1314.3 52.9911 1313.63 54.9933 1313.01 56.8708L1312.98 56.9561C1304.37 82.8817 1303.69 84.9486 1326.23 64.5543L1326.99 63.8656L1328.33 62.6547L1328.33 62.6536L1328.33 62.6505L1328.33 62.6488L1328.34 62.6475C1337.91 53.9806 1342.86 49.4952 1343.82 50.2317C1344.86 51.0218 1341.3 57.823 1333.92 71.9202L1333.92 71.9233L1333.92 71.9265L1333.92 71.9298L1333.54 72.6461C1328.17 87.0978 1324.46 93.6352 1317.6 102.998C1311.71 108.243 1306.32 114.165 1301.79 119.135C1291.47 130.462 1285.66 136.839 1288.81 118.966L1289.13 117.168V117.167C1293.36 93.2189 1293.43 92.7898 1281.44 113.35C1269.15 134.412 1280.46 90.0416 1280.46 90.0416C1280.46 90.0416 1283.55 75.0859 1271.82 97.9036C1260.09 120.721 1264.45 93.6911 1265.5 87.7233C1266.55 81.7556 1266.93 64.5546 1253.95 87.7233C1240.96 110.892 1240.22 107.733 1243.03 81.7556C1244.05 72.3455 1245.34 66.252 1245.98 63.2583L1245.98 63.2572L1245.98 63.2489L1245.98 63.2433C1246.28 61.8207 1246.44 61.1028 1246.34 61.0662C1246.23 61.0288 1245.87 61.7025 1245.14 63.0622L1245.14 63.0642C1243.94 65.2829 1241.75 69.3264 1238.12 75.0858C1235.85 78.6736 1234.1 81.5608 1232.79 83.735L1232.78 83.7425C1230.74 87.1204 1229.74 88.7749 1229.45 88.6596C1229.18 88.5488 1229.57 86.8075 1230.32 83.3947C1231.1 79.8985 1232.26 74.6481 1233.51 67.5994C1234.25 63.365 1234.93 60.0143 1235.44 57.4481C1236.33 52.9913 1236.75 50.9011 1236.26 50.6587C1235.83 50.4446 1234.68 51.6716 1232.53 53.9821C1230 56.6964 1226.07 60.9062 1220.26 66.0318C1220.26 66.0318 1218.61 67.8938 1214.39 70.351C1211.63 71.9657 1213.56 66.1004 1215.21 61.0914L1215.21 61.0883C1216.08 58.4758 1216.86 56.0968 1216.86 55.1343C1216.86 55.1343 1232.31 25.3223 1240.03 9.29132C1242.52 5.91385 1244.74 2.80545 1246.69 0H995.551C994.439 4.07475 992.541 9.70101 989.836 16.7248C978.325 46.6177 983.917 50.1859 1001.16 24.1845C1019.41 -3.3462 1016.41 13.2739 1006.58 47.0022C999.721 70.5408 1002.23 67.5094 1011.59 56.2282L1011.59 56.2273C1013.82 53.5383 1016.44 50.3805 1019.41 47.0022C1036.26 18.5678 1042.23 16.7248 1031 50.8637C1030.3 52.9911 1029.63 54.9933 1029.01 56.8708L1028.98 56.9561C1020.37 82.8817 1019.69 84.9486 1042.23 64.5543C1042.86 63.9812 1043.48 63.4238 1044.08 62.8824L1044.33 62.6547L1044.33 62.6536L1044.33 62.6505L1044.33 62.6488L1044.34 62.6475C1053.91 53.9806 1058.86 49.4952 1059.82 50.2317C1060.86 51.0218 1057.3 57.823 1049.92 71.9202L1049.92 71.9233L1049.92 71.9265L1049.92 71.9298L1049.54 72.6461C1044.17 87.0978 1040.46 93.6352 1033.6 102.998C1027.71 108.242 1022.32 114.164 1017.79 119.133L1017.79 119.134L1017.79 119.135C1007.47 130.462 1001.66 136.839 1004.81 118.966L1005.13 117.167C1009.36 93.2189 1009.43 92.7897 997.441 113.35C985.154 134.412 996.458 90.0416 996.458 90.0416C996.458 90.0416 999.547 75.0859 987.817 97.9036C976.087 120.721 980.446 93.6911 981.499 87.7233C982.551 81.7556 982.934 64.5546 969.945 87.7233C956.957 110.892 956.224 107.733 959.032 81.7556C960.049 72.3451 961.343 66.2515 961.979 63.2579L961.979 63.2569C962.283 61.8252 962.436 61.1029 962.336 61.0662C962.235 61.0288 961.871 61.7025 961.137 63.0622L961.136 63.0636L961.135 63.0656L961.135 63.0665C959.936 65.2857 957.753 69.3284 954.117 75.0858C951.848 78.6781 950.099 81.568 948.783 83.7432L948.783 83.744C946.739 87.1209 945.738 88.7749 945.453 88.6596C945.18 88.5489 945.565 86.81 946.321 83.4018L946.322 83.3989L946.323 83.3951L946.323 83.3945C947.098 79.8983 948.263 74.6479 949.506 67.5994C950.253 63.3653 950.925 60.0147 951.44 57.4486C952.335 52.9914 952.754 50.9012 952.263 50.6587C951.828 50.4446 950.684 51.6716 948.528 53.982C945.996 56.6964 942.068 60.9062 936.258 66.0318C936.258 66.0318 934.607 67.8938 930.394 70.351C927.626 71.9657 929.56 66.1004 931.213 61.0915C932.075 58.4778 932.86 56.0972 932.86 55.1343C932.86 55.1343 948.307 25.3223 956.03 9.29132C958.523 5.91385 960.736 2.80545 962.688 0H765.551C764.439 4.07475 762.541 9.70101 759.836 16.7248C748.325 46.6177 753.917 50.1859 771.157 24.1845C789.411 -3.3462 786.409 13.2739 776.58 47.0022C769.721 70.5408 772.234 67.5094 781.589 56.2282L781.59 56.2273C783.82 53.5383 786.439 50.3805 789.411 47.0022C806.261 18.5678 812.229 16.7248 800.996 50.8637C800.285 53.0233 799.611 55.0539 798.98 56.9561C790.374 82.8817 789.688 84.9486 812.229 64.5543C812.952 63.9003 813.652 63.2667 814.328 62.654C823.904 53.9829 828.86 49.495 829.824 50.2317C830.859 51.022 827.298 57.8266 819.917 71.9316L819.543 72.6461C814.171 87.0978 810.464 93.6352 803.6 102.998C797.713 108.243 792.317 114.165 787.79 119.135C777.471 130.462 771.661 136.839 774.813 118.966L775.13 117.167C779.358 93.2189 779.434 92.7897 767.441 113.35C755.154 134.412 766.458 90.0416 766.458 90.0416C766.458 90.0416 769.547 75.0859 757.817 97.9036C746.087 120.721 750.446 93.6911 751.499 87.7233C752.551 81.7556 752.934 64.5546 739.945 87.7233C726.957 110.892 726.224 107.733 729.032 81.7556C730.049 72.3451 731.343 66.2515 731.979 63.2579L731.979 63.2569C732.283 61.8252 732.436 61.1029 732.336 61.0662C732.235 61.0288 731.871 61.7025 731.137 63.0622L731.136 63.0636L731.135 63.0656L731.135 63.0665C729.936 65.2857 727.753 69.3284 724.117 75.0858C721.848 78.6781 720.099 81.568 718.783 83.7432L718.783 83.744C716.739 87.1209 715.738 88.7749 715.453 88.6596C715.18 88.5489 715.565 86.81 716.321 83.4018L716.322 83.3989L716.323 83.3951L716.323 83.3945C717.098 79.8983 718.263 74.6479 719.506 67.5994C720.253 63.3653 720.925 60.0147 721.44 57.4486C722.335 52.9914 722.754 50.9012 722.263 50.6587C721.828 50.4446 720.684 51.6716 718.528 53.982C715.996 56.6964 712.068 60.9062 706.258 66.0318C706.258 66.0318 704.607 67.8938 700.394 70.351C697.626 71.9657 699.56 66.1004 701.213 61.0915C702.075 58.4778 702.86 56.0972 702.86 55.1343C702.86 55.1343 718.307 25.3223 726.03 9.29132C728.523 5.91385 730.736 2.80545 732.688 0H481.551C480.439 4.07475 478.541 9.70101 475.836 16.7248C464.325 46.6177 469.917 50.1859 487.157 24.1845C505.411 -3.3462 502.41 13.2739 492.58 47.0022C485.721 70.5409 488.234 67.5094 497.589 56.2281C499.819 53.5389 502.438 50.3808 505.411 47.0022C522.261 18.5678 528.229 16.7248 516.996 50.8637C516.285 53.0233 515.611 55.0539 514.98 56.956C506.374 82.8817 505.688 84.9487 528.229 64.5543C528.952 63.9003 529.652 63.2667 530.328 62.654C539.904 53.9829 544.86 49.495 545.824 50.2317C546.859 51.022 543.298 57.8266 535.917 71.9316L535.543 72.6461C530.171 87.0978 526.464 93.6352 519.6 102.998C513.713 108.243 508.318 114.165 503.79 119.135L503.79 119.135C493.471 130.462 487.661 136.839 490.813 118.966L491.13 117.167C495.358 93.2189 495.434 92.7897 483.441 113.35C471.154 134.412 482.458 90.0416 482.458 90.0416C482.458 90.0416 485.547 75.0859 473.817 97.9036C462.087 120.721 466.446 93.6911 467.499 87.7233C468.551 81.7556 468.934 64.5546 455.945 87.7233C442.957 110.892 442.224 107.733 445.032 81.7556C446.049 72.3448 447.343 66.2512 447.979 63.2577L447.979 63.2566C448.283 61.8252 448.436 61.1029 448.337 61.0662C448.235 61.0288 447.871 61.7025 447.137 63.0624L447.137 63.0627L447.137 63.0631L447.137 63.0634C445.939 65.282 443.755 69.3257 440.117 75.0858C437.848 78.6783 436.099 81.5683 434.783 83.7435C432.739 87.1208 431.738 88.7749 431.453 88.6596C431.179 88.5488 431.566 86.8075 432.323 83.3945C433.098 79.8983 434.263 74.648 435.506 67.5994C436.253 63.3651 436.925 60.0144 437.44 57.4483C438.335 52.9913 438.754 50.9011 438.263 50.6587C437.828 50.4446 436.684 51.6716 434.528 53.982C431.996 56.6964 428.068 60.9062 422.258 66.0318C422.258 66.0318 420.607 67.8938 416.394 70.351C413.626 71.9657 415.561 66.1004 417.213 61.0915L417.213 61.0912C418.075 58.4776 418.86 56.0972 418.86 55.1343C418.86 55.1343 434.307 25.3223 442.03 9.29132C444.523 5.91385 446.736 2.80545 448.688 0H251.551C250.439 4.07475 248.541 9.70101 245.836 16.7248C234.325 46.6177 239.917 50.1859 257.157 24.1845C275.411 -3.3462 272.41 13.2739 262.58 47.0022C255.721 70.5409 258.234 67.5094 267.589 56.2281C269.819 53.5389 272.438 50.3808 275.411 47.0022C292.261 18.5678 298.229 16.7248 286.996 50.8637C286.286 53.0223 285.612 55.0521 284.981 56.9535L284.98 56.956C276.374 82.8817 275.688 84.9487 298.229 64.5543C298.952 63.9006 299.651 63.2673 300.327 62.6549C309.904 53.9832 314.86 49.4949 315.824 50.2317C316.859 51.022 313.298 57.8261 305.918 71.9298L305.543 72.6461C300.171 87.0978 296.464 93.6352 289.6 102.998C283.713 108.243 278.318 114.165 273.79 119.135L273.79 119.135C263.471 130.462 257.661 136.839 260.813 118.966L261.13 117.167C265.358 93.2189 265.434 92.7897 253.441 113.35C241.154 134.412 252.458 90.0416 252.458 90.0416C252.458 90.0416 255.547 75.0859 243.817 97.9036C232.087 120.721 236.446 93.6911 237.499 87.7233C238.551 81.7556 238.934 64.5546 225.945 87.7233C212.957 110.892 212.223 107.733 215.032 81.7556C216.049 72.3448 217.343 66.2512 217.979 63.2577C218.283 61.8255 218.436 61.1029 218.337 61.0662C218.235 61.0288 217.871 61.7025 217.137 63.0624C215.939 65.2808 213.756 69.3249 210.117 75.0858C207.85 78.6762 206.101 81.565 204.785 83.7398L204.784 83.7419L204.783 83.7429L204.783 83.7435C202.739 87.1208 201.738 88.7749 201.453 88.6596C201.179 88.5488 201.566 86.8074 202.323 83.3944C203.098 79.8982 204.263 74.6479 205.506 67.5994C206.253 63.3657 206.925 60.0153 207.44 57.4493L207.44 57.4482L207.44 57.4481L207.44 57.4474L207.44 57.4472C208.335 52.991 208.754 50.9011 208.263 50.6587C207.828 50.4446 206.684 51.6716 204.528 53.9821C201.995 56.6964 198.068 60.9062 192.258 66.0318C192.258 66.0318 190.607 67.8938 186.394 70.351C183.626 71.9657 185.56 66.1004 187.213 61.0915C188.075 58.4777 188.86 56.0972 188.86 55.1343C188.86 55.1343 204.307 25.3223 212.03 9.29132C214.523 5.91385 216.736 2.80545 218.688 0H0V33.4432C9.93757 19.2227 12.0328 23.3998 2.99586 50.8637C2.28525 53.0233 1.61122 55.0539 0.979828 56.9561L0.978184 56.961C0.639544 57.9812 0.313171 58.9645 0 59.9109V76.6698C3.00121 74.5885 7.6154 70.5383 14.2293 64.5543C14.9513 63.9011 15.6501 63.2682 16.3259 62.6563L16.3277 62.6546L16.3279 62.6545L16.3279 62.6545C25.9038 53.9831 30.8601 49.495 31.8242 50.2317C32.8586 51.022 29.2981 57.8262 21.9177 71.9303L21.9176 71.9305L21.5431 72.6461C16.1706 87.0978 12.4635 93.6352 5.60034 102.998C3.67665 104.712 1.8055 106.498 0 108.299V249.443C9.93757 235.223 12.0328 239.4 2.99586 266.864C2.28525 269.023 1.61122 271.054 0.979829 272.956C0.640601 273.978 0.313678 274.963 0 275.911V292.67C3.00121 290.589 7.6154 286.538 14.2293 280.554C14.909 279.939 15.5682 279.342 16.207 278.764L16.3011 278.679L16.3276 278.655C25.9037 269.983 30.86 265.495 31.8242 266.232C32.8586 267.022 29.2981 273.826 21.9176 287.93L21.5431 288.646C16.1706 303.098 12.4635 309.635 5.60034 318.998C3.67665 320.712 1.8055 322.498 0 324.299V465.443C9.93757 451.223 12.0328 455.4 2.99586 482.864C2.28525 485.023 1.61123 487.054 0.979842 488.956L0.96823 488.991C0.633147 490 0.310102 490.974 0 491.911V508.67C3.00121 506.589 7.6154 502.538 14.2293 496.554C14.9414 495.91 15.6309 495.286 16.298 494.682L16.3276 494.655C25.9037 485.983 30.86 481.495 31.8242 482.232C32.8586 483.022 29.2981 489.826 21.9176 503.93L21.5431 504.646C16.1706 519.098 12.4635 525.635 5.60034 534.998C3.67665 536.712 1.8055 538.498 0 540.299V681.443C9.93757 667.223 12.0328 671.4 2.99586 698.864C2.29478 700.994 1.62932 702.999 1.00527 704.879L0.994956 704.911L0.983865 704.944L0.981497 704.951L0.97984 704.956C0.640608 705.978 0.313682 706.963 0 707.911V724.67C3.00121 722.589 7.6154 718.538 14.2293 712.554L14.8787 711.967L15.5525 711.357L16.3278 710.655C25.9038 701.983 30.86 697.495 31.8242 698.232C32.8587 699.022 29.2981 705.826 21.9175 719.931L21.5431 720.646C16.1706 735.098 12.4635 741.635 5.60034 750.998C3.67665 752.712 1.8055 754.498 0 756.299V762H247.806C248.468 753.703 252.458 738.042 252.458 738.042C252.458 738.042 255.547 723.086 243.817 745.904C232.087 768.721 236.446 741.691 237.499 735.723C238.551 729.756 238.934 712.555 225.945 735.723C212.957 758.892 212.223 755.733 215.032 729.756C216.049 720.345 217.343 714.251 217.979 711.258C218.283 709.825 218.436 709.103 218.337 709.066C218.235 709.029 217.871 709.703 217.137 711.062L217.137 711.063L217.136 711.064L217.136 711.064C215.938 713.283 213.755 717.327 210.117 723.086C207.848 726.678 206.099 729.568 204.783 731.744C202.739 735.121 201.738 736.775 201.453 736.66C201.179 736.549 201.566 734.807 202.323 731.395C203.098 727.898 204.263 722.648 205.506 715.599C206.253 711.366 206.925 708.015 207.44 705.449L207.44 705.448C208.335 700.991 208.754 698.901 208.263 698.659C207.828 698.445 206.684 699.672 204.528 701.982C201.996 704.696 198.068 708.906 192.258 714.032C192.258 714.032 190.607 715.894 186.394 718.351C183.626 719.966 185.56 714.1 187.213 709.091C188.075 706.478 188.86 704.097 188.86 703.134C188.86 703.134 204.307 673.322 212.03 657.291C218.085 649.089 222.488 642.473 225.511 637.93L225.512 637.929L225.512 637.928C228.607 633.279 230.257 630.8 230.753 631.013C231.32 631.256 230.384 635.007 228.38 643.042L228.38 643.043C227.689 645.811 226.872 649.086 225.945 652.902C218.248 684.609 224.24 690.439 238.869 661.274C254.349 630.41 257.157 635.325 245.836 664.725C234.325 694.618 239.917 698.186 257.157 672.184C275.411 644.654 272.41 661.274 262.58 695.002C255.721 718.541 258.234 715.509 267.59 704.228L267.591 704.227C269.82 701.538 272.439 698.38 275.411 695.002C292.261 666.568 298.229 664.725 286.996 698.864C286.298 700.985 285.635 702.982 285.014 704.855L284.982 704.949L284.98 704.956C276.374 730.882 275.688 732.949 298.229 712.554L299.135 711.735L300.328 710.655C309.904 701.983 314.86 697.495 315.824 698.232C316.859 699.022 313.298 705.826 305.918 719.93L305.543 720.646C300.171 735.098 296.464 741.635 289.6 750.998C285.642 754.524 281.906 758.357 278.507 762H477.806C478.468 753.703 482.458 738.042 482.458 738.042C482.458 738.042 485.547 723.086 473.817 745.904C462.087 768.721 466.446 741.691 467.499 735.723C468.551 729.756 468.934 712.555 455.945 735.723C442.957 758.892 442.224 755.733 445.032 729.756C446.049 720.345 447.343 714.251 447.979 711.258C448.283 709.825 448.436 709.103 448.337 709.066C448.235 709.029 447.871 709.703 447.137 711.062L447.137 711.063L447.136 711.065L447.136 711.065C445.937 713.284 443.754 717.327 440.117 723.086C437.848 726.678 436.099 729.568 434.783 731.744L434.783 731.744L434.782 731.745L434.781 731.747L434.78 731.748L434.778 731.751C432.737 735.123 431.738 736.775 431.453 736.66C431.179 736.549 431.566 734.807 432.323 731.395C433.098 727.898 434.263 722.648 435.506 715.599C436.253 711.365 436.925 708.015 437.44 705.448C438.335 700.991 438.754 698.901 438.263 698.659C437.828 698.445 436.684 699.672 434.528 701.982C431.996 704.696 428.068 708.906 422.258 714.032C422.258 714.032 420.607 715.894 416.394 718.351C413.626 719.966 415.561 714.1 417.213 709.091L417.213 709.091C418.075 706.477 418.86 704.097 418.86 703.134C418.86 703.134 434.307 673.322 442.03 657.291C448.085 649.089 452.488 642.473 455.511 637.93L455.512 637.929L455.512 637.929C458.607 633.279 460.257 630.8 460.753 631.013C461.32 631.256 460.384 635.008 458.379 643.043C457.689 645.811 456.872 649.086 455.945 652.902C448.248 684.609 454.24 690.439 468.869 661.274C484.349 630.41 487.157 635.325 475.836 664.725C464.325 694.618 469.917 698.186 487.157 672.184C505.411 644.654 502.41 661.274 492.58 695.002C485.721 718.541 488.234 715.509 497.59 704.228L497.591 704.227C499.82 701.538 502.439 698.38 505.411 695.002C522.261 666.568 528.229 664.725 516.996 698.864C516.285 701.023 515.611 703.054 514.98 704.956C506.374 730.882 505.688 732.949 528.229 712.554C528.64 712.182 529.044 711.817 529.44 711.458L530.328 710.654C539.904 701.983 544.86 697.495 545.824 698.232C546.859 699.022 543.298 705.827 535.917 719.931L535.917 719.932L535.543 720.646C530.171 735.098 526.464 741.635 519.6 750.998C515.642 754.524 511.906 758.357 508.507 762H761.806C762.468 753.703 766.458 738.042 766.458 738.042C766.458 738.042 769.547 723.086 757.817 745.904C746.087 768.721 750.446 741.691 751.499 735.723C752.551 729.756 752.934 712.555 739.945 735.723C726.957 758.892 726.224 755.733 729.032 729.756C730.049 720.345 731.343 714.251 731.979 711.258L731.979 711.257C732.283 709.825 732.436 709.103 732.336 709.066C732.235 709.029 731.871 709.702 731.137 711.062L731.136 711.064C729.938 713.283 727.755 717.326 724.117 723.086C721.848 726.678 720.099 729.568 718.783 731.744L718.782 731.744L718.782 731.745C716.739 735.121 715.738 736.775 715.453 736.66C715.179 736.549 715.566 734.807 716.323 731.394C717.098 727.898 718.263 722.648 719.506 715.599C720.252 711.366 720.925 708.016 721.44 705.45L721.44 705.449L721.44 705.448L721.441 705.445C722.335 700.99 722.754 698.901 722.263 698.659C721.828 698.445 720.684 699.672 718.528 701.982L718.528 701.982L718.527 701.983C715.995 704.697 712.067 708.907 706.258 714.032C706.258 714.032 704.607 715.894 700.394 718.351C697.626 719.966 699.56 714.1 701.213 709.091C702.075 706.478 702.86 704.097 702.86 703.134C702.86 703.134 718.307 673.322 726.03 657.291C732.084 649.089 736.487 642.474 739.511 637.931L739.511 637.93C742.607 633.279 744.257 630.8 744.753 631.013C745.32 631.256 744.384 635.008 742.38 643.043C741.689 645.81 740.872 649.086 739.945 652.902C732.247 684.609 738.24 690.439 752.869 661.274C768.349 630.41 771.157 635.325 759.836 664.725C748.325 694.618 753.917 698.186 771.157 672.184C789.411 644.654 786.409 661.274 776.58 695.002C769.721 718.541 772.234 715.509 781.589 704.228L781.591 704.227L781.593 704.224C783.822 701.536 786.44 698.379 789.411 695.002C806.261 666.568 812.229 664.725 800.996 698.864C800.285 701.023 799.611 703.054 798.98 704.956C790.374 730.882 789.688 732.949 812.229 712.554L813.513 711.393L814.328 710.654C823.904 701.983 828.86 697.495 829.824 698.232C830.859 699.022 827.298 705.827 819.917 719.931L819.917 719.932L819.543 720.646C814.171 735.098 810.464 741.635 803.6 750.998C799.642 754.524 795.906 758.357 792.507 762H991.806C992.468 753.703 996.458 738.042 996.458 738.042C996.458 738.042 999.547 723.086 987.817 745.904C976.087 768.721 980.446 741.691 981.499 735.723C982.551 729.756 982.934 712.555 969.945 735.723C956.957 758.892 956.224 755.733 959.032 729.756C960.049 720.345 961.343 714.251 961.979 711.258L961.979 711.257C962.283 709.825 962.436 709.103 962.336 709.066C962.235 709.029 961.871 709.702 961.137 711.062L961.136 711.064C959.938 713.283 957.755 717.326 954.117 723.086C951.848 726.678 950.099 729.568 948.783 731.744L948.782 731.744L948.782 731.745C946.739 735.121 945.738 736.775 945.453 736.66C945.179 736.549 945.566 734.807 946.323 731.394C947.098 727.898 948.263 722.648 949.506 715.599C950.252 711.366 950.925 708.016 951.44 705.45L951.44 705.449L951.44 705.448L951.441 705.445C952.335 700.99 952.754 698.901 952.263 698.659C951.828 698.445 950.684 699.672 948.528 701.982L948.528 701.982L948.527 701.983C945.995 704.697 942.067 708.907 936.258 714.032C936.258 714.032 934.607 715.894 930.394 718.351C927.626 719.966 929.56 714.1 931.213 709.091C932.075 706.478 932.86 704.097 932.86 703.134C932.86 703.134 948.307 673.322 956.03 657.291C962.084 649.089 966.487 642.474 969.511 637.931L969.511 637.93C972.607 633.279 974.257 630.8 974.753 631.013C975.32 631.256 974.384 635.008 972.38 643.043C971.689 645.81 970.872 649.086 969.945 652.902C962.247 684.609 968.24 690.439 982.869 661.274C998.349 630.41 1001.16 635.325 989.836 664.725C978.325 694.618 983.917 698.186 1001.16 672.184C1019.41 644.654 1016.41 661.274 1006.58 695.002C999.721 718.541 1002.23 715.509 1011.59 704.228L1011.59 704.227L1011.59 704.224C1013.82 701.536 1016.44 698.379 1019.41 695.002C1036.26 666.568 1042.23 664.725 1031 698.864C1030.71 699.732 1030.43 700.579 1030.16 701.406C1029.82 702.439 1029.48 703.44 1029.16 704.408L1029.14 704.461L1029.11 704.571L1029.06 704.717L1029 704.884L1028.98 704.956C1020.37 730.882 1019.69 732.949 1042.23 712.554C1042.95 711.9 1043.65 711.267 1044.33 710.655C1053.9 701.983 1058.86 697.495 1059.82 698.232C1060.86 699.022 1057.3 705.82 1049.93 719.911L1049.93 719.912L1049.93 719.914L1049.93 719.915L1049.92 719.917L1049.92 719.918L1049.92 719.92L1049.92 719.921L1049.92 719.923L1049.92 719.924L1049.92 719.926L1049.92 719.927L1049.92 719.929L1049.92 719.93L1049.54 720.646C1044.17 735.098 1040.46 741.635 1033.6 750.998C1029.64 754.524 1025.91 758.357 1022.51 762H1275.81C1276.47 753.703 1280.46 738.042 1280.46 738.042C1280.46 738.042 1283.55 723.086 1271.82 745.904C1260.09 768.721 1264.45 741.691 1265.5 735.723C1266.55 729.756 1266.93 712.555 1253.95 735.723C1240.96 758.892 1240.22 755.733 1243.03 729.756C1244.05 720.345 1245.34 714.252 1245.98 711.258L1245.98 711.257L1245.98 711.248C1246.28 709.822 1246.44 709.103 1246.34 709.066C1246.23 709.029 1245.87 709.702 1245.14 711.062L1245.14 711.064C1243.94 713.283 1241.75 717.326 1238.12 723.086C1235.85 726.673 1234.1 729.561 1232.79 731.735L1232.78 731.743C1230.74 735.12 1229.74 736.775 1229.45 736.66C1229.18 736.549 1229.57 734.808 1230.32 731.395C1231.1 727.898 1232.26 722.648 1233.51 715.599C1234.25 711.365 1234.93 708.014 1235.44 705.448C1236.33 700.991 1236.75 698.901 1236.26 698.659C1235.83 698.445 1234.68 699.672 1232.53 701.982L1232.53 701.983C1229.99 704.698 1226.07 708.907 1220.26 714.032C1220.26 714.032 1218.61 715.894 1214.39 718.351C1211.63 719.966 1213.56 714.101 1215.21 709.092L1215.21 709.091L1215.21 709.088C1216.08 706.476 1216.86 704.097 1216.86 703.134C1216.86 703.134 1232.31 673.322 1240.03 657.291C1246.08 649.09 1250.49 642.475 1253.51 637.932L1253.51 637.929C1256.61 633.279 1258.26 630.8 1258.75 631.013C1259.32 631.256 1258.38 635.006 1256.38 643.039L1256.38 643.043C1255.69 645.81 1254.87 649.086 1253.95 652.902C1246.25 684.609 1252.24 690.439 1266.87 661.274C1282.35 630.41 1285.16 635.325 1273.84 664.725C1262.33 694.618 1267.92 698.186 1285.16 672.184C1303.41 644.654 1300.41 661.274 1290.58 695.002C1283.72 718.541 1286.23 715.509 1295.59 704.228C1297.82 701.539 1300.44 698.381 1303.41 695.002C1320.26 666.568 1326.23 664.725 1315 698.864C1314.29 700.996 1313.63 703.002 1313 704.884L1312.98 704.956C1304.37 730.882 1303.69 732.949 1326.23 712.554L1327.35 711.537L1328.33 710.655C1337.9 701.983 1342.86 697.495 1343.82 698.232C1344.86 699.022 1341.3 705.819 1333.93 719.909L1333.93 719.911L1333.93 719.912L1333.93 719.914L1333.93 719.915L1333.92 719.917L1333.92 719.918L1333.92 719.92L1333.92 719.921L1333.92 719.923L1333.92 719.924L1333.92 719.926L1333.92 719.927L1333.92 719.929L1333.92 719.93L1333.54 720.646C1328.17 735.098 1324.46 741.635 1317.6 750.998C1313.64 754.524 1309.91 758.357 1306.51 762H1505.81C1506.47 753.703 1510.46 738.042 1510.46 738.042C1510.46 738.042 1513.55 723.086 1501.82 745.904C1490.09 768.721 1494.45 741.691 1495.5 735.723C1496.55 729.756 1496.93 712.555 1483.95 735.723C1470.96 758.892 1470.22 755.733 1473.03 729.756C1474.05 720.345 1475.34 714.252 1475.98 711.258L1475.98 711.257C1476.28 709.825 1476.44 709.103 1476.34 709.066C1476.23 709.029 1475.87 709.702 1475.14 711.062L1475.14 711.064C1473.94 713.283 1471.75 717.326 1468.12 723.086C1465.85 726.673 1464.1 729.561 1462.79 731.735L1462.78 731.743C1460.74 735.12 1459.74 736.775 1459.45 736.66C1459.18 736.549 1459.57 734.808 1460.32 731.395C1461.1 727.898 1462.26 722.648 1463.51 715.599C1464.25 711.365 1464.93 708.014 1465.44 705.448C1466.33 700.991 1466.75 698.901 1466.26 698.659C1465.83 698.445 1464.68 699.672 1462.53 701.982L1462.53 701.983C1459.99 704.698 1456.07 708.907 1450.26 714.032C1450.26 714.032 1448.61 715.894 1444.39 718.351C1441.63 719.966 1443.56 714.101 1445.21 709.092L1445.21 709.091L1445.21 709.088C1446.08 706.476 1446.86 704.097 1446.86 703.134C1446.86 703.134 1462.31 673.322 1470.03 657.291C1476.08 649.09 1480.49 642.475 1483.51 637.932L1483.51 637.929C1486.61 633.279 1488.26 630.8 1488.75 631.013C1489.32 631.256 1488.38 635.006 1486.38 643.039L1486.38 643.043C1485.69 645.81 1484.87 649.086 1483.95 652.902C1476.25 684.609 1482.24 690.439 1496.87 661.274C1512.35 630.41 1515.16 635.325 1503.84 664.725C1492.33 694.618 1497.92 698.186 1515.16 672.184C1533.41 644.654 1530.41 661.274 1520.58 695.002C1513.72 718.541 1516.23 715.509 1525.59 704.228C1527.82 701.539 1530.44 698.381 1533.41 695.002C1550.26 666.568 1556.23 664.725 1545 698.864C1544.32 700.933 1543.67 702.884 1543.06 704.717L1543 704.884L1542.98 704.956C1534.37 730.882 1533.69 732.949 1556.23 712.554C1556.95 711.9 1557.65 711.267 1558.33 710.655C1567.9 701.983 1572.86 697.495 1573.82 698.232C1574.86 699.022 1571.3 705.826 1563.92 719.929L1563.92 719.93L1563.54 720.646C1558.17 735.098 1554.46 741.635 1547.6 750.998C1543.64 754.524 1539.91 758.357 1536.51 762H1760V748.713C1754.82 755.581 1754.97 748.801 1757.03 729.756C1758.05 720.344 1759.34 714.251 1759.98 711.257L1760 711.157V709.496C1759.8 709.828 1759.52 710.351 1759.14 711.062C1757.94 713.28 1755.76 717.324 1752.12 723.086C1749.85 726.673 1748.1 729.561 1746.79 731.735L1746.78 731.743C1744.74 735.12 1743.74 736.775 1743.45 736.66C1743.18 736.549 1743.57 734.808 1744.32 731.395C1745.1 727.898 1746.26 722.648 1747.51 715.599C1748.25 711.365 1748.93 708.014 1749.44 705.448C1750.33 700.991 1750.75 698.901 1750.26 698.659C1749.83 698.445 1748.68 699.672 1746.53 701.982L1746.53 701.983C1743.99 704.698 1740.07 708.907 1734.26 714.032C1734.26 714.032 1732.61 715.894 1728.39 718.351C1725.63 719.966 1727.56 714.101 1729.21 709.092L1729.21 709.091L1729.21 709.088C1730.08 706.476 1730.86 704.097 1730.86 703.134C1730.86 703.134 1746.31 673.322 1754.03 657.291C1756.23 654.305 1758.22 651.528 1760 648.986V532.713C1754.82 539.581 1754.97 532.801 1757.03 513.756C1758.05 504.359 1759.34 498.27 1759.98 495.271L1759.98 495.267L1759.98 495.263L1759.98 495.258L1759.98 495.257L1760 495.157V493.496C1759.89 493.675 1759.76 493.91 1759.6 494.2C1759.47 494.447 1759.31 494.734 1759.14 495.062C1757.94 497.28 1755.76 501.324 1752.12 507.086C1749.85 510.673 1748.1 513.561 1746.79 515.735L1746.78 515.743C1744.74 519.12 1743.74 520.775 1743.45 520.66C1743.18 520.549 1743.57 518.808 1744.32 515.395C1745.1 511.898 1746.26 506.648 1747.51 499.599C1748.25 495.365 1748.93 492.014 1749.44 489.448C1750.33 484.991 1750.75 482.901 1750.26 482.659C1749.83 482.445 1748.68 483.672 1746.53 485.982C1744 488.696 1740.07 492.906 1734.26 498.032C1734.26 498.032 1732.61 499.894 1728.39 502.351C1725.63 503.966 1727.56 498.101 1729.21 493.092L1729.21 493.091L1729.21 493.088C1730.08 490.476 1730.86 488.097 1730.86 487.134C1730.86 487.134 1746.31 457.322 1754.03 441.291C1756.23 438.305 1758.22 435.528 1760 432.986V316.713C1754.82 323.581 1754.97 316.801 1757.03 297.756C1758.05 288.359 1759.34 282.27 1759.98 279.271L1759.98 279.267L1759.98 279.263L1759.98 279.258L1759.98 279.257L1760 279.157V277.496C1759.8 277.827 1759.52 278.346 1759.14 279.05L1759.14 279.062C1757.94 281.28 1755.76 285.324 1752.12 291.086C1749.86 294.661 1748.12 297.541 1746.8 299.713L1746.8 299.722L1746.79 299.732L1746.79 299.736L1746.78 299.742C1744.74 303.12 1743.74 304.775 1743.45 304.66C1743.18 304.549 1743.57 302.808 1744.32 299.395C1745.1 295.898 1746.26 290.648 1747.51 283.599C1748.25 279.365 1748.93 276.014 1749.44 273.448C1750.33 268.991 1750.75 266.901 1750.26 266.659C1749.83 266.445 1748.68 267.672 1746.53 269.982C1744 272.696 1740.07 276.906 1734.26 282.032C1734.26 282.032 1732.61 283.894 1728.39 286.351C1725.63 287.966 1727.56 282.101 1729.21 277.092L1729.21 277.091L1729.21 277.088C1730.08 274.476 1730.86 272.097 1730.86 271.134C1730.86 271.134 1746.31 241.322 1754.03 225.291C1756.23 222.305 1758.22 219.528 1760 216.986V100.713C1754.82 107.581 1754.97 100.801 1757.03 81.7556C1758.05 72.3444 1759.34 66.2506 1759.98 63.2573L1760 63.1569V61.4962C1759.81 61.8206 1759.53 62.327 1759.16 63.012L1759.15 63.0363L1759.14 63.0508L1759.14 63.0617C1757.94 65.2799 1755.76 69.3243 1752.12 75.0858C1749.85 78.6736 1748.1 81.5608 1746.79 83.735L1746.78 83.7425C1744.74 87.1204 1743.74 88.7749 1743.45 88.6596C1743.18 88.5488 1743.57 86.8075 1744.32 83.3947C1745.1 79.8985 1746.26 74.6481 1747.51 67.5994C1748.25 63.365 1748.93 60.0143 1749.44 57.4481C1750.33 52.9913 1750.75 50.9011 1750.26 50.6587C1749.83 50.4446 1748.68 51.6716 1746.53 53.9821C1744 56.6964 1740.07 60.9062 1734.26 66.0318C1734.26 66.0318 1732.61 67.8938 1728.39 70.351C1725.63 71.9657 1727.56 66.1004 1729.21 61.0914L1729.21 61.0883C1730.08 58.4758 1730.86 56.0968 1730.86 55.1343C1730.86 55.1343 1746.31 25.3223 1754.03 9.29132ZM1519.69 762C1523.34 741.224 1522.88 741.739 1511.44 761.349C1511.31 761.574 1511.18 761.79 1511.06 762H1519.69ZM1485.15 0C1484.77 1.52294 1484.37 3.15587 1483.95 4.90182C1476.25 36.6089 1482.24 42.4389 1496.87 13.2739C1499.66 7.70759 1502.04 3.30504 1504 0H1485.15ZM1005.69 762C1009.34 741.224 1008.88 741.739 997.441 761.349C997.31 761.574 997.182 761.79 997.057 762H1005.69ZM1253.95 4.90182C1254.37 3.15587 1254.77 1.52294 1255.15 0H1274C1272.04 3.30504 1269.66 7.70759 1266.87 13.2739C1252.24 42.4389 1246.25 36.6089 1253.95 4.90182ZM1281.06 762H1289.69C1293.34 741.224 1292.88 741.739 1281.44 761.349C1281.31 761.574 1281.18 761.79 1281.06 762ZM971.147 0C970.77 1.52294 970.369 3.15587 969.945 4.90182C962.247 36.6089 968.24 42.4389 982.869 13.2739C985.661 7.70759 988.04 3.30504 989.999 0H971.147ZM491.689 762C495.34 741.224 494.88 741.739 483.441 761.349C483.31 761.574 483.182 761.79 483.057 762H491.689ZM739.945 4.90182C740.369 3.15587 740.77 1.52294 741.147 0H759.999C758.04 3.30504 755.661 7.70759 752.869 13.2739C738.24 42.4389 732.247 36.6089 739.945 4.90182ZM767.057 762H775.689C779.34 741.224 778.88 741.739 767.441 761.349C767.31 761.574 767.182 761.79 767.057 762ZM457.147 0C456.77 1.52294 456.369 3.15587 455.945 4.90182C448.248 36.6089 454.24 42.4389 468.869 13.2739C471.661 7.70759 474.04 3.30504 475.999 0H457.147ZM225.945 4.90182C226.369 3.15587 226.77 1.52294 227.147 0H245.999C244.04 3.30504 241.661 7.70759 238.869 13.2739C224.24 42.4389 218.248 36.6089 225.945 4.90182ZM261.689 762C265.34 741.224 264.88 741.739 253.441 761.349L253.359 761.489C253.323 761.55 253.287 761.611 253.252 761.672C253.186 761.783 253.121 761.893 253.057 762H261.689ZM225.511 421.93C228.607 417.279 230.257 414.8 230.753 415.013C231.32 415.256 230.384 419.008 228.38 427.043L228.379 427.043L228.379 427.047C227.688 429.814 226.871 433.088 225.945 436.902C218.248 468.609 224.24 474.439 238.869 445.274C254.349 414.41 257.157 419.325 245.836 448.725C234.325 478.618 239.917 482.186 257.157 456.184C275.411 428.654 272.41 445.274 262.58 479.002C255.721 502.541 258.234 499.509 267.59 488.228C269.82 485.539 272.438 482.381 275.411 479.002C292.261 450.568 298.229 448.725 286.996 482.864C286.286 485.021 285.613 487.049 284.982 488.949L284.98 488.956C276.374 514.882 275.688 516.949 298.229 496.554C298.952 495.901 299.651 495.267 300.327 494.655C309.904 485.983 314.86 481.495 315.824 482.232C316.859 483.022 313.298 489.826 305.918 503.93L305.543 504.646C300.171 519.098 296.464 525.635 289.6 534.998C283.713 540.243 278.317 546.165 273.79 551.135C263.471 562.462 257.661 568.839 260.813 550.966L261.13 549.167C265.358 525.219 265.434 524.79 253.441 545.349C241.154 566.412 252.458 522.042 252.458 522.042C252.458 522.042 255.547 507.086 243.817 529.904C232.087 552.721 236.446 525.691 237.499 519.723C238.551 513.756 238.934 496.555 225.945 519.723C212.957 542.892 212.223 539.733 215.032 513.756C216.049 504.345 217.343 498.251 217.979 495.258C218.283 493.825 218.436 493.103 218.337 493.066C218.235 493.029 217.871 493.703 217.137 495.062C215.939 497.281 213.756 501.325 210.117 507.086C207.848 510.678 206.099 513.568 204.783 515.744C202.739 519.121 201.738 520.775 201.453 520.66C201.179 520.549 201.566 518.807 202.323 515.395C203.098 511.898 204.263 506.648 205.506 499.599C206.253 495.366 206.925 492.016 207.44 489.45L207.44 489.448C208.335 484.991 208.754 482.901 208.263 482.659C207.828 482.445 206.684 483.672 204.528 485.982C201.995 488.696 198.068 492.906 192.258 498.032C192.258 498.032 190.607 499.894 186.394 502.351C183.626 503.966 185.56 498.1 187.213 493.091C188.075 490.478 188.86 488.097 188.86 487.134C188.86 487.134 204.307 457.322 212.03 441.291C218.085 433.089 222.488 426.473 225.511 421.93ZM230.753 199.013C230.257 198.8 228.607 201.279 225.511 205.93C222.488 210.473 218.085 217.089 212.03 225.291C204.307 241.322 188.86 271.134 188.86 271.134C188.86 272.097 188.075 274.478 187.213 277.091C185.56 282.1 183.626 287.966 186.394 286.351C190.607 283.894 192.258 282.032 192.258 282.032C198.068 276.906 201.995 272.696 204.528 269.982C206.684 267.672 207.828 266.445 208.263 266.659C208.754 266.901 208.335 268.991 207.44 273.448L207.44 273.45C206.925 276.016 206.253 279.366 205.506 283.599C204.263 290.648 203.098 295.898 202.323 299.395C201.566 302.807 201.179 304.549 201.453 304.66C201.738 304.775 202.739 303.121 204.783 299.744L204.783 299.743L204.783 299.743C206.1 297.567 207.849 294.678 210.117 291.086C213.756 285.325 215.939 281.281 217.137 279.062C217.871 277.703 218.235 277.029 218.337 277.066C218.436 277.103 218.283 277.826 217.979 279.258C217.343 282.251 216.049 288.345 215.032 297.756C212.223 323.733 212.957 326.892 225.945 303.723C238.934 280.555 238.551 297.756 237.499 303.723C236.446 309.691 232.087 336.721 243.817 313.904C255.547 291.086 252.458 306.042 252.458 306.042C252.458 306.042 241.154 350.412 253.441 329.349C265.434 308.79 265.358 309.219 261.13 333.167L260.813 334.966C257.661 352.839 263.471 346.462 273.79 335.135L273.79 335.134L273.791 335.134L273.791 335.133C278.319 330.164 283.713 324.243 289.6 318.998C296.464 309.635 300.171 303.098 305.543 288.646L305.918 287.93C313.298 273.826 316.859 267.022 315.824 266.232C314.86 265.495 309.904 269.983 300.327 278.655L299.265 279.617L298.229 280.554C275.688 300.949 276.374 298.882 284.98 272.956C285.611 271.054 286.285 269.023 286.996 266.864C298.229 232.725 292.261 234.568 275.411 263.002C272.438 266.381 269.82 269.539 267.59 272.228C258.234 283.509 255.721 286.541 262.58 263.002C272.41 229.274 275.411 212.654 257.157 240.184C239.917 266.186 234.325 262.618 245.836 232.725C257.157 203.325 254.349 198.41 238.869 229.274C224.24 258.439 218.248 252.609 225.945 220.902C226.869 217.097 227.685 213.828 228.374 211.065L228.378 211.048L228.379 211.043L228.379 211.043C230.384 203.008 231.32 199.256 230.753 199.013ZM455.511 205.93L455.511 205.93C458.607 201.279 460.257 198.8 460.753 199.013C461.32 199.256 460.384 203.008 458.379 211.043L458.377 211.053C457.687 213.819 456.871 217.091 455.945 220.902C448.248 252.609 454.24 258.439 468.869 229.274C484.349 198.41 487.157 203.325 475.836 232.725C464.325 262.618 469.917 266.186 487.157 240.184C505.411 212.654 502.41 229.274 492.58 263.002C485.721 286.541 488.234 283.509 497.59 272.228C499.82 269.539 502.438 266.381 505.411 263.002C522.261 234.568 528.229 232.725 516.996 266.864C516.285 269.023 515.611 271.054 514.98 272.956C506.374 298.882 505.688 300.949 528.229 280.554C528.952 279.9 529.652 279.267 530.328 278.654L530.329 278.654L530.329 278.654L530.329 278.653L530.33 278.653L530.33 278.652L530.33 278.652L530.331 278.652L530.331 278.651L530.331 278.651L530.333 278.65L530.333 278.649L530.334 278.649C539.906 269.981 544.86 265.495 545.824 266.232C546.859 267.022 543.298 273.827 535.917 287.932L535.543 288.646C530.171 303.098 526.464 309.635 519.6 318.998C513.713 324.243 508.318 330.165 503.79 335.134L503.79 335.135C493.471 346.462 487.661 352.839 490.813 334.966L491.13 333.167C495.358 309.219 495.434 308.79 483.441 329.349C471.154 350.412 482.458 306.042 482.458 306.042C482.458 306.042 485.547 291.086 473.817 313.904C462.087 336.721 466.446 309.691 467.499 303.723C468.551 297.756 468.934 280.555 455.945 303.723C442.957 326.892 442.224 323.733 445.032 297.756C446.049 288.345 447.343 282.251 447.979 279.258L447.979 279.257C448.283 277.825 448.436 277.103 448.337 277.066C448.235 277.029 447.871 277.703 447.137 279.062L447.137 279.063C445.939 281.282 443.755 285.325 440.117 291.086C437.848 294.678 436.099 297.568 434.783 299.744C432.739 303.121 431.738 304.775 431.453 304.66C431.179 304.549 431.566 302.807 432.323 299.395C433.098 295.898 434.263 290.648 435.506 283.599C436.253 279.365 436.925 276.014 437.44 273.448C438.335 268.991 438.754 266.901 438.263 266.659C437.828 266.445 436.684 267.672 434.528 269.982C431.995 272.696 428.068 276.906 422.258 282.032C422.258 282.032 420.607 283.894 416.394 286.351C413.626 287.966 415.561 282.1 417.213 277.091C418.075 274.478 418.86 272.097 418.86 271.134C418.86 271.134 434.307 241.322 442.03 225.291C448.085 217.089 452.488 210.473 455.511 205.93ZM739.511 421.93C742.607 417.279 744.257 414.8 744.753 415.013C745.32 415.256 744.384 419.008 742.38 427.043L742.375 427.06L742.371 427.078C741.682 429.838 740.868 433.102 739.945 436.902C732.247 468.609 738.24 474.439 752.869 445.274C768.349 414.41 771.157 419.325 759.836 448.725C748.325 478.618 753.917 482.186 771.157 456.184C789.411 428.654 786.409 445.274 776.58 479.002C769.721 502.541 772.234 499.509 781.589 488.228L781.591 488.227L781.591 488.226L781.592 488.225L781.596 488.221C783.824 485.533 786.441 482.378 789.411 479.002C806.261 450.568 812.229 448.725 800.996 482.864C800.285 485.023 799.611 487.054 798.98 488.956C790.374 514.882 789.688 516.949 812.229 496.554L813.028 495.832L814.328 494.654L814.329 494.654L814.329 494.654L814.329 494.653L814.33 494.653L814.33 494.652L814.33 494.652L814.331 494.652L814.331 494.651L814.331 494.651L814.333 494.65L814.333 494.649L814.334 494.649C823.906 485.981 828.86 481.495 829.824 482.232C830.859 483.022 827.298 489.827 819.917 503.932L819.543 504.646C814.171 519.098 810.464 525.635 803.6 534.998C797.713 540.243 792.317 546.165 787.79 551.135C777.471 562.462 771.661 568.839 774.813 550.966L775.13 549.167C779.358 525.219 779.434 524.79 767.441 545.349C755.154 566.412 766.458 522.042 766.458 522.042C766.458 522.042 769.547 507.086 757.817 529.904C746.087 552.721 750.446 525.691 751.499 519.723C752.551 513.756 752.934 496.555 739.945 519.723C726.957 542.892 726.224 539.733 729.032 513.756C730.049 504.345 731.343 498.251 731.979 495.258L731.979 495.257C732.283 493.825 732.436 493.103 732.336 493.066C732.235 493.029 731.871 493.702 731.137 495.062C729.939 497.28 727.756 501.325 724.117 507.086C721.848 510.678 720.099 513.568 718.783 515.744L718.782 515.744L718.782 515.745C716.739 519.121 715.738 520.775 715.453 520.66C715.179 520.549 715.566 518.807 716.323 515.394L716.323 515.393C717.099 511.897 718.263 506.647 719.506 499.599C720.253 495.365 720.925 492.015 721.44 489.449C722.335 484.991 722.754 482.901 722.263 482.659C721.828 482.445 720.684 483.672 718.528 485.982C715.995 488.696 712.068 492.906 706.258 498.032C706.258 498.032 704.607 499.894 700.394 502.351C697.626 503.966 699.56 498.1 701.213 493.091C702.075 490.478 702.86 488.097 702.86 487.134C702.86 487.134 718.307 457.322 726.03 441.291C732.085 433.089 736.487 426.473 739.511 421.93ZM744.753 199.013C744.257 198.8 742.607 201.279 739.511 205.93L739.511 205.931C736.487 210.474 732.084 217.089 726.03 225.291C718.307 241.322 702.86 271.134 702.86 271.134C702.86 272.097 702.075 274.478 701.213 277.091C699.56 282.1 697.626 287.966 700.394 286.351C704.607 283.894 706.258 282.032 706.258 282.032C712.068 276.906 715.995 272.696 718.528 269.982C720.684 267.672 721.828 266.445 722.263 266.659C722.754 266.901 722.335 268.991 721.44 273.449C720.925 276.015 720.253 279.365 719.506 283.599C718.263 290.648 717.098 295.898 716.323 299.394L716.323 299.395L716.322 299.399L716.321 299.402L716.32 299.404C715.565 302.811 715.18 304.549 715.453 304.66C715.738 304.775 716.739 303.122 718.782 299.746L718.782 299.745L718.782 299.745L718.783 299.744L718.783 299.743L718.783 299.743L718.784 299.742L718.789 299.733L718.792 299.729L718.793 299.726C720.109 297.553 721.854 294.669 724.117 291.086C727.756 285.325 729.939 281.28 731.137 279.062C731.871 277.702 732.235 277.029 732.336 277.066C732.436 277.103 732.283 277.826 731.978 279.258C731.343 282.252 730.049 288.345 729.032 297.756C726.224 323.733 726.957 326.892 739.945 303.723C752.934 280.555 752.551 297.756 751.499 303.723C750.446 309.691 746.087 336.721 757.817 313.904C769.547 291.086 766.458 306.042 766.458 306.042C766.458 306.042 755.154 350.412 767.441 329.349C779.434 308.79 779.358 309.219 775.13 333.167L774.813 334.966C771.661 352.839 777.471 346.462 787.79 335.135C792.317 330.165 797.713 324.243 803.6 318.998C810.464 309.635 814.171 303.098 819.543 288.646L819.917 287.932C827.298 273.827 830.859 267.022 829.824 266.232C828.86 265.495 823.906 269.981 814.334 278.649L814.333 278.649L814.333 278.65L814.331 278.651L814.331 278.651L814.331 278.652L814.33 278.652L814.33 278.652L814.33 278.653L814.329 278.653L814.329 278.654L814.329 278.654L814.328 278.654C813.652 279.267 812.952 279.9 812.229 280.554C789.688 300.949 790.374 298.882 798.98 272.956C799.611 271.054 800.285 269.023 800.996 266.864C812.229 232.725 806.261 234.568 789.411 263.002C786.441 266.378 783.824 269.533 781.596 272.221L781.592 272.225L781.591 272.226L781.591 272.227L781.589 272.228C772.234 283.509 769.721 286.541 776.58 263.002C786.409 229.274 789.411 212.654 771.157 240.184C753.917 266.186 748.325 262.618 759.836 232.725C771.157 203.325 768.349 198.41 752.869 229.274C738.24 258.439 732.247 252.609 739.945 220.902C740.87 217.095 741.685 213.825 742.375 211.061L742.38 211.043C744.384 203.008 745.32 199.256 744.753 199.013ZM455.512 421.929L455.511 421.93C452.488 426.473 448.085 433.089 442.03 441.291C434.307 457.322 418.86 487.134 418.86 487.134C418.86 488.097 418.075 490.478 417.213 493.091C415.561 498.1 413.626 503.966 416.394 502.351C420.607 499.894 422.258 498.032 422.258 498.032C428.068 492.906 431.995 488.696 434.528 485.982C436.684 483.672 437.828 482.445 438.263 482.659C438.754 482.901 438.335 484.991 437.44 489.448C436.925 492.014 436.253 495.365 435.506 499.599C434.263 506.648 433.098 511.898 432.323 515.395C431.566 518.807 431.179 520.549 431.453 520.66C431.738 520.775 432.737 519.123 434.778 515.751L434.78 515.748L434.781 515.747L434.782 515.745L434.783 515.744L434.783 515.744C436.099 513.568 437.848 510.678 440.117 507.086C443.756 501.325 445.939 497.281 447.137 495.062C447.871 493.702 448.235 493.029 448.337 493.066C448.436 493.103 448.283 493.825 447.979 495.258C447.343 498.251 446.049 504.345 445.032 513.756C442.224 539.733 442.957 542.892 455.945 519.723C468.934 496.555 468.551 513.756 467.499 519.723C466.446 525.691 462.087 552.721 473.817 529.904C485.547 507.086 482.458 522.042 482.458 522.042C482.458 522.042 471.154 566.412 483.441 545.349C495.434 524.79 495.358 525.219 491.13 549.167L490.813 550.966C487.661 568.839 493.471 562.462 503.79 551.135C508.317 546.165 513.713 540.243 519.6 534.998C526.464 525.635 530.171 519.098 535.543 504.646L535.917 503.932C543.298 489.827 546.859 483.022 545.824 482.232C544.86 481.495 539.906 485.981 530.334 494.649L530.333 494.649L530.333 494.65L530.331 494.651L530.331 494.651L530.331 494.652L530.33 494.652L530.33 494.652L530.33 494.653L530.329 494.653L530.329 494.654L530.329 494.654L530.328 494.654L529.688 495.234C529.212 495.665 528.726 496.105 528.229 496.554C505.688 516.949 506.374 514.882 514.98 488.956C515.611 487.054 516.285 485.023 516.996 482.864C528.229 448.725 522.261 450.568 505.411 479.002C502.438 482.381 499.82 485.539 497.59 488.228C488.234 499.509 485.721 502.541 492.58 479.002C502.41 445.274 505.411 428.654 487.157 456.184C469.917 482.186 464.325 478.618 475.836 448.725C487.157 419.325 484.349 414.41 468.869 445.274C454.24 474.439 448.248 468.609 455.945 436.902C456.872 433.086 457.689 429.811 458.379 427.043C460.384 419.008 461.32 415.256 460.753 415.013C460.257 414.8 458.607 417.279 455.512 421.929ZM969.511 205.93C972.607 201.279 974.257 198.8 974.753 199.013C975.32 199.256 974.384 203.008 972.38 211.043L972.375 211.061C971.685 213.825 970.87 217.095 969.945 220.902C962.247 252.609 968.24 258.439 982.869 229.274C998.349 198.41 1001.16 203.325 989.836 232.725C978.325 262.618 983.917 266.186 1001.16 240.184C1019.41 212.654 1016.41 229.274 1006.58 263.002C999.721 286.541 1002.23 283.509 1011.59 272.228L1011.59 272.227L1011.59 272.226L1011.59 272.225L1011.6 272.221C1013.82 269.533 1016.44 266.378 1019.41 263.002C1036.26 234.568 1042.23 232.725 1031 266.864C1030.3 268.992 1029.63 270.996 1029.01 272.874L1028.98 272.956C1020.37 298.882 1019.69 300.949 1042.23 280.554L1043.47 279.431L1044.33 278.655C1053.9 269.983 1058.86 265.495 1059.82 266.232C1060.86 267.022 1057.3 273.822 1049.92 287.917L1049.92 287.92L1049.92 287.923L1049.92 287.927L1049.92 287.93L1049.54 288.646C1044.17 303.098 1040.46 309.635 1033.6 318.998C1027.71 324.242 1022.32 330.162 1017.79 335.13L1017.79 335.133L1017.79 335.134L1017.79 335.135C1007.47 346.462 1001.66 352.839 1004.81 334.966L1005.13 333.167C1009.36 309.219 1009.43 308.79 997.441 329.349C985.154 350.412 996.458 306.042 996.458 306.042C996.458 306.042 999.547 291.086 987.817 313.904C976.087 336.721 980.446 309.691 981.499 303.723C982.551 297.756 982.934 280.555 969.945 303.723C956.957 326.892 956.224 323.733 959.032 297.756C960.049 288.345 961.343 282.252 961.978 279.258C962.283 277.826 962.436 277.103 962.336 277.066C962.235 277.029 961.871 277.702 961.137 279.062C959.939 281.28 957.756 285.325 954.117 291.086C951.854 294.669 950.109 297.553 948.793 299.726L948.792 299.729L948.789 299.733L948.784 299.742L948.783 299.743L948.783 299.743L948.783 299.744L948.782 299.745L948.782 299.745L948.782 299.746C946.739 303.122 945.738 304.775 945.453 304.66C945.18 304.549 945.565 302.811 946.32 299.404L946.321 299.402L946.322 299.399L946.323 299.395L946.323 299.394C947.098 295.898 948.263 290.648 949.506 283.599C950.253 279.365 950.925 276.015 951.44 273.449C952.335 268.991 952.754 266.901 952.263 266.659C951.828 266.445 950.684 267.672 948.528 269.982C945.995 272.696 942.068 276.906 936.258 282.032C936.258 282.032 934.607 283.894 930.394 286.351C927.626 287.966 929.56 282.1 931.213 277.091C932.075 274.478 932.86 272.097 932.86 271.134C932.86 271.134 948.307 241.322 956.03 225.291C962.084 217.089 966.487 210.474 969.511 205.931L969.511 205.93ZM1253.51 421.929C1256.61 417.279 1258.26 414.8 1258.75 415.013C1259.32 415.255 1258.39 419.001 1256.38 427.022L1256.38 427.03L1256.38 427.031L1256.38 427.034L1256.38 427.042L1256.38 427.043C1255.69 429.811 1254.87 433.086 1253.95 436.902C1246.25 468.609 1252.24 474.439 1266.87 445.274C1282.35 414.41 1285.16 419.325 1273.84 448.725C1262.33 478.618 1267.92 482.186 1285.16 456.184C1303.41 428.654 1300.41 445.274 1290.58 479.002C1283.72 502.541 1286.23 499.509 1295.59 488.228C1297.82 485.539 1300.44 482.381 1303.41 479.002C1320.26 450.568 1326.23 448.725 1315 482.864C1314.29 485.023 1313.61 487.054 1312.98 488.956C1304.37 514.882 1303.69 516.949 1326.23 496.554L1327.5 495.404L1328.33 494.655C1337.9 485.983 1342.86 481.495 1343.82 482.232C1344.86 483.022 1341.3 489.822 1333.92 503.917L1333.92 503.92L1333.92 503.923L1333.92 503.927L1333.92 503.93L1333.54 504.646C1328.17 519.098 1324.46 525.635 1317.6 534.998C1311.71 540.243 1306.32 546.165 1301.79 551.135C1291.47 562.462 1285.66 568.839 1288.81 550.966L1289.13 549.168V549.167C1293.36 525.219 1293.43 524.79 1281.44 545.349C1269.15 566.412 1280.46 522.042 1280.46 522.042C1280.46 522.042 1283.55 507.086 1271.82 529.904C1260.09 552.721 1264.45 525.691 1265.5 519.723C1266.55 513.756 1266.93 496.555 1253.95 519.723C1240.96 542.892 1240.22 539.733 1243.03 513.756C1244.05 504.345 1245.34 498.252 1245.98 495.258L1245.98 495.257L1245.98 495.249L1245.98 495.243C1246.28 493.821 1246.44 493.103 1246.34 493.066C1246.23 493.029 1245.87 493.702 1245.14 495.062C1243.94 497.28 1241.76 501.325 1238.12 507.086C1235.85 510.673 1234.1 513.561 1232.79 515.735L1232.78 515.743C1230.74 519.12 1229.74 520.775 1229.45 520.66C1229.18 520.549 1229.57 518.808 1230.32 515.395C1231.1 511.898 1232.26 506.648 1233.51 499.599C1234.25 495.365 1234.93 492.014 1235.44 489.448C1236.33 484.991 1236.75 482.901 1236.26 482.659C1235.83 482.445 1234.68 483.672 1232.53 485.982C1230 488.696 1226.07 492.906 1220.26 498.032C1220.26 498.032 1218.61 499.894 1214.39 502.351C1211.63 503.966 1213.56 498.101 1215.21 493.092L1215.21 493.091L1215.21 493.088C1216.08 490.476 1216.86 488.097 1216.86 487.134C1216.86 487.134 1232.31 457.322 1240.03 441.291C1246.08 433.091 1250.49 426.476 1253.51 421.933L1253.51 421.929ZM1258.75 199.013C1258.26 198.8 1256.61 201.279 1253.51 205.929L1253.51 205.934L1253.51 205.938L1253.5 205.943C1250.48 210.486 1246.08 217.097 1240.03 225.291C1232.31 241.322 1216.86 271.134 1216.86 271.134C1216.86 272.097 1216.08 274.476 1215.21 277.088L1215.21 277.091L1215.21 277.092C1213.56 282.101 1211.63 287.966 1214.39 286.351C1218.61 283.894 1220.26 282.032 1220.26 282.032C1226.07 276.906 1230 272.696 1232.53 269.982C1234.68 267.672 1235.83 266.445 1236.26 266.659C1236.75 266.901 1236.33 268.991 1235.44 273.448C1234.93 276.014 1234.25 279.365 1233.51 283.599C1232.26 290.648 1231.1 295.898 1230.32 299.395C1229.57 302.808 1229.18 304.549 1229.45 304.66C1229.74 304.775 1230.74 303.12 1232.78 299.742L1232.79 299.736L1232.79 299.732L1232.8 299.722L1232.8 299.713C1234.12 297.541 1235.86 294.661 1238.12 291.086C1241.76 285.325 1243.94 281.28 1245.14 279.062C1245.87 277.702 1246.23 277.029 1246.34 277.066C1246.44 277.103 1246.28 277.821 1245.98 279.244L1245.98 279.249L1245.98 279.257L1245.98 279.258C1245.34 282.252 1244.05 288.346 1243.03 297.756C1240.22 323.733 1240.96 326.892 1253.95 303.723C1266.93 280.555 1266.55 297.756 1265.5 303.723C1264.45 309.691 1260.09 336.721 1271.82 313.904C1283.55 291.086 1280.46 306.042 1280.46 306.042C1280.46 306.042 1269.15 350.412 1281.44 329.349C1293.43 308.79 1293.36 309.219 1289.13 333.167V333.168L1288.81 334.966C1285.66 352.839 1291.47 346.462 1301.79 335.135C1306.32 330.165 1311.71 324.243 1317.6 318.998C1324.46 309.635 1328.17 303.098 1333.54 288.646L1333.92 287.93L1333.92 287.927L1333.92 287.923L1333.92 287.92L1333.92 287.917C1341.3 273.822 1344.86 267.022 1343.82 266.232C1342.86 265.495 1337.9 269.983 1328.33 278.655L1327.19 279.689L1326.23 280.554C1303.69 300.949 1304.37 298.882 1312.98 272.956L1313.01 272.874C1313.63 270.996 1314.3 268.992 1315 266.864C1326.23 232.725 1320.26 234.568 1303.41 263.002C1300.44 266.381 1297.82 269.539 1295.59 272.228C1286.23 283.509 1283.72 286.541 1290.58 263.002C1300.41 229.274 1303.41 212.654 1285.16 240.184C1267.92 266.186 1262.33 262.618 1273.84 232.725C1285.16 203.325 1282.35 198.41 1266.87 229.274C1252.24 258.439 1246.25 252.609 1253.95 220.902C1254.87 217.086 1255.69 213.811 1256.38 211.043L1256.38 211.039C1258.38 203.006 1259.32 199.256 1258.75 199.013ZM974.753 415.013C974.257 414.8 972.607 417.279 969.511 421.93C966.487 426.473 962.085 433.089 956.03 441.291C948.307 457.322 932.86 487.134 932.86 487.134C932.86 488.097 932.075 490.478 931.213 493.091C929.56 498.1 927.626 503.966 930.394 502.351C934.607 499.894 936.258 498.032 936.258 498.032C942.068 492.906 945.995 488.696 948.528 485.982C950.684 483.672 951.828 482.445 952.263 482.659C952.754 482.901 952.335 484.991 951.44 489.449C950.925 492.015 950.253 495.365 949.506 499.599C948.263 506.647 947.099 511.897 946.323 515.393L946.323 515.394C945.566 518.807 945.179 520.549 945.453 520.66C945.738 520.775 946.739 519.121 948.782 515.745L948.782 515.744L948.783 515.744C950.099 513.568 951.848 510.678 954.117 507.086C957.756 501.325 959.939 497.28 961.137 495.062C961.871 493.702 962.235 493.029 962.336 493.066C962.436 493.103 962.283 493.825 961.979 495.257L961.979 495.258C961.343 498.251 960.049 504.345 959.032 513.756C956.224 539.733 956.957 542.892 969.945 519.723C982.934 496.555 982.551 513.756 981.499 519.723C980.446 525.691 976.087 552.721 987.817 529.904C999.547 507.086 996.458 522.042 996.458 522.042C996.458 522.042 985.154 566.412 997.441 545.349C1009.43 524.79 1009.36 525.219 1005.13 549.167L1004.81 550.966C1001.66 568.839 1007.47 562.462 1017.79 551.135L1017.79 551.134L1017.79 551.133L1017.79 551.133L1017.79 551.131L1017.79 551.131L1017.8 551.126L1017.8 551.124C1022.33 546.157 1027.72 540.239 1033.6 534.998C1040.46 525.635 1044.17 519.098 1049.54 504.646L1049.92 503.93L1049.92 503.927L1049.92 503.923L1049.92 503.92L1049.92 503.917C1057.3 489.822 1060.86 483.022 1059.82 482.232C1058.86 481.495 1053.9 485.983 1044.33 494.655L1043.33 495.56L1042.23 496.554C1019.69 516.949 1020.37 514.882 1028.98 488.956L1029.01 488.865C1029.63 486.989 1030.3 484.989 1031 482.864C1042.23 448.725 1036.26 450.568 1019.41 479.002C1016.44 482.378 1013.82 485.533 1011.6 488.221L1011.59 488.225L1011.59 488.226L1011.59 488.227L1011.59 488.228C1002.23 499.509 999.721 502.541 1006.58 479.002C1016.41 445.274 1019.41 428.654 1001.16 456.184C983.917 482.186 978.325 478.618 989.836 448.725C1001.16 419.325 998.349 414.41 982.869 445.274C968.24 474.439 962.247 468.609 969.945 436.902C970.87 433.094 971.686 429.824 972.375 427.06L972.38 427.043C974.384 419.008 975.32 415.256 974.753 415.013ZM1483.51 205.929C1486.61 201.279 1488.26 198.8 1488.75 199.013C1489.32 199.256 1488.38 203.006 1486.38 211.039L1486.38 211.043C1485.69 213.811 1484.87 217.086 1483.95 220.902C1476.25 252.609 1482.24 258.439 1496.87 229.274C1512.35 198.41 1515.16 203.325 1503.84 232.725C1492.33 262.618 1497.92 266.186 1515.16 240.184C1533.41 212.654 1530.41 229.274 1520.58 263.002C1513.72 286.541 1516.23 283.509 1525.59 272.228C1527.82 269.539 1530.44 266.381 1533.41 263.002C1550.26 234.568 1556.23 232.725 1545 266.864C1544.29 269.023 1543.61 271.054 1542.98 272.956C1534.37 298.882 1533.69 300.949 1556.23 280.554C1556.95 279.901 1557.65 279.267 1558.33 278.655C1567.9 269.983 1572.86 265.495 1573.82 266.232C1574.86 267.022 1571.3 273.822 1563.92 287.917L1563.92 287.92L1563.92 287.923L1563.92 287.927L1563.92 287.93L1563.54 288.646C1558.17 303.098 1554.46 309.635 1547.6 318.998C1541.71 324.243 1536.32 330.165 1531.79 335.135C1521.47 346.462 1515.66 352.839 1518.81 334.966L1519.13 333.168V333.167C1523.36 309.219 1523.43 308.79 1511.44 329.349C1499.15 350.412 1510.46 306.042 1510.46 306.042C1510.46 306.042 1513.55 291.086 1501.82 313.904C1490.09 336.721 1494.45 309.691 1495.5 303.723C1496.55 297.756 1496.93 280.555 1483.95 303.723C1470.96 326.892 1470.22 323.733 1473.03 297.756C1474.05 288.346 1475.34 282.252 1475.98 279.258L1475.98 279.257L1475.98 279.249L1475.98 279.244C1476.28 277.821 1476.44 277.103 1476.34 277.066C1476.23 277.029 1475.87 277.702 1475.14 279.062C1473.94 281.28 1471.76 285.325 1468.12 291.086C1465.86 294.661 1464.12 297.541 1462.8 299.713L1462.8 299.722L1462.79 299.732L1462.79 299.736L1462.78 299.742C1460.74 303.12 1459.74 304.775 1459.45 304.66C1459.18 304.549 1459.57 302.808 1460.32 299.395C1461.1 295.898 1462.26 290.648 1463.51 283.599C1464.25 279.365 1464.93 276.014 1465.44 273.448C1466.33 268.991 1466.75 266.901 1466.26 266.659C1465.83 266.445 1464.68 267.672 1462.53 269.982C1460 272.696 1456.07 276.906 1450.26 282.032C1450.26 282.032 1448.61 283.894 1444.39 286.351C1441.63 287.966 1443.56 282.101 1445.21 277.092L1445.21 277.091L1445.21 277.088C1446.08 274.476 1446.86 272.097 1446.86 271.134C1446.86 271.134 1462.31 241.322 1470.03 225.291C1476.08 217.097 1480.48 210.486 1483.5 205.943L1483.51 205.938L1483.51 205.934L1483.51 205.929ZM1488.75 415.013C1488.26 414.8 1486.61 417.279 1483.51 421.929L1483.51 421.933C1480.49 426.476 1476.08 433.091 1470.03 441.291C1462.31 457.322 1446.86 487.134 1446.86 487.134C1446.86 488.097 1446.08 490.476 1445.21 493.088L1445.21 493.091L1445.21 493.092C1443.56 498.101 1441.63 503.966 1444.39 502.351C1448.61 499.894 1450.26 498.032 1450.26 498.032C1456.07 492.906 1460 488.696 1462.53 485.982C1464.68 483.672 1465.83 482.445 1466.26 482.659C1466.75 482.901 1466.33 484.991 1465.44 489.448C1464.93 492.014 1464.25 495.365 1463.51 499.599C1462.26 506.648 1461.1 511.898 1460.32 515.395C1459.57 518.808 1459.18 520.549 1459.45 520.66C1459.74 520.775 1460.74 519.12 1462.78 515.743L1462.79 515.735C1464.1 513.561 1465.85 510.673 1468.12 507.086C1471.76 501.325 1473.94 497.28 1475.14 495.062C1475.87 493.702 1476.23 493.029 1476.34 493.066C1476.44 493.103 1476.28 493.821 1475.98 495.243L1475.98 495.249L1475.98 495.257L1475.98 495.258C1475.34 498.252 1474.05 504.345 1473.03 513.756C1470.22 539.733 1470.96 542.892 1483.95 519.723C1496.93 496.555 1496.55 513.756 1495.5 519.723C1494.45 525.691 1490.09 552.721 1501.82 529.904C1513.55 507.086 1510.46 522.042 1510.46 522.042C1510.46 522.042 1499.15 566.412 1511.44 545.349C1523.43 524.79 1523.36 525.219 1519.13 549.167V549.168L1518.81 550.966C1515.66 568.839 1521.47 562.462 1531.79 551.135C1536.32 546.165 1541.71 540.243 1547.6 534.998C1554.46 525.635 1558.17 519.098 1563.54 504.646L1563.92 503.93L1563.92 503.927L1563.92 503.923L1563.92 503.92C1571.3 489.823 1574.86 483.022 1573.82 482.232C1572.86 481.495 1567.9 485.983 1558.33 494.655L1557.09 495.771L1556.23 496.554C1533.69 516.949 1534.37 514.882 1542.98 488.956L1543 488.904C1543.31 487.955 1543.64 486.974 1543.97 485.962C1544.3 484.96 1544.65 483.928 1545 482.864C1556.23 448.725 1550.26 450.568 1533.41 479.002C1530.44 482.381 1527.82 485.539 1525.59 488.228C1516.23 499.509 1513.72 502.541 1520.58 479.002C1530.41 445.274 1533.41 428.654 1515.16 456.184C1497.92 482.186 1492.33 478.618 1503.84 448.725C1515.16 419.325 1512.35 414.41 1496.87 445.274C1482.24 474.439 1476.25 468.609 1483.95 436.902C1484.87 433.086 1485.69 429.811 1486.38 427.043L1486.38 427.042L1486.38 427.034L1486.38 427.031C1488.39 419.004 1489.32 415.255 1488.75 415.013Z" fill="white"/>
</svg>
