<svg width="662" height="666" viewBox="0 0 662 666" fill="none" xmlns="http://www.w3.org/2000/svg">
<circle cx="331.006" cy="330.705" r="242.576" transform="rotate(-29.1482 331.006 330.705)" fill="black"/>
<path d="M505.946 227.318C558.576 321.688 520.244 443.472 420.165 499.286C320.086 555.1 196.331 523.711 143.701 429.34C91.0706 334.97 129.402 213.185 229.481 157.372C329.56 101.558 453.316 132.947 505.946 227.318Z" fill="black" stroke="#C4C4C4" stroke-width="2"/>
<path d="M468.261 247.89C509.754 322.291 479.542 418.328 400.608 462.349C321.674 506.37 224.091 481.603 182.598 407.203C141.105 332.802 171.317 236.765 250.25 192.744C329.184 148.723 426.768 173.489 468.261 247.89Z" fill="black" stroke="#C4C4C4" stroke-width="2.08917"/>
<path d="M433.279 267.766C464.769 324.231 441.847 397.135 381.916 430.559C321.985 463.982 247.913 445.17 216.423 388.706C184.933 332.241 207.855 259.337 267.786 225.913C327.717 192.49 401.788 211.302 433.279 267.766Z" fill="black" stroke="#C4C4C4" stroke-width="2"/>
<g filter="url(#filter0_bii)">
<circle cx="331.006" cy="331.008" r="242.576" transform="rotate(-29.1482 331.006 331.008)" fill="black" fill-opacity="0.045"/>
</g>
<circle cx="325.324" cy="329.303" r="83.7989" fill="#1C1CD2"/>
<path d="M134.075 255.23C133.103 258.849 132.941 262.132 133.6 265.134C134.258 268.136 135.766 270.652 138.123 272.683C140.481 274.713 143.556 276.054 147.406 276.689C151.256 277.324 154.785 277.072 157.987 275.958C164.396 273.704 168.703 268.472 170.639 261.259L175.129 244.537C172.252 244.74 168.518 244.463 163.903 243.702L149.267 241.289C144.652 240.528 141.093 239.602 138.564 238.508L134.075 255.23ZM162.946 253.318L161.15 260.007C160.514 262.378 159.155 264.265 157.081 265.644C155.014 266.997 152.651 267.467 149.999 267.03C147.347 266.593 145.426 265.416 144.204 263.52C142.989 261.6 142.716 259.444 143.352 257.073L145.148 250.384L162.946 253.318Z" fill="#FE3176"/>
<path d="M156.54 294.888C156.358 296.505 156.656 297.761 157.453 298.706C158.225 299.65 159.285 300.105 160.654 300.097C162.024 300.088 163.213 299.619 164.224 298.663C165.235 297.707 165.816 296.446 165.998 294.828C166.174 293.261 165.876 292.006 165.078 291.061C164.28 290.117 163.198 289.636 161.829 289.645C160.485 289.653 159.319 290.148 158.308 291.104C157.296 292.06 156.716 293.321 156.54 294.888ZM126.554 300.902C129.213 300.218 132.946 299.861 137.778 299.831L147.728 299.768C149.976 299.754 151.745 299.871 153.088 300.093C152.414 298.968 152.214 297.301 152.465 295.067C152.716 292.833 153.3 291.084 154.245 289.795C153.134 290.033 151.311 290.173 148.804 290.189L138.855 290.251C134.022 290.282 130.364 289.971 127.855 289.32L126.554 300.902Z" fill="#FE3176"/>
<path d="M114.665 331.148C115.037 341.093 119.671 349.21 128.567 347.725C129.918 347.5 131.306 346.904 132.756 345.96L142.468 344.34C146.725 343.629 150.408 343.327 153.465 343.414L153.005 331.898C151.976 332.46 151.095 332.893 150.362 333.171C149.628 333.423 148.713 333.654 147.617 333.837L146.572 334.011L146.545 333.34C148.679 332.152 150.383 330.49 151.632 328.358C152.855 326.204 153.425 323.77 153.316 321.033C152.99 312.873 146.646 309.512 139.025 310.784C136.425 311.218 134.124 312.07 132.097 313.37C130.071 314.67 128.496 316.362 127.324 318.508C126.153 320.653 125.632 323.027 125.738 325.687C125.847 328.424 126.628 330.633 128.054 332.293C129.48 333.952 131.295 335.053 133.496 335.569L133.517 336.086C132.284 337.331 130.928 338.078 129.45 338.324C126.722 338.779 124.616 338.091 123.133 336.285C121.648 334.453 120.851 331.831 120.716 328.448C120.61 325.789 120.887 323.091 121.547 320.33C122.206 317.568 123.168 315.302 124.43 313.506L116.376 314.85C115.715 316.936 115.224 319.435 114.93 322.344C114.635 325.252 114.547 328.178 114.665 331.148ZM132.324 328.695C132.232 326.397 132.845 324.397 134.164 322.721C135.483 321.045 137.213 320.029 139.379 319.667C141.495 319.314 143.283 319.744 144.717 320.96C146.151 322.176 146.915 323.946 147.006 326.245C147.093 328.414 146.476 330.31 145.129 331.938C143.783 333.567 142.078 334.553 139.987 334.902C138.05 335.225 136.313 334.787 134.778 333.614C133.218 332.445 132.407 330.786 132.324 328.695Z" fill="#FE3176"/>
<path d="M159.717 358.68C160.036 360.276 160.702 361.38 161.749 362.035C162.771 362.697 163.918 362.806 165.219 362.377C166.52 361.948 167.508 361.137 168.18 359.916C168.851 358.695 169.019 357.316 168.7 355.72C168.39 354.174 167.724 353.07 166.677 352.415C165.631 351.761 164.454 351.635 163.153 352.064C161.877 352.485 160.918 353.314 160.247 354.534C159.576 355.755 159.407 357.134 159.717 358.68ZM133.011 373.612C135.333 372.144 138.777 370.658 143.367 369.146L152.816 366.032C154.952 365.328 156.671 364.897 158.017 364.696C157.033 363.832 156.335 362.306 155.894 360.102C155.452 357.897 155.475 356.053 155.982 354.535C154.997 355.103 153.304 355.796 150.924 356.58L141.474 359.694C136.884 361.206 133.308 362.034 130.722 362.184L133.011 373.612Z" fill="#FE3176"/>
<path d="M140.782 400.256C141.503 402.386 142.868 404.499 144.09 405.546L150.887 402.389C149.981 401.875 148.983 400.526 148.444 398.935C147.36 395.728 148.346 393.032 151.651 391.497L160.675 387.307L163.672 396.169L167.375 394.449L164.378 385.587L173.988 381.124L168.935 373.642L161.505 377.092L159.799 372.049L156.096 373.769L157.802 378.812L145.754 384.407C138.981 387.553 138.588 393.769 140.782 400.256Z" fill="#FE3176"/>
<path d="M151.947 423.857C154.49 428.445 157.914 430.372 161.167 429.812L161.443 430.309L161.056 430.567C159.616 431.528 158.406 432.056 157.394 432.143L162.644 441.613C163.347 440.649 164.305 439.669 165.511 438.71C166.704 437.728 168.516 436.427 170.902 434.836L176.298 431.236C178.9 429.501 180.35 427.017 180.67 424.513C180.829 423.261 180.76 421.914 180.505 420.444C179.95 417.532 178.868 414.941 177.251 412.025C176.299 410.308 175.062 408.501 173.574 406.614C172.053 404.719 170.832 403.366 169.89 402.571L164.73 406.012C165.724 406.371 166.904 407.224 168.236 408.565C169.568 409.906 170.735 411.48 171.725 413.265C172.978 415.526 173.529 417.635 173.378 419.593C173.193 421.543 172.214 423.125 170.387 424.344L167.871 426.022L167.545 425.434C168.467 424.015 168.922 422.287 168.878 420.242C168.834 418.197 168.215 416.071 166.975 413.833C165.308 410.827 163.296 408.95 160.959 408.187C158.622 407.424 156.352 407.792 154.181 409.24C152.009 410.689 150.667 412.729 150.188 415.371C149.687 418.027 150.281 420.851 151.947 423.857ZM158.286 424.613C156.444 421.291 156.717 418.384 158.695 417.065C160.651 415.76 163.087 416.86 164.929 420.182C165.843 421.832 166.273 423.404 166.183 424.888C166.093 426.372 165.607 427.408 164.747 427.982C162.683 429.358 160.203 428.071 158.286 424.613Z" fill="#FE3176"/>
<path d="M177.293 459.702C179.102 457.21 181.683 454.485 184.996 451.561L196.118 441.746C199.432 438.822 202.431 436.622 205.078 435.181L197.895 426.168C196.185 428.537 193.588 431.242 190.159 434.268L179.037 444.083C175.607 447.11 172.624 449.33 170.109 450.689L177.293 459.702Z" fill="#FE3176"/>
<path d="M208.037 488.666C209.131 486.113 210.995 483.03 213.644 479.397L218.056 473.434L218.392 473.674C217.215 476.167 217.081 478.674 217.992 481.197C218.888 483.74 220.557 485.882 223.018 487.638C225.985 489.753 229.12 490.497 232.388 489.876C235.634 489.239 238.539 487.185 241.112 483.656C243.716 480.085 244.327 476.046 243.211 472.488C242.095 468.931 239.549 465.624 235.951 463.058L220.402 451.97C219.335 454.573 217.432 457.754 214.676 461.534L205.937 473.52C203.181 477.299 200.73 480.09 198.569 481.914L208.037 488.666ZM223.793 479.557C222.741 478.807 221.899 477.857 221.26 476.671C220.621 475.486 220.291 474.14 220.328 472.642C220.349 471.166 220.808 469.747 221.725 468.402L223.75 465.625C225.411 466.46 227.438 467.715 229.774 469.381C231.731 470.776 232.953 472.346 233.434 474.054C233.895 475.747 233.595 477.343 232.544 478.783C231.555 480.141 230.243 480.887 228.588 481.008C226.932 481.129 225.329 480.652 223.793 479.557Z" fill="#FE3176"/>
<path d="M246.422 511.513C246.563 509.744 247.315 507.51 248.665 504.833L250.574 501.05C251.645 498.927 253.335 497.469 255.607 496.689C257.88 495.909 260.075 495.968 262.159 496.879C263.177 497.325 264.102 497.955 264.898 498.725C265.694 499.496 266.23 500.266 266.53 500.989L270.465 493.191C269.455 492.214 268.317 491.434 267.038 490.875C262.564 488.917 257.842 490.541 254.123 495.335L253.578 495.097L254.463 493.344C254.975 492.329 255.629 491.319 256.46 490.302C257.279 489.309 258.053 488.577 258.793 488.084L247.784 483.268C247.106 485.929 245.911 488.983 244.177 492.421L240.696 499.319C239.229 502.226 237.606 504.755 235.862 506.893L246.422 511.513Z" fill="#FE3176"/>
<path d="M282.846 524.899C285.241 525.438 287.732 525.76 290.354 525.849C292.975 525.937 295.023 525.791 296.538 525.366L298.587 518.493C297.337 519.267 295.647 519.731 293.516 519.885C291.376 520.064 289.239 519.9 287.121 519.424C281.291 518.218 277.149 513.778 278.305 509.765L278.747 509.653C280.901 512.116 284.231 513.867 288.744 514.882C296.031 516.52 300.5 515.151 302.059 510.304C302.826 507.918 302.406 505.528 300.733 503.332C299.035 501.13 295.492 499.199 290.551 498.088C285.508 496.954 280.797 497.478 277.324 499.282C273.851 501.086 271.303 504.048 270.108 507.763C268.834 511.724 269.343 515.268 271.653 518.425C273.963 521.583 277.677 523.737 282.846 524.899ZM286.327 510.882C283.175 510.174 280.893 508.948 279.421 507.219C280.238 505.688 281.449 504.615 283.078 504.005C284.699 503.42 286.379 503.323 288.119 503.714C290.01 504.139 291.412 504.824 292.375 505.779C293.331 506.759 293.618 507.8 293.262 508.907C292.542 511.145 289.226 511.534 286.327 510.882Z" fill="#FE3176"/>
<path d="M320.13 530.661C324.521 530.801 328.069 530.143 330.75 528.688C333.43 527.232 334.976 525.201 335.365 522.568C336.819 512.725 317.138 516.31 317.757 512.117C317.969 510.685 320.197 509.832 323.606 509.941C325.673 510.007 327.701 510.328 329.662 510.93C331.624 511.532 333.164 512.172 334.335 512.852L335.404 505.617C331.882 503.989 328.065 503.122 323.958 502.991C319.748 502.857 316.38 503.52 313.803 504.979C311.226 506.438 309.78 508.318 309.437 510.644C308.696 515.655 313.245 517.187 317.921 518.03C322.572 518.872 327.325 519.024 326.989 521.299C326.747 522.935 324.585 523.688 320.53 523.559C318.593 523.497 316.391 523.118 313.903 522.397C311.388 521.674 309.306 520.837 307.63 519.885L306.463 527.784C308.022 528.476 310.186 529.11 312.951 529.712C315.721 530.289 318.115 530.596 320.13 530.661Z" fill="#FE3176"/>
<path d="M361.611 529.507C364.038 529.142 366.486 528.54 368.978 527.671C371.471 526.803 373.347 525.924 374.632 524.979L374.305 517.819C373.384 518.995 371.948 520.042 369.995 520.958C368.043 521.9 365.981 522.522 363.834 522.846C357.959 523.835 352.612 521.192 352.383 517.026L352.761 516.761C355.593 518.279 359.297 518.706 363.871 518.017C371.256 516.905 375.007 514.006 374.884 508.916C374.823 506.41 373.644 504.332 371.352 502.888C369.034 501.448 365.072 500.93 360.064 501.685C354.953 502.455 350.697 504.652 348.024 507.596C345.352 510.539 343.928 514.229 344.023 518.13C344.123 522.289 345.764 525.413 348.97 527.523C352.176 529.633 356.372 530.297 361.611 529.507ZM360.288 515.16C357.094 515.642 354.547 515.325 352.597 514.245C352.863 512.519 353.649 511.078 354.98 509.919C356.312 508.784 357.859 508.085 359.623 507.819C361.539 507.53 363.081 507.661 364.3 508.203C365.519 508.771 366.13 509.639 366.158 510.801C366.215 513.152 363.227 514.718 360.288 515.16Z" fill="#FE3176"/>
<path d="M399.883 521.384C399.362 520.618 398.827 519.338 398.229 517.562C397.632 515.786 397.172 514.151 396.826 512.666L395.936 508.84C395.496 506.953 395.772 505.079 396.726 503.179C397.686 501.303 399.15 500.01 401.118 499.298C404.982 497.9 407.84 499.65 408.807 503.803L409.75 507.855C410.5 511.077 410.899 514.262 410.94 517.385L421.779 513.465C420.569 510.983 419.498 507.74 418.555 503.688L417.448 498.931C416.598 495.281 414.964 492.789 412.54 491.428C410.091 490.076 407.105 490.037 403.532 491.33C398.526 493.14 395.686 496.787 395.007 502.245L394.448 502.447L394.208 501.415C393.698 499.225 393.635 497.256 394.03 495.558L383.046 499.531C384.292 502.055 385.327 505.146 386.177 508.795L387.928 516.321C388.631 519.341 389.014 522.341 389.045 525.305L399.883 521.384Z" fill="#FE3176"/>
<path d="M451.34 500.277C453.297 499.17 455.227 497.369 456.173 495.888L453.127 489.041C452.668 490.098 451.438 491.385 449.976 492.212C447.03 493.878 444.518 493.231 443.037 489.901L438.993 480.811L447.135 476.205L445.476 472.474L437.333 477.08L433.027 467.399L426.198 474.01L429.528 481.495L424.894 484.116L426.554 487.847L431.187 485.226L436.586 497.362C439.622 504.186 445.379 503.648 451.34 500.277Z" fill="#FE3176"/>
<path d="M383.101 329.794C383.101 360.468 357.28 385.417 325.324 385.417C293.368 385.417 267.547 360.468 267.547 329.794C267.547 299.121 293.368 274.172 325.324 274.172C357.28 274.172 383.101 299.121 383.101 329.794Z" fill="#FE3176" stroke="black" stroke-width="2.64628"/>
<circle cx="326.207" cy="327.538" r="8.82094" fill="black"/>
<defs>
<filter id="filter0_bii" x="-31.3454" y="-31.3436" width="724.703" height="724.703" filterUnits="userSpaceOnUse" color-interpolation-filters="sRGB">
<feFlood flood-opacity="0" result="BackgroundImageFix"/>
<feGaussianBlur in="BackgroundImage" stdDeviation="5.82182"/>
<feComposite in2="SourceAlpha" operator="in" result="effect1_backgroundBlur"/>
<feBlend mode="normal" in="SourceGraphic" in2="effect1_backgroundBlur" result="shape"/>
<feColorMatrix in="SourceAlpha" type="matrix" values="0 0 0 0 0 0 0 0 0 0 0 0 0 0 0 0 0 0 127 0" result="hardAlpha"/>
<feOffset dx="-32.3434" dy="32.3434"/>
<feGaussianBlur stdDeviation="16.1717"/>
<feComposite in2="hardAlpha" operator="arithmetic" k2="-1" k3="1"/>
<feColorMatrix type="matrix" values="0 0 0 0 1 0 0 0 0 1 0 0 0 0 1 0 0 0 0.045 0"/>
<feBlend mode="normal" in2="shape" result="effect2_innerShadow"/>
<feColorMatrix in="SourceAlpha" type="matrix" values="0 0 0 0 0 0 0 0 0 0 0 0 0 0 0 0 0 0 127 0" result="hardAlpha"/>
<feOffset dx="32.3434" dy="-32.3434"/>
<feGaussianBlur stdDeviation="16.1717"/>
<feComposite in2="hardAlpha" operator="arithmetic" k2="-1" k3="1"/>
<feColorMatrix type="matrix" values="0 0 0 0 0 0 0 0 0 0 0 0 0 0 0 0 0 0 0.045 0"/>
<feBlend mode="normal" in2="effect2_innerShadow" result="effect3_innerShadow"/>
</filter>
</defs>
</svg>
