<svg width="662" height="661" viewBox="0 0 662 661" fill="none" xmlns="http://www.w3.org/2000/svg">
<circle cx="331.008" cy="330.705" r="242.576" transform="rotate(-29.1482 331.008 330.705)" fill="black"/>
<path d="M509.948 225.318C562.578 319.688 524.246 441.473 424.167 497.286C324.088 553.1 200.333 521.711 147.703 427.34C95.0725 332.97 133.404 211.186 233.483 155.372C333.562 99.5582 457.318 130.947 509.948 225.318Z" fill="black" stroke="#C4C4C4" stroke-width="2"/>
<path d="M472.263 245.89C513.756 320.291 483.544 416.328 404.61 460.349C325.676 504.37 228.093 479.604 186.6 405.203C145.107 330.802 175.319 234.765 254.252 190.744C333.186 146.723 430.77 171.489 472.263 245.89Z" fill="black" stroke="#C4C4C4" stroke-width="2.08917"/>
<path d="M437.28 265.767C468.771 322.231 445.849 395.136 385.918 428.559C325.987 461.982 251.915 443.17 220.425 386.706C188.935 330.241 211.857 257.337 271.788 223.914C331.719 190.49 405.79 209.302 437.28 265.767Z" fill="black" stroke="#C4C4C4" stroke-width="2"/>
<g filter="url(#filter0_bii)">
<circle cx="330.008" cy="330.705" r="242.576" transform="rotate(-29.1482 330.008 330.705)" fill="black" fill-opacity="0.045"/>
</g>
<circle cx="328.888" cy="327.522" r="83.7989" fill="#DBF429"/>
<path fill-rule="evenodd" clip-rule="evenodd" d="M416.546 339.09C411.8 383.249 374.411 417.635 328.991 417.635C311.575 417.635 295.34 412.579 281.673 403.855L286.364 399.633C289.606 396.715 290.184 392.03 287.979 388.48L294.658 388.48L301.578 382.091L291.346 380.172V371.195L283.79 377.287L283.79 384.906C280.577 383.547 276.71 384.063 273.974 386.525L267.361 392.476C251.049 376.492 240.927 354.213 240.927 329.571C240.927 309.476 247.657 290.953 258.987 276.134C258.16 279.012 258.839 282.233 261.071 284.595C264.493 288.215 270.267 288.448 273.97 285.116L286.364 273.962C289.606 271.044 290.184 266.358 287.979 262.808L294.658 262.808L301.578 256.419L291.346 254.5V249.935C302.76 244.53 315.523 241.507 328.991 241.507C355.301 241.507 378.917 253.045 395.054 271.337L394.309 272.007C390.607 275.339 390.379 280.975 393.8 284.595C396.882 287.855 401.874 288.368 405.54 286.003C411.341 296.173 415.174 307.612 416.519 319.8L416.519 322.071C413.306 320.712 409.439 321.227 406.703 323.689L394.309 334.844C390.607 338.176 390.379 343.811 393.8 347.431C397.221 351.051 402.996 351.284 406.698 347.952L416.546 339.09ZM283.79 253.976C277.26 257.889 271.28 262.624 265.991 268.037L273.974 260.853C276.71 258.391 280.577 257.876 283.79 259.235L283.79 253.976ZM351.058 388.48C353.263 392.03 352.685 396.715 349.443 399.633L337.049 410.788C333.347 414.12 327.572 413.886 324.151 410.266C320.729 406.647 320.957 401.011 324.659 397.679L337.053 386.525C339.789 384.063 343.656 383.547 346.869 384.906L346.869 377.287L354.426 371.195V380.172L364.657 382.091L357.737 388.48L351.058 388.48ZM287.979 325.644C290.184 329.195 289.606 333.88 286.364 336.798L273.97 347.952C270.267 351.284 264.493 351.051 261.071 347.431C257.65 343.811 257.878 338.176 261.58 334.844L273.974 323.689C276.71 321.227 280.577 320.712 283.79 322.071L283.79 314.452L291.346 308.36V317.336L301.578 319.255L294.658 325.644H287.979ZM349.443 336.798C352.685 333.88 353.263 329.195 351.058 325.644H357.737L364.657 319.255L354.426 317.336V308.36L346.869 314.452L346.869 322.071C343.656 320.712 339.789 321.227 337.053 323.689L324.659 334.844C320.957 338.176 320.729 343.811 324.151 347.431C327.572 351.051 333.347 351.284 337.049 347.952L349.443 336.798ZM351.058 262.808C353.263 266.358 352.685 271.044 349.443 273.962L337.049 285.116C333.347 288.448 327.572 288.215 324.151 284.595C320.729 280.975 320.957 275.339 324.659 272.007L337.053 260.853C339.789 258.391 343.656 257.876 346.869 259.235L346.869 251.615L354.426 245.524V254.5L364.657 256.419L357.737 262.808L351.058 262.808Z" fill="#1C1CD2"/>
<circle cx="328.844" cy="325.758" r="8.82094" fill="#767676"/>
<path d="M213.997 480.889C216.98 482.863 219.839 483.973 222.624 484.224C225.408 484.474 227.946 483.779 230.236 482.138C232.525 480.498 234.36 477.977 235.737 474.516C237.114 471.055 237.641 467.64 237.339 464.284C236.714 457.559 233.018 451.957 227.073 448.022L213.291 438.902C212.859 441.685 211.823 445.14 210.172 449.288L204.938 462.444C203.288 466.592 201.717 469.693 200.215 471.769L213.997 480.889ZM218.442 452.995L223.955 456.643C225.909 457.936 227.284 459.773 228.058 462.138C228.811 464.49 228.724 466.864 227.776 469.248C226.828 471.631 225.383 473.107 223.453 473.712C221.503 474.304 219.545 473.934 217.591 472.641L212.078 468.993L218.442 452.995Z" fill="#2323EF"/>
<path d="M248.275 510.528C256.881 514.556 265.418 514.064 267.26 505.655C267.614 504.04 267.532 502.276 267.015 500.363L269.327 489.809C269.712 488.05 270.101 486.612 270.489 485.518C270.871 484.447 271.38 483.25 271.993 481.916L262.016 477.278C262.122 478.257 262.044 479.627 261.798 481.425C261.547 483.246 261.266 484.867 260.944 486.337L260.141 490C259.745 491.807 258.821 493.103 257.34 493.901C255.853 494.723 254.207 494.701 252.417 493.87C248.838 492.206 247.308 488.84 248.179 484.864L249.04 480.936C249.752 477.683 250.687 474.879 251.839 472.547L241.863 467.909C241.836 470.844 241.397 474.198 240.573 477.956L239.565 482.559C238.8 486.053 239.098 489.191 240.46 491.975C241.799 494.748 244.133 496.921 247.421 498.45C252.163 500.654 256.039 499.615 258.553 495.899L259.001 496.107C259.666 497.796 259.845 499.34 259.534 500.762C258.969 503.34 257.669 504.886 255.611 505.39C253.554 505.894 251.04 505.442 248.065 504.059C245.761 502.988 243.559 501.566 241.436 499.783C239.313 497.999 237.717 496.169 236.627 494.282L234.959 501.896C236.484 503.375 238.465 504.906 240.863 506.446C243.262 507.986 245.725 509.343 248.275 510.528Z" fill="#2323EF"/>
<path d="M284.424 511.019C288.437 512.238 291.636 512.454 293.998 511.66C296.361 510.866 297.656 509.219 297.863 506.687C298.635 497.222 280.888 495.962 281.217 491.93C281.33 490.553 283.313 490.249 286.429 491.195C288.317 491.769 290.185 492.588 292.008 493.671C293.83 494.754 295.271 495.771 296.377 496.737L296.945 489.779C293.641 487.289 290.112 485.486 286.359 484.346C282.512 483.178 279.478 483.012 277.21 483.834C274.942 484.657 273.729 486.178 273.546 488.415C273.153 493.234 277.388 495.881 281.7 497.871C285.988 499.854 290.331 501.174 290.153 503.362C290.024 504.935 288.096 505.156 284.39 504.03C282.62 503.492 280.591 502.573 278.281 501.242C275.947 499.903 274.001 498.556 272.419 497.193L271.799 504.79C273.26 505.864 275.269 507.028 277.825 508.309C280.383 509.565 282.584 510.46 284.424 511.019Z" fill="#2323EF"/>
<path d="M316.296 516.984C318.409 517.36 320.752 517.186 322.12 516.643L321.969 509.491C321.182 510.015 319.638 510.232 318.059 509.951C314.878 509.386 312.922 507.319 312.849 503.842L312.649 494.347L321.441 495.909L321.359 492.012L312.567 490.451L312.354 480.339L303.975 481.136L304.14 488.954L299.137 488.065L299.219 491.961L304.222 492.85L304.489 505.526C304.639 512.653 309.86 515.841 316.296 516.984Z" fill="#2323EF"/>
<path d="M347.441 517.146C351.282 515.936 353.507 513.59 354.475 510.44C354.937 508.877 355.059 507.153 354.823 505.318C354.587 503.483 354.019 501.733 353.149 500.116C351.36 496.88 348.529 494.309 344.308 492.753C342.199 491.988 339.887 491.555 337.373 491.455C334.859 491.354 332.636 491.607 330.702 492.211C326.839 493.445 324.643 495.816 323.696 498.942C323.21 500.505 323.088 502.228 323.324 504.063C323.559 505.898 324.124 507.624 325.019 509.242C326.783 512.477 329.617 515.073 333.836 516.604C335.948 517.394 338.259 517.827 340.773 517.927C343.287 518.027 345.511 517.775 347.441 517.146ZM334.533 509.621C333.004 508.222 332.119 506.483 331.852 504.403C331.584 502.323 332.027 500.613 333.21 499.321C334.392 498.03 336.033 497.438 338.152 497.522C340.272 497.607 342.082 498.336 343.611 499.736C345.115 501.134 346.003 502.898 346.27 504.977C346.537 507.057 346.092 508.743 344.934 510.036C343.751 511.327 342.114 511.944 339.994 511.859C337.874 511.775 336.061 511.021 334.533 509.621Z" fill="#2323EF"/>
<path d="M372.151 524.641C370.699 521.548 369.503 518.174 368.558 514.495L367.109 508.857L367.72 508.775C369.061 510.746 370.78 512.222 372.903 513.198C375.007 514.202 377.367 514.53 379.983 514.181C383.797 513.671 386.559 511.82 387.913 509.218C389.267 506.615 389.502 503.298 388.569 499.666C387.641 496.059 385.767 492.998 383.21 490.918C380.652 488.838 377.154 487.822 373.34 488.331C370.748 488.677 368.707 489.592 367.248 491.096C365.788 492.601 364.916 494.422 364.625 496.537L363.965 496.625L363.701 495.598C363.302 494.045 363.184 492.306 363.346 490.382L352.442 491.837C353.722 494.36 354.9 497.761 355.987 501.99L359.511 515.703C360.598 519.931 361.189 523.411 361.247 526.096L372.151 524.641ZM374.573 508.676C372.519 508.95 370.654 508.482 368.953 507.276C367.252 506.07 366.181 504.558 365.708 502.718C365.204 500.759 365.447 499.046 366.43 497.556C367.388 496.069 368.933 495.196 371.036 494.915C373.188 494.628 375.114 495.038 376.784 496.124C378.46 497.235 379.544 498.795 380.06 500.802C380.582 502.833 380.345 504.569 379.332 506.039C378.319 507.509 376.749 508.385 374.573 508.676Z" fill="#2323EF"/>
<path d="M387.735 482.399C389.233 481.985 390.256 481.268 390.845 480.212C391.442 479.179 391.513 478.062 391.072 476.831C390.631 475.6 389.838 474.697 388.667 474.127C387.497 473.557 386.19 473.485 384.692 473.899C383.242 474.299 382.218 475.016 381.63 476.072C381.041 477.128 380.955 478.275 381.395 479.506C381.828 480.714 382.637 481.587 383.807 482.157C384.978 482.727 386.284 482.8 387.735 482.399ZM402.566 507.266C401.117 505.115 399.619 501.879 398.065 497.536L394.864 488.595C394.141 486.574 393.687 484.939 393.46 483.649C392.672 484.658 391.251 485.434 389.182 486.005C387.114 486.577 385.372 486.676 383.926 486.284C384.489 487.201 385.19 488.793 385.996 491.046L389.196 499.987C390.751 504.33 391.63 507.737 391.843 510.23L402.566 507.266Z" fill="#2323EF"/>
<path d="M416.438 502.561C421.046 500.602 423.311 497.496 423.248 494.281L423.747 494.068L423.932 494.472C424.621 495.974 424.941 497.205 424.88 498.195L434.391 494.152C433.596 493.364 432.822 492.327 432.102 491.052C431.36 489.787 430.408 487.888 429.267 485.399L426.687 479.77C425.443 477.057 423.344 475.377 421.068 474.791C419.93 474.498 418.672 474.416 417.274 474.502C414.498 474.717 411.945 475.481 409.017 476.726C407.292 477.459 405.444 478.459 403.487 479.693C401.518 480.959 400.093 481.993 399.224 482.818L401.691 488.2C402.162 487.276 403.119 486.227 404.548 485.083C405.977 483.94 407.599 482.982 409.392 482.22C411.662 481.255 413.694 480.953 415.488 481.316C417.269 481.711 418.598 482.834 419.472 484.74L420.674 487.364L420.084 487.615C418.898 486.565 417.36 485.933 415.459 485.75C413.557 485.566 411.501 485.932 409.253 486.887C406.234 488.171 404.213 489.914 403.178 492.096C402.144 494.277 402.167 496.518 403.205 498.783C404.243 501.047 405.947 502.574 408.327 503.33C410.719 504.109 413.419 503.845 416.438 502.561ZM418.027 496.5C414.69 497.919 412.034 497.333 411.089 495.27C410.153 493.23 411.514 490.99 414.851 489.571C416.508 488.867 418.024 488.624 419.387 488.875C420.75 489.127 421.642 489.712 422.053 490.609C423.04 492.762 421.5 495.024 418.027 496.5Z" fill="#2323EF"/>
<path d="M445.208 486.63C444.49 486.072 443.609 485.06 442.524 483.621C441.439 482.182 440.526 480.835 439.765 479.594L437.805 476.398C436.838 474.821 436.553 473.085 436.905 471.16C437.27 469.256 438.283 467.749 439.944 466.639C443.205 464.46 446.428 465.33 448.556 468.799L450.632 472.185C452.283 474.876 453.59 477.619 454.539 480.394L463.687 474.282C461.814 472.361 459.853 469.728 457.777 466.343L455.339 462.369C453.469 459.32 451.192 457.492 448.493 456.864C445.775 456.25 442.928 456.937 439.913 458.951C435.688 461.775 434.055 465.712 435.001 470.742L434.529 471.057L434 470.195C432.878 468.366 432.244 466.625 432.125 465.016L422.854 471.21C424.773 473.16 426.657 475.666 428.527 478.715L432.383 485.002C433.931 487.525 435.168 490.108 436.061 492.742L445.208 486.63Z" fill="#2323EF"/>
<path d="M482.484 455.314C480.345 453.781 477.829 451.38 474.937 448.109L472.388 445.226L479.08 437.61C480.659 435.813 481.994 434.441 483.069 433.551L478.952 428.894C478.35 429.839 477.145 431.321 475.338 433.378L468.646 440.994L464.496 436.301L472.963 426.665C474.379 425.053 475.519 423.866 476.366 423.162C477.213 422.457 477.979 422.068 478.664 421.919L470.857 415.38L451.727 437.153C453.882 438.63 456.43 441.032 459.387 444.377L468.766 454.984C471.724 458.329 473.848 461.212 475.157 463.653L482.484 455.314Z" fill="#2323EF"/>
<path d="M503.713 429.537C506.336 425.214 506.352 420.739 503.773 416.091L504.068 415.606L504.828 416.272C506.443 417.686 507.581 419.135 508.268 420.673L514.052 411.141C511.635 409.832 509.112 408.042 506.496 405.751L500.947 400.892C498.776 398.99 496.827 396.863 495.05 394.5L489.343 403.905C490.146 404.221 491.263 404.909 492.726 405.964C494.176 407.04 495.439 408.049 496.497 408.975L499.317 411.446C500.709 412.664 501.582 414.269 501.943 416.297C502.323 418.341 501.985 420.209 500.961 421.896C498.914 425.27 495.881 425.585 492.819 422.903L489.794 420.254C487.252 418.028 485.155 415.771 483.52 413.5L477.813 422.905C480.019 424.094 482.659 426.019 485.702 428.684L489.246 431.788C491.937 434.145 494.546 435.137 497.085 434.746C499.612 434.375 501.832 432.637 503.713 429.537Z" fill="#2323EF"/>
<path d="M522.134 395.263C522.973 393.287 523.421 390.749 523.321 389.006L517.435 384.942C517.664 386.07 517.453 387.803 516.826 389.279C515.563 392.253 513.38 393.065 510.518 391.089L502.702 385.694L506.194 377.475L502.987 375.261L499.495 383.48L491.172 377.734L489.713 386.915L496.148 391.358L494.161 396.034L497.368 398.249L499.355 393.572L509.789 400.775C515.656 404.825 519.578 401.279 522.134 395.263Z" fill="#2323EF"/>
<path d="M530.5 374.332C531.829 369.453 530.656 365.056 526.986 361.116L527.136 360.568L528.031 361.038C529.931 362.036 531.391 363.183 532.448 364.527L535.379 353.77C532.749 353.069 529.891 351.922 526.812 350.305L520.282 346.876C517.726 345.534 515.321 343.918 513.015 342.027L510.123 352.641C510.965 352.757 512.203 353.162 513.865 353.844C515.52 354.55 516.98 355.236 518.225 355.889L521.545 357.632C523.183 358.492 524.434 359.857 525.313 361.76C526.214 363.675 526.391 365.591 525.872 367.495C524.835 371.303 522.054 372.345 518.451 370.453L514.891 368.584C511.899 367.013 509.319 365.304 507.173 363.47L504.28 374.085C506.679 374.718 509.683 375.969 513.265 377.85L517.436 380.041C520.603 381.703 523.33 382.047 525.624 381.048C527.912 380.073 529.547 377.83 530.5 374.332Z" fill="#2323EF"/>
<path d="M538.911 337.296C537.321 337.382 535.17 336.93 532.482 335.949L528.682 334.561C526.55 333.783 524.85 332.316 523.602 330.194C522.353 328.072 521.862 325.918 522.148 323.767C522.288 322.715 522.614 321.732 523.094 320.856C523.575 319.98 524.12 319.359 524.681 318.974L516.849 316.115C516.24 317.225 515.836 318.437 515.66 319.757C515.046 324.379 517.642 328.788 522.779 331.817L522.704 332.379L520.943 331.736C519.923 331.364 518.874 330.853 517.774 330.169C516.698 329.494 515.863 328.83 515.246 328.169L513.734 339.539C516.241 339.865 519.223 340.646 522.676 341.906L529.604 344.436C532.523 345.501 535.149 346.768 537.461 348.201L538.911 337.296Z" fill="#2323EF"/>
<path d="M543.348 303.747C543.385 301.404 543.205 298.988 542.786 296.469C542.366 293.949 541.841 292.001 541.162 290.587L534.468 289.24C535.416 290.368 536.165 291.946 536.713 293.974C537.285 296.007 537.543 298.07 537.51 300.142C537.518 305.836 534.237 310.201 530.335 309.454L530.148 309.041C531.996 306.756 532.966 303.408 533.035 298.994C533.146 291.866 531.037 287.707 526.294 286.648C523.959 286.126 521.848 286.744 520.153 288.543C518.457 290.367 517.363 293.934 517.287 298.769C517.21 303.701 518.59 308.167 520.908 311.333C523.226 314.499 526.429 316.675 530.064 317.487C533.94 318.352 537.093 317.547 539.548 315.051C542.003 312.555 543.27 308.803 543.348 303.747ZM529.828 301.668C529.78 304.751 529.092 307.048 527.787 308.613C526.227 307.967 525.012 306.904 524.141 305.398C523.295 303.897 522.885 302.296 522.912 300.594C522.941 298.744 523.301 297.339 523.993 296.331C524.709 295.328 525.609 294.959 526.692 295.201C528.883 295.69 529.873 298.832 529.828 301.668Z" fill="#2323EF"/>
<defs>
<filter id="filter0_bii" x="-32.3434" y="-31.6464" width="724.703" height="724.703" filterUnits="userSpaceOnUse" color-interpolation-filters="sRGB">
<feFlood flood-opacity="0" result="BackgroundImageFix"/>
<feGaussianBlur in="BackgroundImage" stdDeviation="5.82182"/>
<feComposite in2="SourceAlpha" operator="in" result="effect1_backgroundBlur"/>
<feBlend mode="normal" in="SourceGraphic" in2="effect1_backgroundBlur" result="shape"/>
<feColorMatrix in="SourceAlpha" type="matrix" values="0 0 0 0 0 0 0 0 0 0 0 0 0 0 0 0 0 0 127 0" result="hardAlpha"/>
<feOffset dx="-32.3434" dy="32.3434"/>
<feGaussianBlur stdDeviation="16.1717"/>
<feComposite in2="hardAlpha" operator="arithmetic" k2="-1" k3="1"/>
<feColorMatrix type="matrix" values="0 0 0 0 1 0 0 0 0 1 0 0 0 0 1 0 0 0 0.045 0"/>
<feBlend mode="normal" in2="shape" result="effect2_innerShadow"/>
<feColorMatrix in="SourceAlpha" type="matrix" values="0 0 0 0 0 0 0 0 0 0 0 0 0 0 0 0 0 0 127 0" result="hardAlpha"/>
<feOffset dx="32.3434" dy="-32.3434"/>
<feGaussianBlur stdDeviation="16.1717"/>
<feComposite in2="hardAlpha" operator="arithmetic" k2="-1" k3="1"/>
<feColorMatrix type="matrix" values="0 0 0 0 0 0 0 0 0 0 0 0 0 0 0 0 0 0 0.045 0"/>
<feBlend mode="normal" in2="effect2_innerShadow" result="effect3_innerShadow"/>
</filter>
</defs>
</svg>
