<svg width="295" height="185" viewBox="0 0 295 185" fill="none" xmlns="http://www.w3.org/2000/svg">
<path d="M8.2327 111.401L33.0073 183.608L49.1051 153.424L24.881 82.8221L8.2327 111.401Z" fill="#FE3176"/>
<path d="M273.697 101.026L286.184 72.0811L266.127 78.9629L273.697 101.026Z" fill="#FE3176"/>
<path d="M49.1051 153.424L33.0073 183.608L273.697 101.026L266.127 78.9629L49.1051 153.424Z" fill="#FE3176"/>
<path d="M286.184 72.0811L261.96 1.47879L266.127 78.9629L286.184 72.0811Z" fill="#FE3176"/>
<path d="M47.2275 153.173L23.2787 83.3727L261.561 1.61654L285.51 71.4165L47.2275 153.173Z" fill="#DBF429" stroke="black" stroke-width="2.54463"/>
<path d="M21.6621 82.5823L7.57003 112.078L32.3446 184.285L47.1013 154.113L21.6621 82.5823Z" fill="black"/>
<path d="M90.737 115.476C89.4428 113.38 88.1925 110.601 87.0084 107.15L84.4752 99.7663L87.4285 98.753C89.1872 98.1495 90.8446 98.0074 92.4115 98.3043L88.049 89.8054L67.5915 96.8245L69.3657 106.211C70.3871 105.027 71.7826 104.121 73.5579 103.512L76.7269 102.425L79.2601 109.808C80.4442 113.259 81.1636 116.221 81.4291 118.67L90.737 115.476ZM121.177 105.607C122.023 105.317 122.773 104.8 123.432 104.073C124.075 103.352 124.451 102.611 124.561 101.85L120.966 91.6968C120.845 94.3162 119.717 96.0013 117.576 96.7357C116.664 97.0488 115.686 96.902 114.835 96.5822C113.605 96.1326 112.218 95.4957 110.509 96.0821L110.443 96.1048L110.374 95.9057L110.673 95.8033C112.415 95.2055 113.879 94.4438 115.069 93.5347C116.259 92.6257 117.098 91.5588 117.581 90.3175C118.07 89.0929 118.075 87.8114 117.614 86.4675C117.164 85.1567 116.368 84.1874 115.214 83.5263C112.901 82.243 109.784 82.348 106.25 83.5606L91.8153 88.5132C93.1095 90.6098 94.3598 93.3891 95.5496 96.8567L97.8096 103.444C98.9937 106.895 99.713 109.856 99.9786 112.306L109.287 109.112C107.992 107.015 106.742 104.236 105.558 100.785L105.08 99.3914C105.339 99.1728 105.803 98.9579 106.483 98.7245C109.171 97.8023 110.773 99.6078 112.455 101.645C114.519 104.201 116.686 107.167 121.177 105.607ZM102.865 92.9373L107.411 91.3775C109.021 90.8253 110.427 91.1957 110.832 92.3737C111.264 93.6347 110.375 94.7186 108.583 95.3334L104.203 96.8363L102.865 92.9373ZM134.108 100.596C133.703 99.4178 133.388 97.6343 133.173 95.2232L133.166 94.3912L139.852 92.097L140.362 92.7194C141.685 94.8435 142.553 96.4556 142.951 97.5616L152.259 94.368C150.266 92.2886 148.252 89.7712 146.241 86.8266L141.641 81.0424C140.793 79.8128 139.982 78.4221 139.181 76.8981C138.38 75.374 137.741 74.0539 137.293 72.9095L123.439 77.6629C123.787 78.786 124.099 80.1811 124.402 81.8759C124.706 83.5707 124.898 85.211 125 86.7522L124.904 94.1474C125.121 98.023 125.071 101.23 124.767 103.801L134.108 100.596ZM132.969 86.5214C132.949 85.5453 132.765 84.088 132.437 82.105L132.885 81.9513C133.764 83.5966 134.536 84.8713 135.209 85.7529L137.905 88.9633L132.812 90.7109L132.969 86.5214ZM165.249 90.4487C167.257 89.7599 168.987 89.018 170.461 88.234C171.913 87.4391 173.342 86.5224 174.747 85.4839L171.69 76.5741C171.001 77.7562 170.007 78.8577 168.707 79.8787C167.407 80.8997 165.922 81.7059 164.262 82.2752C160.214 83.6642 156.108 83.5338 154.969 80.2155C154.451 78.7057 154.761 77.2829 155.875 75.9362C156.995 74.6062 158.672 73.5486 160.895 72.7858C162.206 72.336 163.585 72.0854 165.016 72.0396C166.436 72.016 167.635 72.1608 168.62 72.4906L165.857 64.2218C164.73 64.1262 163.35 64.2105 161.726 64.4521C160.109 64.7104 158.47 65.1242 156.795 65.6991C153.991 66.6612 151.486 68.1698 149.519 70.3283C148.535 71.4075 147.752 72.5848 147.181 73.838C146.027 76.3665 145.833 79.5856 146.966 82.8873C148.105 86.2056 150.223 88.65 152.686 89.9376C156.398 91.8909 161.102 91.9273 165.249 90.4487ZM198.433 79.0633C199.279 78.773 200.006 78.2451 200.654 77.485C201.302 76.7249 201.651 75.9564 201.705 75.1959L198.189 65.1642C197.996 67.2516 197.18 68.4403 195.04 69.1747C193.862 69.5788 192.606 69.3791 191.521 68.9725C189.985 68.3869 188.015 67.6165 185.515 68.4927L185.1 68.635L184.969 68.2534L187.01 67.5532C189.847 66.5797 191.565 65.8047 192.982 64.7439C195.054 63.1614 195.387 61.3223 194.423 58.2965C193.848 56.6207 193.01 55.2579 191.913 54.1692L183.186 57.1635C184.465 58.1896 185.369 59.4742 185.899 61.0172C187.037 64.3356 186.126 66.6512 183.338 67.6076L181.414 68.2679L180.958 66.9406C179.848 63.7052 179.191 60.9263 178.971 58.6095L169.663 61.8031C170.958 63.8997 172.208 66.6789 173.398 70.1466L175.658 76.7335C176.842 80.1846 177.561 83.146 177.827 85.5955L187.135 82.4019C185.886 80.4381 184.641 77.6754 183.406 74.075L182.37 71.0553C182.722 70.7305 183.252 70.4374 183.965 70.1926C186.769 69.2305 188.17 71.476 189.585 74.0319C190.307 75.3236 191.034 76.6319 192.008 77.6884C193.397 79.2517 195.38 80.1107 198.433 79.0633ZM215.539 73.1941C219.04 71.993 221.722 70.4606 223.542 68.5752C225.345 66.6956 225.962 64.3881 225.12 61.9325C224.414 59.8751 222.906 58.668 221.167 58.3559C219.433 58.0605 217.276 58.1515 215.267 58.6185C211.185 59.4253 207.298 60.7963 206.654 58.9214C206.467 58.3739 206.745 57.8334 207.461 57.2724C208.177 56.7114 209.177 56.22 210.471 55.776C212.18 55.1896 213.974 54.8522 215.832 54.7527C217.689 54.6532 219.244 54.806 220.49 55.1944L217.541 46.6C216.204 46.595 214.619 46.731 212.768 47.0135C210.918 47.296 209.158 47.733 207.515 48.2966C205.226 49.0822 203.293 50.0421 201.738 51.1874C200.168 52.3383 199.042 53.6518 198.389 55.1553C197.737 56.6587 197.673 58.2014 198.219 59.7942C198.863 61.6691 200.144 62.917 201.634 63.3699C203.131 63.8394 204.946 63.94 206.774 63.6466C211.306 63.0189 215.982 61.0807 216.562 62.7731C216.927 63.8349 215.616 64.8782 212.646 65.8972C210.605 66.5974 208.462 66.9989 206.232 67.0962C203.987 67.1991 201.993 66.9004 200.217 66.2114L202.987 75.2568C204.784 75.2521 206.901 75.045 209.344 74.6519C211.787 74.2588 213.846 73.7748 215.539 73.1941Z" fill="black"/>
</svg>
