<svg width="1920" height="1080" viewBox="0 0 1920 1080" fill="none" xmlns="http://www.w3.org/2000/svg">
<path fill-rule="evenodd" clip-rule="evenodd" d="M1626.7 159H1497.88L1497.54 159.646C1492.17 174.098 1488.46 180.635 1481.6 189.998C1475.71 195.243 1470.32 201.165 1465.79 206.135C1455.47 217.462 1449.66 223.839 1452.81 205.966L1453.13 204.168V204.167C1457.36 180.219 1457.43 179.79 1445.44 200.349C1433.15 221.412 1444.46 177.042 1444.46 177.042C1444.46 177.042 1447.55 162.086 1435.82 184.904C1424.09 207.721 1428.45 180.691 1429.5 174.723C1430.55 168.756 1430.93 151.555 1417.95 174.723C1404.96 197.892 1404.22 194.733 1407.03 168.756C1407.44 164.972 1407.89 161.725 1408.33 159H1404.03C1403.44 159.967 1402.81 160.995 1402.12 162.086C1399.85 165.674 1398.1 168.561 1396.79 170.735L1396.78 170.742C1394.74 174.12 1393.74 175.775 1393.45 175.66C1393.18 175.549 1393.57 173.808 1394.32 170.395L1394.32 170.388C1394.93 167.663 1395.77 163.874 1396.7 159H1213.88L1213.54 159.646C1208.17 174.098 1204.46 180.635 1197.6 189.998C1191.71 195.243 1186.32 201.165 1181.79 206.135C1171.47 217.462 1165.66 223.839 1168.81 205.966L1169.13 204.168V204.167C1173.36 180.219 1173.43 179.79 1161.44 200.349C1149.15 221.412 1160.46 177.042 1160.46 177.042C1160.46 177.042 1163.55 162.086 1151.82 184.904C1140.09 207.721 1144.45 180.691 1145.5 174.723C1146.55 168.756 1146.93 151.555 1133.95 174.723C1120.96 197.892 1120.22 194.733 1123.03 168.756C1123.44 164.972 1123.89 161.725 1124.33 159H1120.03C1119.44 159.967 1118.81 160.995 1118.12 162.086C1115.85 165.674 1114.1 168.561 1112.79 170.735L1112.78 170.742C1110.74 174.12 1109.74 175.775 1109.45 175.66C1109.18 175.549 1109.57 173.808 1110.32 170.395L1110.32 170.388C1110.93 167.663 1111.77 163.874 1112.7 159H983.881L983.543 159.646C978.171 174.098 974.464 180.635 967.6 189.998C961.713 195.243 956.317 201.165 951.79 206.135C941.471 217.462 935.661 223.839 938.813 205.966L939.13 204.167C943.358 180.219 943.434 179.79 931.441 200.349C919.154 221.412 930.458 177.042 930.458 177.042C930.458 177.042 933.547 162.086 921.817 184.904C910.087 207.721 914.446 180.691 915.499 174.723C916.551 168.756 916.934 151.555 903.945 174.723C890.957 197.892 890.224 194.733 893.032 168.756C893.441 164.972 893.895 161.725 894.332 159H890.03C889.442 159.967 888.806 160.995 888.117 162.086C885.848 165.678 884.099 168.568 882.783 170.743L882.783 170.744C880.739 174.121 879.738 175.775 879.453 175.66C879.18 175.549 879.565 173.81 880.321 170.402L880.322 170.399L880.323 170.395L880.323 170.395V170.394C880.927 167.669 881.768 163.878 882.698 159H699.881L699.543 159.646C694.171 174.098 690.464 180.635 683.6 189.998C677.713 195.243 672.317 201.165 667.79 206.135C657.471 217.462 651.661 223.839 654.813 205.966L655.13 204.167C659.358 180.219 659.434 179.79 647.441 200.349C635.154 221.412 646.458 177.042 646.458 177.042C646.458 177.042 649.547 162.086 637.817 184.904C626.087 207.721 630.446 180.691 631.499 174.723C632.551 168.756 632.934 151.555 619.945 174.723C606.957 197.892 606.224 194.733 609.032 168.756C609.441 164.972 609.895 161.725 610.332 159H606.03C605.442 159.967 604.806 160.995 604.117 162.086C601.848 165.678 600.099 168.568 598.783 170.743L598.783 170.744C596.739 174.121 595.738 175.775 595.453 175.66C595.18 175.549 595.565 173.81 596.321 170.402L596.322 170.399L596.323 170.395L596.323 170.395V170.394C596.927 167.669 597.768 163.878 598.698 159H469.881L469.543 159.646C464.171 174.098 460.464 180.635 453.6 189.998C447.713 195.243 442.318 201.165 437.79 206.135L437.79 206.135C427.471 217.462 421.661 223.839 424.813 205.966L425.13 204.167C429.358 180.219 429.434 179.79 417.441 200.349C405.154 221.412 416.458 177.042 416.458 177.042C416.458 177.042 419.547 162.086 407.817 184.904C396.087 207.721 400.446 180.691 401.499 174.723C402.551 168.756 402.934 151.555 389.945 174.723C376.957 197.892 376.224 194.733 379.032 168.756C379.441 164.972 379.895 161.725 380.332 159H376.03C375.442 159.967 374.806 160.995 374.117 162.086C371.848 165.678 370.099 168.568 368.783 170.743C366.739 174.121 365.738 175.775 365.453 175.66C365.179 175.549 365.566 173.807 366.323 170.394L366.323 170.393L366.323 170.391C366.928 167.666 367.769 163.876 368.698 159H185.881L185.543 159.646C180.171 174.098 176.464 180.635 169.6 189.998C163.713 195.243 158.318 201.165 153.79 206.135L153.79 206.135L153.79 206.135C143.471 217.462 137.661 223.839 140.813 205.966L141.13 204.167C145.358 180.219 145.434 179.79 133.441 200.349C121.154 221.412 132.458 177.042 132.458 177.042C132.458 177.042 135.547 162.086 123.817 184.904C112.087 207.721 116.446 180.691 117.499 174.723C118.551 168.756 118.934 151.555 105.945 174.723C92.9568 197.892 92.2235 194.733 95.0318 168.756C95.4408 164.972 95.8945 161.725 96.3321 159H92.03C91.4424 159.967 90.8059 160.995 90.1173 162.086C87.8484 165.678 86.0994 168.568 84.7829 170.743L84.7829 170.743L84.7829 170.743C82.739 174.121 81.738 175.775 81.4529 175.66C81.1793 175.549 81.5656 173.807 82.3227 170.394L82.3227 170.394L82.3227 170.394L82.3227 170.394C82.9273 167.669 83.7682 163.878 84.6985 159H80V336.413C84.2321 328.086 88.8048 318.987 92.0302 312.291C98.0846 304.089 102.488 297.473 105.511 292.93C108.607 288.279 110.257 285.8 110.753 286.013C111.32 286.256 110.384 290.008 108.379 298.043L108.379 298.044L108.378 298.048L108.377 298.051C107.687 300.817 106.871 304.09 105.945 307.902C98.2475 339.609 104.24 345.439 118.869 316.274C134.349 285.41 137.157 290.325 125.836 319.725C114.325 349.618 119.917 353.186 137.157 327.184C155.411 299.654 152.41 316.274 142.58 350.002C135.721 373.541 138.234 370.509 147.589 359.228L147.59 359.228L147.59 359.227C149.82 356.538 152.439 353.38 155.411 350.002C172.261 321.568 178.229 319.725 166.996 353.864C166.285 356.023 165.611 358.054 164.98 359.956C156.374 385.882 155.688 387.949 178.229 367.554L178.939 366.912L180.328 365.655L180.328 365.655C189.904 356.983 194.86 352.495 195.824 353.232C196.859 354.022 193.298 360.826 185.918 374.93L185.543 375.646C180.171 390.098 176.464 396.635 169.6 405.998C163.714 411.243 158.319 417.164 153.792 422.133L153.791 422.134L153.79 422.135L153.79 422.135C143.471 433.462 137.661 439.839 140.813 421.966L141.13 420.167C145.358 396.219 145.434 395.79 133.441 416.349C121.154 437.412 132.458 393.042 132.458 393.042C132.458 393.042 135.547 378.086 123.817 400.904C112.087 423.721 116.446 396.691 117.499 390.723C118.551 384.756 118.934 367.555 105.945 390.723C92.9568 413.892 92.2235 410.733 95.0318 384.756C96.0492 375.345 97.343 369.251 97.9786 366.258C98.2827 364.825 98.4361 364.103 98.3365 364.066C98.2351 364.029 97.8713 364.702 97.1371 366.062L97.137 366.063C95.9392 368.281 93.7557 372.325 90.1173 378.086C87.8484 381.678 86.0994 384.568 84.7829 386.743L84.7829 386.744L84.7826 386.744L84.7824 386.744L84.7821 386.745L84.7819 386.745L84.7817 386.746L84.7814 386.746C82.7385 390.121 81.7379 391.775 81.4529 391.66C81.1793 391.549 81.5656 389.807 82.3227 386.394C83.0982 382.898 84.2629 377.648 85.5059 370.599C86.2527 366.365 86.9252 363.014 87.4402 360.448C88.3348 355.991 88.7543 353.901 88.2627 353.659C87.8285 353.445 86.6837 354.672 84.528 356.982L84.5278 356.982L84.5262 356.984L84.5256 356.985C83.3395 358.256 81.8477 359.855 80 361.722V552.413C84.2321 544.086 88.8048 534.987 92.0302 528.291C98.0846 520.089 102.488 513.473 105.511 508.93C108.607 504.279 110.257 501.8 110.753 502.013C111.32 502.256 110.384 506.008 108.379 514.043L108.379 514.043C107.689 516.811 106.872 520.086 105.945 523.902C98.2475 555.609 104.24 561.439 118.869 532.274C134.349 501.41 137.157 506.325 125.836 535.725C114.325 565.618 119.917 569.186 137.157 543.184C155.411 515.654 152.41 532.274 142.58 566.002C135.721 589.541 138.234 586.509 147.589 575.228L147.59 575.227C149.82 572.538 152.439 569.38 155.411 566.002C172.261 537.568 178.229 535.725 166.996 569.864C166.286 572.021 165.613 574.049 164.982 575.949L164.98 575.956C156.374 601.882 155.688 603.949 178.229 583.554C178.608 583.212 178.98 582.875 179.346 582.544L180.328 581.655C189.904 572.983 194.86 568.495 195.824 569.232C196.859 570.022 193.298 576.826 185.918 590.93L185.543 591.646C180.171 606.098 176.464 612.635 169.6 621.998C163.714 627.242 158.319 633.164 153.792 638.133L153.791 638.134L153.79 638.135L153.79 638.135C143.471 649.462 137.661 655.839 140.813 637.966L141.13 636.167C145.358 612.219 145.434 611.79 133.441 632.349C121.154 653.412 132.458 609.042 132.458 609.042C132.458 609.042 135.547 594.086 123.817 616.904C112.087 639.721 116.446 612.691 117.499 606.723C118.551 600.756 118.934 583.555 105.945 606.723C92.9568 629.892 92.2235 626.733 95.0318 600.756C96.0492 591.345 97.343 585.251 97.9786 582.258C98.2827 580.826 98.4361 580.103 98.3365 580.066C98.2351 580.029 97.8715 580.702 97.1376 582.061L97.1372 582.062L97.1371 582.062C95.9393 584.281 93.7558 588.325 90.1173 594.086C87.8486 597.678 86.0998 600.568 84.7834 602.743L84.783 602.743C82.739 606.121 81.738 607.775 81.4529 607.66C81.1793 607.549 81.5656 605.807 82.3227 602.394L82.3228 602.394L82.3229 602.394C83.0984 598.897 84.263 593.647 85.5059 586.599C86.2527 582.365 86.9251 579.015 87.4402 576.449L87.4402 576.448C88.3348 571.991 88.7543 569.901 88.2627 569.659C87.8285 569.445 86.6838 570.672 84.5281 572.982L84.528 572.982C83.3416 574.254 81.8489 575.853 80 577.722V768.413C84.2321 760.086 88.8048 750.987 92.0302 744.291C98.0846 736.089 102.488 729.473 105.511 724.93C108.607 720.279 110.257 717.8 110.753 718.013C111.32 718.256 110.384 722.007 108.379 730.043L108.379 730.044C107.689 732.812 106.872 736.087 105.945 739.902C98.2475 771.609 104.24 777.439 118.869 748.274C134.349 717.41 137.157 722.325 125.836 751.725C114.325 781.618 119.917 785.186 137.157 759.184C155.411 731.654 152.41 748.274 142.58 782.002C135.721 805.541 138.234 802.509 147.589 791.228L147.591 791.227L147.594 791.223C149.823 788.535 152.44 785.379 155.411 782.002C172.261 753.568 178.229 751.725 166.996 785.864C166.286 788.021 165.613 790.05 164.982 791.95L164.98 791.956C156.374 817.882 155.688 819.949 178.229 799.554L178.706 799.123L179.478 798.424L179.687 798.235L179.873 798.066L180.316 797.665L180.328 797.655C189.904 788.983 194.86 784.495 195.824 785.232C196.859 786.022 193.298 792.826 185.917 806.931L185.543 807.646C180.171 822.098 176.464 828.635 169.6 837.998C163.713 843.243 158.317 849.165 153.79 854.135C143.471 865.462 137.661 871.839 140.813 853.966L141.13 852.167C145.358 828.219 145.434 827.79 133.441 848.349C121.154 869.412 132.458 825.042 132.458 825.042C132.458 825.042 135.547 810.086 123.817 832.904C112.087 855.721 116.446 828.691 117.499 822.723C118.551 816.756 118.934 799.555 105.945 822.723C92.9568 845.892 92.2235 842.733 95.0318 816.756C96.0492 807.345 97.343 801.251 97.9786 798.258C98.2827 796.825 98.4361 796.103 98.3365 796.066C98.2351 796.029 97.8713 796.702 97.1371 798.062C95.9393 800.281 93.7558 804.325 90.1173 810.086C87.8483 813.678 86.0993 816.568 84.7829 818.743C82.739 822.121 81.738 823.775 81.4529 823.66C81.1794 823.549 81.5656 821.808 82.3226 818.395L82.3227 818.394L82.3228 818.394C83.0983 814.898 84.2629 809.648 85.5059 802.599C86.2527 798.365 86.9252 795.014 87.4402 792.448C88.3348 787.991 88.7543 785.901 88.2627 785.659C87.8286 785.445 86.6843 786.671 84.5296 788.98L84.5284 788.981L84.528 788.982C83.3415 790.254 81.8489 791.853 80 793.722V921H1840V159H1727.88L1727.54 159.646C1722.17 174.098 1718.46 180.635 1711.6 189.998C1705.71 195.243 1700.32 201.165 1695.79 206.135C1685.47 217.462 1679.66 223.839 1682.81 205.966L1683.13 204.168V204.167C1687.36 180.219 1687.43 179.79 1675.44 200.349C1663.15 221.412 1674.46 177.042 1674.46 177.042C1674.46 177.042 1677.55 162.086 1665.82 184.904C1654.09 207.721 1658.45 180.691 1659.5 174.723C1660.55 168.756 1660.93 151.555 1647.95 174.723C1634.96 197.892 1634.22 194.733 1637.03 168.756C1637.44 164.972 1637.89 161.725 1638.33 159H1634.03C1633.44 159.967 1632.81 160.995 1632.12 162.086C1629.85 165.674 1628.1 168.561 1626.79 170.735L1626.78 170.742C1624.74 174.12 1623.74 175.775 1623.45 175.66C1623.18 175.549 1623.57 173.808 1624.32 170.395L1624.32 170.388C1624.93 167.663 1625.77 163.874 1626.7 159ZM1702.24 159C1700.03 167.47 1702.11 167.368 1711.85 159H1702.24ZM1472.24 159C1470.03 167.47 1472.11 167.368 1481.85 159H1472.24ZM1188.24 159C1186.03 167.47 1188.11 167.368 1197.85 159H1188.24ZM958.236 159C956.026 167.47 958.106 167.368 967.848 159H958.236ZM674.236 159C672.026 167.47 674.106 167.368 683.848 159H674.236ZM444.236 159C442.026 167.47 444.106 167.368 453.848 159H444.236ZM160.236 159C158.026 167.47 160.106 167.368 169.848 159H160.236ZM389.512 724.929L389.511 724.93C386.488 729.473 382.085 736.089 376.03 744.291C368.307 760.322 352.86 790.134 352.86 790.134C352.86 791.097 352.075 793.477 351.213 796.091L351.213 796.091C349.561 801.1 347.626 806.966 350.394 805.351C354.607 802.894 356.258 801.032 356.258 801.032C362.068 795.906 365.996 791.696 368.528 788.982C370.684 786.671 371.828 785.445 372.263 785.659C372.754 785.901 372.335 787.991 371.44 792.448C370.925 795.014 370.253 798.365 369.506 802.599C368.263 809.648 367.098 814.898 366.323 818.395C365.566 821.807 365.179 823.549 365.453 823.66C365.738 823.775 366.737 822.123 368.778 818.751L368.78 818.748L368.781 818.747L368.782 818.745L368.783 818.744L368.783 818.744C370.099 816.568 371.848 813.678 374.117 810.086C377.754 804.327 379.937 800.284 381.136 798.065L381.136 798.065L381.137 798.063L381.137 798.062C381.871 796.702 382.235 796.029 382.337 796.066C382.436 796.103 382.283 796.825 381.979 798.258C381.343 801.251 380.049 807.345 379.032 816.756C376.224 842.733 376.957 845.892 389.945 822.723C402.934 799.555 402.551 816.756 401.499 822.723C400.446 828.691 396.087 855.721 407.817 832.904C419.547 810.086 416.458 825.042 416.458 825.042C416.458 825.042 405.154 869.412 417.441 848.349C429.434 827.79 429.358 828.219 425.13 852.167L424.813 853.966C421.661 871.839 427.471 865.462 437.79 854.135C442.317 849.165 447.713 843.243 453.6 837.998C460.464 828.635 464.171 822.098 469.543 807.646L469.918 806.93C477.298 792.826 480.859 786.022 479.824 785.232C478.86 784.495 473.904 788.983 464.328 797.655C463.651 798.267 462.952 798.9 462.229 799.554C439.688 819.949 440.374 817.882 448.98 791.956C449.611 790.054 450.285 788.023 450.996 785.864C462.229 751.725 456.261 753.568 439.411 782.002C436.439 785.38 433.82 788.538 431.591 791.227L431.59 791.228C422.234 802.509 419.721 805.541 426.58 782.002C436.41 748.274 439.411 731.654 421.157 759.184C403.917 785.186 398.325 781.618 409.836 751.725C421.157 722.325 418.349 717.41 402.869 748.274C388.24 777.439 382.248 771.609 389.945 739.902C390.872 736.086 391.689 732.811 392.379 730.043C394.384 722.008 395.32 718.256 394.753 718.013C394.257 717.8 392.607 720.279 389.512 724.929L389.512 724.929ZM389.511 508.93L389.512 508.929C392.607 504.279 394.257 501.8 394.753 502.013C395.32 502.256 394.384 506.008 392.379 514.043C391.689 516.811 390.872 520.086 389.945 523.902C382.248 555.609 388.24 561.439 402.869 532.274C418.349 501.41 421.157 506.325 409.836 535.725C398.325 565.618 403.917 569.186 421.157 543.184C439.411 515.654 436.41 532.274 426.58 566.002C419.721 589.541 422.234 586.509 431.59 575.228C433.82 572.539 436.438 569.381 439.411 566.002C456.261 537.568 462.229 535.725 450.996 569.864C450.285 572.023 449.611 574.054 448.98 575.956C440.374 601.882 439.688 603.949 462.229 583.554C462.952 582.901 463.651 582.267 464.327 581.655C473.904 572.983 478.86 568.495 479.824 569.232C480.859 570.022 477.298 576.826 469.918 590.93L469.543 591.646C464.171 606.098 460.464 612.635 453.6 621.998C447.713 627.243 442.319 633.164 437.791 638.133L437.791 638.134L437.79 638.134L437.79 638.135C427.471 649.462 421.661 655.839 424.813 637.966L425.13 636.167C429.358 612.219 429.434 611.79 417.441 632.349C405.154 653.412 416.458 609.042 416.458 609.042C416.458 609.042 419.547 594.086 407.817 616.904C396.087 639.721 400.446 612.691 401.499 606.723C402.551 600.756 402.934 583.555 389.945 606.723C376.957 629.892 376.224 626.733 379.032 600.756C380.049 591.345 381.343 585.251 381.979 582.258L381.979 582.257C382.283 580.825 382.436 580.103 382.337 580.066C382.235 580.029 381.871 580.702 381.137 582.062L381.137 582.063C379.939 584.282 377.755 588.325 374.117 594.086C371.848 597.678 370.099 600.568 368.783 602.743C366.739 606.121 365.738 607.775 365.453 607.66C365.179 607.549 365.566 605.807 366.323 602.394C367.098 598.898 368.263 593.648 369.506 586.599C370.253 582.365 370.925 579.014 371.44 576.448C372.335 571.991 372.754 569.901 372.263 569.659C371.828 569.445 370.684 570.672 368.528 572.982C365.995 575.696 362.068 579.906 356.258 585.032C356.258 585.032 354.607 586.894 350.394 589.351C347.626 590.966 349.561 585.1 351.213 580.091C352.075 577.478 352.86 575.097 352.86 574.134C352.86 574.134 368.307 544.322 376.03 528.291C382.085 520.089 386.488 513.473 389.511 508.93ZM389.511 292.929L389.511 292.93C386.488 297.473 382.085 304.089 376.03 312.291C368.307 328.322 352.86 358.134 352.86 358.134C352.86 359.097 352.075 361.478 351.213 364.091L351.213 364.091C349.561 369.1 347.626 374.966 350.394 373.351C354.607 370.894 356.258 369.032 356.258 369.032C362.068 363.906 365.996 359.696 368.528 356.982C370.684 354.672 371.828 353.445 372.263 353.659C372.754 353.901 372.335 355.991 371.44 360.448C370.925 363.014 370.253 366.365 369.506 370.599C368.263 377.648 367.098 382.898 366.323 386.395C365.566 389.807 365.179 391.549 365.453 391.66C365.738 391.775 366.739 390.121 368.783 386.743C370.099 384.568 371.848 381.678 374.117 378.086C377.755 372.326 379.938 368.283 381.136 366.064L381.137 366.063L381.137 366.062C381.871 364.702 382.235 364.029 382.337 364.066C382.436 364.103 382.283 364.825 381.979 366.257L381.979 366.258C381.343 369.251 380.049 375.345 379.032 384.756C376.224 410.733 376.957 413.892 389.945 390.723C402.934 367.555 402.551 384.756 401.499 390.723C400.446 396.691 396.087 423.721 407.817 400.904C419.547 378.086 416.458 393.042 416.458 393.042C416.458 393.042 405.154 437.412 417.441 416.349C429.434 395.79 429.358 396.219 425.13 420.167L424.813 421.966C421.661 439.839 427.471 433.462 437.79 422.135L437.79 422.134L437.791 422.134L437.791 422.134C442.318 417.165 447.713 411.243 453.6 405.998C460.464 396.635 464.171 390.098 469.543 375.646L469.918 374.93C477.298 360.826 480.859 354.022 479.824 353.232C478.86 352.495 473.904 356.983 464.329 365.654L464.329 365.654L464.328 365.654L464.328 365.655L464.328 365.655L464.327 365.655L464.327 365.655C463.651 366.267 462.952 366.901 462.229 367.554C439.688 387.949 440.374 385.882 448.98 359.956L448.981 359.954L449.004 359.884L449.009 359.868C449.632 357.991 450.296 355.99 450.996 353.864C462.229 319.725 456.261 321.568 439.411 350.002C436.438 353.381 433.819 356.539 431.589 359.228C422.234 370.509 419.721 373.541 426.58 350.002C436.41 316.274 439.411 299.654 421.157 327.184C403.917 353.186 398.325 349.618 409.836 319.725C421.157 290.325 418.349 285.41 402.869 316.274C388.24 345.439 382.248 339.609 389.945 307.902C390.872 304.086 391.689 300.811 392.379 298.043C394.384 290.008 395.32 286.256 394.753 286.013C394.257 285.8 392.607 288.279 389.511 292.929ZM619.511 292.93C622.607 288.279 624.257 285.8 624.753 286.013C625.32 286.256 624.384 290.008 622.38 298.043L622.375 298.06L622.37 298.081L622.368 298.088C621.68 300.846 620.867 304.107 619.945 307.902C612.247 339.609 618.24 345.439 632.869 316.274C648.349 285.41 651.157 290.325 639.836 319.725C628.325 349.618 633.917 353.186 651.157 327.184C669.411 299.654 666.409 316.274 656.58 350.002C649.721 373.541 652.234 370.509 661.589 359.228L661.59 359.227L661.596 359.22L661.6 359.215L661.602 359.213L661.606 359.208L661.61 359.203L661.616 359.196L661.619 359.192L661.624 359.186C663.847 356.506 666.453 353.363 669.411 350.002C686.261 321.568 692.229 319.725 680.996 353.864C680.285 356.023 679.611 358.054 678.98 359.956C670.374 385.882 669.688 387.949 692.229 367.554L693.001 366.856L694.328 365.654C703.904 356.983 708.86 352.495 709.824 353.232C710.859 354.022 707.298 360.827 699.917 374.931L699.543 375.646C694.171 390.098 690.464 396.635 683.6 405.998C677.713 411.243 672.317 417.165 667.79 422.135C657.471 433.462 651.661 439.839 654.813 421.966L655.13 420.167C659.358 396.219 659.434 395.79 647.441 416.349C635.154 437.412 646.458 393.042 646.458 393.042C646.458 393.042 649.547 378.086 637.817 400.904C626.087 423.721 630.446 396.691 631.499 390.723C632.551 384.756 632.934 367.555 619.945 390.723C606.957 413.892 606.224 410.733 609.032 384.756C610.049 375.345 611.343 369.251 611.979 366.258L611.979 366.257C612.283 364.825 612.436 364.103 612.336 364.066C612.235 364.029 611.871 364.702 611.137 366.062L611.136 366.063C609.939 368.282 607.755 372.326 604.117 378.086C601.854 381.669 600.108 384.554 598.793 386.727L598.787 386.736L598.786 386.739L598.783 386.743L598.783 386.743L598.783 386.744C596.739 390.121 595.738 391.775 595.453 391.66C595.18 391.549 595.565 389.81 596.321 386.402L596.322 386.399L596.323 386.395L596.323 386.394L596.323 386.392L596.324 386.389C597.099 382.893 598.263 377.645 599.506 370.599C600.253 366.365 600.925 363.015 601.44 360.449C602.335 355.991 602.754 353.901 602.263 353.659C601.828 353.445 600.684 354.672 598.528 356.982C595.996 359.696 592.068 363.906 586.258 369.032C586.258 369.032 584.607 370.894 580.394 373.351C577.626 374.966 579.561 369.1 581.213 364.091L581.213 364.091C582.075 361.478 582.86 359.097 582.86 358.134C582.86 358.134 598.307 328.322 606.03 312.291C612.084 304.09 616.486 297.475 619.51 292.932L619.511 292.931L619.511 292.93ZM624.753 502.013C624.257 501.8 622.607 504.279 619.511 508.93C616.487 513.473 612.085 520.089 606.03 528.291C598.307 544.322 582.86 574.134 582.86 574.134C582.86 575.097 582.075 577.478 581.213 580.091C579.561 585.1 577.626 590.966 580.394 589.351C584.607 586.894 586.258 585.032 586.258 585.032C592.068 579.906 595.995 575.696 598.528 572.982C600.684 570.672 601.828 569.445 602.263 569.659C602.754 569.901 602.335 571.991 601.44 576.449C600.925 579.015 600.253 582.365 599.506 586.599C598.263 593.648 597.098 598.898 596.323 602.394L596.323 602.395L596.322 602.399L596.321 602.402L596.32 602.404C595.565 605.811 595.18 607.549 595.453 607.66C595.738 607.775 596.739 606.122 598.782 602.746L598.782 602.745L598.782 602.745L598.783 602.744L598.783 602.743L598.783 602.743L598.784 602.742L598.789 602.733L598.792 602.729L598.793 602.726C600.109 600.553 601.854 597.669 604.117 594.086C607.756 588.325 609.939 584.28 611.137 582.062C611.871 580.702 612.235 580.029 612.336 580.066C612.436 580.103 612.283 580.826 611.978 582.258C611.343 585.251 610.049 591.345 609.032 600.756C606.224 626.733 606.957 629.892 619.945 606.723C632.934 583.555 632.551 600.756 631.499 606.723C630.446 612.691 626.087 639.721 637.817 616.904C649.547 594.086 646.458 609.042 646.458 609.042C646.458 609.042 635.154 653.412 647.441 632.349C659.434 611.79 659.358 612.219 655.13 636.167L654.813 637.966C651.661 655.839 657.471 649.462 667.79 638.135C672.317 633.165 677.713 627.243 683.6 621.998C690.464 612.635 694.171 606.098 699.543 591.646L699.917 590.931C707.298 576.827 710.859 570.022 709.824 569.232C708.86 568.495 703.906 572.981 694.334 581.649L694.333 581.649L694.333 581.65L694.331 581.651L694.331 581.651L694.331 581.652L694.33 581.652L694.33 581.652L694.33 581.653L694.329 581.653L694.329 581.653L694.329 581.654L694.328 581.654C693.652 582.267 692.952 582.9 692.229 583.554C669.688 603.949 670.374 601.882 678.98 575.956C679.611 574.054 680.285 572.023 680.996 569.864C692.229 535.725 686.261 537.568 669.411 566.002C666.441 569.378 663.824 572.533 661.596 575.221L661.592 575.225L661.591 575.226L661.591 575.227L661.589 575.228C652.234 586.509 649.721 589.541 656.58 566.002C666.409 532.274 669.411 515.654 651.157 543.184C633.917 569.186 628.325 565.618 639.836 535.725C651.157 506.325 648.349 501.41 632.869 532.274C618.24 561.439 612.247 555.609 619.945 523.902C620.868 520.102 621.682 516.838 622.371 514.078L622.375 514.06L622.38 514.043C624.384 506.008 625.32 502.256 624.753 502.013ZM908.753 718.013C908.257 717.8 906.607 720.279 903.511 724.93L903.511 724.931C900.487 729.474 896.084 736.089 890.03 744.291C882.307 760.322 866.86 790.134 866.86 790.134C866.86 791.097 866.075 793.478 865.213 796.091C863.56 801.1 861.626 806.966 864.394 805.351C868.607 802.894 870.258 801.032 870.258 801.032C876.067 795.907 879.995 791.697 882.527 788.983L882.528 788.982L882.528 788.982C884.684 786.671 885.828 785.445 886.263 785.659C886.754 785.901 886.335 787.99 885.441 792.445L885.44 792.448L885.44 792.449L885.44 792.45C884.925 795.016 884.252 798.366 883.506 802.599C882.263 809.648 881.098 814.898 880.323 818.394C879.566 821.807 879.179 823.549 879.453 823.66C879.738 823.775 880.739 822.121 882.782 818.745L882.782 818.744L882.783 818.744C884.099 816.568 885.848 813.678 888.117 810.086C891.755 804.326 893.938 800.283 895.136 798.064L895.137 798.062C895.871 796.702 896.235 796.029 896.336 796.066C896.436 796.103 896.283 796.825 895.979 798.257L895.979 798.258C895.343 801.251 894.049 807.345 893.032 816.756C890.224 842.733 890.957 845.892 903.945 822.723C916.934 799.555 916.551 816.756 915.499 822.723C914.446 828.691 910.087 855.721 921.817 832.904C933.547 810.086 930.458 825.042 930.458 825.042C930.458 825.042 919.154 869.412 931.441 848.349C943.434 827.79 943.358 828.219 939.13 852.167L938.813 853.966C935.661 871.839 941.471 865.462 951.79 854.135C956.317 849.165 961.713 843.243 967.6 837.998C974.464 828.635 978.171 822.098 983.543 807.646L983.917 806.932L983.917 806.931C991.298 792.827 994.859 786.022 993.824 785.232C992.86 784.495 987.904 788.983 978.328 797.654L977.472 798.429L976.229 799.554C953.688 819.949 954.374 817.882 962.98 791.956C963.611 790.054 964.285 788.023 964.996 785.864C976.229 751.725 970.261 753.568 953.411 782.002C950.44 785.379 947.822 788.536 945.593 791.224L945.591 791.227L945.589 791.228C936.234 802.509 933.721 805.541 940.58 782.002C950.409 748.274 953.411 731.654 935.157 759.184C917.917 785.186 912.325 781.618 923.836 751.725C935.157 722.325 932.349 717.41 916.869 748.274C902.24 777.439 896.247 771.609 903.945 739.902C904.872 736.086 905.689 732.81 906.38 730.043C908.384 722.007 909.32 718.256 908.753 718.013ZM903.511 508.93C906.607 504.279 908.257 501.8 908.753 502.013C909.32 502.256 908.384 506.008 906.38 514.043L906.375 514.06L906.371 514.078C905.682 516.838 904.868 520.102 903.945 523.902C896.247 555.609 902.24 561.439 916.869 532.274C932.349 501.41 935.157 506.325 923.836 535.725C912.325 565.618 917.917 569.186 935.157 543.184C953.411 515.654 950.409 532.274 940.58 566.002C933.721 589.541 936.234 586.509 945.589 575.228L945.591 575.227L945.591 575.226L945.592 575.225L945.596 575.221C947.824 572.533 950.441 569.378 953.411 566.002C970.261 537.568 976.229 535.725 964.996 569.864L964.755 570.596L964.578 571.133L964.282 572.027L964.113 572.538C963.979 572.943 963.847 573.343 963.716 573.738C963.494 574.406 963.277 575.061 963.065 575.7L962.98 575.956C954.374 601.882 953.688 603.949 976.229 583.554C976.952 582.9 977.652 582.267 978.328 581.654L978.329 581.654L978.329 581.653L978.329 581.653L978.33 581.653L978.33 581.652L978.33 581.652L978.331 581.652L978.331 581.651L978.331 581.651L978.333 581.65L978.333 581.649L978.334 581.649C987.906 572.981 992.86 568.495 993.824 569.232C994.859 570.022 991.298 576.827 983.917 590.931L983.543 591.646C978.171 606.098 974.464 612.635 967.6 621.998C961.713 627.243 956.317 633.165 951.79 638.135C941.471 649.462 935.661 655.839 938.813 637.966L939.13 636.167C943.358 612.219 943.434 611.79 931.441 632.349C919.154 653.412 930.458 609.042 930.458 609.042C930.458 609.042 933.547 594.086 921.817 616.904C910.087 639.721 914.446 612.691 915.499 606.723C916.551 600.756 916.934 583.555 903.945 606.723C890.957 629.892 890.224 626.733 893.032 600.756C894.049 591.345 895.343 585.251 895.978 582.258C896.283 580.826 896.436 580.103 896.336 580.066C896.235 580.029 895.871 580.702 895.137 582.062C893.939 584.28 891.756 588.325 888.117 594.086C885.854 597.669 884.109 600.553 882.793 602.726L882.792 602.729L882.789 602.733L882.784 602.742L882.783 602.743L882.783 602.743L882.783 602.744L882.782 602.745L882.782 602.745L882.782 602.746C880.739 606.122 879.738 607.775 879.453 607.66C879.18 607.549 879.565 605.811 880.32 602.404L880.321 602.402L880.322 602.399L880.323 602.395L880.323 602.394C881.098 598.898 882.263 593.648 883.506 586.599C884.253 582.365 884.925 579.015 885.44 576.449C886.335 571.991 886.754 569.901 886.263 569.659C885.828 569.445 884.684 570.672 882.528 572.982C879.995 575.696 876.068 579.906 870.258 585.032C870.258 585.032 868.607 586.894 864.394 589.351C861.626 590.966 863.56 585.1 865.213 580.091C866.075 577.478 866.86 575.097 866.86 574.134C866.86 574.134 882.307 544.322 890.03 528.291C896.085 520.089 900.487 513.473 903.511 508.93ZM908.753 286.013C908.257 285.8 906.607 288.279 903.511 292.93L903.511 292.931L903.51 292.932C900.486 297.475 896.084 304.09 890.03 312.291C882.307 328.322 866.86 358.134 866.86 358.134C866.86 359.097 866.075 361.478 865.213 364.091C863.56 369.1 861.626 374.966 864.394 373.351C868.607 370.894 870.258 369.032 870.258 369.032C876.068 363.906 879.996 359.696 882.528 356.982C884.684 354.672 885.828 353.445 886.263 353.659C886.754 353.901 886.335 355.991 885.44 360.449C884.925 363.015 884.253 366.365 883.506 370.599C882.263 377.645 881.099 382.893 880.324 386.389L880.323 386.392L880.323 386.394L880.323 386.395L880.322 386.399L880.321 386.402C879.565 389.81 879.18 391.549 879.453 391.66C879.738 391.775 880.739 390.121 882.783 386.744L882.783 386.743L882.783 386.743L882.786 386.739L882.787 386.736L882.793 386.727C884.108 384.554 885.854 381.669 888.117 378.086C891.755 372.326 893.939 368.282 895.136 366.063L895.137 366.062C895.871 364.702 896.235 364.029 896.336 364.066C896.436 364.103 896.283 364.825 895.979 366.257L895.979 366.258C895.343 369.251 894.049 375.345 893.032 384.756C890.224 410.733 890.957 413.892 903.945 390.723C916.934 367.555 916.551 384.756 915.499 390.723C914.446 396.691 910.087 423.721 921.817 400.904C933.547 378.086 930.458 393.042 930.458 393.042C930.458 393.042 919.154 437.412 931.441 416.349C943.434 395.79 943.358 396.219 939.13 420.167L938.813 421.966C935.661 439.839 941.471 433.462 951.79 422.135C956.317 417.165 961.713 411.243 967.6 405.998C974.464 396.635 978.171 390.098 983.543 375.646L983.917 374.931C991.298 360.827 994.859 354.022 993.824 353.232C992.86 352.495 987.904 356.983 978.328 365.654C977.652 366.267 976.952 366.9 976.229 367.554C953.688 387.949 954.374 385.882 962.98 359.956C963.611 358.054 964.285 356.023 964.996 353.864C976.229 319.725 970.261 321.568 953.411 350.002C950.453 353.363 947.847 356.506 945.624 359.186L945.619 359.192L945.616 359.196L945.61 359.203L945.606 359.208L945.602 359.213L945.6 359.215L945.596 359.22L945.59 359.227L945.589 359.228C936.234 370.509 933.721 373.541 940.58 350.002C950.409 316.274 953.411 299.654 935.157 327.184C917.917 353.186 912.325 349.618 923.836 319.725C935.157 290.325 932.349 285.41 916.869 316.274C902.24 345.439 896.247 339.609 903.945 307.902C904.867 304.107 905.68 300.846 906.368 298.088L906.37 298.081L906.375 298.06L906.38 298.043C908.384 290.008 909.32 286.256 908.753 286.013ZM619.511 724.93C622.607 720.279 624.257 717.8 624.753 718.013C625.32 718.256 624.384 722.007 622.38 730.043C621.689 732.81 620.872 736.086 619.945 739.902C612.247 771.609 618.24 777.439 632.869 748.274C648.349 717.41 651.157 722.325 639.836 751.725C628.325 781.618 633.917 785.186 651.157 759.184C669.411 731.654 666.409 748.274 656.58 782.002C649.721 805.541 652.234 802.509 661.589 791.228L661.591 791.227L661.593 791.224C663.822 788.536 666.44 785.379 669.411 782.002C686.261 753.568 692.229 751.725 680.996 785.864C680.285 788.023 679.611 790.054 678.98 791.956C670.374 817.882 669.688 819.949 692.229 799.554C692.686 799.141 693.134 798.736 693.572 798.339L694.328 797.654C703.904 788.983 708.86 784.495 709.824 785.232C710.859 786.022 707.298 792.827 699.917 806.931L699.917 806.932L699.543 807.646C694.171 822.098 690.464 828.635 683.6 837.998C677.713 843.243 672.317 849.165 667.79 854.135C657.471 865.462 651.661 871.839 654.813 853.966L655.13 852.167C659.358 828.219 659.434 827.79 647.441 848.349C635.154 869.412 646.458 825.042 646.458 825.042C646.458 825.042 649.547 810.086 637.817 832.904C626.087 855.721 630.446 828.691 631.499 822.723C632.551 816.756 632.934 799.555 619.945 822.723C606.957 845.892 606.224 842.733 609.032 816.756C610.049 807.345 611.343 801.251 611.979 798.258L611.979 798.257C612.283 796.825 612.436 796.103 612.336 796.066C612.235 796.029 611.871 796.702 611.137 798.062L611.136 798.064C609.938 800.283 607.755 804.326 604.117 810.086C601.848 813.678 600.099 816.568 598.783 818.744L598.782 818.744L598.782 818.745C596.739 822.121 595.738 823.775 595.453 823.66C595.179 823.549 595.566 821.807 596.323 818.394C597.098 814.898 598.263 809.648 599.506 802.599C600.252 798.366 600.925 795.016 601.44 792.45L601.44 792.449L601.44 792.448L601.441 792.445C602.335 787.99 602.754 785.901 602.263 785.659C601.828 785.445 600.684 786.671 598.528 788.982L598.528 788.982L598.527 788.983C595.995 791.697 592.067 795.907 586.258 801.032C586.258 801.032 584.607 802.894 580.394 805.351C577.626 806.966 579.561 801.1 581.213 796.091L581.213 796.091C582.075 793.477 582.86 791.097 582.86 790.134C582.86 790.134 598.307 760.322 606.03 744.291C612.084 736.089 616.487 729.474 619.511 724.931L619.511 724.93ZM1133.51 292.929C1136.61 288.279 1138.26 285.8 1138.75 286.013C1139.32 286.255 1138.39 290.001 1136.38 298.021L1136.38 298.027L1136.38 298.034L1136.38 298.042L1136.38 298.043C1135.69 300.811 1134.87 304.086 1133.95 307.902C1126.25 339.609 1132.24 345.439 1146.87 316.274C1162.35 285.41 1165.16 290.325 1153.84 319.725C1142.33 349.618 1147.92 353.186 1165.16 327.184C1183.41 299.654 1180.41 316.274 1170.58 350.002C1163.72 373.541 1166.23 370.509 1175.59 359.228L1175.59 359.224L1175.59 359.223L1175.6 359.21L1175.61 359.201C1177.84 356.518 1180.45 353.369 1183.41 350.002C1200.26 321.568 1206.23 319.725 1195 353.864C1194.3 355.992 1193.63 357.996 1193.01 359.874L1192.98 359.956C1184.37 385.882 1183.69 387.949 1206.23 367.554C1206.95 366.9 1207.65 366.267 1208.33 365.655C1217.9 356.983 1222.86 352.495 1223.82 353.232C1224.86 354.022 1221.3 360.826 1213.92 374.93L1213.54 375.646C1208.17 390.098 1204.46 396.635 1197.6 405.998C1191.71 411.243 1186.32 417.165 1181.79 422.135C1171.47 433.462 1165.66 439.839 1168.81 421.966L1169.13 420.168V420.167C1173.36 396.219 1173.43 395.79 1161.44 416.349C1149.15 437.412 1160.46 393.042 1160.46 393.042C1160.46 393.042 1163.55 378.086 1151.82 400.904C1140.09 423.721 1144.45 396.691 1145.5 390.723C1146.55 384.756 1146.93 367.555 1133.95 390.723C1120.96 413.892 1120.22 410.733 1123.03 384.756C1124.05 375.345 1125.34 369.252 1125.98 366.258L1125.98 366.257L1125.98 366.249C1126.28 364.822 1126.44 364.103 1126.34 364.066C1126.23 364.029 1125.87 364.702 1125.14 366.062C1123.94 368.28 1121.76 372.325 1118.12 378.086C1115.85 381.674 1114.1 384.561 1112.79 386.735L1112.78 386.742C1110.74 390.12 1109.74 391.775 1109.45 391.66C1109.18 391.549 1109.57 389.808 1110.32 386.395C1111.1 382.898 1112.26 377.648 1113.51 370.599C1114.25 366.365 1114.93 363.014 1115.44 360.448C1116.33 355.991 1116.75 353.901 1116.26 353.659C1115.83 353.445 1114.68 354.672 1112.53 356.982C1110 359.696 1106.07 363.906 1100.26 369.032C1100.26 369.032 1098.61 370.894 1094.39 373.351C1091.63 374.966 1093.56 369.1 1095.21 364.091C1096.07 361.478 1096.86 359.097 1096.86 358.134C1096.86 358.134 1112.31 328.322 1120.03 312.291C1126.08 304.091 1130.49 297.476 1133.51 292.933L1133.51 292.929ZM1138.75 502.013C1138.26 501.8 1136.61 504.279 1133.51 508.929L1133.51 508.933C1130.49 513.476 1126.08 520.09 1120.03 528.291C1112.31 544.322 1096.86 574.134 1096.86 574.134C1096.86 575.097 1096.07 577.478 1095.21 580.091C1093.56 585.1 1091.63 590.966 1094.39 589.351C1098.61 586.894 1100.26 585.032 1100.26 585.032C1106.07 579.906 1110 575.696 1112.53 572.982C1114.68 570.672 1115.83 569.445 1116.26 569.659C1116.75 569.901 1116.33 571.991 1115.44 576.448C1114.93 579.014 1114.25 582.365 1113.51 586.599C1112.26 593.648 1111.1 598.898 1110.32 602.395C1109.57 605.808 1109.18 607.549 1109.45 607.66C1109.74 607.775 1110.74 606.12 1112.78 602.742L1112.79 602.735L1112.79 602.732L1112.8 602.722L1112.8 602.713C1114.12 600.541 1115.86 597.661 1118.12 594.086C1121.76 588.325 1123.94 584.28 1125.14 582.062C1125.87 580.702 1126.23 580.029 1126.34 580.066C1126.44 580.103 1126.28 580.821 1125.98 582.244L1125.98 582.249L1125.98 582.257L1125.98 582.258C1125.34 585.252 1124.05 591.345 1123.03 600.756C1120.22 626.733 1120.96 629.892 1133.95 606.723C1146.93 583.555 1146.55 600.756 1145.5 606.723C1144.45 612.691 1140.09 639.721 1151.82 616.904C1163.55 594.086 1160.46 609.042 1160.46 609.042C1160.46 609.042 1149.15 653.412 1161.44 632.349C1173.43 611.79 1173.36 612.219 1169.13 636.167V636.168L1168.81 637.966C1165.66 655.839 1171.47 649.462 1181.79 638.135C1186.32 633.165 1191.71 627.243 1197.6 621.998C1204.46 612.635 1208.17 606.098 1213.54 591.646L1213.92 590.93L1213.92 590.927L1213.92 590.923L1213.92 590.92L1213.92 590.917C1221.3 576.822 1224.86 570.022 1223.82 569.232C1222.86 568.495 1217.9 572.983 1208.33 581.655C1207.65 582.267 1206.95 582.901 1206.23 583.554C1183.69 603.949 1184.37 601.882 1192.98 575.956L1193.01 575.874C1193.63 573.996 1194.3 571.992 1195 569.864C1206.23 535.725 1200.26 537.568 1183.41 566.002C1180.44 569.381 1177.82 572.539 1175.59 575.228C1166.23 586.509 1163.72 589.541 1170.58 566.002C1180.41 532.274 1183.41 515.654 1165.16 543.184C1147.92 569.186 1142.33 565.618 1153.84 535.725C1165.16 506.325 1162.35 501.41 1146.87 532.274C1132.24 561.439 1126.25 555.609 1133.95 523.902C1134.87 520.086 1135.69 516.811 1136.38 514.043L1136.38 514.042L1136.38 514.034L1136.38 514.031L1136.38 514.03L1136.38 514.022C1138.39 506.001 1139.32 502.255 1138.75 502.013ZM1422.75 718.013C1422.26 717.8 1420.61 720.279 1417.51 724.929L1417.51 724.932C1414.49 729.475 1410.08 736.09 1404.03 744.291C1396.31 760.322 1380.86 790.134 1380.86 790.134C1380.86 791.097 1380.08 793.476 1379.21 796.088L1379.21 796.091L1379.21 796.092C1377.56 801.101 1375.63 806.966 1378.39 805.351C1382.61 802.894 1384.26 801.032 1384.26 801.032C1390.07 795.907 1393.99 791.698 1396.53 788.983L1396.53 788.982C1398.68 786.672 1399.83 785.445 1400.26 785.659C1400.75 785.901 1400.33 787.991 1399.44 792.448C1398.93 795.014 1398.25 798.365 1397.51 802.599C1396.26 809.648 1395.1 814.898 1394.32 818.395C1393.57 821.808 1393.18 823.549 1393.45 823.66C1393.74 823.775 1394.74 822.12 1396.78 818.743L1396.79 818.735C1398.1 816.561 1399.85 813.673 1402.12 810.086C1405.75 804.326 1407.94 800.283 1409.14 798.064L1409.14 798.062C1409.87 796.702 1410.23 796.029 1410.34 796.066C1410.44 796.103 1410.28 796.822 1409.98 798.248L1409.98 798.257L1409.98 798.258C1409.34 801.252 1408.05 807.345 1407.03 816.756C1404.22 842.733 1404.96 845.892 1417.95 822.723C1430.93 799.555 1430.55 816.756 1429.5 822.723C1428.45 828.691 1424.09 855.721 1435.82 832.904C1447.55 810.086 1444.46 825.042 1444.46 825.042C1444.46 825.042 1433.15 869.412 1445.44 848.349C1457.43 827.79 1457.36 828.219 1453.13 852.167V852.168L1452.81 853.966C1449.66 871.839 1455.47 865.462 1465.79 854.135C1470.32 849.165 1475.71 843.243 1481.6 837.998C1488.46 828.635 1492.17 822.098 1497.54 807.646L1497.92 806.93L1497.92 806.929L1497.92 806.927L1497.92 806.926L1497.92 806.924L1497.92 806.923L1497.92 806.921L1497.92 806.92L1497.92 806.918L1497.92 806.917L1497.93 806.915L1497.93 806.914L1497.93 806.912L1497.93 806.911L1497.93 806.909C1505.3 792.819 1508.86 786.022 1507.82 785.232C1506.86 784.495 1501.9 788.983 1492.33 797.655L1491.25 798.63L1490.23 799.554C1467.69 819.949 1468.37 817.882 1476.98 791.956C1477.61 790.054 1478.29 788.023 1479 785.864C1490.23 751.725 1484.26 753.568 1467.41 782.002C1464.44 785.381 1461.82 788.539 1459.59 791.228C1450.23 802.509 1447.72 805.541 1454.58 782.002C1464.41 748.274 1467.41 731.654 1449.16 759.184C1431.92 785.186 1426.33 781.618 1437.84 751.725C1449.16 722.325 1446.35 717.41 1430.87 748.274C1416.24 777.439 1410.25 771.609 1417.95 739.902C1418.87 736.086 1419.69 732.81 1420.38 730.043L1420.38 730.039C1422.38 722.006 1423.32 718.256 1422.75 718.013ZM1422.75 286.013C1422.26 285.8 1420.61 288.279 1417.51 292.929L1417.51 292.933C1414.49 297.476 1410.08 304.091 1404.03 312.291C1396.31 328.322 1380.86 358.134 1380.86 358.134C1380.86 359.097 1380.08 361.476 1379.21 364.088L1379.21 364.091C1377.56 369.1 1375.63 374.966 1378.39 373.351C1382.61 370.894 1384.26 369.032 1384.26 369.032C1390.07 363.906 1394 359.696 1396.53 356.982C1398.68 354.672 1399.83 353.445 1400.26 353.659C1400.75 353.901 1400.33 355.991 1399.44 360.448C1398.93 363.014 1398.25 366.365 1397.51 370.599C1396.26 377.648 1395.1 382.898 1394.32 386.395C1393.57 389.808 1393.18 391.549 1393.45 391.66C1393.74 391.775 1394.74 390.12 1396.78 386.742L1396.79 386.735C1398.1 384.561 1399.85 381.674 1402.12 378.086C1405.76 372.325 1407.94 368.28 1409.14 366.062C1409.87 364.702 1410.23 364.029 1410.34 364.066C1410.44 364.103 1410.28 364.822 1409.98 366.249L1409.98 366.257L1409.98 366.258C1409.34 369.252 1408.05 375.345 1407.03 384.756C1406.78 387.095 1406.55 389.25 1406.37 391.217C1342.65 454.259 1324.33 550.824 1367.83 628.827C1420.75 723.727 1545.14 755.215 1645.65 699.16C1746.17 643.104 1784.75 520.73 1731.82 425.831C1726.88 416.964 1721.31 408.65 1715.19 400.91C1719.93 393.876 1723.19 387.361 1727.54 375.646L1727.92 374.93C1735.3 360.826 1738.86 354.022 1737.82 353.232C1736.86 352.495 1731.9 356.983 1722.33 365.655C1721.65 366.267 1720.95 366.9 1720.23 367.554C1697.69 387.949 1698.37 385.882 1706.98 359.956C1707.61 358.054 1708.29 356.023 1709 353.864C1720.23 319.725 1714.26 321.568 1697.41 350.002C1694.45 353.369 1691.84 356.518 1689.61 359.201L1689.6 359.21L1689.59 359.223L1689.59 359.224L1689.59 359.228C1685.39 364.296 1682.57 367.699 1681.35 367.776C1681.17 367.637 1680.99 367.498 1680.8 367.36C1680.28 365.93 1681.46 360.721 1684.58 350.002C1694.41 316.274 1697.41 299.654 1679.16 327.184C1661.92 353.186 1656.33 349.618 1667.84 319.725C1679.16 290.325 1676.35 285.41 1660.87 316.274C1646.24 345.439 1640.25 339.609 1647.95 307.902C1648.87 304.086 1649.69 300.811 1650.38 298.043L1650.38 298.042L1650.38 298.034L1650.38 298.027L1650.38 298.021C1652.39 290.001 1653.32 286.255 1652.75 286.013C1652.26 285.8 1650.61 288.279 1647.51 292.929L1647.51 292.933C1644.49 297.476 1640.08 304.091 1634.03 312.291C1630.71 319.18 1625.97 328.615 1621.63 337.134C1577.87 323.426 1528.75 324.383 1482.59 342.109C1488.29 321.266 1482.35 325.124 1468.58 348.051C1463.67 350.335 1458.8 352.817 1454 355.498C1453.61 355.714 1453.22 355.931 1452.84 356.148C1453.33 354.341 1453.91 352.298 1454.58 350.002C1464.41 316.274 1467.41 299.654 1449.16 327.184C1431.92 353.186 1426.33 349.618 1437.84 319.725C1449.16 290.325 1446.35 285.41 1430.87 316.274C1416.24 345.439 1410.25 339.609 1417.95 307.902C1418.87 304.086 1419.69 300.811 1420.38 298.043L1420.38 298.042L1420.38 298.034L1420.38 298.027L1420.38 298.021C1422.39 290.001 1423.32 286.255 1422.75 286.013ZM1133.51 724.929C1136.61 720.279 1138.26 717.8 1138.75 718.013C1139.32 718.256 1138.38 722.006 1136.38 730.039L1136.38 730.043C1135.69 732.81 1134.87 736.086 1133.95 739.902C1126.25 771.609 1132.24 777.439 1146.87 748.274C1162.35 717.41 1165.16 722.325 1153.84 751.725C1142.33 781.618 1147.92 785.186 1165.16 759.184C1183.41 731.654 1180.41 748.274 1170.58 782.002C1163.72 805.541 1166.23 802.509 1175.59 791.228C1177.82 788.539 1180.44 785.381 1183.41 782.002C1200.26 753.568 1206.23 751.725 1195 785.864L1194.74 786.647C1194.6 787.05 1194.47 787.448 1194.34 787.842L1193.94 789.062C1193.7 789.779 1193.47 790.48 1193.24 791.165L1193.16 791.408L1193.14 791.461L1193.11 791.571L1193.06 791.717L1193 791.884L1192.98 791.956C1184.37 817.882 1183.69 819.949 1206.23 799.554C1206.95 798.9 1207.65 798.267 1208.33 797.655C1217.9 788.983 1222.86 784.495 1223.82 785.232C1224.86 786.022 1221.3 792.819 1213.93 806.909L1213.93 806.911L1213.93 806.912L1213.93 806.914L1213.93 806.915L1213.92 806.917L1213.92 806.918L1213.92 806.92L1213.92 806.921L1213.92 806.923L1213.92 806.924L1213.92 806.926L1213.92 806.927L1213.92 806.929L1213.92 806.93L1213.54 807.646C1208.17 822.098 1204.46 828.635 1197.6 837.998C1191.71 843.243 1186.32 849.165 1181.79 854.135C1171.47 865.462 1165.66 871.839 1168.81 853.966L1169.13 852.168V852.167C1173.36 828.219 1173.43 827.79 1161.44 848.349C1149.15 869.412 1160.46 825.042 1160.46 825.042C1160.46 825.042 1163.55 810.086 1151.82 832.904C1140.09 855.721 1144.45 828.691 1145.5 822.723C1146.55 816.756 1146.93 799.555 1133.95 822.723C1120.96 845.892 1120.22 842.733 1123.03 816.756C1124.05 807.345 1125.34 801.252 1125.98 798.258L1125.98 798.257L1125.98 798.248C1126.28 796.822 1126.44 796.103 1126.34 796.066C1126.23 796.029 1125.87 796.702 1125.14 798.062L1125.14 798.064C1123.94 800.283 1121.75 804.326 1118.12 810.086C1115.85 813.673 1114.1 816.561 1112.79 818.735L1112.78 818.743C1110.74 822.12 1109.74 823.775 1109.45 823.66C1109.18 823.549 1109.57 821.808 1110.32 818.395C1111.1 814.898 1112.26 809.648 1113.51 802.599C1114.25 798.365 1114.93 795.014 1115.44 792.448C1116.33 787.991 1116.75 785.901 1116.26 785.659C1115.83 785.445 1114.68 786.672 1112.53 788.982C1110 791.696 1106.07 795.906 1100.26 801.032C1100.26 801.032 1098.61 802.894 1094.39 805.351C1091.63 806.966 1093.56 801.1 1095.21 796.091C1096.07 793.478 1096.86 791.097 1096.86 790.134C1096.86 790.134 1112.31 760.322 1120.03 744.291C1126.08 736.09 1130.49 729.475 1133.51 724.932L1133.51 724.929ZM1647.51 724.929C1650.61 720.279 1652.26 717.8 1652.75 718.013C1653.32 718.256 1652.38 722.006 1650.38 730.039L1650.38 730.043C1649.69 732.81 1648.87 736.086 1647.95 739.902C1640.25 771.609 1646.24 777.439 1660.87 748.274C1676.35 717.41 1679.16 722.325 1667.84 751.725C1656.33 781.618 1661.92 785.186 1679.16 759.184C1697.41 731.654 1694.41 748.274 1684.58 782.002C1677.72 805.541 1680.23 802.509 1689.59 791.228C1691.82 788.539 1694.44 785.381 1697.41 782.002C1714.26 753.568 1720.23 751.725 1709 785.864C1708.32 787.933 1707.67 789.884 1707.06 791.717L1707 791.884L1706.98 791.956C1698.37 817.882 1697.69 819.949 1720.23 799.554C1720.95 798.9 1721.65 798.267 1722.33 797.655C1731.9 788.983 1736.86 784.495 1737.82 785.232C1738.86 786.022 1735.3 792.823 1727.92 806.921L1727.92 806.923L1727.92 806.924L1727.92 806.926L1727.92 806.927L1727.92 806.929L1727.92 806.93L1727.54 807.646C1722.17 822.098 1718.46 828.635 1711.6 837.998C1705.71 843.243 1700.32 849.165 1695.79 854.135C1685.47 865.462 1679.66 871.839 1682.81 853.966L1683.13 852.168V852.167C1687.36 828.219 1687.43 827.79 1675.44 848.349C1663.15 869.412 1674.46 825.042 1674.46 825.042C1674.46 825.042 1677.55 810.086 1665.82 832.904C1654.09 855.721 1658.45 828.691 1659.5 822.723C1660.55 816.756 1660.93 799.555 1647.95 822.723C1634.96 845.892 1634.22 842.733 1637.03 816.756C1638.05 807.345 1639.34 801.252 1639.98 798.258L1639.98 798.257L1639.98 798.248C1640.28 796.822 1640.44 796.103 1640.34 796.066C1640.23 796.029 1639.87 796.702 1639.14 798.062L1639.14 798.064C1637.94 800.283 1635.75 804.326 1632.12 810.086C1629.85 813.673 1628.1 816.561 1626.79 818.735L1626.78 818.743C1624.74 822.12 1623.74 823.775 1623.45 823.66C1623.18 823.549 1623.57 821.808 1624.32 818.395C1625.1 814.898 1626.26 809.648 1627.51 802.599C1628.25 798.365 1628.93 795.014 1629.44 792.448C1630.33 787.991 1630.75 785.901 1630.26 785.659C1629.83 785.445 1628.68 786.672 1626.53 788.982L1626.53 788.983C1623.99 791.698 1620.07 795.907 1614.26 801.032C1614.26 801.032 1612.61 802.894 1608.39 805.351C1605.63 806.966 1607.56 801.101 1609.21 796.092L1609.21 796.091L1609.21 796.088C1610.08 793.476 1610.86 791.097 1610.86 790.134C1610.86 790.134 1626.31 760.322 1634.03 744.291C1640.08 736.09 1644.49 729.475 1647.51 724.932L1647.51 724.929Z" fill="white"/>
<path d="M37.2327 221.401L62.0073 293.608L78.1051 263.424L53.881 192.822L37.2327 221.401Z" fill="#FE3176"/>
<path d="M302.697 211.026L315.184 182.081L295.127 188.963L302.697 211.026Z" fill="#FE3176"/>
<path d="M78.1051 263.424L62.0073 293.608L302.697 211.026L295.127 188.963L78.1051 263.424Z" fill="#FE3176"/>
<path d="M315.184 182.081L290.96 111.479L295.127 188.963L315.184 182.081Z" fill="#FE3176"/>
<path d="M76.2275 263.173L52.2787 193.373L290.561 111.617L314.51 181.417L76.2275 263.173Z" fill="#DBF429" stroke="black" stroke-width="2.54463"/>
<path d="M50.6621 192.582L36.57 222.078L61.3446 294.285L76.1013 264.113L50.6621 192.582Z" fill="black"/>
<path d="M119.737 225.476C118.443 223.38 117.192 220.601 116.008 217.15L113.475 209.766L116.428 208.753C118.187 208.149 119.845 208.007 121.411 208.304L117.049 199.805L96.5914 206.824L98.3657 216.211C99.387 215.026 100.783 214.121 102.558 213.512L105.727 212.425L108.26 219.808C109.444 223.259 110.164 226.221 110.429 228.67L119.737 225.476ZM150.177 215.607C151.023 215.317 151.773 214.8 152.432 214.073C153.075 213.352 153.451 212.611 153.561 211.85L149.966 201.697C149.845 204.316 148.717 206.001 146.576 206.736C145.664 207.049 144.686 206.902 143.835 206.582C142.605 206.133 141.218 205.496 139.509 206.082L139.443 206.105L139.374 205.906L139.673 205.803C141.415 205.205 142.879 204.444 144.069 203.535C145.259 202.626 146.098 201.559 146.581 200.317C147.07 199.093 147.075 197.811 146.614 196.467C146.164 195.157 145.368 194.187 144.214 193.526C141.901 192.243 138.784 192.348 135.25 193.561L120.815 198.513C122.11 200.61 123.36 203.389 124.55 206.857L126.81 213.444C127.994 216.895 128.713 219.856 128.979 222.306L138.287 219.112C136.992 217.015 135.742 214.236 134.558 210.785L134.08 209.391C134.339 209.173 134.803 208.958 135.483 208.725C138.171 207.802 139.773 209.608 141.455 211.645C143.519 214.201 145.686 217.167 150.177 215.607ZM131.865 202.937L136.411 201.377C138.021 200.825 139.427 201.196 139.832 202.374C140.264 203.635 139.375 204.719 137.583 205.333L133.203 206.836L131.865 202.937ZM163.108 210.596C162.703 209.418 162.388 207.634 162.173 205.223L162.166 204.391L168.852 202.097L169.362 202.719C170.685 204.843 171.553 206.456 171.951 207.562L181.259 204.368C179.266 202.289 177.252 199.771 175.241 196.827L170.641 191.042C169.793 189.813 168.982 188.422 168.181 186.898C167.38 185.374 166.741 184.054 166.293 182.909L152.439 187.663C152.787 188.786 153.099 190.181 153.402 191.876C153.706 193.571 153.898 195.211 154 196.752L153.904 204.147C154.121 208.023 154.071 211.23 153.767 213.801L163.108 210.596ZM161.969 196.521C161.949 195.545 161.765 194.088 161.437 192.105L161.885 191.951C162.764 193.597 163.536 194.871 164.209 195.753L166.905 198.963L161.812 200.711L161.969 196.521ZM194.249 200.449C196.257 199.76 197.987 199.018 199.461 198.234C200.913 197.439 202.342 196.522 203.747 195.484L200.69 186.574C200.001 187.756 199.007 188.858 197.707 189.879C196.407 190.9 194.922 191.706 193.262 192.275C189.214 193.664 185.108 193.534 183.969 190.215C183.451 188.706 183.761 187.283 184.875 185.936C185.995 184.606 187.672 183.549 189.895 182.786C191.206 182.336 192.585 182.085 194.016 182.04C195.436 182.016 196.635 182.161 197.62 182.491L194.857 174.222C193.73 174.126 192.35 174.21 190.726 174.452C189.109 174.71 187.47 175.124 185.795 175.699C182.991 176.661 180.486 178.17 178.519 180.328C177.535 181.407 176.752 182.585 176.181 183.838C175.027 186.366 174.833 189.586 175.966 192.887C177.105 196.206 179.223 198.65 181.686 199.938C185.398 201.891 190.102 201.927 194.249 200.449ZM227.433 189.063C228.279 188.773 229.006 188.245 229.654 187.485C230.302 186.725 230.651 185.956 230.705 185.196L227.189 175.164C226.996 177.252 226.18 178.44 224.04 179.175C222.862 179.579 221.606 179.379 220.521 178.972C218.985 178.387 217.015 177.616 214.515 178.493L214.1 178.635L213.969 178.253L216.01 177.553C218.847 176.58 220.565 175.805 221.982 174.744C224.054 173.161 224.387 171.322 223.423 168.296C222.848 166.621 222.01 165.258 220.913 164.169L212.186 167.164C213.465 168.19 214.369 169.474 214.899 171.017C216.037 174.336 215.126 176.651 212.338 177.608L210.414 178.268L209.958 176.941C208.848 173.705 208.191 170.926 207.971 168.609L198.663 171.803C199.958 173.9 201.208 176.679 202.398 180.147L204.658 186.733C205.842 190.185 206.561 193.146 206.827 195.595L216.135 192.402C214.886 190.438 213.641 187.675 212.406 184.075L211.37 181.055C211.722 180.73 212.252 180.437 212.965 180.193C215.769 179.231 217.17 181.476 218.585 184.032C219.307 185.324 220.034 186.632 221.008 187.688C222.397 189.252 224.38 190.111 227.433 189.063ZM244.539 183.194C248.039 181.993 250.722 180.461 252.542 178.575C254.345 176.696 254.962 174.388 254.12 171.932C253.414 169.875 251.906 168.668 250.167 168.356C248.433 168.06 246.276 168.151 244.267 168.618C240.185 169.425 236.298 170.796 235.654 168.921C235.467 168.374 235.745 167.833 236.461 167.272C237.177 166.711 238.177 166.22 239.471 165.776C241.18 165.19 242.974 164.852 244.832 164.753C246.689 164.653 248.244 164.806 249.49 165.194L246.541 156.6C245.204 156.595 243.619 156.731 241.768 157.013C239.918 157.296 238.158 157.733 236.515 158.297C234.226 159.082 232.293 160.042 230.738 161.187C229.168 162.338 228.042 163.652 227.389 165.155C226.737 166.659 226.673 168.201 227.219 169.794C227.863 171.669 229.144 172.917 230.634 173.37C232.131 173.839 233.946 173.94 235.774 173.647C240.306 173.019 244.982 171.081 245.562 172.773C245.927 173.835 244.616 174.878 241.646 175.897C239.605 176.597 237.462 176.999 235.232 177.096C232.987 177.199 230.993 176.9 229.217 176.211L231.987 185.257C233.784 185.252 235.901 185.045 238.344 184.652C240.787 184.259 242.846 183.775 244.539 183.194Z" fill="black"/>
</svg>
