<svg width="846" height="916" viewBox="0 0 846 916" fill="none" xmlns="http://www.w3.org/2000/svg">
<g filter="url(#filter0_dii)">
<circle cx="386.008" cy="395.008" r="242.576" transform="rotate(-29.1482 386.008 395.008)" fill="url(#paint0_linear)"/>
</g>
<circle cx="386.008" cy="395.008" r="242.576" transform="rotate(-29.1482 386.008 395.008)" fill="black"/>
<path d="M566.948 293.624C619.578 387.995 581.246 509.779 481.167 565.593C381.088 621.406 257.333 590.017 204.703 495.647C152.073 401.276 190.404 279.492 290.483 223.678C390.562 167.864 514.318 199.254 566.948 293.624Z" fill="black" stroke="#C4C4C4" stroke-width="2"/>
<path d="M530.263 316.196C571.756 390.597 541.544 486.634 462.61 530.655C383.677 574.676 286.093 549.91 244.6 475.509C203.107 401.108 233.319 305.071 312.253 261.05C391.186 217.029 488.77 241.795 530.263 316.196Z" fill="black" stroke="#C4C4C4" stroke-width="2.08917"/>
<path d="M495.28 336.073C526.771 392.537 503.849 465.442 443.918 498.865C383.987 532.288 309.915 513.477 278.425 457.012C246.935 400.547 269.857 327.643 329.788 294.22C389.719 260.797 463.79 279.608 495.28 336.073Z" fill="black" stroke="#C4C4C4" stroke-width="2"/>
<g filter="url(#filter1_bii)">
<circle cx="387.008" cy="396.311" r="242.576" transform="rotate(-29.1482 387.008 396.311)" fill="black" fill-opacity="0.045"/>
</g>
<circle cx="386.759" cy="397.97" r="83.7989" fill="#DBF429"/>
<path d="M299.763 228.052C301.646 229.993 303.742 232.846 306.062 236.631L312.764 247.568L312.427 247.774L291.308 233.233L288.847 234.741L292.173 260.186L291.753 260.444L285.051 249.507C282.77 245.784 281.166 242.601 280.287 239.986L270.802 245.799C272.611 247.525 274.728 250.365 277.164 254.34L284.562 266.412C286.998 270.388 288.567 273.563 289.284 275.959L299.926 269.437L297.516 252.428C297.454 252.09 297.351 251.545 297.217 250.76C297.091 249.94 296.988 249.395 296.926 249.057C296.864 248.72 296.766 248.23 296.659 247.63C296.398 246.401 296.147 245.426 295.806 244.16L296.205 243.916C297.843 245.313 300.05 247.027 302.874 249.086L316.899 259.036L327.709 252.412C325.796 250.517 323.68 247.677 321.347 243.871L313.949 231.798C311.616 227.991 310.046 224.816 309.227 222.252L299.763 228.052Z" fill="#DBF429"/>
<path d="M242.207 257.903C235.689 264.81 232.936 273.797 239.212 279.689C240.417 280.82 241.907 281.576 243.681 281.956L251.558 289.352C252.87 290.584 253.917 291.668 254.679 292.586C255.423 293.488 256.225 294.579 257.102 295.843L264.632 287.822C263.784 287.465 262.678 286.732 261.282 285.625C259.868 284.5 258.631 283.44 257.534 282.41L254.8 279.843C253.452 278.577 252.722 277.012 252.61 275.113C252.479 273.198 253.107 271.52 254.458 270.082C257.159 267.204 260.511 267.238 263.478 270.024L266.409 272.776C268.837 275.056 270.811 277.349 272.315 279.64L279.845 271.62C277.427 270.195 274.814 268.149 272.009 265.515L268.574 262.29C265.967 259.842 263.259 258.653 260.452 258.724C257.661 258.777 254.999 260.135 252.517 262.779C248.938 266.591 248.363 271.059 250.507 275.407L250.17 275.766C248.525 275.644 247.182 275.093 246.121 274.096C244.196 272.29 243.398 270.221 243.743 267.872C244.088 265.522 245.392 263.16 247.638 260.769C249.377 258.916 251.368 257.335 253.63 256.008C255.892 254.68 257.997 253.915 259.962 253.696L254.279 248.361C252.491 249.22 250.491 250.522 248.329 252.248C246.167 253.974 244.132 255.853 242.207 257.903Z" fill="#DBF429"/>
<path d="M223.533 300.492C222.397 302.313 221.633 304.656 221.558 306.267L227.628 310.054C227.493 309.011 227.91 307.41 228.759 306.05C230.47 303.308 232.966 302.569 235.917 304.41L243.974 309.437L239.247 317.013L242.554 319.076L247.281 311.5L255.861 316.853L258.446 308.377L251.811 304.238L254.501 299.927L251.195 297.864L248.505 302.175L237.748 295.464C231.7 291.69 226.993 294.947 223.533 300.492Z" fill="#DBF429"/>
<path d="M212.082 325.021C213.011 325.003 214.321 325.235 216.035 325.725C217.725 326.207 219.297 326.722 220.727 327.264L224.252 328.544C225.982 329.199 227.269 330.398 228.089 332.133C228.919 333.845 228.971 335.658 228.264 337.527C226.893 341.149 223.728 342.404 219.921 340.963L216.207 339.558C213.254 338.44 210.553 337.075 208.127 335.471L204.233 345.761C206.911 346.141 210.084 347.026 213.799 348.431L218.159 350.081C221.504 351.347 224.46 351.411 227.051 350.281C229.641 349.151 231.582 346.879 232.865 343.488C234.672 338.712 233.671 334.667 229.893 331.339L230.094 330.808L235.585 332.886C239.76 334.466 242.946 336.014 245.165 337.539L249.076 327.204C246.527 326.899 243.123 325.927 238.832 324.304L225.59 319.293C221.299 317.669 218.105 316.144 215.993 314.685L212.082 325.021Z" fill="#DBF429"/>
<path d="M228.449 367.772C228.159 369.299 228.345 370.564 229.023 371.622C229.677 372.675 230.636 373.309 231.92 373.553C233.204 373.797 234.354 373.564 235.372 372.828C236.391 372.093 237.028 370.984 237.318 369.457C237.599 367.979 237.413 366.713 236.735 365.655C236.057 364.597 235.078 363.934 233.794 363.69C232.534 363.451 231.404 363.713 230.386 364.449C229.367 365.184 228.73 366.294 228.449 367.772ZM199.899 368.047C202.442 367.878 205.967 368.221 210.499 369.082L219.829 370.854C221.937 371.255 223.586 371.694 224.829 372.156C224.28 370.947 224.216 369.303 224.617 367.194C225.017 365.086 225.694 363.507 226.675 362.438C225.616 362.463 223.897 362.262 221.546 361.815L212.216 360.043C207.684 359.182 204.279 358.208 201.975 357.118L199.899 368.047Z" fill="#DBF429"/>
<path d="M196.796 394.733C196.731 396.434 196.805 398.362 197.045 400.494C197.309 402.627 197.616 404.268 198.017 405.394L205.141 405.667C204.469 404.505 203.931 403.102 203.548 401.483C203.142 399.839 202.98 398.277 203.037 396.774C203.155 393.692 203.89 391.277 205.215 389.55C206.54 387.799 208.3 386.978 210.444 387.06C212.589 387.142 214.257 388.07 215.448 389.843C216.639 391.617 217.167 393.932 217.059 396.767C217.001 398.271 216.747 399.742 216.296 401.206C215.821 402.669 215.283 403.808 214.683 404.649L221.471 405.329C221.978 404.336 222.405 402.847 222.802 400.862C223.198 398.878 223.411 397.208 223.462 395.852C223.678 390.207 222.396 385.666 220.059 382.861C217.698 380.055 214.523 378.527 210.776 378.383C207.03 378.24 203.748 379.497 201.205 382.09C198.638 384.658 197.012 389.088 196.796 394.733Z" fill="#DBF429"/>
<path d="M198.397 424.475C199.196 429.418 201.679 432.415 204.83 433.205L204.917 433.74L204.478 433.811C202.847 434.075 201.57 434.056 200.618 433.735L202.268 443.938C203.227 443.384 204.426 442.915 205.843 442.561C207.256 442.183 209.338 441.771 212.041 441.334L218.153 440.346C221.1 439.87 223.245 438.299 224.366 436.268C224.926 435.253 225.309 434.067 225.563 432.702C226.023 429.979 225.894 427.326 225.386 424.185C225.087 422.334 224.557 420.296 223.826 418.09C223.066 415.864 222.401 414.223 221.806 413.169L215.962 414.114C216.749 414.811 217.542 416.007 218.313 417.682C219.083 419.357 219.626 421.168 219.937 423.092C220.33 425.527 220.134 427.557 219.347 429.184C218.533 430.79 217.117 431.768 215.047 432.103L212.198 432.563L212.095 431.93C213.405 431.069 214.393 429.76 215.03 427.983C215.668 426.205 215.808 424.134 215.418 421.723C214.894 418.484 213.681 416.082 211.803 414.511C209.925 412.941 207.734 412.371 205.275 412.768C202.815 413.166 200.915 414.397 199.604 416.484C198.267 418.574 197.873 421.236 198.397 424.475ZM203.925 427.604C203.346 424.024 204.558 421.63 206.799 421.267C209.014 420.909 210.871 422.808 211.449 426.388C211.737 428.165 211.608 429.685 211.034 430.927C210.46 432.17 209.674 432.871 208.7 433.029C206.362 433.407 204.527 431.33 203.925 427.604Z" fill="#DBF429"/>
<path d="M209.223 465.383C211.707 463.871 214.972 462.434 218.97 461.09L232.39 456.576C236.388 455.231 239.857 454.402 242.75 454.106L239.243 443.679C236.891 445.12 233.618 446.533 229.48 447.925L216.06 452.439C211.922 453.831 208.461 454.683 205.716 454.955L209.223 465.383Z" fill="#DBF429"/>
<path d="M227.379 502.216C229.204 500.284 231.89 498.133 235.459 495.748L241.372 491.855L241.591 492.183C239.712 494.033 238.757 496.244 238.725 498.816C238.674 501.402 239.443 503.885 241.046 506.284C242.979 509.176 245.519 510.89 248.633 511.42C251.732 511.93 255.001 511.05 258.467 508.734C261.974 506.39 263.865 502.96 264.06 499.389C264.254 495.817 263.093 491.994 260.75 488.488L250.621 473.332C248.803 475.318 246.049 477.545 242.337 480.025L230.565 487.893C226.853 490.374 223.742 492.067 221.212 492.987L227.379 502.216ZM244.432 499.275C243.746 498.249 243.314 497.114 243.142 495.835C242.969 494.556 243.125 493.235 243.657 491.901C244.169 490.58 245.05 489.457 246.314 488.552L249.042 486.729C250.241 488.034 251.625 489.839 253.146 492.115C254.421 494.023 254.984 495.842 254.842 497.539C254.687 499.215 253.888 500.55 252.473 501.496C251.14 502.387 249.724 502.621 248.211 502.178C246.699 501.735 245.432 500.772 244.432 499.275Z" fill="#DBF429"/>
<path d="M252.672 535.195C256.289 538.657 260.077 539.552 263.068 538.282L263.46 538.658L263.153 538.978C262.01 540.172 260.98 540.928 260.027 541.245L267.493 548.392C267.925 547.37 268.599 546.274 269.516 545.137C270.415 543.984 271.829 542.4 273.722 540.422L278.003 535.949C280.067 533.793 280.831 531.247 280.502 528.951C280.337 527.803 279.927 526.626 279.307 525.383C278.032 522.934 276.33 520.895 274.032 518.695C272.677 517.398 271.026 516.091 269.113 514.772C267.165 513.454 265.645 512.545 264.535 512.063L260.442 516.34C261.49 516.422 262.844 516.898 264.468 517.77C266.092 518.641 267.617 519.76 269.025 521.107C270.807 522.813 271.874 524.551 272.227 526.323C272.545 528.096 272.005 529.73 270.555 531.245L268.56 533.33L268.096 532.886C268.622 531.409 268.621 529.769 268.058 527.967C267.496 526.165 266.359 524.428 264.594 522.739C262.224 520.471 259.808 519.285 257.363 519.164C254.918 519.043 252.826 519.909 251.103 521.708C249.381 523.508 248.607 525.636 248.818 528.091C249.012 530.565 250.302 532.926 252.672 535.195ZM258.969 534.359C256.35 531.852 255.873 529.211 257.442 527.571C258.995 525.95 261.62 526.346 264.24 528.853C265.54 530.098 266.354 531.389 266.645 532.726C266.936 534.063 266.731 535.097 266.049 535.81C264.412 537.52 261.696 536.969 258.969 534.359Z" fill="#DBF429"/>
<path d="M286.334 562.31C289.871 564.564 293.035 565.703 295.806 565.715C298.578 565.726 300.65 564.678 302.016 562.535C307.12 554.527 289.595 548.153 291.769 544.742C292.512 543.577 294.674 543.902 297.42 545.652C299.084 546.713 300.615 547.982 301.98 549.466C303.345 550.95 304.35 552.264 305.038 553.434L308.79 547.547C306.556 544.397 303.779 541.779 300.472 539.671C297.081 537.51 294.063 536.463 291.374 536.505C288.686 536.546 286.756 537.51 285.549 539.403C282.95 543.479 286.062 547.042 289.552 550.057C293.021 553.058 296.849 555.497 295.669 557.349C294.82 558.68 292.753 558.298 289.487 556.217C287.927 555.222 286.276 553.819 284.528 551.973C282.758 550.114 281.388 548.363 280.396 546.707L276.299 553.135C277.299 554.503 278.817 556.114 280.84 557.989C282.876 559.842 284.712 561.276 286.334 562.31Z" fill="#DBF429"/>
<path d="M320.031 579.515C322.009 580.348 324.444 580.73 326.046 580.548L328.821 573.955C327.812 574.253 326.166 574.095 324.688 573.473C321.71 572.22 320.584 569.872 321.933 566.667L325.616 557.914L333.847 561.377L335.359 557.785L327.128 554.321L331.051 545L322.272 543.794L319.239 551.001L314.556 549.03L313.044 552.622L317.727 554.593L312.809 566.279C310.044 572.85 314.006 576.98 320.031 579.515Z" fill="#DBF429"/>
<path d="M384.546 316.589L394.667 368.092L434.947 332.037L411.043 379.316L466.096 372.481L417.298 397.476L466.096 422.471L411.043 415.636L434.947 462.914L394.667 426.86L384.546 478.362L374.425 426.86L334.146 462.914L358.049 415.636L302.996 422.471L351.794 397.476L302.996 372.481L358.049 379.316L334.146 332.037L374.425 368.092L384.546 316.589Z" fill="#FE3176"/>
<circle cx="386.415" cy="395.862" r="8.82094" fill="black"/>
<defs>
<filter id="filter0_dii" x="-73.3737" y="0.313385" width="918.764" height="918.764" filterUnits="userSpaceOnUse" color-interpolation-filters="sRGB">
<feFlood flood-opacity="0" result="BackgroundImageFix"/>
<feColorMatrix in="SourceAlpha" type="matrix" values="0 0 0 0 0 0 0 0 0 0 0 0 0 0 0 0 0 0 127 0" result="hardAlpha"/>
<feOffset dy="64.6869"/>
<feGaussianBlur stdDeviation="64.6869"/>
<feColorMatrix type="matrix" values="0 0 0 0 0 0 0 0 0 0 0 0 0 0 0 0 0 0 0.429 0"/>
<feBlend mode="normal" in2="BackgroundImageFix" result="effect1_dropShadow"/>
<feBlend mode="normal" in="SourceGraphic" in2="effect1_dropShadow" result="shape"/>
<feColorMatrix in="SourceAlpha" type="matrix" values="0 0 0 0 0 0 0 0 0 0 0 0 0 0 0 0 0 0 127 0" result="hardAlpha"/>
<feOffset dy="27.8872"/>
<feGaussianBlur stdDeviation="13.9436"/>
<feComposite in2="hardAlpha" operator="arithmetic" k2="-1" k3="1"/>
<feColorMatrix type="matrix" values="0 0 0 0 0 0 0 0 0 0 0 0 0 0 0 0 0 0 1 0"/>
<feBlend mode="normal" in2="shape" result="effect2_innerShadow"/>
<feColorMatrix in="SourceAlpha" type="matrix" values="0 0 0 0 0 0 0 0 0 0 0 0 0 0 0 0 0 0 127 0" result="hardAlpha"/>
<feOffset dy="-27.8872"/>
<feGaussianBlur stdDeviation="13.9436"/>
<feComposite in2="hardAlpha" operator="arithmetic" k2="-1" k3="1"/>
<feColorMatrix type="matrix" values="0 0 0 0 0 0 0 0 0 0 0 0 0 0 0 0 0 0 1 0"/>
<feBlend mode="normal" in2="effect2_innerShadow" result="effect3_innerShadow"/>
</filter>
<filter id="filter1_bii" x="24.6566" y="33.9595" width="724.703" height="724.703" filterUnits="userSpaceOnUse" color-interpolation-filters="sRGB">
<feFlood flood-opacity="0" result="BackgroundImageFix"/>
<feGaussianBlur in="BackgroundImage" stdDeviation="5.82182"/>
<feComposite in2="SourceAlpha" operator="in" result="effect1_backgroundBlur"/>
<feBlend mode="normal" in="SourceGraphic" in2="effect1_backgroundBlur" result="shape"/>
<feColorMatrix in="SourceAlpha" type="matrix" values="0 0 0 0 0 0 0 0 0 0 0 0 0 0 0 0 0 0 127 0" result="hardAlpha"/>
<feOffset dx="-32.3434" dy="32.3434"/>
<feGaussianBlur stdDeviation="16.1717"/>
<feComposite in2="hardAlpha" operator="arithmetic" k2="-1" k3="1"/>
<feColorMatrix type="matrix" values="0 0 0 0 1 0 0 0 0 1 0 0 0 0 1 0 0 0 0.045 0"/>
<feBlend mode="normal" in2="shape" result="effect2_innerShadow"/>
<feColorMatrix in="SourceAlpha" type="matrix" values="0 0 0 0 0 0 0 0 0 0 0 0 0 0 0 0 0 0 127 0" result="hardAlpha"/>
<feOffset dx="32.3434" dy="-32.3434"/>
<feGaussianBlur stdDeviation="16.1717"/>
<feComposite in2="hardAlpha" operator="arithmetic" k2="-1" k3="1"/>
<feColorMatrix type="matrix" values="0 0 0 0 0 0 0 0 0 0 0 0 0 0 0 0 0 0 0.045 0"/>
<feBlend mode="normal" in2="effect2_innerShadow" result="effect3_innerShadow"/>
</filter>
<linearGradient id="paint0_linear" x1="386.008" y1="152.433" x2="386.008" y2="637.584" gradientUnits="userSpaceOnUse">
<stop/>
<stop offset="1"/>
</linearGradient>
</defs>
</svg>
