<svg width="1760" height="762" viewBox="0 0 1760 762" fill="none" xmlns="http://www.w3.org/2000/svg">
<path fill-rule="evenodd" clip-rule="evenodd" d="M1546.7 0H1417.88L1417.54 0.646072C1412.17 15.0978 1408.46 21.6352 1401.6 30.9979C1395.71 36.2432 1390.32 42.1654 1385.79 47.1347C1375.47 58.4618 1369.66 64.8387 1372.81 46.9661L1373.13 45.1679V45.1669C1377.36 21.2189 1377.43 20.7898 1365.44 41.3495C1353.15 62.412 1364.46 18.0416 1364.46 18.0416C1364.46 18.0416 1367.55 3.08588 1355.82 25.9036C1344.09 48.7213 1348.45 21.6911 1349.5 15.7233C1350.55 9.75562 1350.93 -7.44544 1337.95 15.7233C1324.96 38.8921 1324.22 35.7327 1327.03 9.75563C1327.44 5.97235 1327.89 2.72517 1328.33 0H1324.03C1323.44 0.966617 1322.81 1.99547 1322.12 3.08583C1319.85 6.67382 1318.1 9.56112 1316.79 11.7354L1316.78 11.7424C1314.74 15.1204 1313.74 16.7749 1313.45 16.6596C1313.18 16.5488 1313.57 14.8076 1314.32 11.3949L1314.32 11.3876C1314.93 8.66279 1315.77 4.87386 1316.7 0H1133.88L1133.54 0.646072C1128.17 15.0978 1124.46 21.6352 1117.6 30.9979C1111.71 36.2432 1106.32 42.1654 1101.79 47.1347C1091.47 58.4618 1085.66 64.8387 1088.81 46.9661L1089.13 45.1679V45.1669C1093.36 21.2189 1093.43 20.7898 1081.44 41.3495C1069.15 62.412 1080.46 18.0416 1080.46 18.0416C1080.46 18.0416 1083.55 3.08588 1071.82 25.9036C1060.09 48.7213 1064.45 21.6911 1065.5 15.7233C1066.55 9.75562 1066.93 -7.44544 1053.95 15.7233C1040.96 38.8921 1040.22 35.7327 1043.03 9.75563C1043.44 5.97235 1043.89 2.72517 1044.33 0H1040.03C1039.44 0.966617 1038.81 1.99547 1038.12 3.08583C1035.85 6.67382 1034.1 9.56112 1032.79 11.7354L1032.78 11.7424C1030.74 15.1204 1029.74 16.7749 1029.45 16.6596C1029.18 16.5488 1029.57 14.8076 1030.32 11.3949L1030.32 11.3876C1030.93 8.66279 1031.77 4.87386 1032.7 0H903.881L903.543 0.646072C898.171 15.0978 894.464 21.6352 887.6 30.9979C881.713 36.2432 876.317 42.1654 871.79 47.1348C861.471 58.4618 855.661 64.8387 858.813 46.9661L859.13 45.1673C863.358 21.219 863.434 20.7897 851.441 41.3495C839.154 62.412 850.458 18.0416 850.458 18.0416C850.458 18.0416 853.547 3.08588 841.817 25.9036C830.087 48.7213 834.446 21.6911 835.499 15.7233C836.551 9.75562 836.934 -7.44544 823.945 15.7233C810.957 38.8921 810.224 35.7327 813.032 9.75563C813.441 5.97235 813.895 2.72517 814.332 0H810.03C809.442 0.966617 808.806 1.99547 808.117 3.08583C805.848 6.6781 804.099 9.56802 802.783 11.7432L802.783 11.7441C800.739 15.1209 799.738 16.7749 799.453 16.6596C799.18 16.5489 799.565 14.81 800.321 11.4018L800.322 11.399L800.323 11.3952L800.323 11.3945V11.3942C800.927 8.6689 801.768 4.87779 802.698 0H619.881L619.543 0.646072C614.171 15.0978 610.464 21.6352 603.6 30.9979C597.713 36.2432 592.317 42.1654 587.79 47.1348C577.471 58.4618 571.661 64.8387 574.813 46.9661L575.13 45.1673C579.358 21.219 579.434 20.7897 567.441 41.3495C555.154 62.412 566.458 18.0416 566.458 18.0416C566.458 18.0416 569.547 3.08588 557.817 25.9036C546.087 48.7213 550.446 21.6911 551.499 15.7233C552.551 9.75562 552.934 -7.44544 539.945 15.7233C526.957 38.8921 526.224 35.7327 529.032 9.75563C529.441 5.97235 529.895 2.72517 530.332 0H526.03C525.442 0.966617 524.806 1.99547 524.117 3.08583C521.848 6.6781 520.099 9.56802 518.783 11.7432L518.783 11.7441C516.739 15.1209 515.738 16.7749 515.453 16.6596C515.18 16.5489 515.565 14.81 516.321 11.4018L516.322 11.399L516.323 11.3952L516.323 11.3945V11.3942C516.927 8.6689 517.768 4.87779 518.698 0H389.881L389.543 0.646072C384.171 15.0978 380.464 21.6352 373.6 30.9979C367.713 36.2431 362.318 42.1652 357.79 47.1346L357.79 47.1348C347.471 58.4618 341.661 64.8387 344.813 46.9661L345.13 45.1671C349.358 21.2189 349.434 20.7897 337.441 41.3495C325.154 62.412 336.458 18.0416 336.458 18.0416C336.458 18.0416 339.547 3.08588 327.817 25.9036C316.087 48.7213 320.446 21.6911 321.499 15.7233C322.551 9.75562 322.934 -7.44544 309.945 15.7233C296.957 38.8921 296.224 35.7327 299.032 9.75563C299.441 5.97235 299.895 2.72517 300.332 0H296.03C295.442 0.966617 294.806 1.99547 294.117 3.08583C291.848 6.67828 290.099 9.56831 288.783 11.7435C286.739 15.1208 285.738 16.7749 285.453 16.6596C285.179 16.5488 285.566 14.8074 286.323 11.3944L286.323 11.3929L286.323 11.3911C286.928 8.66598 287.769 4.87591 288.698 0H105.881L105.543 0.646072C100.171 15.0978 96.4635 21.6352 89.6003 30.9979C83.7129 36.2431 78.3176 42.1652 73.7902 47.1346L73.7902 47.1347L73.7901 47.1347C63.4706 58.4618 57.6609 64.8387 60.8128 46.9661L61.1303 45.1672C65.3584 21.2189 65.4342 20.7897 53.441 41.3495C41.1545 62.412 52.4579 18.0416 52.4579 18.0416C52.4579 18.0416 55.5472 3.08588 43.8174 25.9036C32.0875 48.7213 36.4461 21.6911 37.4985 15.7233C38.551 9.75562 38.9339 -7.44544 25.9454 15.7233C12.9568 38.8921 12.2235 35.7327 15.0318 9.75563C15.4408 5.97235 15.8945 2.72517 16.3321 0H12.03C11.4424 0.966617 10.8059 1.99547 10.1173 3.08583C7.84836 6.67824 6.09936 9.56824 4.78295 11.7434L4.78295 11.7435L4.78294 11.7435C2.73904 15.1207 1.73796 16.7749 1.45295 16.6596C1.17935 16.5488 1.56562 14.8075 2.32271 11.3945L2.32272 11.3944L2.32273 11.3944L2.32274 11.3943C2.92728 8.66901 3.76825 4.87786 4.69847 0H0V177.413C4.23207 169.086 8.80482 159.987 12.0302 153.291C18.0846 145.089 22.4875 138.473 25.5113 133.93C28.6065 129.279 30.2566 126.8 30.7533 127.013C31.3205 127.256 30.3844 131.008 28.3795 139.043L28.3793 139.044L28.3781 139.048L28.3775 139.051C27.6874 141.817 26.8708 145.09 25.9454 148.902C18.2475 180.609 24.2401 186.439 38.8687 157.274C54.3491 126.41 57.1572 131.325 45.8362 160.725C34.3252 190.618 39.917 194.186 57.1573 168.184C75.4115 140.654 72.4095 157.274 62.5803 191.002C55.7206 214.541 58.2345 211.509 67.5894 200.228L67.5897 200.228L67.5902 200.227C69.82 197.538 72.4386 194.38 75.4115 191.002C92.2615 162.568 98.2292 160.725 86.9959 194.864C86.2852 197.023 85.6112 199.054 84.9798 200.956C76.3743 226.882 75.6882 228.949 98.2292 208.554L98.9391 207.912L100.328 206.655L100.328 206.655C109.904 197.983 114.86 193.495 115.824 194.232C116.859 195.022 113.298 201.826 105.918 215.93L105.543 216.646C100.171 231.098 96.4635 237.635 89.6003 246.998C83.7136 252.243 78.3188 258.164 73.7918 263.133L73.7906 263.134L73.7902 263.135L73.7901 263.135C63.4706 274.462 57.6609 280.839 60.8128 262.966L61.1303 261.167C65.3584 237.219 65.4342 236.79 53.441 257.349C41.1545 278.412 52.4579 234.042 52.4579 234.042C52.4579 234.042 55.5472 219.086 43.8174 241.904C32.0875 264.721 36.4461 237.691 37.4985 231.723C38.551 225.756 38.9339 208.555 25.9454 231.723C12.9568 254.892 12.2235 251.733 15.0318 225.756C16.0492 216.345 17.343 210.251 17.9786 207.258C18.2827 205.826 18.4361 205.103 18.3365 205.066C18.2351 205.029 17.8713 205.703 17.1371 207.062L17.137 207.063C15.9392 209.281 13.7557 213.325 10.1173 219.086C7.84836 222.678 6.09936 225.568 4.78295 227.743L4.78287 227.744L4.78263 227.744L4.78239 227.744L4.78215 227.745L4.7819 227.745L4.78166 227.746L4.78143 227.746C2.73854 231.121 1.73789 232.775 1.45295 232.66C1.17935 232.549 1.56562 230.807 2.32271 227.394C3.09825 223.898 4.2629 218.648 5.50593 211.599C6.25268 207.365 6.9252 204.014 7.44024 201.448C8.33478 196.991 8.75428 194.901 8.26266 194.659C7.8285 194.445 6.68374 195.672 4.52804 197.982L4.52776 197.982L4.52622 197.984L4.52556 197.985C3.33952 199.256 1.84766 200.855 0 202.722V393.413C4.23207 385.086 8.80482 375.987 12.0302 369.291C18.0846 361.089 22.4875 354.473 25.5113 349.93C28.6066 345.279 30.2566 342.8 30.7533 343.013C31.3205 343.256 30.3844 347.008 28.3795 355.043L28.3794 355.044C27.6889 357.811 26.8716 361.087 25.9454 364.902C18.2475 396.609 24.2401 402.439 38.8687 373.274C54.3491 342.41 57.1572 347.325 45.8362 376.725C34.3252 406.618 39.917 410.186 57.1573 384.184C75.4115 356.654 72.4095 373.274 62.5803 407.002C55.7206 430.541 58.2345 427.509 67.5895 416.228L67.5902 416.227C69.8201 413.538 72.4386 410.38 75.4115 407.002C92.2615 378.568 98.2292 376.725 86.9959 410.864C86.2861 413.021 85.6128 415.049 84.982 416.949L84.9798 416.956C76.3743 442.882 75.6882 444.949 98.2292 424.554C98.6078 424.212 98.9799 423.875 99.3457 423.544L100.328 422.655C109.904 413.983 114.86 409.495 115.824 410.232C116.859 411.022 113.298 417.826 105.918 431.93L105.543 432.646C100.171 447.098 96.4635 453.635 89.6003 462.998C83.7136 468.243 78.3188 474.164 73.7918 479.133L73.7906 479.134L73.7902 479.135L73.7901 479.135C63.4706 490.462 57.6609 496.839 60.8128 478.966L61.1303 477.167C65.3584 453.219 65.4342 452.79 53.441 473.349C41.1545 494.412 52.4579 450.042 52.4579 450.042C52.4579 450.042 55.5472 435.086 43.8174 457.904C32.0875 480.721 36.4461 453.691 37.4985 447.723C38.551 441.756 38.9339 424.555 25.9454 447.723C12.9568 470.892 12.2235 467.733 15.0318 441.756C16.0492 432.345 17.343 426.251 17.9786 423.258C18.2827 421.826 18.4361 421.103 18.3365 421.066C18.2351 421.029 17.8715 421.702 17.1376 423.061L17.1372 423.062L17.1371 423.062C15.9393 425.281 13.7558 429.325 10.1173 435.086C7.84863 438.678 6.09977 441.568 4.78341 443.743L4.78296 443.743C2.73904 447.121 1.73796 448.775 1.45295 448.66C1.17935 448.549 1.56562 446.807 2.32272 443.394L2.32278 443.394L2.3229 443.394C3.09844 439.897 4.263 434.647 5.50593 427.599C6.25265 423.365 6.92514 420.015 7.44017 417.449L7.44024 417.448C8.33478 412.991 8.75428 410.901 8.26266 410.659C7.8285 410.445 6.68377 411.672 4.52813 413.982L4.52798 413.982C3.34156 415.254 1.84892 416.853 0 418.722V609.413C4.23207 601.086 8.80482 591.987 12.0302 585.291C18.0846 577.089 22.4875 570.473 25.5113 565.93C28.6066 561.279 30.2566 558.8 30.7533 559.013C31.3205 559.256 30.3844 563.008 28.3795 571.043L28.3792 571.044C27.6887 573.812 26.8715 577.087 25.9454 580.902C18.2475 612.609 24.2401 618.439 38.8687 589.274C54.3491 558.41 57.1572 563.325 45.8362 592.725C34.3252 622.618 39.917 626.186 57.1573 600.184C75.4115 572.654 72.4095 589.274 62.5803 623.002C55.7206 646.541 58.2345 643.509 67.5895 632.228L67.5905 632.227L67.5939 632.223C69.823 629.535 72.4402 626.379 75.4115 623.002C92.2615 594.568 98.2292 592.725 86.9959 626.864C86.286 629.021 85.6127 631.05 84.9818 632.95L84.9798 632.956C76.3743 658.882 75.6882 660.949 98.2292 640.554L98.7056 640.123L99.4779 639.424L99.6868 639.235L99.8732 639.066L100.316 638.665L100.328 638.655C109.904 629.983 114.86 625.495 115.824 626.232C116.859 627.022 113.298 633.826 105.917 647.931L105.543 648.646C100.171 663.098 96.4635 669.635 89.6003 678.998C83.7128 684.243 78.3175 690.165 73.7901 695.135C63.4706 706.462 57.6609 712.839 60.8128 694.966L61.1303 693.167C65.3584 669.219 65.4342 668.79 53.441 689.349C41.1545 710.412 52.4579 666.042 52.4579 666.042C52.4579 666.042 55.5472 651.086 43.8174 673.904C32.0875 696.721 36.4461 669.691 37.4985 663.723C38.551 657.756 38.9339 640.555 25.9454 663.723C12.9568 686.892 12.2235 683.733 15.0318 657.756C16.0492 648.345 17.343 642.251 17.9786 639.258C18.2827 637.826 18.4361 637.103 18.3365 637.066C18.2351 637.029 17.8713 637.703 17.1371 639.062C15.9393 641.281 13.7558 645.325 10.1173 651.086C7.84833 654.678 6.09931 657.568 4.78289 659.744C2.73902 663.121 1.73796 664.775 1.45295 664.66C1.17936 664.549 1.5656 662.808 2.32265 659.395L2.32271 659.394L2.32279 659.394C3.09833 655.898 4.26294 650.648 5.50593 643.599C6.25268 639.365 6.92519 636.014 7.44022 633.448C8.33477 628.991 8.75429 626.901 8.26266 626.659C7.8286 626.445 6.68429 627.671 4.5296 629.98L4.5284 629.982L4.52797 629.982C3.34155 631.254 1.84891 632.853 0 634.722V762H1760V0H1647.88L1647.54 0.646072C1642.17 15.0978 1638.46 21.6352 1631.6 30.9979C1625.71 36.2432 1620.32 42.1654 1615.79 47.1347C1605.47 58.4618 1599.66 64.8387 1602.81 46.9661L1603.13 45.1679V45.1669C1607.36 21.2189 1607.43 20.7898 1595.44 41.3495C1583.15 62.412 1594.46 18.0416 1594.46 18.0416C1594.46 18.0416 1597.55 3.08588 1585.82 25.9036C1574.09 48.7213 1578.45 21.6911 1579.5 15.7233C1580.55 9.75562 1580.93 -7.44544 1567.95 15.7233C1554.96 38.8921 1554.22 35.7327 1557.03 9.75563C1557.44 5.97235 1557.89 2.72517 1558.33 0H1554.03C1553.44 0.966617 1552.81 1.99547 1552.12 3.08583C1549.85 6.67382 1548.1 9.56112 1546.79 11.7354L1546.78 11.7424C1544.74 15.1204 1543.74 16.7749 1543.45 16.6596C1543.18 16.5488 1543.57 14.8076 1544.32 11.3949L1544.32 11.3876C1544.93 8.66279 1545.77 4.87386 1546.7 0ZM1622.24 0C1620.03 8.47048 1622.11 8.36789 1631.85 0H1622.24ZM1392.24 0C1390.03 8.47048 1392.11 8.36789 1401.85 0H1392.24ZM1108.24 0C1106.03 8.47048 1108.11 8.36789 1117.85 0H1108.24ZM878.236 0C876.026 8.47048 878.106 8.36789 887.848 0H878.236ZM594.236 0C592.026 8.47048 594.106 8.36789 603.848 0H594.236ZM364.236 0C362.026 8.47048 364.106 8.36789 373.848 0H364.236ZM80.2363 0C78.0258 8.47048 80.1059 8.36789 89.8479 0H80.2363ZM309.512 565.929L309.511 565.93C306.488 570.473 302.085 577.089 296.03 585.291C288.307 601.322 272.86 631.134 272.86 631.134C272.86 632.097 272.075 634.477 271.213 637.091L271.213 637.091C269.561 642.1 267.626 647.966 270.394 646.351C274.607 643.894 276.258 642.032 276.258 642.032C282.068 636.906 285.996 632.696 288.528 629.982C290.684 627.672 291.828 626.445 292.263 626.659C292.754 626.901 292.335 628.991 291.44 633.448C290.925 636.015 290.253 639.365 289.506 643.599C288.263 650.648 287.098 655.898 286.323 659.395C285.566 662.807 285.179 664.549 285.453 664.66C285.738 664.775 286.737 663.123 288.778 659.751L288.78 659.748L288.781 659.747L288.782 659.745L288.783 659.744L288.783 659.744C290.099 657.568 291.848 654.678 294.117 651.086C297.754 645.327 299.937 641.284 301.136 639.065L301.136 639.065L301.137 639.063L301.137 639.062C301.871 637.703 302.235 637.029 302.337 637.066C302.436 637.103 302.283 637.825 301.979 639.258C301.343 642.251 300.049 648.345 299.032 657.756C296.224 683.733 296.957 686.892 309.945 663.723C322.934 640.555 322.551 657.756 321.499 663.723C320.446 669.691 316.087 696.721 327.817 673.904C339.547 651.086 336.458 666.042 336.458 666.042C336.458 666.042 325.154 710.412 337.441 689.349C349.434 668.79 349.358 669.219 345.13 693.167L344.813 694.966C341.661 712.839 347.471 706.462 357.79 695.135C362.317 690.165 367.713 684.243 373.6 678.998C380.464 669.635 384.171 663.098 389.543 648.646L389.918 647.93C397.298 633.826 400.859 627.022 399.824 626.232C398.86 625.495 393.904 629.983 384.328 638.655C383.651 639.267 382.952 639.9 382.229 640.554C359.688 660.949 360.374 658.882 368.98 632.956C369.611 631.054 370.285 629.023 370.996 626.864C382.229 592.725 376.261 594.568 359.411 623.002C356.439 626.38 353.82 629.538 351.591 632.227L351.59 632.228C342.234 643.509 339.721 646.541 346.58 623.002C356.41 589.274 359.411 572.654 341.157 600.184C323.917 626.186 318.325 622.618 329.836 592.725C341.157 563.325 338.349 558.41 322.869 589.274C308.24 618.439 302.248 612.609 309.945 580.902C310.872 577.086 311.689 573.811 312.379 571.043C314.384 563.008 315.32 559.256 314.753 559.013C314.257 558.8 312.607 561.279 309.512 565.929L309.512 565.929ZM309.511 349.93L309.512 349.929C312.607 345.279 314.257 342.8 314.753 343.013C315.32 343.256 314.384 347.008 312.379 355.043C311.689 357.811 310.872 361.086 309.945 364.902C302.248 396.609 308.24 402.439 322.869 373.274C338.349 342.41 341.157 347.325 329.836 376.725C318.325 406.618 323.917 410.186 341.157 384.184C359.411 356.654 356.41 373.274 346.58 407.002C339.721 430.541 342.234 427.509 351.59 416.228C353.82 413.539 356.438 410.381 359.411 407.002C376.261 378.568 382.229 376.725 370.996 410.864C370.285 413.023 369.611 415.054 368.98 416.956C360.374 442.882 359.688 444.949 382.229 424.554C382.952 423.901 383.651 423.267 384.327 422.655C393.904 413.983 398.86 409.495 399.824 410.232C400.859 411.022 397.298 417.826 389.918 431.93L389.543 432.646C384.171 447.098 380.464 453.635 373.6 462.998C367.713 468.243 362.319 474.164 357.791 479.133L357.791 479.134L357.79 479.134L357.79 479.135C347.471 490.462 341.661 496.839 344.813 478.966L345.13 477.167C349.358 453.219 349.434 452.79 337.441 473.349C325.154 494.412 336.458 450.042 336.458 450.042C336.458 450.042 339.547 435.086 327.817 457.904C316.087 480.721 320.446 453.691 321.499 447.723C322.551 441.756 322.934 424.555 309.945 447.723C296.957 470.892 296.224 467.733 299.032 441.756C300.049 432.345 301.343 426.251 301.979 423.258L301.979 423.257C302.283 421.825 302.436 421.103 302.337 421.066C302.235 421.029 301.871 421.703 301.137 423.062L301.137 423.063C299.939 425.282 297.755 429.325 294.117 435.086C291.848 438.678 290.099 441.568 288.783 443.744C286.739 447.121 285.738 448.775 285.453 448.66C285.179 448.549 285.566 446.807 286.323 443.395C287.098 439.898 288.263 434.648 289.506 427.599C290.253 423.365 290.925 420.014 291.44 417.448C292.335 412.991 292.754 410.901 292.263 410.659C291.828 410.445 290.684 411.672 288.528 413.982C285.995 416.696 282.068 420.906 276.258 426.032C276.258 426.032 274.607 427.894 270.394 430.351C267.626 431.966 269.561 426.1 271.213 421.091C272.075 418.478 272.86 416.097 272.86 415.134C272.86 415.134 288.307 385.322 296.03 369.291C302.085 361.089 306.488 354.473 309.511 349.93ZM309.511 133.93L309.511 133.93C306.488 138.473 302.085 145.089 296.03 153.291C288.307 169.322 272.86 199.134 272.86 199.134C272.86 200.097 272.075 202.478 271.213 205.091L271.213 205.091C269.561 210.1 267.626 215.966 270.394 214.351C274.607 211.894 276.258 210.032 276.258 210.032C282.068 204.906 285.996 200.696 288.528 197.982C290.684 195.672 291.828 194.445 292.263 194.659C292.754 194.901 292.335 196.991 291.44 201.448C290.925 204.014 290.253 207.365 289.506 211.599C288.263 218.648 287.098 223.898 286.323 227.395C285.566 230.808 285.179 232.549 285.453 232.66C285.738 232.775 286.739 231.121 288.783 227.744C290.099 225.568 291.848 222.678 294.117 219.086C297.755 213.326 299.938 209.283 301.136 207.064L301.137 207.063L301.137 207.062C301.871 205.703 302.235 205.029 302.337 205.066C302.436 205.103 302.283 205.825 301.979 207.257L301.979 207.258C301.343 210.251 300.049 216.345 299.032 225.756C296.224 251.733 296.957 254.892 309.945 231.723C322.934 208.555 322.551 225.756 321.499 231.723C320.446 237.691 316.087 264.721 327.817 241.904C339.547 219.086 336.458 234.042 336.458 234.042C336.458 234.042 325.154 278.412 337.441 257.349C349.434 236.79 349.358 237.219 345.13 261.167L344.813 262.966C341.661 280.839 347.471 274.462 357.79 263.135L357.79 263.134L357.791 263.134L357.791 263.134C362.318 258.165 367.713 252.243 373.6 246.998C380.464 237.635 384.171 231.098 389.543 216.646L389.918 215.93C397.298 201.826 400.859 195.022 399.824 194.232C398.86 193.495 393.904 197.983 384.329 206.654L384.329 206.654L384.328 206.654L384.328 206.655L384.328 206.655L384.327 206.655L384.327 206.655C383.651 207.267 382.952 207.901 382.229 208.554C359.688 228.949 360.374 226.882 368.98 200.956L368.981 200.954L369.004 200.884L369.009 200.868C369.632 198.991 370.296 196.99 370.996 194.864C382.229 160.725 376.261 162.568 359.411 191.002C356.438 194.381 353.819 197.539 351.589 200.228C342.234 211.509 339.721 214.541 346.58 191.002C356.41 157.274 359.411 140.654 341.157 168.184C323.917 194.186 318.325 190.618 329.836 160.725C341.157 131.325 338.349 126.41 322.869 157.274C308.24 186.439 302.248 180.609 309.945 148.902C310.872 145.086 311.689 141.811 312.379 139.043C314.384 131.008 315.32 127.256 314.753 127.013C314.257 126.8 312.607 129.279 309.511 133.93ZM539.511 133.93C542.607 129.279 544.257 126.8 544.753 127.013C545.32 127.256 544.384 131.008 542.38 139.043L542.375 139.06L542.37 139.081L542.368 139.088C541.68 141.846 540.867 145.107 539.945 148.902C532.247 180.609 538.24 186.439 552.869 157.274C568.349 126.41 571.157 131.325 559.836 160.725C548.325 190.618 553.917 194.186 571.157 168.184C589.411 140.654 586.409 157.274 576.58 191.002C569.721 214.541 572.234 211.509 581.589 200.228L581.59 200.227L581.596 200.221L581.6 200.215L581.602 200.213L581.606 200.208L581.61 200.203L581.616 200.196L581.619 200.192L581.624 200.186C583.847 197.506 586.453 194.363 589.411 191.002C606.261 162.568 612.229 160.725 600.996 194.864C600.285 197.023 599.611 199.054 598.98 200.956C590.374 226.882 589.688 228.949 612.229 208.554L613.001 207.856L614.328 206.654C623.904 197.983 628.86 193.495 629.824 194.232C630.859 195.022 627.298 201.827 619.917 215.931L619.543 216.646C614.171 231.098 610.464 237.635 603.6 246.998C597.713 252.243 592.317 258.165 587.79 263.135C577.471 274.462 571.661 280.839 574.813 262.966L575.13 261.167C579.358 237.219 579.434 236.79 567.441 257.349C555.154 278.412 566.458 234.042 566.458 234.042C566.458 234.042 569.547 219.086 557.817 241.904C546.087 264.721 550.446 237.691 551.499 231.723C552.551 225.756 552.934 208.555 539.945 231.723C526.957 254.892 526.224 251.733 529.032 225.756C530.049 216.345 531.343 210.251 531.979 207.258L531.979 207.257C532.283 205.825 532.436 205.103 532.336 205.066C532.235 205.029 531.871 205.702 531.137 207.062L531.136 207.063C529.939 209.282 527.755 213.326 524.117 219.086C521.854 222.669 520.108 225.554 518.793 227.727L518.787 227.736L518.786 227.739L518.783 227.743L518.783 227.743L518.783 227.744C516.739 231.121 515.738 232.775 515.453 232.66C515.18 232.549 515.565 230.81 516.321 227.402L516.322 227.399L516.323 227.395L516.323 227.394L516.323 227.392L516.324 227.389C517.099 223.893 518.263 218.645 519.506 211.599C520.253 207.365 520.925 204.015 521.44 201.449C522.335 196.991 522.754 194.901 522.263 194.659C521.828 194.445 520.684 195.672 518.528 197.982C515.996 200.696 512.068 204.906 506.258 210.032C506.258 210.032 504.607 211.894 500.394 214.351C497.626 215.966 499.561 210.1 501.213 205.091L501.213 205.091C502.075 202.478 502.86 200.097 502.86 199.134C502.86 199.134 518.307 169.322 526.03 153.291C532.084 145.09 536.486 138.475 539.51 133.932L539.511 133.931L539.511 133.93ZM544.753 343.013C544.257 342.8 542.607 345.279 539.511 349.93C536.487 354.473 532.085 361.089 526.03 369.291C518.307 385.322 502.86 415.134 502.86 415.134C502.86 416.097 502.075 418.478 501.213 421.091C499.561 426.1 497.626 431.966 500.394 430.351C504.607 427.894 506.258 426.032 506.258 426.032C512.068 420.906 515.995 416.696 518.528 413.982C520.684 411.672 521.828 410.445 522.263 410.659C522.754 410.901 522.335 412.991 521.44 417.449C520.925 420.015 520.253 423.365 519.506 427.599C518.263 434.648 517.098 439.898 516.323 443.394L516.323 443.395L516.322 443.399L516.321 443.402L516.32 443.404C515.565 446.811 515.18 448.549 515.453 448.66C515.738 448.775 516.739 447.122 518.782 443.746L518.782 443.745L518.782 443.745L518.783 443.744L518.783 443.743L518.783 443.743L518.784 443.742L518.789 443.733L518.792 443.729L518.793 443.726C520.109 441.553 521.854 438.669 524.117 435.086C527.756 429.325 529.939 425.28 531.137 423.062C531.871 421.702 532.235 421.029 532.336 421.066C532.436 421.103 532.283 421.826 531.978 423.258C531.343 426.252 530.049 432.345 529.032 441.756C526.224 467.733 526.957 470.892 539.945 447.723C552.934 424.555 552.551 441.756 551.499 447.723C550.446 453.691 546.087 480.721 557.817 457.904C569.547 435.086 566.458 450.042 566.458 450.042C566.458 450.042 555.154 494.412 567.441 473.349C579.434 452.79 579.358 453.219 575.13 477.167L574.813 478.966C571.661 496.839 577.471 490.462 587.79 479.135C592.317 474.165 597.713 468.243 603.6 462.998C610.464 453.635 614.171 447.098 619.543 432.646L619.917 431.932C627.298 417.827 630.859 411.022 629.824 410.232C628.86 409.495 623.906 413.981 614.334 422.649L614.333 422.649L614.333 422.65L614.331 422.651L614.331 422.651L614.331 422.652L614.33 422.652L614.33 422.652L614.33 422.653L614.329 422.653L614.329 422.654L614.329 422.654L614.328 422.654C613.652 423.267 612.952 423.9 612.229 424.554C589.688 444.949 590.374 442.882 598.98 416.956C599.611 415.054 600.285 413.023 600.996 410.864C612.229 376.725 606.261 378.568 589.411 407.002C586.441 410.378 583.824 413.533 581.596 416.221L581.592 416.225L581.591 416.226L581.591 416.227L581.589 416.228C572.234 427.509 569.721 430.541 576.58 407.002C586.409 373.274 589.411 356.654 571.157 384.184C553.917 410.186 548.325 406.618 559.836 376.725C571.157 347.325 568.349 342.41 552.869 373.274C538.24 402.439 532.247 396.609 539.945 364.902C540.868 361.102 541.682 357.838 542.371 355.078L542.375 355.06L542.38 355.043C544.384 347.008 545.32 343.256 544.753 343.013ZM828.753 559.013C828.257 558.8 826.607 561.279 823.511 565.93L823.511 565.931C820.487 570.474 816.084 577.089 810.03 585.291C802.307 601.322 786.86 631.134 786.86 631.134C786.86 632.097 786.075 634.478 785.213 637.091C783.56 642.1 781.626 647.966 784.394 646.351C788.607 643.894 790.258 642.032 790.258 642.032C796.067 636.907 799.995 632.697 802.527 629.983L802.528 629.982L802.528 629.982C804.684 627.672 805.828 626.445 806.263 626.659C806.754 626.901 806.335 628.99 805.441 633.445L805.44 633.448L805.44 633.449L805.44 633.45C804.925 636.016 804.252 639.366 803.506 643.599C802.263 650.648 801.098 655.898 800.323 659.394C799.566 662.807 799.179 664.549 799.453 664.66C799.738 664.775 800.739 663.121 802.782 659.745L802.782 659.744L802.783 659.744C804.099 657.568 805.848 654.678 808.117 651.086C811.755 645.326 813.938 641.283 815.136 639.064L815.137 639.062C815.871 637.702 816.235 637.029 816.336 637.066C816.436 637.103 816.283 637.825 815.979 639.257L815.979 639.258C815.343 642.251 814.049 648.345 813.032 657.756C810.224 683.733 810.957 686.892 823.945 663.723C836.934 640.555 836.551 657.756 835.499 663.723C834.446 669.691 830.087 696.721 841.817 673.904C853.547 651.086 850.458 666.042 850.458 666.042C850.458 666.042 839.154 710.412 851.441 689.349C863.434 668.79 863.358 669.219 859.13 693.167L858.813 694.966C855.661 712.839 861.471 706.462 871.79 695.135C876.317 690.165 881.713 684.243 887.6 678.998C894.464 669.635 898.171 663.098 903.543 648.646L903.917 647.932L903.917 647.931C911.298 633.827 914.859 627.022 913.824 626.232C912.86 625.495 907.904 629.983 898.328 638.654L897.472 639.429L896.229 640.554C873.688 660.949 874.374 658.882 882.98 632.956C883.611 631.054 884.285 629.023 884.996 626.864C896.229 592.725 890.261 594.568 873.411 623.002C870.44 626.379 867.822 629.536 865.593 632.224L865.591 632.227L865.589 632.228C856.234 643.509 853.721 646.541 860.58 623.002C870.409 589.274 873.411 572.654 855.157 600.184C837.917 626.186 832.325 622.618 843.836 592.725C855.157 563.325 852.349 558.41 836.869 589.274C822.24 618.439 816.247 612.609 823.945 580.902C824.872 577.086 825.689 573.81 826.38 571.043C828.384 563.008 829.32 559.256 828.753 559.013ZM823.511 349.93C826.607 345.279 828.257 342.8 828.753 343.013C829.32 343.256 828.384 347.008 826.38 355.043L826.375 355.06L826.371 355.078C825.682 357.838 824.868 361.102 823.945 364.902C816.247 396.609 822.24 402.439 836.869 373.274C852.349 342.41 855.157 347.325 843.836 376.725C832.325 406.618 837.917 410.186 855.157 384.184C873.411 356.654 870.409 373.274 860.58 407.002C853.721 430.541 856.234 427.509 865.589 416.228L865.591 416.227L865.591 416.226L865.592 416.225L865.596 416.221C867.824 413.533 870.441 410.378 873.411 407.002C890.261 378.568 896.229 376.725 884.996 410.864L884.755 411.596L884.578 412.133L884.282 413.027L884.113 413.538C883.979 413.943 883.847 414.343 883.716 414.738C883.494 415.406 883.277 416.061 883.065 416.701L882.98 416.956C874.374 442.882 873.688 444.949 896.229 424.554C896.952 423.9 897.652 423.267 898.328 422.654L898.329 422.654L898.329 422.654L898.329 422.653L898.33 422.653L898.33 422.652L898.33 422.652L898.331 422.652L898.331 422.651L898.331 422.651L898.333 422.65L898.333 422.649L898.334 422.649C907.906 413.981 912.86 409.495 913.824 410.232C914.859 411.022 911.298 417.827 903.917 431.932L903.543 432.646C898.171 447.098 894.464 453.635 887.6 462.998C881.713 468.243 876.317 474.165 871.79 479.135C861.471 490.462 855.661 496.839 858.813 478.966L859.13 477.167C863.358 453.219 863.434 452.79 851.441 473.349C839.154 494.412 850.458 450.042 850.458 450.042C850.458 450.042 853.547 435.086 841.817 457.904C830.087 480.721 834.446 453.691 835.499 447.723C836.551 441.756 836.934 424.555 823.945 447.723C810.957 470.892 810.224 467.733 813.032 441.756C814.049 432.345 815.343 426.252 815.978 423.258C816.283 421.826 816.436 421.103 816.336 421.066C816.235 421.029 815.871 421.702 815.137 423.062C813.939 425.28 811.756 429.325 808.117 435.086C805.854 438.669 804.109 441.553 802.793 443.726L802.792 443.729L802.789 443.733L802.784 443.742L802.783 443.743L802.783 443.743L802.783 443.744L802.782 443.745L802.782 443.745L802.782 443.746C800.739 447.122 799.738 448.775 799.453 448.66C799.18 448.549 799.565 446.811 800.32 443.404L800.321 443.402L800.322 443.399L800.323 443.395L800.323 443.394C801.098 439.898 802.263 434.648 803.506 427.599C804.253 423.365 804.925 420.015 805.44 417.449C806.335 412.991 806.754 410.901 806.263 410.659C805.828 410.445 804.684 411.672 802.528 413.982C799.995 416.696 796.068 420.906 790.258 426.032C790.258 426.032 788.607 427.894 784.394 430.351C781.626 431.966 783.56 426.1 785.213 421.091C786.075 418.478 786.86 416.097 786.86 415.134C786.86 415.134 802.307 385.322 810.03 369.291C816.085 361.089 820.487 354.473 823.511 349.93ZM828.753 127.013C828.257 126.8 826.607 129.279 823.511 133.93L823.511 133.931L823.51 133.932C820.486 138.475 816.084 145.09 810.03 153.291C802.307 169.322 786.86 199.134 786.86 199.134C786.86 200.097 786.075 202.478 785.213 205.091C783.56 210.1 781.626 215.966 784.394 214.351C788.607 211.894 790.258 210.032 790.258 210.032C796.068 204.906 799.996 200.696 802.528 197.982C804.684 195.672 805.828 194.445 806.263 194.659C806.754 194.901 806.335 196.991 805.44 201.449C804.925 204.015 804.253 207.365 803.506 211.599C802.263 218.645 801.099 223.893 800.324 227.389L800.323 227.392L800.323 227.394L800.323 227.395L800.322 227.399L800.321 227.402C799.565 230.81 799.18 232.549 799.453 232.66C799.738 232.775 800.739 231.121 802.783 227.744L802.783 227.743L802.783 227.743L802.786 227.739L802.787 227.736L802.793 227.727C804.108 225.554 805.854 222.669 808.117 219.086C811.755 213.326 813.939 209.282 815.136 207.063L815.137 207.062C815.871 205.702 816.235 205.029 816.336 205.066C816.436 205.103 816.283 205.825 815.979 207.257L815.979 207.258C815.343 210.251 814.049 216.345 813.032 225.756C810.224 251.733 810.957 254.892 823.945 231.723C836.934 208.555 836.551 225.756 835.499 231.723C834.446 237.691 830.087 264.721 841.817 241.904C853.547 219.086 850.458 234.042 850.458 234.042C850.458 234.042 839.154 278.412 851.441 257.349C863.434 236.79 863.358 237.219 859.13 261.167L858.813 262.966C855.661 280.839 861.471 274.462 871.79 263.135C876.317 258.165 881.713 252.243 887.6 246.998C894.464 237.635 898.171 231.098 903.543 216.646L903.917 215.931C911.298 201.827 914.859 195.022 913.824 194.232C912.86 193.495 907.904 197.983 898.328 206.654C897.652 207.267 896.952 207.9 896.229 208.554C873.688 228.949 874.374 226.882 882.98 200.956C883.611 199.054 884.285 197.023 884.996 194.864C896.229 160.725 890.261 162.568 873.411 191.002C870.453 194.363 867.847 197.506 865.624 200.186L865.619 200.192L865.616 200.196L865.61 200.203L865.606 200.208L865.602 200.213L865.6 200.215L865.596 200.221L865.59 200.227L865.589 200.228C856.234 211.509 853.721 214.541 860.58 191.002C870.409 157.274 873.411 140.654 855.157 168.184C837.917 194.186 832.325 190.618 843.836 160.725C855.157 131.325 852.349 126.41 836.869 157.274C822.24 186.439 816.247 180.609 823.945 148.902C824.867 145.107 825.68 141.846 826.368 139.088L826.37 139.081L826.375 139.06L826.38 139.043C828.384 131.008 829.32 127.256 828.753 127.013ZM539.511 565.93C542.607 561.279 544.257 558.8 544.753 559.013C545.32 559.256 544.384 563.008 542.38 571.043C541.689 573.81 540.872 577.086 539.945 580.902C532.247 612.609 538.24 618.439 552.869 589.274C568.349 558.41 571.157 563.325 559.836 592.725C548.325 622.618 553.917 626.186 571.157 600.184C589.411 572.654 586.409 589.274 576.58 623.002C569.721 646.541 572.234 643.509 581.589 632.228L581.591 632.227L581.593 632.224C583.822 629.536 586.44 626.379 589.411 623.002C606.261 594.568 612.229 592.725 600.996 626.864C600.285 629.023 599.611 631.054 598.98 632.956C590.374 658.882 589.688 660.949 612.229 640.554C612.686 640.141 613.134 639.736 613.572 639.339L614.328 638.654C623.904 629.983 628.86 625.495 629.824 626.232C630.859 627.022 627.298 633.827 619.917 647.931L619.917 647.932L619.543 648.646C614.171 663.098 610.464 669.635 603.6 678.998C597.713 684.243 592.317 690.165 587.79 695.135C577.471 706.462 571.661 712.839 574.813 694.966L575.13 693.167C579.358 669.219 579.434 668.79 567.441 689.349C555.154 710.412 566.458 666.042 566.458 666.042C566.458 666.042 569.547 651.086 557.817 673.904C546.087 696.721 550.446 669.691 551.499 663.723C552.551 657.756 552.934 640.555 539.945 663.723C526.957 686.892 526.224 683.733 529.032 657.756C530.049 648.345 531.343 642.251 531.979 639.258L531.979 639.257C532.283 637.825 532.436 637.103 532.336 637.066C532.235 637.029 531.871 637.702 531.137 639.062L531.136 639.064C529.938 641.283 527.755 645.326 524.117 651.086C521.848 654.678 520.099 657.568 518.783 659.744L518.782 659.744L518.782 659.745C516.739 663.121 515.738 664.775 515.453 664.66C515.179 664.549 515.566 662.807 516.323 659.394C517.098 655.898 518.263 650.648 519.506 643.599C520.252 639.366 520.925 636.016 521.44 633.45L521.44 633.449L521.44 633.448L521.441 633.445C522.335 628.99 522.754 626.901 522.263 626.659C521.828 626.445 520.684 627.672 518.528 629.982L518.528 629.982L518.527 629.983C515.995 632.697 512.067 636.907 506.258 642.032C506.258 642.032 504.607 643.894 500.394 646.351C497.626 647.966 499.561 642.1 501.213 637.091L501.213 637.091C502.075 634.477 502.86 632.097 502.86 631.134C502.86 631.134 518.307 601.322 526.03 585.291C532.084 577.089 536.487 570.474 539.511 565.931L539.511 565.93ZM1053.51 133.929C1056.61 129.279 1058.26 126.8 1058.75 127.013C1059.32 127.255 1058.39 131.001 1056.38 139.021L1056.38 139.027L1056.38 139.034L1056.38 139.042L1056.38 139.043C1055.69 141.811 1054.87 145.086 1053.95 148.902C1046.25 180.609 1052.24 186.439 1066.87 157.274C1082.35 126.41 1085.16 131.325 1073.84 160.725C1062.33 190.618 1067.92 194.186 1085.16 168.184C1103.41 140.654 1100.41 157.274 1090.58 191.002C1083.72 214.541 1086.23 211.509 1095.59 200.228L1095.59 200.224L1095.59 200.223L1095.6 200.21L1095.61 200.201C1097.84 197.518 1100.45 194.37 1103.41 191.002C1120.26 162.568 1126.23 160.725 1115 194.864C1114.3 196.992 1113.63 198.996 1113.01 200.874L1112.98 200.956C1104.37 226.882 1103.69 228.949 1126.23 208.554C1126.95 207.9 1127.65 207.267 1128.33 206.655C1137.9 197.983 1142.86 193.495 1143.82 194.232C1144.86 195.022 1141.3 201.826 1133.92 215.93L1133.54 216.646C1128.17 231.098 1124.46 237.635 1117.6 246.998C1111.71 252.243 1106.32 258.165 1101.79 263.135C1091.47 274.462 1085.66 280.839 1088.81 262.966L1089.13 261.168V261.167C1093.36 237.219 1093.43 236.79 1081.44 257.349C1069.15 278.412 1080.46 234.042 1080.46 234.042C1080.46 234.042 1083.55 219.086 1071.82 241.904C1060.09 264.721 1064.45 237.691 1065.5 231.723C1066.55 225.756 1066.93 208.555 1053.95 231.723C1040.96 254.892 1040.22 251.733 1043.03 225.756C1044.05 216.346 1045.34 210.252 1045.98 207.258L1045.98 207.257L1045.98 207.249C1046.28 205.822 1046.44 205.103 1046.34 205.066C1046.23 205.029 1045.87 205.702 1045.14 207.062C1043.94 209.281 1041.76 213.325 1038.12 219.086C1035.85 222.674 1034.1 225.561 1032.79 227.735L1032.78 227.742C1030.74 231.12 1029.74 232.775 1029.45 232.66C1029.18 232.549 1029.57 230.808 1030.32 227.395C1031.1 223.898 1032.26 218.648 1033.51 211.599C1034.25 207.365 1034.93 204.014 1035.44 201.448C1036.33 196.991 1036.75 194.901 1036.26 194.659C1035.83 194.445 1034.68 195.672 1032.53 197.982C1030 200.696 1026.07 204.906 1020.26 210.032C1020.26 210.032 1018.61 211.894 1014.39 214.351C1011.63 215.966 1013.56 210.1 1015.21 205.091C1016.07 202.478 1016.86 200.097 1016.86 199.134C1016.86 199.134 1032.31 169.322 1040.03 153.291C1046.08 145.091 1050.49 138.476 1053.51 133.933L1053.51 133.929ZM1058.75 343.013C1058.26 342.8 1056.61 345.279 1053.51 349.929L1053.51 349.933C1050.49 354.476 1046.08 361.091 1040.03 369.291C1032.31 385.322 1016.86 415.134 1016.86 415.134C1016.86 416.097 1016.07 418.478 1015.21 421.091C1013.56 426.1 1011.63 431.966 1014.39 430.351C1018.61 427.894 1020.26 426.032 1020.26 426.032C1026.07 420.906 1030 416.696 1032.53 413.982C1034.68 411.672 1035.83 410.445 1036.26 410.659C1036.75 410.901 1036.33 412.991 1035.44 417.448C1034.93 420.014 1034.25 423.365 1033.51 427.599C1032.26 434.648 1031.1 439.898 1030.32 443.395C1029.57 446.808 1029.18 448.549 1029.45 448.66C1029.74 448.775 1030.74 447.12 1032.78 443.742L1032.79 443.736L1032.79 443.732L1032.8 443.722L1032.8 443.713C1034.12 441.541 1035.86 438.661 1038.12 435.086C1041.76 429.325 1043.94 425.28 1045.14 423.062C1045.87 421.702 1046.23 421.029 1046.34 421.066C1046.44 421.103 1046.28 421.821 1045.98 423.244L1045.98 423.249L1045.98 423.257L1045.98 423.258C1045.34 426.252 1044.05 432.346 1043.03 441.756C1040.22 467.733 1040.96 470.892 1053.95 447.723C1066.93 424.555 1066.55 441.756 1065.5 447.723C1064.45 453.691 1060.09 480.721 1071.82 457.904C1083.55 435.086 1080.46 450.042 1080.46 450.042C1080.46 450.042 1069.15 494.412 1081.44 473.349C1093.43 452.79 1093.36 453.219 1089.13 477.167V477.168L1088.81 478.966C1085.66 496.839 1091.47 490.462 1101.79 479.135C1106.32 474.165 1111.71 468.243 1117.6 462.998C1124.46 453.635 1128.17 447.098 1133.54 432.646L1133.92 431.93L1133.92 431.927L1133.92 431.923L1133.92 431.92L1133.92 431.917C1141.3 417.822 1144.86 411.022 1143.82 410.232C1142.86 409.495 1137.9 413.983 1128.33 422.655C1127.65 423.267 1126.95 423.901 1126.23 424.554C1103.69 444.949 1104.37 442.882 1112.98 416.956L1113.01 416.874C1113.63 414.996 1114.3 412.992 1115 410.864C1126.23 376.725 1120.26 378.568 1103.41 407.002C1100.44 410.381 1097.82 413.539 1095.59 416.228C1086.23 427.509 1083.72 430.541 1090.58 407.002C1100.41 373.274 1103.41 356.654 1085.16 384.184C1067.92 410.186 1062.33 406.618 1073.84 376.725C1085.16 347.325 1082.35 342.41 1066.87 373.274C1052.24 402.439 1046.25 396.609 1053.95 364.902C1054.87 361.086 1055.69 357.811 1056.38 355.043L1056.38 355.042L1056.38 355.034L1056.38 355.031L1056.38 355.03L1056.38 355.022C1058.39 347.001 1059.32 343.255 1058.75 343.013ZM1342.75 559.013C1342.26 558.8 1340.61 561.279 1337.51 565.929L1337.51 565.932C1334.49 570.475 1330.08 577.09 1324.03 585.291C1316.31 601.322 1300.86 631.134 1300.86 631.134C1300.86 632.097 1300.08 634.476 1299.21 637.088L1299.21 637.091L1299.21 637.092C1297.56 642.101 1295.63 647.966 1298.39 646.351C1302.61 643.894 1304.26 642.032 1304.26 642.032C1310.07 636.907 1313.99 632.698 1316.53 629.983L1316.53 629.982C1318.68 627.672 1319.83 626.445 1320.26 626.659C1320.75 626.901 1320.33 628.991 1319.44 633.448C1318.93 636.014 1318.25 639.365 1317.51 643.599C1316.26 650.648 1315.1 655.898 1314.32 659.395C1313.57 662.808 1313.18 664.549 1313.45 664.66C1313.74 664.775 1314.74 663.12 1316.78 659.743L1316.79 659.735C1318.1 657.561 1319.85 654.673 1322.12 651.086C1325.75 645.326 1327.94 641.283 1329.14 639.064L1329.14 639.062C1329.87 637.702 1330.23 637.029 1330.34 637.066C1330.44 637.103 1330.28 637.822 1329.98 639.248L1329.98 639.257L1329.98 639.258C1329.34 642.252 1328.05 648.345 1327.03 657.756C1324.22 683.733 1324.96 686.892 1337.95 663.723C1350.93 640.555 1350.55 657.756 1349.5 663.723C1348.45 669.691 1344.09 696.721 1355.82 673.904C1367.55 651.086 1364.46 666.042 1364.46 666.042C1364.46 666.042 1353.15 710.412 1365.44 689.349C1377.43 668.79 1377.36 669.219 1373.13 693.167V693.168L1372.81 694.966C1369.66 712.839 1375.47 706.462 1385.79 695.135C1390.32 690.165 1395.71 684.243 1401.6 678.998C1408.46 669.635 1412.17 663.098 1417.54 648.646L1417.92 647.93L1417.92 647.929L1417.92 647.927L1417.92 647.926L1417.92 647.924L1417.92 647.923L1417.92 647.921L1417.92 647.92L1417.92 647.918L1417.92 647.917L1417.93 647.915L1417.93 647.914L1417.93 647.912L1417.93 647.911L1417.93 647.909C1425.3 633.819 1428.86 627.022 1427.82 626.232C1426.86 625.495 1421.9 629.983 1412.33 638.655L1411.25 639.63L1410.23 640.554C1387.69 660.949 1388.37 658.882 1396.98 632.956C1397.61 631.054 1398.29 629.023 1399 626.864C1410.23 592.725 1404.26 594.568 1387.41 623.002C1384.44 626.381 1381.82 629.539 1379.59 632.228C1370.23 643.509 1367.72 646.541 1374.58 623.002C1384.41 589.274 1387.41 572.654 1369.16 600.184C1351.92 626.186 1346.33 622.618 1357.84 592.725C1369.16 563.325 1366.35 558.41 1350.87 589.274C1336.24 618.439 1330.25 612.609 1337.95 580.902C1338.87 577.086 1339.69 573.81 1340.38 571.043L1340.38 571.039C1342.38 563.006 1343.32 559.256 1342.75 559.013ZM1342.75 127.013C1342.26 126.8 1340.61 129.279 1337.51 133.929L1337.51 133.933C1334.49 138.476 1330.08 145.091 1324.03 153.291C1316.31 169.322 1300.86 199.134 1300.86 199.134C1300.86 200.097 1300.08 202.476 1299.21 205.088L1299.21 205.091C1297.56 210.1 1295.63 215.966 1298.39 214.351C1302.61 211.894 1304.26 210.032 1304.26 210.032C1310.07 204.906 1314 200.696 1316.53 197.982C1318.68 195.672 1319.83 194.445 1320.26 194.659C1320.75 194.901 1320.33 196.991 1319.44 201.448C1318.93 204.014 1318.25 207.365 1317.51 211.599C1316.26 218.648 1315.1 223.898 1314.32 227.395C1313.57 230.808 1313.18 232.549 1313.45 232.66C1313.74 232.775 1314.74 231.12 1316.78 227.742L1316.79 227.735C1318.1 225.561 1319.85 222.674 1322.12 219.086C1325.76 213.325 1327.94 209.281 1329.14 207.062C1329.87 205.702 1330.23 205.029 1330.34 205.066C1330.44 205.103 1330.28 205.822 1329.98 207.249L1329.98 207.257L1329.98 207.258C1329.34 210.252 1328.05 216.346 1327.03 225.756C1326.78 228.095 1326.55 230.25 1326.37 232.217C1262.65 295.259 1244.33 391.824 1287.83 469.827C1340.75 564.727 1465.14 596.216 1565.65 540.16C1666.17 484.104 1704.75 361.73 1651.82 266.831C1646.88 257.964 1641.31 249.65 1635.19 241.91C1639.93 234.876 1643.19 228.361 1647.54 216.646L1647.92 215.93C1655.3 201.826 1658.86 195.022 1657.82 194.232C1656.86 193.495 1651.9 197.983 1642.33 206.655C1641.65 207.267 1640.95 207.9 1640.23 208.554C1617.69 228.949 1618.37 226.882 1626.98 200.956C1627.61 199.054 1628.29 197.023 1629 194.864C1640.23 160.725 1634.26 162.568 1617.41 191.002C1614.45 194.37 1611.84 197.518 1609.61 200.201L1609.6 200.21L1609.59 200.223L1609.59 200.224L1609.59 200.228C1605.39 205.296 1602.57 208.699 1601.35 208.776C1601.17 208.637 1600.99 208.498 1600.8 208.36C1600.28 206.93 1601.46 201.721 1604.58 191.002C1614.41 157.274 1617.41 140.654 1599.16 168.184C1581.92 194.186 1576.33 190.618 1587.84 160.725C1599.16 131.325 1596.35 126.41 1580.87 157.274C1566.24 186.439 1560.25 180.609 1567.95 148.902C1568.87 145.086 1569.69 141.811 1570.38 139.043L1570.38 139.042L1570.38 139.034L1570.38 139.027L1570.38 139.021C1572.39 131.001 1573.32 127.255 1572.75 127.013C1572.26 126.8 1570.61 129.279 1567.51 133.929L1567.51 133.933C1564.49 138.476 1560.08 145.091 1554.03 153.291C1550.71 160.18 1545.97 169.615 1541.63 178.134C1497.87 164.426 1448.75 165.383 1402.59 183.109C1408.29 162.266 1402.35 166.124 1388.58 189.051C1383.67 191.335 1378.8 193.817 1374 196.498C1373.61 196.714 1373.22 196.931 1372.84 197.148C1373.33 195.341 1373.91 193.298 1374.58 191.002C1384.41 157.274 1387.41 140.654 1369.16 168.184C1351.92 194.186 1346.33 190.618 1357.84 160.725C1369.16 131.325 1366.35 126.41 1350.87 157.274C1336.24 186.439 1330.25 180.609 1337.95 148.902C1338.87 145.086 1339.69 141.811 1340.38 139.043L1340.38 139.042L1340.38 139.034L1340.38 139.027L1340.38 139.021C1342.39 131.001 1343.32 127.255 1342.75 127.013ZM1053.51 565.929C1056.61 561.279 1058.26 558.8 1058.75 559.013C1059.32 559.256 1058.38 563.006 1056.38 571.039L1056.38 571.043C1055.69 573.81 1054.87 577.086 1053.95 580.902C1046.25 612.609 1052.24 618.439 1066.87 589.274C1082.35 558.41 1085.16 563.325 1073.84 592.725C1062.33 622.618 1067.92 626.186 1085.16 600.184C1103.41 572.654 1100.41 589.274 1090.58 623.002C1083.72 646.541 1086.23 643.509 1095.59 632.228C1097.82 629.539 1100.44 626.381 1103.41 623.002C1120.26 594.568 1126.23 592.725 1115 626.864L1114.74 627.647C1114.6 628.05 1114.47 628.448 1114.34 628.842L1113.94 630.062C1113.7 630.779 1113.47 631.48 1113.24 632.165L1113.16 632.408L1113.14 632.461L1113.11 632.571L1113.06 632.717L1113 632.884L1112.98 632.956C1104.37 658.882 1103.69 660.949 1126.23 640.554C1126.95 639.9 1127.65 639.267 1128.33 638.655C1137.9 629.983 1142.86 625.495 1143.82 626.232C1144.86 627.022 1141.3 633.819 1133.93 647.909L1133.93 647.911L1133.93 647.912L1133.93 647.914L1133.93 647.915L1133.92 647.917L1133.92 647.918L1133.92 647.92L1133.92 647.921L1133.92 647.923L1133.92 647.924L1133.92 647.926L1133.92 647.927L1133.92 647.929L1133.92 647.93L1133.54 648.646C1128.17 663.098 1124.46 669.635 1117.6 678.998C1111.71 684.243 1106.32 690.165 1101.79 695.135C1091.47 706.462 1085.66 712.839 1088.81 694.966L1089.13 693.168V693.167C1093.36 669.219 1093.43 668.79 1081.44 689.349C1069.15 710.412 1080.46 666.042 1080.46 666.042C1080.46 666.042 1083.55 651.086 1071.82 673.904C1060.09 696.721 1064.45 669.691 1065.5 663.723C1066.55 657.756 1066.93 640.555 1053.95 663.723C1040.96 686.892 1040.22 683.733 1043.03 657.756C1044.05 648.345 1045.34 642.252 1045.98 639.258L1045.98 639.257L1045.98 639.248C1046.28 637.822 1046.44 637.103 1046.34 637.066C1046.23 637.029 1045.87 637.702 1045.14 639.062L1045.14 639.064C1043.94 641.283 1041.75 645.326 1038.12 651.086C1035.85 654.673 1034.1 657.561 1032.79 659.735L1032.78 659.743C1030.74 663.12 1029.74 664.775 1029.45 664.66C1029.18 664.549 1029.57 662.808 1030.32 659.395C1031.1 655.898 1032.26 650.648 1033.51 643.599C1034.25 639.365 1034.93 636.014 1035.44 633.448C1036.33 628.991 1036.75 626.901 1036.26 626.659C1035.83 626.445 1034.68 627.672 1032.53 629.982C1030 632.696 1026.07 636.906 1020.26 642.032C1020.26 642.032 1018.61 643.894 1014.39 646.351C1011.63 647.966 1013.56 642.1 1015.21 637.091C1016.07 634.478 1016.86 632.097 1016.86 631.134C1016.86 631.134 1032.31 601.322 1040.03 585.291C1046.08 577.09 1050.49 570.475 1053.51 565.932L1053.51 565.929ZM1567.51 565.929C1570.61 561.279 1572.26 558.8 1572.75 559.013C1573.32 559.256 1572.38 563.006 1570.38 571.039L1570.38 571.043C1569.69 573.81 1568.87 577.086 1567.95 580.902C1560.25 612.609 1566.24 618.439 1580.87 589.274C1596.35 558.41 1599.16 563.325 1587.84 592.725C1576.33 622.618 1581.92 626.186 1599.16 600.184C1617.41 572.654 1614.41 589.274 1604.58 623.002C1597.72 646.541 1600.23 643.509 1609.59 632.228C1611.82 629.539 1614.44 626.381 1617.41 623.002C1634.26 594.568 1640.23 592.725 1629 626.864C1628.32 628.933 1627.67 630.884 1627.06 632.717L1627 632.884L1626.98 632.956C1618.37 658.882 1617.69 660.949 1640.23 640.554C1640.95 639.9 1641.65 639.267 1642.33 638.655C1651.9 629.983 1656.86 625.495 1657.82 626.232C1658.86 627.022 1655.3 633.823 1647.92 647.921L1647.92 647.923L1647.92 647.924L1647.92 647.926L1647.92 647.927L1647.92 647.929L1647.92 647.93L1647.54 648.646C1642.17 663.098 1638.46 669.635 1631.6 678.998C1625.71 684.243 1620.32 690.165 1615.79 695.135C1605.47 706.462 1599.66 712.839 1602.81 694.966L1603.13 693.168V693.167C1607.36 669.219 1607.43 668.79 1595.44 689.349C1583.15 710.412 1594.46 666.042 1594.46 666.042C1594.46 666.042 1597.55 651.086 1585.82 673.904C1574.09 696.721 1578.45 669.691 1579.5 663.723C1580.55 657.756 1580.93 640.555 1567.95 663.723C1554.96 686.892 1554.22 683.733 1557.03 657.756C1558.05 648.345 1559.34 642.252 1559.98 639.258L1559.98 639.257L1559.98 639.248C1560.28 637.822 1560.44 637.103 1560.34 637.066C1560.23 637.029 1559.87 637.702 1559.14 639.062L1559.14 639.064C1557.94 641.283 1555.75 645.326 1552.12 651.086C1549.85 654.673 1548.1 657.561 1546.79 659.735L1546.78 659.743C1544.74 663.12 1543.74 664.775 1543.45 664.66C1543.18 664.549 1543.57 662.808 1544.32 659.395C1545.1 655.898 1546.26 650.648 1547.51 643.599C1548.25 639.365 1548.93 636.014 1549.44 633.448C1550.33 628.991 1550.75 626.901 1550.26 626.659C1549.83 626.445 1548.68 627.672 1546.53 629.982L1546.53 629.983C1543.99 632.698 1540.07 636.907 1534.26 642.032C1534.26 642.032 1532.61 643.894 1528.39 646.351C1525.63 647.966 1527.56 642.101 1529.21 637.092L1529.21 637.091L1529.21 637.088C1530.08 634.476 1530.86 632.097 1530.86 631.134C1530.86 631.134 1546.31 601.322 1554.03 585.291C1560.08 577.09 1564.49 570.475 1567.51 565.932L1567.51 565.929Z" fill="white"/>
</svg>
