<svg width="295" height="185" viewBox="0 0 295 185" fill="none" xmlns="http://www.w3.org/2000/svg">
<path d="M8.23273 111.401L33.0073 183.608L49.1051 153.424L24.8811 82.8219L8.23273 111.401Z" fill="#FE3176"/>
<path d="M273.697 101.026L286.184 72.0809L266.127 78.9627L273.697 101.026Z" fill="#FE3176"/>
<path d="M49.1051 153.424L33.0073 183.608L273.697 101.026L266.127 78.9627L49.1051 153.424Z" fill="#FE3176"/>
<path d="M286.184 72.0809L261.96 1.47861L266.127 78.9627L286.184 72.0809Z" fill="#FE3176"/>
<path d="M23.2787 83.3725L261.561 1.61636L285.51 71.4164L47.2275 153.173L23.2787 83.3725Z" fill="#DBF429" stroke="black" stroke-width="2.54463"/>
<path d="M21.6621 82.5821L7.57002 112.078L32.3446 184.285L47.1013 154.113L21.6621 82.5821Z" fill="#1C1CD2"/>
<path d="M90.7371 115.476C89.4428 113.38 88.1925 110.6 87.0084 107.149L84.4752 99.7661L87.4285 98.7528C89.1872 98.1494 90.8446 98.0072 92.4115 98.3041L88.049 89.8053L67.5915 96.8244L69.3657 106.211C70.3871 105.026 71.7826 104.121 73.5579 103.512L76.7269 102.425L79.2601 109.808C80.4442 113.259 81.1636 116.22 81.4291 118.67L90.7371 115.476ZM121.177 105.607C122.023 105.317 122.773 104.8 123.432 104.073C124.075 103.352 124.451 102.611 124.561 101.85L120.966 91.6967C120.845 94.316 119.717 96.0011 117.576 96.7355C116.664 97.0486 115.686 96.9018 114.835 96.582C113.605 96.1324 112.218 95.4955 110.509 96.0819L110.443 96.1047L110.374 95.9056L110.673 95.8031C112.415 95.2054 113.879 94.4436 115.069 93.5346C116.259 92.6255 117.098 91.5586 117.581 90.3173C118.07 89.0927 118.075 87.8112 117.614 86.4673C117.164 85.1566 116.368 84.1872 115.214 83.5262C112.901 82.2428 109.784 82.3478 106.25 83.5604L91.8153 88.513C93.1095 90.6096 94.3598 93.3889 95.5496 96.8565L97.8096 103.443C98.9937 106.894 99.7131 109.856 99.9786 112.305L109.287 109.112C107.992 107.015 106.742 104.236 105.558 100.785L105.08 99.3912C105.339 99.1726 105.803 98.9578 106.483 98.7244C109.171 97.8022 110.773 99.6076 112.455 101.645C114.519 104.201 116.686 107.166 121.177 105.607ZM102.865 92.9371L107.411 91.3773C109.021 90.8251 110.427 91.1955 110.832 92.3735C111.264 93.6345 110.375 94.7184 108.583 95.3333L104.203 96.8361L102.865 92.9371ZM134.108 100.596C133.703 99.4176 133.388 97.6342 133.173 95.223L133.166 94.391L139.852 92.0968L140.362 92.7192C141.685 94.8433 142.553 96.4554 142.951 97.5614L152.259 94.3678C150.266 92.2884 148.252 89.771 146.241 86.8265L141.641 81.0422C140.793 79.8127 139.982 78.4219 139.181 76.8979C138.38 75.3739 137.741 74.0537 137.293 72.9094L123.439 77.6628C123.787 78.7858 124.099 80.1809 124.402 81.8757C124.706 83.5705 124.898 85.2108 125 86.752L124.904 94.1473C125.121 98.0228 125.071 101.23 124.767 103.801L134.108 100.596ZM132.969 86.5213C132.949 85.5451 132.765 84.0878 132.437 82.1048L132.885 81.9511C133.764 83.5965 134.536 84.8711 135.209 85.7527L137.905 88.9631L132.812 90.7108L132.969 86.5213ZM165.249 90.4485C167.257 89.7597 168.987 89.0178 170.461 88.2338C171.913 87.439 173.342 86.5222 174.747 85.4837L171.69 76.574C171.001 77.756 170.007 78.8575 168.707 79.8785C167.407 80.8995 165.922 81.7058 164.262 82.275C160.214 83.6641 156.108 83.5337 154.969 80.2153C154.451 78.7055 154.761 77.2827 155.875 75.936C156.995 74.606 158.672 73.5484 160.895 72.7856C162.206 72.3359 163.585 72.0852 165.016 72.0394C166.436 72.0159 167.635 72.1607 168.62 72.4904L165.857 64.2216C164.73 64.1261 163.35 64.2103 161.726 64.452C160.109 64.7102 158.471 65.124 156.795 65.6989C153.991 66.661 151.486 68.1696 149.519 70.3281C148.535 71.4073 147.752 72.5847 147.181 73.8378C146.027 76.3663 145.833 79.5854 146.966 82.8871C148.105 86.2055 150.223 88.6498 152.686 89.9374C156.398 91.8907 161.102 91.9271 165.249 90.4485ZM198.433 79.0631C199.279 78.7728 200.006 78.245 200.654 77.4849C201.302 76.7248 201.651 75.9562 201.705 75.1958L198.189 65.164C197.996 67.2514 197.18 68.4401 195.04 69.1745C193.862 69.5787 192.606 69.3789 191.521 68.9724C189.985 68.3867 188.015 67.6163 185.515 68.4925L185.1 68.6348L184.969 68.2532L187.01 67.553C189.847 66.5796 191.565 65.8045 192.982 64.7437C195.054 63.1612 195.387 61.3222 194.423 58.2963C193.848 56.6205 193.01 55.2577 191.913 54.169L183.186 57.1634C184.465 58.1895 185.369 59.474 185.899 61.0171C187.037 64.3354 186.126 66.651 183.338 67.6074L181.414 68.2677L180.958 66.9404C179.848 63.705 179.191 60.9261 178.971 58.6093L169.663 61.8029C170.958 63.8995 172.208 66.6788 173.398 70.1464L175.658 76.7333C176.842 80.1844 177.561 83.1458 177.827 85.5953L187.135 82.4017C185.886 80.4379 184.641 77.6752 183.406 74.0748L182.37 71.0551C182.722 70.7303 183.252 70.4372 183.965 70.1924C186.769 69.2304 188.17 71.4758 189.585 74.0317C190.307 75.3234 191.034 76.6318 192.008 77.6883C193.397 79.2515 195.38 80.1106 198.433 79.0631ZM215.539 73.1939C219.04 71.9928 221.722 70.4604 223.542 68.5751C225.345 66.6954 225.962 64.3879 225.12 61.9323C224.414 59.875 222.906 58.6678 221.167 58.3558C219.433 58.0603 217.276 58.1514 215.267 58.6183C211.185 59.4252 207.298 60.7961 206.655 58.9213C206.467 58.3737 206.745 57.8332 207.461 57.2722C208.177 56.7112 209.177 56.2198 210.471 55.7758C212.18 55.1895 213.974 54.852 215.832 54.7525C217.689 54.653 219.244 54.8058 220.49 55.1943L217.541 46.5998C216.204 46.5949 214.619 46.7308 212.768 47.0133C210.918 47.2958 209.158 47.7328 207.515 48.2964C205.226 49.082 203.293 50.042 201.738 51.1872C200.168 52.3382 199.042 53.6516 198.389 55.1551C197.737 56.6586 197.673 58.2012 198.219 59.794C198.863 61.6689 200.144 62.9169 201.634 63.3698C203.131 63.8392 204.946 63.9398 206.774 63.6464C211.306 63.0187 215.982 61.0805 216.562 62.7729C216.927 63.8348 215.616 64.878 212.646 65.897C210.605 66.5972 208.462 66.9988 206.232 67.096C203.987 67.1989 201.993 66.9002 200.217 66.2113L202.987 75.2566C204.784 75.252 206.901 75.0448 209.344 74.6517C211.787 74.2586 213.846 73.7746 215.539 73.1939Z" fill="black"/>
</svg>
