<svg width="78" height="84" viewBox="0 0 78 84" fill="none" xmlns="http://www.w3.org/2000/svg">
<g filter="url(#filter0_d)">
<ellipse cx="38.815" cy="37.97" rx="38.815" ry="37.97" fill="white"/>
<path fill-rule="evenodd" clip-rule="evenodd" d="M38.4663 12.9993C28.8208 12.9993 21 20.5215 21 29.801C21 32.1971 21.5325 34.4762 22.4697 36.5387L38.7645 62.5275L54.4629 36.5387C55.4283 34.4237 55.9272 32.1258 55.9255 29.801C55.9255 20.5215 48.1118 12.9993 38.4663 12.9993ZM38.4663 41.718C37.0249 41.7156 35.598 41.4293 34.2673 40.8752C32.9366 40.3211 31.7281 39.5102 30.711 38.4889C29.6939 37.4675 28.888 36.2557 28.3395 34.9227C27.791 33.5898 27.5106 32.1618 27.5144 30.7204C27.5116 29.2794 27.7926 27.852 28.3415 26.5197C28.8904 25.1873 29.6963 23.9761 30.7133 22.9552C31.7303 21.9343 32.9384 21.1237 34.2687 20.5697C35.5989 20.0157 37.0253 19.7291 38.4663 19.7263C41.3766 19.7329 44.1653 20.8946 46.2196 22.956C48.2738 25.0175 49.4256 27.8102 49.4218 30.7204C49.4265 33.6312 48.2752 36.4247 46.2208 38.487C44.1665 40.5492 41.3773 41.7114 38.4663 41.718ZM45.4848 30.5784C45.4867 31.5022 45.3065 32.4173 44.9546 33.2714C44.6026 34.1256 44.0859 34.902 43.4338 35.5564C42.7817 36.2108 42.007 36.7303 41.1541 37.0852C40.3011 37.4401 39.3866 37.6235 38.4628 37.6249C36.5979 37.6202 34.8111 36.8754 33.4951 35.5541C32.1791 34.2328 31.4415 32.4432 31.4443 30.5784C31.4429 29.6553 31.6233 28.7411 31.9753 27.8878C32.3272 27.0345 32.8438 26.2588 33.4955 25.6051C34.1473 24.9515 34.9214 24.4326 35.7736 24.078C36.6259 23.7235 37.5397 23.5403 38.4628 23.5389C42.3394 23.5389 45.4848 26.6948 45.4848 30.5784Z" fill="black"/>
</g>
<defs>
<filter id="filter0_d" x="0" y="0" width="77.63" height="83.94" filterUnits="userSpaceOnUse" color-interpolation-filters="sRGB">
<feFlood flood-opacity="0" result="BackgroundImageFix"/>
<feColorMatrix in="SourceAlpha" type="matrix" values="0 0 0 0 0 0 0 0 0 0 0 0 0 0 0 0 0 0 127 0" result="hardAlpha"/>
<feOffset dy="8"/>
<feComposite in2="hardAlpha" operator="out"/>
<feColorMatrix type="matrix" values="0 0 0 0 0 0 0 0 0 0 0 0 0 0 0 0 0 0 1 0"/>
<feBlend mode="normal" in2="BackgroundImageFix" result="effect1_dropShadow"/>
<feBlend mode="normal" in="SourceGraphic" in2="effect1_dropShadow" result="shape"/>
</filter>
</defs>
</svg>
