<svg width="528" height="191" viewBox="0 0 528 191" fill="none" xmlns="http://www.w3.org/2000/svg">
<path d="M1.60901 43.5738V188.825L49.2137 144.443V2.41943L1.60901 43.5738Z" fill="#FE3176"/>
<path d="M485.725 188.825L526.068 144.442H485.725V188.825Z" fill="#FE3176"/>
<path d="M49.2137 144.442L1.60901 188.825H485.725V144.442H49.2137Z" fill="#FE3176"/>
<path d="M526.068 144.443V2.41943L485.725 144.443H526.068Z" fill="#FE3176"/>
<path d="M45.9923 142.83V2.4209H525.267V142.83H45.9923Z" fill="#DBF429" stroke="black" stroke-width="3.01655"/>
<path d="M43.5704 0L0 44.3823V189.633L45.1841 144.444L43.5704 0Z" fill="#1C1CD2"/>
<path d="M95.0144 107.866C95.0144 105.496 95.5485 102.092 96.6497 97.6193L97.1503 96.1173H110.599L111.133 97.5525C112.201 102.192 112.768 105.629 112.802 107.866H131.523C129.221 102.893 127.152 97.1185 125.35 90.577L120.644 77.3267C119.877 74.5899 119.276 71.5861 118.775 68.3487C118.275 65.1112 117.941 62.3411 117.841 60.0048H89.9753C89.9085 62.2409 89.6082 64.9444 89.1077 68.1818C88.607 71.4193 87.9397 74.4898 87.172 77.3267L82.4332 90.577C80.431 97.686 78.3618 103.427 76.2261 107.866H95.0144ZM101.655 81.8325C102.223 80.0636 102.79 77.3267 103.424 73.5553H104.325C104.892 77.0598 105.493 79.8299 106.161 81.8325L109.031 89.2753H98.7855L101.655 81.8325ZM165.863 107.866C169.1 107.866 171.971 107.398 174.506 106.497C179.579 104.695 182.95 100.79 182.95 95.4831C182.95 92.9133 182.215 90.6771 180.748 88.8081C177.777 85.1033 172.738 83.4011 166.431 83.4011H165.262V82.5001H165.529C174.039 82.6001 181.114 78.3281 181.048 71.4193C181.08 63.9764 173.572 59.8712 164.295 60.0048H133.626C134.627 64.7108 135.128 70.4847 135.128 77.3267V90.577C135.128 97.3856 134.627 103.16 133.626 107.866H165.863ZM150.712 72.5875H159.389C162.993 72.5875 165.33 73.9892 165.33 76.4256C165.33 78.9289 162.959 80.3305 159.389 80.3305H150.712V72.5875ZM150.712 85.9378H160.958C164.728 85.9378 167.297 87.6399 167.297 90.4434C167.297 93.247 164.762 94.8823 161.024 94.8823H150.712V85.9378ZM211.85 108.833C219.025 108.833 225.265 106.664 229.971 102.626C234.642 98.5871 237.48 91.9787 237.48 83.9351C237.48 77.4936 235.644 71.92 232.54 68.0149C227.801 62.1075 220.393 59.0703 211.85 59.0703C204.641 59.0703 198.334 61.2731 193.662 65.2781C188.957 69.3166 186.087 75.925 186.087 83.9351C186.087 91.9787 188.957 98.5871 193.662 102.626C198.334 106.664 204.641 108.833 211.85 108.833ZM211.85 96.6513C209.08 96.6513 206.811 95.5165 205.042 93.2803C203.24 91.0442 202.338 87.9068 202.338 83.9351C202.338 79.9635 203.24 76.8595 205.008 74.6233C206.777 72.3872 209.08 71.2858 211.85 71.2858C214.586 71.2858 216.856 72.3872 218.624 74.6233C220.393 76.8595 221.295 79.9635 221.295 83.9351C221.295 87.9068 220.393 91.0442 218.624 93.2803C216.856 95.5165 214.586 96.6513 211.85 96.6513ZM267.481 108.833C275.09 108.833 280.93 107.031 285.035 103.393C289.105 99.7552 291.142 94.5486 291.142 87.7067V77.3267C291.142 70.151 291.642 64.3771 292.644 60.0048H273.921C274.956 64.3103 275.489 70.0843 275.489 77.3267V83.3344C275.489 89.4756 272.753 93.247 267.547 93.247C262.341 93.247 259.638 89.4756 259.638 83.3344V77.3267C259.638 70.3512 260.172 64.5772 261.206 60.0048H242.485C243.52 64.5772 244.053 70.3512 244.053 77.3267V87.7067C244.053 95.0159 246.456 100.59 250.728 103.894C254.966 107.231 260.54 108.833 267.481 108.833ZM330.353 107.866C329.32 103.293 328.785 97.5191 328.785 90.577V75.7247H334.725C338.262 75.7247 341.334 76.4924 343.969 77.9942L341.366 60.0048H300.219L297.616 77.9942C300.185 76.4924 303.255 75.7247 306.826 75.7247H313.2V90.577C313.2 97.5191 312.666 103.293 311.632 107.866H330.353ZM391.425 108.833C399.033 108.833 404.873 107.031 408.977 103.393C413.049 99.7552 415.085 94.5486 415.085 87.7067V77.3267C415.085 70.151 415.586 64.3771 416.587 60.0048H397.865C398.9 64.3103 399.433 70.0843 399.433 77.3267V83.3344C399.433 89.4756 396.697 93.247 391.49 93.247C386.284 93.247 383.582 89.4756 383.582 83.3344V77.3267C383.582 70.3512 384.116 64.5772 385.15 60.0048H366.429C367.462 64.5772 367.997 70.3512 367.997 77.3267V87.7067C367.997 95.0159 370.399 100.59 374.671 103.894C378.91 107.231 384.484 108.833 391.425 108.833ZM445.553 108.833C452.596 108.833 458.368 107.732 462.807 105.462C467.211 103.193 469.748 99.4216 469.748 94.4819C469.748 90.3433 467.779 87.2393 464.842 85.6039C461.905 84.0019 457.967 82.8338 454.064 82.4333C446.221 81.3653 438.378 81.4319 438.378 77.6606C438.378 76.5592 439.213 75.7581 440.848 75.1907C442.483 74.6233 444.586 74.3564 447.189 74.3564C450.626 74.3564 454.064 74.857 457.468 75.8249C460.872 76.7927 463.574 78.0276 465.577 79.4962V62.2075C463.173 61.3732 460.236 60.6389 456.733 60.0048C453.229 59.3706 449.792 59.0703 446.487 59.0703C441.883 59.0703 437.812 59.6043 434.307 60.7057C430.769 61.8071 427.934 63.4758 425.831 65.7787C423.729 68.0817 422.66 70.8186 422.66 74.0226C422.66 77.7941 424.196 80.8312 426.598 82.5667C429.001 84.3356 432.204 85.6373 435.675 86.2381C444.218 87.9068 453.83 87.3061 453.83 90.7104C453.83 92.8465 450.827 93.9145 444.852 93.9145C440.748 93.9145 436.643 93.3137 432.572 92.1122C428.466 90.9107 425.063 89.1417 422.293 86.8054L421.692 104.795C424.929 105.896 428.868 106.831 433.506 107.632C438.145 108.433 442.15 108.833 445.553 108.833Z" fill="black"/>
</svg>
