<svg width="529" height="331" viewBox="0 0 529 331" fill="none" xmlns="http://www.w3.org/2000/svg">
<path d="M46.082 39.5069L1.68337 168.89L57.6585 143.909L101.07 17.4013L46.082 39.5069Z" fill="#FE3176"/>
<path d="M432.96 316.885L482.466 289.685L446.526 277.352L432.96 316.885Z" fill="#FE3176"/>
<path d="M57.6585 143.909L1.68337 168.89L432.96 316.885L446.526 277.352L57.6585 143.909Z" fill="#FE3176"/>
<path d="M482.466 289.685L525.878 163.177L446.526 277.352L482.466 289.685Z" fill="#FE3176"/>
<path d="M55.7375 141.421L98.6562 16.3505L525.62 162.866L482.701 287.936L55.7375 141.421Z" fill="#1C1CD2" stroke="black" stroke-width="4.55963"/>
<path d="M96.7797 13.5188L44.3986 39.7329L-4.51936e-05 169.116L54.0653 142.676L96.7797 13.5188Z" fill="black"/>
<path d="M136.336 111.559C139.933 112.794 143.196 113.647 146.144 114.161C149.072 114.634 152.101 114.909 155.231 114.986L160.71 99.0213C158.435 99.9356 155.817 100.4 152.855 100.413C149.893 100.427 146.905 99.9334 143.932 98.9132C136.678 96.4239 131.014 91.7222 133.055 85.7763C133.983 83.0709 135.986 81.3988 139.043 80.72C142.091 80.0709 145.626 80.4202 149.61 81.7872C151.958 82.5932 154.185 83.7559 156.259 85.2651C158.293 86.7939 159.83 88.3183 160.86 89.8681L166.049 75.1333C164.56 73.7584 162.515 72.3588 159.954 70.9148C157.382 69.5005 154.609 68.2833 151.607 67.2529C146.582 65.5288 141.379 64.9064 136.223 65.7953C133.644 66.2398 131.242 67.0436 129.055 68.1873C124.641 70.4942 120.826 74.8341 118.796 80.7502C116.755 86.6962 117.062 92.4838 119.129 97.0147C122.23 103.861 128.843 109.088 136.336 111.559ZM180.039 126.556C186.43 128.749 192.653 128.725 198.079 126.566C203.476 124.397 208.023 119.378 210.481 112.213C212.45 106.475 212.519 100.949 210.948 96.522C208.532 89.8112 202.86 84.841 195.25 82.2293C188.828 80.0257 182.536 80.0597 177.149 82.199C171.723 84.3578 167.146 89.3669 164.698 96.502C162.239 103.667 162.776 110.431 165.734 115.466C168.661 120.492 173.617 124.352 180.039 126.556ZM183.762 115.705C181.295 114.858 179.62 113.153 178.728 110.621C177.806 108.078 177.962 105.008 179.176 101.47C180.39 97.9325 182.142 95.4431 184.401 93.9919C186.66 92.5407 189.048 92.2636 191.516 93.1103C193.954 93.9469 195.638 95.6217 196.531 98.1543C197.423 100.687 197.277 103.727 196.063 107.265C194.849 110.803 193.087 113.322 190.828 114.773C188.569 116.224 186.2 116.541 183.762 115.705ZM224.007 140.681C224.161 138.972 224.661 136.452 225.526 133.06C226.39 129.668 227.282 126.585 228.231 123.82L230.649 116.774L231.541 117.08L239.169 145.883L252.25 150.372L261.585 123.17C263.799 116.718 266.039 111.738 268.277 108.22L251.599 102.496C251.435 104.135 250.987 106.507 250.204 109.661C249.42 112.815 248.58 115.65 247.713 118.177L245.224 125.431L244.362 125.135L236.99 97.6163L221.958 92.3251C221.482 96.7143 220.193 102.021 218.061 108.234L214.011 120.037C211.889 126.221 209.648 131.201 207.329 134.957L224.007 140.681ZM287.272 162.39C287.748 158.001 289.037 152.694 291.159 146.511L295.699 133.281L300.991 135.097C304.142 136.178 306.642 137.801 308.532 139.945L311.712 123.125L275.055 110.546L267.238 125.774C269.986 125.222 272.956 125.477 276.137 126.568L281.815 128.517L277.275 141.746C275.153 147.93 272.913 152.91 270.593 156.667L287.272 162.39ZM312.126 170.919C312.85 168.808 314.366 165.939 316.714 162.292L317.619 161.107L329.6 165.218L329.637 166.66C329.171 171.119 328.625 174.354 327.971 176.357L344.65 182.08C344.118 176.946 344.04 171.17 344.434 164.793L344.293 151.551C344.445 148.879 344.828 146.02 345.372 142.983C345.916 139.946 346.465 137.377 347.09 135.265L322.266 126.746C321.523 128.718 320.429 131.034 318.993 133.765C317.558 136.495 316.025 139.027 314.474 141.319L306.202 151.673C302.245 157.393 298.647 161.874 295.388 165.175L312.126 170.919ZM325.999 149.76C327.045 148.358 328.387 146.093 330.105 142.928L330.908 143.203C330.342 146.498 330.03 149.149 330.013 151.137L330.294 158.644L321.167 155.512L325.999 149.76ZM367.335 190.828C370.932 192.062 374.195 192.916 377.142 193.429C380.07 193.902 383.1 194.178 386.23 194.255L391.708 178.29C389.434 179.204 386.816 179.668 383.854 179.682C380.891 179.696 377.904 179.202 374.931 178.182C367.677 175.693 362.013 170.991 364.053 165.045C364.982 162.34 366.984 160.667 370.042 159.989C373.089 159.34 376.625 159.689 380.608 161.056C382.957 161.862 385.183 163.025 387.257 164.534C389.291 166.063 390.829 167.587 391.859 169.137L397.048 154.402C395.559 153.027 393.514 151.627 390.952 150.184C388.38 148.769 385.608 147.552 382.605 146.522C377.581 144.798 372.378 144.175 367.221 145.064C364.643 145.508 362.24 146.312 360.053 147.456C355.64 149.763 351.824 154.103 349.794 160.019C347.754 165.965 348.061 171.753 350.128 176.283C353.228 183.13 359.842 188.357 367.335 190.828ZM417.606 207.115C418.082 202.726 419.371 197.42 421.493 191.236L426.033 178.006L431.325 179.822C434.476 180.904 436.977 182.526 438.866 184.67L442.046 167.85L405.39 155.271L397.572 170.499C400.32 169.947 403.29 170.202 406.471 171.293L412.149 173.242L407.61 186.472C405.488 192.655 403.247 197.635 400.928 201.392L417.606 207.115Z" fill="white"/>
</svg>
