<svg width="529" height="331" viewBox="0 0 529 331" fill="none" xmlns="http://www.w3.org/2000/svg">
<path d="M14.8242 199.97L59.2229 329.353L88.0655 275.267L44.6535 148.759L14.8242 199.97Z" fill="#FE3176"/>
<path d="M490.5 181.358L512.873 129.491L476.933 141.824L490.5 181.358Z" fill="#FE3176"/>
<path d="M88.0655 275.267L59.2229 329.353L490.5 181.358L476.933 141.824L88.0655 275.267Z" fill="#FE3176"/>
<path d="M512.873 129.491L469.461 2.98334L476.933 141.824L512.873 129.491Z" fill="#FE3176"/>
<path d="M85.0216 274.482L42.1029 149.412L469.067 2.89625L511.985 127.966L85.0216 274.482Z" fill="#1C1CD2" stroke="black" stroke-width="4.55963"/>
<path d="M38.8833 148.329L13.6346 201.182L58.0332 330.565L84.4728 276.5L38.8833 148.329Z" fill="black"/>
<path d="M156.96 203.519C160.558 202.285 163.657 200.955 166.299 199.55C168.9 198.126 171.46 196.483 173.978 194.622L168.5 178.657C167.266 180.775 165.484 182.749 163.155 184.579C160.825 186.409 158.164 187.853 155.191 188.874C147.937 191.363 140.58 191.129 138.539 185.184C137.611 182.478 138.165 179.929 140.161 177.516C142.168 175.132 145.173 173.237 149.157 171.87C151.505 171.064 153.976 170.615 156.54 170.533C159.084 170.49 161.234 170.75 162.998 171.34L158.047 156.524C156.028 156.353 153.554 156.504 150.645 156.937C147.747 157.4 144.811 158.142 141.809 159.172C136.784 160.896 132.296 163.6 128.771 167.467C127.009 169.401 125.606 171.511 124.582 173.757C122.515 178.287 122.168 184.056 124.198 189.972C126.239 195.918 130.035 200.297 134.448 202.604C141.099 206.104 149.529 206.169 156.96 203.519ZM200.663 188.522C207.055 186.329 211.951 182.489 214.908 177.453C217.836 172.428 218.343 165.674 215.884 158.509C213.915 152.771 210.577 148.368 206.618 145.838C200.591 142.025 193.062 141.584 185.452 144.196C179.03 146.399 174.085 150.29 171.147 155.285C168.189 160.321 167.652 167.085 170.101 174.22C172.56 181.385 177.136 186.394 182.563 188.553C187.959 190.722 194.241 190.726 200.663 188.522ZM196.939 177.671C194.471 178.518 192.103 178.201 189.844 176.75C187.555 175.309 185.793 172.79 184.579 169.252C183.365 165.714 183.219 162.674 184.111 160.141C185.003 157.608 186.718 155.923 189.186 155.077C191.623 154.24 193.982 154.527 196.241 155.979C198.5 157.43 200.251 159.919 201.466 163.457C202.68 166.995 202.836 170.065 201.944 172.597C201.052 175.13 199.377 176.835 196.939 177.671ZM244.04 172.674C243.112 171.231 241.959 168.935 240.559 165.727C239.159 162.518 237.97 159.537 237.021 156.772L234.603 149.726L235.495 149.42L259.202 167.471L272.283 162.982L262.948 135.779C260.734 129.328 259.445 124.022 259.05 119.87L242.372 125.593C243.249 126.987 244.352 129.134 245.67 132.105C246.988 135.075 248.066 137.829 248.933 140.356L251.423 147.61L250.56 147.906L227.845 130.711L212.732 135.765C215.051 139.521 217.292 144.501 219.424 150.715L223.474 162.518C225.596 168.701 226.885 174.008 227.361 178.397L244.04 172.674ZM307.304 150.964C304.985 147.207 302.744 142.227 300.622 136.044L296.082 122.814L301.374 120.998C304.526 119.917 307.495 119.662 310.303 120.194L302.485 104.965L265.829 117.544L269.009 134.364C270.839 132.241 273.339 130.618 276.52 129.527L282.199 127.578L286.738 140.808C288.86 146.992 290.15 152.298 290.626 156.687L307.304 150.964ZM332.158 142.435C331.434 140.324 330.869 137.129 330.483 132.808L330.47 131.318L342.451 127.206L343.365 128.321C345.734 132.127 347.291 135.016 348.004 136.998L364.682 131.274C361.111 127.549 357.502 123.038 353.897 117.762L345.655 107.398C344.135 105.194 342.682 102.702 341.246 99.9717C339.811 97.241 338.667 94.8755 337.863 92.825L313.039 101.344C313.663 103.356 314.222 105.856 314.766 108.893C315.309 111.929 315.653 114.869 315.837 117.63L315.665 130.881C316.055 137.826 315.966 143.572 315.42 148.179L332.158 142.435ZM330.117 117.216C330.081 115.467 329.75 112.856 329.162 109.302L329.965 109.027C331.542 111.975 332.923 114.259 334.13 115.839L338.962 121.591L329.835 124.723L330.117 117.216ZM387.959 124.25C391.556 123.016 394.656 121.687 397.297 120.282C399.899 118.857 402.459 117.214 404.977 115.353L399.499 99.3887C398.265 101.507 396.483 103.481 394.153 105.31C391.824 107.14 389.163 108.585 386.19 109.605C378.936 112.094 371.578 111.861 369.538 105.915C368.609 103.209 369.163 100.66 371.16 98.2469C373.167 95.8635 376.172 93.9683 380.155 92.6013C382.504 91.7953 384.975 91.3461 387.539 91.2639C390.083 91.2216 392.232 91.481 393.997 92.0717L389.045 77.2553C387.026 77.0843 384.553 77.2353 381.644 77.6685C378.746 78.1314 375.81 78.8729 372.807 79.9033C367.783 81.6274 363.294 84.3309 359.77 88.1987C358.008 90.1326 356.605 92.2423 355.581 94.4878C353.514 99.0187 353.167 104.787 355.197 110.703C357.237 116.649 361.033 121.029 365.447 123.336C372.098 126.835 380.527 126.9 387.959 124.25ZM437.638 106.239C435.319 102.482 433.078 97.5023 430.956 91.3185L426.417 78.0889L431.709 76.2729C434.86 75.1915 437.83 74.9367 440.637 75.4686L432.82 60.2401L396.163 72.8191L399.343 89.6391C401.173 87.5157 403.674 85.8933 406.855 84.8017L412.533 82.8532L417.073 96.0828C419.195 102.267 420.484 107.573 420.96 111.962L437.638 106.239Z" fill="white"/>
</svg>
