<svg width="529" height="331" viewBox="0 0 529 331" fill="none" xmlns="http://www.w3.org/2000/svg">
<path d="M46.1172 39.3076L1.71852 168.691L57.6936 143.71L101.106 17.2019L46.1172 39.3076Z" fill="#1C1CD2"/>
<path d="M432.995 316.686L482.501 289.485L446.561 277.152L432.995 316.686Z" fill="#1C1CD2"/>
<path d="M57.6936 143.71L1.71852 168.691L432.995 316.686L446.561 277.152L57.6936 143.71Z" fill="#1C1CD2"/>
<path d="M482.501 289.485L525.913 162.977L446.561 277.152L482.501 289.485Z" fill="#1C1CD2"/>
<path d="M98.3769 16.3293L525.341 162.845L482.422 287.915L55.4582 141.4L98.3769 16.3293Z" fill="#DBF429" stroke="black" stroke-width="4.55963"/>
<path d="M96.8149 13.3196L44.4337 39.5337L0.0351089 168.917L54.1005 142.477L96.8149 13.3196Z" fill="black"/>
<path d="M168.486 129.696C169.21 127.585 170.726 124.716 173.074 121.069L173.979 119.884L185.96 123.996L185.997 125.437C185.531 129.896 184.985 133.132 184.331 135.134L201.01 140.857C200.478 135.723 200.4 129.948 200.794 123.57L200.653 110.329C200.805 107.656 201.188 104.797 201.732 101.76C202.276 98.7234 202.825 96.1538 203.45 94.0421L178.626 85.5235C177.883 87.495 176.789 89.8113 175.353 92.542C173.918 95.2728 172.385 97.8039 170.834 100.096L162.562 110.45C158.605 116.17 155.007 120.651 151.748 123.953L168.486 129.696ZM182.359 108.537C183.405 107.135 184.747 104.871 186.465 101.705L187.268 101.981C186.702 105.276 186.39 107.927 186.373 109.915L186.654 117.422L177.527 114.29L182.359 108.537ZM231.601 151.355C234.485 152.344 237.185 152.806 239.72 152.778C244.789 152.724 248.986 150.276 250.608 145.549C251.393 143.259 251.423 141.043 250.686 138.929C249.172 134.721 245.204 131.665 239.585 129.737L238.544 129.379L238.82 128.577L239.057 128.658C246.608 131.349 254.216 129.706 256.269 123.532C258.574 116.913 253.139 110.96 244.834 108.243L217.512 98.8676C216.966 103.366 215.647 108.662 213.555 114.756L209.505 126.559C207.424 132.624 205.213 137.614 202.883 141.5L231.601 151.355ZM228.888 115.299L236.617 117.952C239.828 119.053 241.481 121.016 240.736 123.186C239.971 125.416 237.431 125.94 234.25 124.849L226.521 122.196L228.888 115.299ZM224.807 127.191L233.934 130.323C237.293 131.476 239.062 133.777 238.205 136.275C237.348 138.772 234.589 139.453 231.259 138.311L222.073 135.158L224.807 127.191ZM272.273 166.275C278.665 168.469 284.887 168.444 290.314 166.285C295.71 164.116 300.257 159.097 302.716 151.932C304.685 146.194 304.753 140.668 303.182 136.241C300.766 129.53 295.095 124.56 287.484 121.948C281.062 119.745 274.77 119.779 269.384 121.918C263.957 124.077 259.381 129.086 256.932 136.221C254.474 143.386 255.01 150.15 257.968 155.185C260.895 160.211 265.851 164.072 272.273 166.275ZM275.997 155.424C273.529 154.577 271.854 152.873 270.962 150.34C270.04 147.797 270.196 144.727 271.411 141.189C272.625 137.652 274.376 135.162 276.635 133.711C278.894 132.26 281.282 131.983 283.75 132.829C286.188 133.666 287.873 135.341 288.765 137.873C289.657 140.406 289.511 143.446 288.297 146.984C287.083 150.522 285.321 153.041 283.062 154.492C280.803 155.943 278.434 156.26 275.997 155.424ZM321.832 183.282C328.61 185.608 334.364 185.788 339.133 183.802C343.872 181.806 347.277 177.791 349.368 171.696L352.541 162.45C354.734 156.058 356.945 151.068 359.173 147.48L342.495 141.756C342.101 145.908 340.811 151.214 338.598 157.666L336.761 163.017C334.884 168.487 331.294 171.01 326.656 169.418C322.018 167.827 320.763 163.641 322.64 158.171L324.476 152.82C326.608 146.606 328.849 141.626 331.168 137.869L314.49 132.146C314.014 136.535 312.725 141.842 310.592 148.055L307.42 157.301C305.185 163.812 305.622 169.511 308.418 173.76C311.173 178.029 315.648 181.16 321.832 183.282ZM378.138 201.64C378.614 197.251 379.904 191.944 382.026 185.761L386.565 172.531L391.857 174.347C395.009 175.428 397.509 177.051 399.399 179.194L402.579 162.374L365.922 149.795L358.104 165.024C360.853 164.472 363.822 164.726 367.003 165.818L372.682 167.767L368.142 180.996C366.02 187.18 363.779 192.16 361.46 195.917L378.138 201.64Z" fill="black"/>
</svg>
