<svg width="587" height="394" viewBox="0 0 587 394" fill="none" xmlns="http://www.w3.org/2000/svg">
<g filter="url(#filter0_d)">
<path d="M68.8245 199.97L113.223 329.353L142.066 275.266L98.6537 148.759L68.8245 199.97Z" fill="#FE3176"/>
<path d="M544.5 181.358L566.873 129.491L530.934 141.824L544.5 181.358Z" fill="#FE3176"/>
<path d="M142.066 275.266L113.223 329.353L544.5 181.358L530.934 141.824L142.066 275.266Z" fill="#FE3176"/>
<path d="M566.873 129.491L523.461 2.9831L530.934 141.824L566.873 129.491Z" fill="#FE3176"/>
<path d="M139.022 274.482L96.103 149.412L523.067 2.89601L565.986 127.966L139.022 274.482Z" fill="#1C1CD2" stroke="black" stroke-width="4.55963"/>
<path d="M92.8833 148.329L67.6346 201.182L112.033 330.565L138.473 276.5L92.8833 148.329Z" fill="black"/>
<path d="M173.945 209.36C180.218 207.208 185.024 204.462 188.285 201.083C191.515 197.715 192.622 193.58 191.112 189.18C189.847 185.494 187.144 183.331 184.028 182.772C180.922 182.243 177.057 182.406 173.456 183.243C166.143 184.689 159.177 187.146 158.025 183.786C157.688 182.805 158.186 181.837 159.47 180.831C160.753 179.826 162.544 178.945 164.863 178.15C167.925 177.099 171.141 176.494 174.469 176.316C177.797 176.137 180.583 176.411 182.815 177.107L177.531 161.707C175.135 161.698 172.294 161.942 168.979 162.448C165.664 162.955 162.51 163.738 159.566 164.748C155.464 166.156 152 167.876 149.215 169.928C146.4 171.991 144.383 174.344 143.214 177.038C142.045 179.732 141.931 182.497 142.91 185.351C144.063 188.71 146.359 190.946 149.03 191.758C151.711 192.599 154.963 192.779 158.238 192.253C166.359 191.128 174.738 187.655 175.778 190.687C176.431 192.59 174.082 194.459 168.76 196.285C165.104 197.54 161.263 198.26 157.269 198.434C153.245 198.619 149.672 198.084 146.49 196.849L151.454 213.057C154.674 213.049 158.468 212.677 162.845 211.973C167.223 211.268 170.913 210.401 173.945 209.36ZM215.568 194.113C213.402 190.803 211.222 186.001 209.049 179.669L207.57 175.358L208.165 175.154C209.846 177.634 212.157 179.234 215.105 179.983C218.054 180.732 221.124 180.576 224.335 179.474C228.527 178.036 231.377 175.496 232.935 171.804C234.503 168.143 234.395 163.76 232.64 158.647C228.916 147.795 218.003 145.625 208.103 149.023L184.26 157.204C186.579 160.961 188.82 165.941 190.952 172.155L195.002 183.957C197.124 190.141 198.414 195.447 198.89 199.837L215.568 194.113ZM215.052 172.857C213.179 173.499 211.26 173.427 209.335 172.659C207.41 171.89 206.026 170.471 205.183 168.401L203.999 164.953C205.681 164.043 207.86 163.129 210.535 162.211C214.816 160.742 218.209 162.203 219.351 165.533C219.892 167.109 219.726 168.561 218.893 169.91C218.041 171.3 216.747 172.275 215.052 172.857ZM266.671 177.541C273.063 175.347 277.96 171.507 280.917 166.471C283.845 161.446 284.352 154.692 281.893 147.527C279.924 141.789 276.585 137.386 272.627 134.856C266.6 131.043 259.071 130.602 251.46 133.214C245.039 135.417 240.093 139.308 237.155 144.303C234.198 149.339 233.661 156.103 236.11 163.238C238.568 170.403 243.145 175.412 248.571 177.571C253.968 179.74 260.25 179.744 266.671 177.541ZM262.948 166.689C260.48 167.536 258.112 167.219 255.853 165.768C253.564 164.327 251.802 161.808 250.588 158.27C249.374 154.732 249.228 151.692 250.12 149.159C251.012 146.627 252.727 144.942 255.194 144.095C257.632 143.258 259.99 143.546 262.25 144.997C264.509 146.448 266.26 148.937 267.474 152.475C268.688 156.013 268.845 159.083 267.953 161.616C267.06 164.148 265.386 165.853 262.948 166.689ZM310.048 161.692C309.121 160.249 307.968 157.953 306.568 154.745C305.168 151.537 303.979 148.555 303.03 145.79L300.612 138.744L301.504 138.438L325.21 156.489L338.291 152L328.957 124.797C326.743 118.346 325.454 113.04 325.059 108.888L308.381 114.612C309.258 116.005 310.36 118.153 311.679 121.123C312.997 124.093 314.075 126.847 314.942 129.374L317.431 136.628L316.569 136.924L293.854 119.729L278.741 124.783C281.06 128.54 283.3 133.52 285.433 139.733L289.483 151.536C291.605 157.719 292.894 163.026 293.37 167.415L310.048 161.692ZM365.82 143.517C372.092 141.365 376.899 138.619 380.159 135.24C383.39 131.872 384.497 127.737 382.987 123.337C381.722 119.651 379.019 117.488 375.903 116.929C372.797 116.399 368.932 116.563 365.331 117.4C358.018 118.846 351.052 121.303 349.899 117.943C349.562 116.962 350.061 115.994 351.344 114.988C352.627 113.983 354.419 113.102 356.738 112.307C359.8 111.256 363.015 110.651 366.343 110.473C369.672 110.294 372.457 110.568 374.69 111.264L369.405 95.8639C367.01 95.8552 364.169 96.0989 360.854 96.6052C357.538 97.1116 354.384 97.8948 351.441 98.9048C347.338 100.313 343.874 102.033 341.09 104.085C338.275 106.148 336.258 108.501 335.089 111.195C333.92 113.889 333.805 116.654 334.784 119.508C335.937 122.867 338.233 125.103 340.904 125.915C343.586 126.756 346.837 126.936 350.113 126.41C358.234 125.285 366.612 121.812 367.653 124.844C368.306 126.747 365.957 128.616 360.635 130.442C356.978 131.697 353.138 132.417 349.144 132.591C345.12 132.776 341.546 132.241 338.365 131.006L343.328 147.214C346.549 147.206 350.343 146.834 354.72 146.13C359.097 145.425 362.787 144.558 365.82 143.517ZM412.703 127.429C419.095 125.235 423.991 121.395 426.949 116.359C429.876 111.334 430.383 104.58 427.925 97.4155C425.956 91.6777 422.617 87.274 418.658 84.7444C412.631 80.9309 405.103 80.4904 397.492 83.1021C391.07 85.3057 386.125 89.196 383.187 94.1918C380.23 99.2275 379.693 105.991 382.141 113.126C384.6 120.291 389.177 125.3 394.603 127.459C399.999 129.628 406.281 129.632 412.703 127.429ZM408.979 116.578C406.512 117.424 404.143 117.107 401.884 115.656C399.595 114.215 397.834 111.696 396.62 108.158C395.405 104.62 395.259 101.58 396.152 99.0474C397.044 96.5148 398.758 94.8298 401.226 93.9831C403.664 93.1465 406.022 93.4339 408.281 94.885C410.54 96.3362 412.292 98.8256 413.506 102.363C414.72 105.901 414.876 108.971 413.984 111.504C413.092 114.036 411.417 115.741 408.979 116.578ZM477.385 105.299C478.901 104.779 480.245 103.853 481.426 102.55C482.578 101.258 483.252 99.9296 483.449 98.5661L477.006 80.3734C476.789 85.0669 474.768 88.0866 470.933 89.4026C469.298 89.9637 467.546 89.7008 466.021 89.1278C463.817 88.3223 461.332 87.1812 458.27 88.232L458.151 88.2728L458.028 87.9161L458.563 87.7324C461.685 86.6612 464.307 85.2962 466.44 83.6672C468.572 82.0381 470.076 80.1264 470.941 77.9022C471.817 75.7077 471.826 73.4115 471 71.0034C470.194 68.6548 468.767 66.9179 466.699 65.7335C462.554 63.4341 456.969 63.6225 450.637 65.7955L424.772 74.6712C427.091 78.4279 429.332 83.4078 431.464 89.6213L435.514 101.424C437.636 107.608 438.926 112.914 439.402 117.303L456.08 111.58C453.761 107.823 451.52 102.843 449.398 96.6597L448.541 94.1624C449.005 93.7706 449.836 93.3856 451.055 92.9673C455.871 91.3146 458.743 94.5496 461.757 98.2007C465.455 102.78 469.339 108.094 477.385 105.299ZM444.573 82.5976L452.718 79.8023C455.602 78.8127 458.123 79.4763 458.847 81.5871C459.623 83.8466 458.029 85.7889 454.819 86.8907L446.97 89.584L444.573 82.5976ZM508.105 94.6909C514.378 92.5383 519.185 89.7923 522.445 86.4139C525.676 83.0456 526.782 78.9108 525.272 74.5109C524.007 70.8244 521.304 68.6615 518.188 68.1025C515.082 67.5732 511.217 67.7365 507.617 68.5734C500.304 70.0195 493.338 72.4764 492.185 69.1169C491.848 68.1359 492.346 67.1673 493.63 66.162C494.913 65.1567 496.704 64.2762 499.023 63.4804C502.086 62.4296 505.301 61.8248 508.629 61.6463C511.957 61.4679 514.743 61.7415 516.975 62.4375L511.691 47.0376C509.295 47.0289 506.455 47.2726 503.139 47.779C499.824 48.2853 496.67 49.0685 493.727 50.0785C489.624 51.4864 486.16 53.2067 483.375 55.259C480.561 57.3214 478.544 59.6751 477.375 62.3691C476.206 65.0632 476.091 67.8275 477.07 70.6815C478.223 74.041 480.519 76.2771 483.19 77.0885C485.871 77.9296 489.123 78.1097 492.399 77.5838C500.519 76.4586 508.898 72.9853 509.938 76.0177C510.591 77.9204 508.242 79.7899 502.921 81.6161C499.264 82.8709 495.424 83.5906 491.429 83.765C487.405 83.9495 483.832 83.4145 480.65 82.1802L485.614 98.388C488.835 98.3795 492.628 98.0081 497.006 97.3036C501.383 96.599 505.073 95.7315 508.105 94.6909Z" fill="white"/>
</g>
<defs>
<filter id="filter0_d" x="0.0683594" y="0" width="586.371" height="393.566" filterUnits="userSpaceOnUse" color-interpolation-filters="sRGB">
<feFlood flood-opacity="0" result="BackgroundImageFix"/>
<feColorMatrix in="SourceAlpha" type="matrix" values="0 0 0 0 0 0 0 0 0 0 0 0 0 0 0 0 0 0 127 0" result="hardAlpha"/>
<feOffset dx="-24" dy="33"/>
<feGaussianBlur stdDeviation="15"/>
<feComposite in2="hardAlpha" operator="out"/>
<feColorMatrix type="matrix" values="0 0 0 0 0 0 0 0 0 0 0 0 0 0 0 0 0 0 0.25 0"/>
<feBlend mode="normal" in2="BackgroundImageFix" result="effect1_dropShadow"/>
<feBlend mode="normal" in="SourceGraphic" in2="effect1_dropShadow" result="shape"/>
</filter>
</defs>
</svg>
