<svg width="343" height="43" viewBox="0 0 343 43" fill="rgba(219, 244, 41, 1)"
    xmlns="http://www.w3.org/2000/svg">
        <path fill-rule="evenodd" clip-rule="evenodd" d="M34.1 40.73C32.7874 39.7887 31.6644 38.608 30.79 37.25L30.6912 37.112C28.8506 34.5409 26.8801 31.7884 21.3 30.58C20.0823 30.2765 18.8347 30.1088 17.58 30.08V32C17.58 36.49 18.16 40 19.37 42.36C11.62 42.23 7.75 42.16 0 42C0.673624 39.8263 1.13577 37.5926 1.38 35.33C1.69788 32.6753 1.85484 30.0037 1.85 27.33V15.72C1.83831 12.8497 1.6714 9.98223 1.35 7.13C1.11495 4.71763 0.663129 2.33132 0 0H32.58C40.43 0 46.41 2.58 49.83 8.21C51.5754 11.2086 52.4579 14.6313 52.38 18.1C52.38 23.62 50.62 27.43 47.08 29.7C43.54 31.97 38.82 32.1 32.93 31.06L30.64 30.65V31.08H30.82C33.6606 31.6677 36.371 32.7654 38.82 34.32C40.6285 35.2447 42.5972 35.8149 44.62 36C45.2855 36.0692 45.9218 36.1501 46.5287 36.2273L46.5289 36.2273L46.529 36.2273L46.5291 36.2273C50.4818 36.73 53.1897 37.0743 54.62 33C54.6561 39.8033 54.6765 40.2045 54.7039 40.7413C54.7145 40.9486 54.7261 41.1761 54.74 41.8C53.5364 42.2506 52.2727 42.5202 50.99 42.6C49.1111 42.8161 47.2213 42.9229 45.33 42.92C39.5 42.93 36.15 42.17 34.1 40.73ZM17.58 25.31C22.78 26.63 25.38 27.19 30.58 28.15C34.3 28.84 36.64 27.69 36.64 24.67C36.64 21.65 34.27 19.79 30.75 19.3C25.48 18.57 22.84 18.15 17.57 17.17L17.58 25.31ZM56.09 42.71C56.7451 42.1499 57.2069 41.3976 57.41 40.56C57.7524 39.3096 57.9108 38.016 57.88 36.72V24.72C57.88 20.81 57.7 16.54 57.38 11.89C57.06 7.24 56.62 3.22 56.09 0H75.46C74.9 3.34 74.46 7.54 74.11 12.26C73.76 16.98 73.61 21.32 73.61 25.26V37.26C73.5779 38.5384 73.7466 39.8139 74.11 41.04C74.1953 41.4093 74.3604 41.7556 74.5936 42.0544C74.8268 42.3532 75.1225 42.5975 75.46 42.77C67.7161 42.77 63.8461 42.75 56.1083 42.7101L56.105 42.7101L56.09 42.71ZM80.0258 42.1023C79.7945 42.3941 79.5024 42.6322 79.17 42.8C88.5966 42.82 98.03 42.8366 107.47 42.85C115.58 42.84 121.88 42.61 126.39 40.48C130.9 38.35 133.16 34.83 133.16 27.83C133.26 20.8888 130.857 14.1438 126.39 8.82997C124.089 6.04698 121.198 3.81145 117.925 2.2858C114.652 0.760157 111.081 -0.017282 107.47 0.0099698H79.17C79.72 3.48997 80.17 7.68997 80.51 12.49C80.85 17.29 81.01 21.5 81.01 25.29V37.29C81.0432 38.5816 80.8745 39.8704 80.51 41.11C80.4224 41.4719 80.2572 41.8105 80.0258 42.1023ZM106.21 37.41C102.4 37.62 100.49 37.71 96.69 37.85L96.67 22.71C100.47 22.58 102.38 22.51 106.19 22.32C113 22 117 25.25 117 30.17C117 35.09 113 37.05 106.21 37.41ZM134.41 42.54C135.118 41.3875 135.578 40.1001 135.76 38.76C136.101 36.7449 136.265 34.7037 136.25 32.66V20.88C136.25 17.77 136.09 14.31 135.76 10.39C135.43 6.47 135 2.94 134.41 0H162.71C170.82 0 177.14 1.82 181.63 4.6C186.12 7.38 188.4 11.2 188.4 17.82C188.4 24.44 186.13 31.17 181.63 35.63C177.13 40.09 170.82 42 162.71 42.14L134.41 42.54ZM151.93 31.54L161.45 30C168.25 28.9 172.26 25.63 172.26 20.83C172.26 16.03 168.26 14.12 161.45 15.18L161.035 15.2454C157.497 15.8026 155.599 16.1015 151.93 16.66V31.54ZM189.65 42.93C193.787 40.5451 198.439 39.1968 203.21 39C207.826 38.7698 212.217 39.9553 216.383 41.08C219.815 42.0066 223.094 42.892 226.22 42.91C229.315 42.9274 233.318 40.3519 234.251 39.7514C234.371 39.6742 234.44 39.6296 234.45 39.6275L234.45 39.63C234.452 39.628 234.452 39.6272 234.45 39.6275L234.487 34.541C234.541 26.9249 234.572 22.6661 234.63 16.43C232.901 17.6201 230.994 18.5281 228.98 19.12C226.537 19.935 224.027 20.5372 221.48 20.92C215.75 21.68 212.88 22.08 207.15 22.92V11.04C207.147 8.69656 207.324 6.35631 207.68 4.04004C207.771 2.61581 208.225 1.23866 209 0.0400391H189.68C190.312 1.64788 190.745 3.32702 190.97 5.04004C191.303 7.29812 191.47 9.57755 191.47 11.86V23.4C191.47 26.45 191.32 29.86 191 33.64C190.773 36.7651 190.322 39.8698 189.65 42.93ZM236.31 41.21C236.87 37.76 237.31 33.62 237.66 29.11C238.01 24.6 238.15 20.66 238.15 17.21V5.86C238.198 4.43019 238.033 3.00123 237.66 1.62C237.32 0.62 236.87 0.18 236.31 0H282.13C282.97 1.21 283.39 2.37 284.24 5.62C282.33 4.84 278.58 4.34 272.96 4.19C265.31 3.99 261.48 3.98 253.83 4.09V7C259.42 6.79 262.21 6.74 267.83 6.76C271.03 6.76 273.57 6.76 275.51 6.68V13.12C272.982 12.6181 270.407 12.3902 267.83 12.44C262.24 12.44 259.45 12.5 253.83 12.73V19.36C261.39 19.22 265.17 19.22 272.72 19.41C278.94 19.57 283.39 18.41 286.11 15.97C285.05 24.97 284.51 29.97 283.45 41.28C267.73 41.2067 252.017 41.1833 236.31 41.21ZM318.62 28.3C319.447 31.137 320.555 33.8841 321.93 36.5C324 40.26 327.34 42.94 333.16 42.87C335.111 42.8495 337.037 42.431 338.82 41.64C340.305 41.081 341.604 40.1181 342.57 38.86C342.553 36.4513 342.533 34.4452 342.515 32.5688C342.48 28.9531 342.45 25.8183 342.45 21.21C340.8 24.2 337.45 25.98 332.45 24.77C330.251 24.2384 328.243 23.1063 326.65 21.5C326.46 21.3037 326.269 21.1028 326.076 20.8992C324.23 18.9562 322.153 16.7694 318.65 16H318.47V15.24L320.76 15.76C326.65 17.15 331.37 17.57 334.91 16.9C338.45 16.23 340.21 14.02 340.21 10.56C340.224 9.41707 340.005 8.28326 339.567 7.22766C339.128 6.17206 338.48 5.21677 337.66 4.42C334.24 1 328.26 0 320.41 0H287.83C288.502 0.571645 288.975 1.34208 289.18 2.2C289.528 3.45658 289.697 4.75617 289.68 6.06V17.27C289.68 21.23 289.53 25.4 289.21 29.83C288.959 33.6756 288.498 37.5046 287.83 41.3C295.58 41.35 299.45 41.38 307.2 41.46C305.901 34.4164 305.301 27.2616 305.41 20.1V16.71C306.636 16.4431 307.904 16.4431 309.13 16.71C314.81 17.63 316.75 22.68 318.62 28.3ZM318.41 13.11C313.21 11.98 310.61 11.5 305.41 10.71L305.4 6.55C310.67 7.17 313.31 7.53 318.58 8.39C322.1 8.92 324.47 10.23 324.47 11.92C324.47 13.61 322.13 13.92 318.41 13.11Z" />
</svg>
