<svg xmlns="http://www.w3.org/2000/svg" xmlns:xlink="http://www.w3.org/1999/xlink" viewBox="0 0 15895.15 4283.23"><defs><style>.cls-1,.cls-2,.cls-3,.cls-4{fill:none;}.cls-2{stroke:#1c1cd2;}.cls-2,.cls-3,.cls-4{stroke-linecap:round;stroke-linejoin:round;stroke-width:10px;}.cls-3{stroke:#fe3176;}.cls-4{stroke:#dbf429;}.cls-5{fill:url(#riddlpattern);}</style><pattern id="riddlpattern" data-name="riddlpattern" width="1482.2" height="2500.35" patternUnits="userSpaceOnUse" viewBox="0 0 1482.2 2500.35"><rect class="cls-1" width="1482.2" height="2500.35"/><path class="cls-2" d="M1241.58,2084.12a194,194,0,0,1-189.85,45.58h0a193.08,193.08,0,0,1-78.05-45.58,193.08,193.08,0,0,1,78.05-45.58h0a193.61,193.61,0,0,1,189.85,45.58Z"/><path class="cls-2" d="M1179.76,2084.12a71.79,71.79,0,0,1-16.21,45.57,194.59,194.59,0,0,1-111.82,0h0a72.15,72.15,0,0,1,0-91.16h0a194.59,194.59,0,0,1,111.82,0A71.81,71.81,0,0,1,1179.76,2084.12Z"/><path class="cls-2" d="M1085,2096.78l22.62-22.61,22.61,22.61"/><path class="cls-3" d="M828.73,2416.87a24.51,24.51,0,1,1,48.08-6.73,24,24,0,0,1-.94,6.72"/><circle class="cls-3" cx="852.3" cy="2494.57" r="81.19"/><polyline class="cls-3" points="852.3 2442.49 852.3 2494.57 891.4 2526.74"/><path class="cls-4" d="M1343.34,2452.57l.6-40.24,39.65-39.65-.94,63,63-.94L1406,2474.41l-41.63.62a45.78,45.78,0,0,1-9.61,50.62l-49.66,49.66a45.77,45.77,0,0,1-64.74,0h0a45.76,45.76,0,0,1,0-64.73l49.66-49.66A45.79,45.79,0,0,1,1343.34,2452.57Z"/><path class="cls-3" d="M120.73,2020.29a24.51,24.51,0,1,1,48.08-6.73,24,24,0,0,1-.94,6.72"/><circle class="cls-3" cx="144.3" cy="2097.99" r="81.19"/><polyline class="cls-3" points="144.3 2045.91 144.3 2097.99 183.41 2130.16"/><polygon class="cls-4" points="651.1 2070.57 594.93 2070.57 594.93 1980.26 522.78 2097.67 578.95 2097.67 578.95 2187.98 651.1 2070.57"/><rect class="cls-2" x="262.3" y="2424.39" width="221.35" height="182.12" rx="26.81"/><rect class="cls-2" x="280.01" y="2445.32" width="185.94" height="132.34" rx="6.08"/><polyline class="cls-2" points="313.67 2382.23 372.98 2424.39 465.95 2354.89"/><path class="cls-2" d="M500.48,834a193.89,193.89,0,0,1-189.85,45.57h0a193,193,0,0,1-78-45.57,193,193,0,0,1,78-45.58h0A193.61,193.61,0,0,1,500.48,834Z"/><path class="cls-2" d="M438.66,834a71.82,71.82,0,0,1-16.21,45.56,194.36,194.36,0,0,1-111.82,0h0a72.17,72.17,0,0,1,0-91.15h0a194.59,194.59,0,0,1,111.82,0A71.85,71.85,0,0,1,438.66,834Z"/><path class="cls-2" d="M343.92,846.61,366.54,824l22.61,22.61"/><path class="cls-3" d="M861.83,770.12a24.51,24.51,0,1,1,48.08-6.73,24,24,0,0,1-.94,6.72"/><circle class="cls-3" cx="885.4" cy="847.82" r="81.19"/><polyline class="cls-3" points="885.4 795.74 885.4 847.82 924.51 879.99"/><path class="cls-3" d="M87.63,1166.7a24.51,24.51,0,1,1,48.08-6.73,24,24,0,0,1-.94,6.72"/><circle class="cls-3" cx="111.2" cy="1244.4" r="81.19"/><polyline class="cls-3" points="111.2 1192.31 111.2 1244.4 150.3 1276.57"/><path class="cls-4" d="M602.24,1202.4l.6-40.24,39.65-39.66-.94,63,63-.94-39.66,39.65-41.64.62a45.77,45.77,0,0,1-9.6,50.63L564,1325.14a45.77,45.77,0,0,1-64.74,0h0a45.77,45.77,0,0,1,0-64.74l49.66-49.66A45.79,45.79,0,0,1,602.24,1202.4Z"/><polygon class="cls-4" points="1392.2 820.4 1336.03 820.4 1336.03 730.09 1263.88 847.49 1320.05 847.49 1320.05 937.81 1392.2 820.4"/><path class="cls-3" d="M1184.3,1666.4a194,194,0,0,1,189.85-45.58h0a193.08,193.08,0,0,1,78,45.58,193.08,193.08,0,0,1-78,45.58h0a193.61,193.61,0,0,1-189.85-45.58Z"/><path class="cls-3" d="M1246.12,1666.4a71.81,71.81,0,0,1,16.21-45.57,194.59,194.59,0,0,1,111.82,0h0a72.15,72.15,0,0,1,0,91.16h0a194.59,194.59,0,0,1-111.82,0A71.81,71.81,0,0,1,1246.12,1666.4Z"/><path class="cls-3" d="M1340.86,1653.74l-22.62,22.61-22.61-22.61"/><path class="cls-4" d="M795.34,1602.72a24.51,24.51,0,1,1,47.15-.32"/><circle class="cls-4" cx="819.44" cy="1680.27" r="81.19"/><polyline class="cls-4" points="819.44 1628.19 819.44 1680.27 858.55 1712.44"/><polygon class="cls-2" points="420.9 1652.85 364.73 1652.85 364.73 1562.54 292.58 1679.95 348.75 1679.95 348.75 1770.26 420.9 1652.85"/><rect class="cls-2" x="1003.4" y="1174.22" width="221.35" height="182.12" rx="26.81"/><rect class="cls-2" x="1021.11" y="1195.15" width="185.94" height="132.34" rx="6.08"/><line class="cls-2" x1="1148.12" y1="1343.09" x2="1160.9" y2="1343.09"/><line class="cls-2" x1="1178.79" y1="1343.09" x2="1191.58" y2="1343.09"/><polyline class="cls-2" points="1054.77 1132.06 1114.08 1174.22 1207.05 1104.71"/><circle class="cls-3" cx="852.3" cy="-5.78" r="81.19"/><polyline class="cls-3" points="852.3 -57.86 852.3 -5.78 891.4 26.39"/><path class="cls-4" d="M1343.34-47.77l.6-40.25,39.65-39.65-.94,63,63-.94L1406-25.94l-41.63.62a45.8,45.8,0,0,1-9.61,50.63L1305.11,75a45.79,45.79,0,0,1-64.74,0h0a45.77,45.77,0,0,1,0-64.74L1290-39.43A45.78,45.78,0,0,1,1343.34-47.77Z"/><circle class="cls-4" cx="1560.54" cy="430.1" r="81.19"/><polygon class="cls-2" points="1162 402.68 1105.83 402.68 1105.83 312.37 1033.68 429.77 1089.85 429.77 1089.85 520.09 1162 402.68"/><path class="cls-3" d="M443.19,416.23A194,194,0,0,1,633,370.65h0a193,193,0,0,1,78.05,45.58,192.94,192.94,0,0,1-78.05,45.57h0a193.66,193.66,0,0,1-189.85-45.57Z"/><path class="cls-3" d="M505,416.23a71.79,71.79,0,0,1,16.21-45.57,194.56,194.56,0,0,1,111.81,0h0a72.14,72.14,0,0,1,0,91.15h0a194.39,194.39,0,0,1-111.81,0A71.76,71.76,0,0,1,505,416.23Z"/><path class="cls-3" d="M599.76,403.56l-22.62,22.62-22.61-22.62"/><path class="cls-4" d="M54.24,352.55a24.51,24.51,0,1,1,47.15-.32"/><circle class="cls-4" cx="78.34" cy="430.1" r="81.19"/><polyline class="cls-4" points="78.34 378.01 78.34 430.1 117.45 462.27"/><rect class="cls-2" x="262.3" y="-75.95" width="221.35" height="182.12" rx="26.81"/><rect class="cls-2" x="280.01" y="-55.03" width="185.94" height="132.34" rx="6.08"/><line class="cls-2" x1="407.01" y1="92.91" x2="419.8" y2="92.91"/><line class="cls-2" x1="437.69" y1="92.91" x2="450.48" y2="92.91"/></pattern></defs><g id="Layer_2" data-name="Layer 2"><g id="Layer_1-2" data-name="Layer 1"><rect class="cls-5" width="15895.15" height="4283.23"/></g></g></svg>