<svg width="347" height="131" viewBox="0 0 347 131" fill="none" xmlns="http://www.w3.org/2000/svg">
<path d="M3.36855 28.5742L1.12256 122.989L32.7558 94.8761L34.9519 2.55957L3.36855 28.5742Z" fill="#FE3176"/>
<path d="M315.838 130.475L342.751 102.25L316.524 101.626L315.838 130.475Z" fill="#FE3176"/>
<path d="M32.7558 94.876L1.12256 122.989L315.838 130.475L316.524 101.626L32.7558 94.876Z" fill="#FE3176"/>
<path d="M342.751 102.25L344.947 9.93384L316.524 101.626L342.751 102.25Z" fill="#FE3176"/>
<path d="M31.1317 93.5629L33.3028 2.29541L344.871 9.70717L342.7 100.975L31.1317 93.5629Z" fill="#1C1CD2" stroke="black" stroke-width="3.14805"/>
<path d="M31.319 0.898926L2.30837 29.074L0.0623779 123.489L30.1346 94.814L31.319 0.898926Z" fill="black"/>
<path d="M131.22 63.9609C130.573 61.0368 130.314 57.3405 130.42 52.8714L130.463 51.0491L137.514 51.2168C140.009 51.2761 141.83 51.3846 142.976 51.5638L143.09 46.7693C141.873 46.8489 140.049 46.8706 137.619 46.8128L130.568 46.6451L130.659 42.8268L140.118 43.0518C142.266 43.1029 143.912 43.2506 145.057 43.4732C146.18 43.6953 147.018 44.0626 147.549 44.5744L146.257 33.191L119.789 32.5614C120.06 33.9571 120.257 35.6983 120.403 37.8073C120.548 39.9163 120.587 41.9143 120.541 43.8451L120.336 52.4579C120.29 54.3887 120.156 56.3825 119.911 58.4605C119.666 60.5386 119.387 62.2685 119.049 63.6714L131.22 63.9609ZM157.34 64.5823C157.377 63.042 157.777 60.8374 158.562 57.9473L158.91 56.9788L167.653 57.1868L167.978 58.1279C168.601 61.16 168.916 63.4033 168.903 64.8573L181.074 65.1469C179.654 61.8788 178.398 58.0936 177.328 53.8136L174.474 45.1281C174.017 43.3373 173.673 41.3755 173.398 39.2634C173.122 37.1513 172.948 35.3455 172.919 33.8253L154.804 33.3944C154.726 34.8469 154.489 36.5995 154.114 38.6961C153.738 40.7927 153.257 42.7783 152.714 44.6105L149.429 53.1499C148.017 57.7399 146.583 61.4394 145.126 64.2917L157.34 64.5823ZM162.06 47.7632C162.456 46.6222 162.867 44.852 163.338 42.4103L163.923 42.4243C164.238 44.711 164.586 46.5209 164.989 47.8329L166.739 52.7152L160.079 52.5567L162.06 47.7632ZM205.092 72.9249C207.153 72.9739 209.056 72.3463 210.781 71.0198L209.141 66.965C208.14 68.0048 206.782 68.5152 205.068 68.4744C204.547 68.462 204.027 68.4279 203.487 68.3283C202.947 68.2069 202.579 68.1547 201.976 67.9667C201.373 67.757 201.2 67.7312 200.533 67.4766C200.189 67.3381 199.952 67.2457 199.823 67.1992C199.651 67.13 198.49 66.6682 198.383 66.6222L198.395 66.1016C202.57 65.7885 206.144 64.2889 208.832 61.7046C211.498 59.1198 213.155 55.1868 213.27 50.349C213.37 46.1619 212.263 42.5105 210.305 39.9243C207.316 36.0111 202.547 33.9223 196.993 33.7902C192.307 33.6787 188.173 35.013 185.073 37.5441C181.952 40.0964 179.984 44.3475 179.86 49.5542C179.765 53.546 180.663 56.8668 182.532 59.5378C184.4 62.2087 186.96 64.0713 190.191 65.1467L190.178 65.6673C188.253 66.3162 186.705 67.4949 185.536 69.2036L188.112 72.2388C189.26 70.5078 190.93 69.6576 193.078 69.7087C194.032 69.7314 195.07 69.908 196.169 70.238C197.269 70.5681 198.215 70.9379 199.052 71.3268C200.662 72.0815 203.183 72.8795 205.092 72.9249ZM196.412 58.2182C194.611 58.1754 193.154 57.4027 192.038 55.9218C190.901 54.4404 190.364 52.3872 190.426 49.8055C190.487 47.2239 191.121 45.2202 192.305 43.794C193.49 42.3679 195.003 41.6875 196.804 41.7304C198.583 41.7727 200.041 42.5237 201.157 44.0046C202.272 45.4855 202.809 47.517 202.748 50.0987C202.687 52.6803 202.052 54.7057 200.868 56.1319C199.684 57.558 198.191 58.2606 196.412 58.2182ZM227.247 66.8747C231.412 66.9738 234.638 66.4211 236.946 65.1953C239.255 63.9695 240.425 62.2174 240.48 59.8961C240.582 56.5122 237.515 54.9849 234.079 54.3171C229.436 53.3383 224.002 53.6215 224.039 52.0812C224.06 51.1917 225.659 50.6003 228.284 50.6627C230.128 50.7066 231.966 50.9891 233.776 51.5314C235.587 52.0737 237.071 52.6517 238.229 53.2653L238.453 45.6516C235.1 44.2477 231.515 43.4895 227.697 43.3987C223.727 43.3042 220.674 43.8611 218.54 45.0693C216.384 46.2987 215.281 47.9222 215.233 49.9615C215.034 58.3356 231.697 54.9767 231.625 58.0357C231.601 59.0119 229.853 59.513 226.794 59.4402C225.167 59.4015 223.2 59.0725 220.913 58.4755C218.604 57.8779 216.624 57.1579 214.95 56.3583L214.752 64.7107C216.194 65.2226 218.201 65.7045 220.795 66.1569C223.368 66.5871 225.533 66.834 227.247 66.8747Z" fill="white"/>
</svg>
