<svg width="529" height="331" viewBox="0 0 529 331" fill="none" xmlns="http://www.w3.org/2000/svg">
<path d="M46.082 39.3074L1.68337 168.69L57.6585 143.71L101.07 17.2018L46.082 39.3074Z" fill="#1C1CD2"/>
<path d="M432.96 316.686L482.466 289.485L446.526 277.152L432.96 316.686Z" fill="#1C1CD2"/>
<path d="M57.6585 143.71L1.68337 168.69L432.96 316.686L446.526 277.152L57.6585 143.71Z" fill="#1C1CD2"/>
<path d="M482.466 289.485L525.878 162.977L446.526 277.152L482.466 289.485Z" fill="#1C1CD2"/>
<path d="M98.3417 16.3292L525.306 162.845L482.387 287.915L55.423 141.399L98.3417 16.3292Z" fill="#DBF429" stroke="black" stroke-width="4.55963"/>
<path d="M96.7797 13.3196L44.3986 39.5337L-4.73604e-05 168.917L54.0653 142.477L96.7797 13.3196Z" fill="black"/>
<path d="M209.706 143.51C210.091 139.19 211.35 133.972 213.452 127.848L214.309 125.351L223.971 128.666C227.39 129.84 229.856 130.786 231.361 131.535L233.615 124.964C231.899 124.542 229.371 123.774 226.042 122.631L216.38 119.316L218.175 114.083L231.137 118.531C234.081 119.541 236.289 120.465 237.773 121.274C239.227 122.072 240.223 122.945 240.732 123.884L243.927 107.601L207.657 95.1547C207.42 97.2002 206.931 99.6908 206.209 102.666C205.487 105.642 204.667 108.418 203.759 111.064L199.709 122.866C198.801 125.512 197.744 128.207 196.497 130.969C195.25 133.731 194.107 135.997 193.027 137.787L209.706 143.51ZM245.5 155.793C246.224 153.682 247.74 150.813 250.089 147.166L250.994 145.981L262.975 150.093L263.012 151.534C262.545 155.993 262 159.229 261.346 161.231L278.024 166.954C277.493 161.82 277.414 156.045 277.809 149.667L277.667 136.426C277.82 133.753 278.203 130.894 278.746 127.857C279.29 124.82 279.839 122.251 280.464 120.139L255.64 111.621C254.897 113.592 253.803 115.908 252.368 118.639C250.932 121.37 249.399 123.901 247.848 126.193L239.576 136.547C235.62 142.267 232.022 146.748 228.762 150.05L245.5 155.793ZM259.374 134.634C260.42 133.232 261.762 130.968 263.479 127.802L264.282 128.078C263.716 131.373 263.405 134.024 263.387 136.012L263.669 143.519L254.542 140.387L259.374 134.634ZM307.785 188.199C310.61 189.169 313.512 189.135 316.474 188.057L315.983 181.741C314.145 182.739 312.047 182.85 309.698 182.044C308.985 181.799 308.282 181.524 307.579 181.15C306.887 180.747 306.402 180.514 305.651 179.99C304.911 179.437 304.683 179.326 303.874 178.682C303.459 178.341 303.173 178.11 303.015 177.989C302.808 177.818 301.406 176.673 301.278 176.562L301.523 175.849C307.425 177.243 313.015 176.735 317.857 174.343C322.67 171.94 326.677 167.234 328.952 160.604C330.921 154.866 330.99 149.34 329.418 144.913C327.003 138.202 321.331 133.232 313.72 130.621C307.299 128.417 301.006 128.451 295.62 130.59C290.194 132.749 285.617 137.758 283.169 144.893C281.291 150.363 281.079 155.341 282.49 159.847C283.902 164.352 286.622 168.044 290.612 170.942L290.368 171.655C287.425 171.709 284.773 172.659 282.41 174.507L284.64 179.825C286.982 177.937 289.66 177.493 292.603 178.503C293.911 178.952 295.267 179.65 296.64 180.587C298.014 181.523 299.159 182.448 300.145 183.351C302.038 185.097 305.169 187.302 307.785 188.199ZM302.233 164.096C299.765 163.249 298.091 161.545 297.198 159.012C296.277 156.469 296.433 153.399 297.647 149.862C298.861 146.324 300.612 143.834 302.872 142.383C305.131 140.932 307.519 140.655 309.986 141.502C312.424 142.338 314.109 144.013 315.001 146.546C315.893 149.078 315.747 152.118 314.533 155.656C313.319 159.194 311.557 161.713 309.298 163.164C307.039 164.616 304.671 164.933 302.233 164.096ZM341.022 189.536C346.73 191.495 351.426 192.143 355.15 191.46C358.873 190.777 361.256 188.87 362.347 185.688C363.969 181.061 360.401 177.61 355.949 175.185C349.966 171.803 342.339 169.817 343.064 167.706C343.482 166.487 345.948 166.37 349.545 167.604C352.072 168.472 354.487 169.666 356.75 171.206C359.012 172.747 360.809 174.194 362.139 175.548L365.779 165.133C361.763 161.728 357.145 159.113 351.912 157.318C346.472 155.451 342.014 154.885 338.538 155.619C335.023 156.374 332.791 158.133 331.832 160.928C327.894 172.403 352.372 175.054 350.934 179.246C350.475 180.584 347.841 180.511 343.649 179.073C341.42 178.308 338.847 176.993 335.951 175.168C333.024 173.333 330.606 171.473 328.644 169.637L324.716 181.083C326.483 182.42 329.044 183.964 332.428 185.723C335.793 187.442 338.674 188.73 341.022 189.536Z" fill="black"/>
</svg>
