<svg width="529" height="331" viewBox="0 0 529 331" fill="none" xmlns="http://www.w3.org/2000/svg">
<path d="M14.7544 199.673L59.1472 329.058L87.9923 274.972L44.586 148.462L14.7544 199.673Z" fill="#1C1CD2"/>
<path d="M490.43 181.082L512.806 129.216L476.866 141.547L490.43 181.082Z" fill="#1C1CD2"/>
<path d="M87.9923 274.972L59.1472 329.058L490.43 181.082L476.866 141.547L87.9923 274.972Z" fill="#1C1CD2"/>
<path d="M512.806 129.216L469.4 2.7063L476.866 141.547L512.806 129.216Z" fill="#1C1CD2"/>
<path d="M84.8092 274.521L41.8962 149.449L468.867 2.953L511.78 128.025L84.8092 274.521Z" fill="#DBF429" stroke="black" stroke-width="4.55963"/>
<path d="M38.8156 148.032L13.5645 200.885L57.9573 330.27L84.3993 276.205L38.8156 148.032Z" fill="black"/>
<path d="M166.839 195.888C166.115 193.777 165.55 190.581 165.164 186.261L165.151 184.77L177.132 180.659L178.047 181.774C180.416 185.58 181.972 188.469 182.685 190.451L199.364 184.728C195.793 181.002 192.185 176.491 188.58 171.215L180.338 160.851C178.818 158.647 177.365 156.155 175.93 153.425C174.494 150.694 173.35 148.328 172.547 146.278L147.722 154.795C148.346 156.807 148.905 159.307 149.449 162.344C149.992 165.381 150.336 168.32 150.519 171.082L150.347 184.333C150.736 191.278 150.647 197.024 150.101 201.631L166.839 195.888ZM164.799 170.668C164.764 168.919 164.433 166.308 163.845 162.755L164.648 162.479C166.224 165.427 167.606 167.711 168.813 169.291L173.644 175.044L164.517 178.175L164.799 170.668ZM229.956 174.232C232.84 173.242 235.254 171.949 237.238 170.371C241.206 167.215 243.015 162.706 241.393 157.979C240.608 155.69 239.27 153.923 237.391 152.707C233.613 150.314 228.603 150.338 222.984 152.266L221.944 152.623L221.668 151.821L221.906 151.739C229.518 149.227 234.515 143.259 232.344 137.125C230.099 130.485 222.155 129.124 213.931 132.078L186.609 141.453C188.939 145.339 191.15 150.329 193.241 156.424L197.291 168.226C199.372 174.291 200.69 179.588 201.237 184.086L229.956 174.232ZM205.677 147.438L213.406 144.786C216.617 143.685 219.127 144.219 219.871 146.389C220.636 148.619 218.954 150.592 215.773 151.684L208.043 154.336L205.677 147.438ZM209.757 159.33L218.884 156.199C222.243 155.046 225.053 155.777 225.91 158.274C226.767 160.772 225.007 163.004 221.677 164.146L212.491 167.298L209.757 159.33ZM271.22 161.038C277.612 158.845 282.508 155.005 285.466 149.969C288.394 144.944 288.901 138.19 286.443 131.025C284.474 125.287 281.135 120.883 277.177 118.354C271.15 114.54 263.622 114.099 256.011 116.71C249.589 118.914 244.643 122.804 241.705 127.799C238.748 132.835 238.21 139.599 240.659 146.734C243.117 153.899 247.693 158.908 253.12 161.067C258.516 163.237 264.798 163.241 271.22 161.038ZM267.497 150.186C265.029 151.033 262.661 150.716 260.401 149.264C258.113 147.823 256.351 145.304 255.137 141.766C253.923 138.228 253.777 135.188 254.67 132.656C255.562 130.123 257.277 128.438 259.744 127.591C262.182 126.755 264.54 127.042 266.799 128.494C269.059 129.945 270.81 132.435 272.024 135.972C273.238 139.51 273.394 142.58 272.502 145.113C271.609 147.645 269.934 149.35 267.497 150.186ZM320.78 144.033C327.558 141.708 332.21 138.317 334.755 133.822C337.27 129.337 337.492 124.077 335.401 117.982L332.229 108.736C330.036 102.344 328.717 97.0478 328.273 92.8471L311.594 98.5696C313.832 102.089 316.072 107.069 318.286 113.52L320.122 118.872C321.999 124.342 320.713 128.538 316.076 130.129C311.438 131.72 307.877 129.187 306 123.717L304.164 118.365C302.032 112.152 300.743 106.845 300.267 102.456L283.589 108.179C285.908 111.935 288.148 116.916 290.28 123.129L293.452 132.375C295.686 138.886 299.53 143.116 304.346 144.754C309.141 146.432 314.596 146.155 320.78 144.033ZM376.495 123.953C374.176 120.197 371.936 115.217 369.814 109.033L365.275 95.8028L370.567 93.9871C373.718 92.9058 376.688 92.6512 379.496 93.1832L371.679 77.9543L335.021 90.5316L338.201 107.352C340.031 105.229 342.531 103.606 345.712 102.515L351.391 100.567L355.93 113.796C358.052 119.98 359.341 125.287 359.817 129.676L376.495 123.953Z" fill="black"/>
</svg>
