<svg width="529" height="331" viewBox="0 0 529 331" fill="none" xmlns="http://www.w3.org/2000/svg">
<path d="M46.082 39.5068L1.68335 168.89L57.6585 143.909L101.07 17.4012L46.082 39.5068Z" fill="#FE3176"/>
<path d="M432.96 316.885L482.466 289.685L446.526 277.352L432.96 316.885Z" fill="#FE3176"/>
<path d="M57.6585 143.909L1.68335 168.89L432.96 316.885L446.526 277.352L57.6585 143.909Z" fill="#FE3176"/>
<path d="M482.466 289.685L525.878 163.177L446.526 277.352L482.466 289.685Z" fill="#FE3176"/>
<path d="M55.7377 141.421L98.6563 16.3503L525.62 162.866L482.702 287.936L55.7377 141.421Z" fill="#1C1CD2" stroke="black" stroke-width="4.55963"/>
<path d="M96.7798 13.5189L44.3987 39.733L0 169.116L54.0654 142.676L96.7798 13.5189Z" fill="black"/>
<path d="M173.736 131.928C175.252 132.448 176.881 132.542 178.613 132.239C180.316 131.926 181.663 131.292 182.656 130.336L188.741 112.021C185.688 115.592 182.239 116.735 178.404 115.419C176.769 114.858 175.547 113.575 174.695 112.186C173.45 110.197 172.189 107.77 169.127 106.719L169.008 106.678L169.131 106.322L169.666 106.505C172.787 107.577 175.695 108.109 178.378 108.133C181.062 108.156 183.423 107.571 185.471 106.346C187.51 105.152 188.927 103.345 189.753 100.937C190.559 98.5886 190.5 96.3416 189.595 94.1369C187.735 89.7768 183.211 86.4966 176.879 84.3236L151.014 75.4479C150.538 79.8371 149.249 85.1436 147.116 91.3571L143.066 103.16C140.944 109.343 138.704 114.323 136.384 118.08L153.063 123.803C153.539 119.414 154.828 114.108 156.95 107.924L157.807 105.427C158.414 105.402 159.306 105.609 160.525 106.027C165.341 107.68 165.621 111.996 165.759 116.729C165.866 122.614 165.669 129.193 173.736 131.928ZM161.776 93.8619L169.921 96.6572C172.805 97.6468 174.387 99.7183 173.663 101.829C172.888 104.089 170.437 104.643 167.227 103.542L159.378 100.848L161.776 93.8619ZM202.117 140.636C202.511 136.485 203.79 131.208 206.004 124.757L210.054 112.954C212.268 106.503 214.508 101.523 216.746 98.0043L200.068 92.2811C199.623 96.4817 198.304 101.778 196.111 108.17L192.061 119.972C189.877 126.335 187.667 131.325 185.438 134.913L202.117 140.636ZM229.26 149.951C236.008 152.267 242.17 152.321 247.318 150.199C252.466 148.078 256.652 143.334 259.05 136.347C261.427 129.42 261.046 123.075 258.285 118.24C255.525 113.405 250.578 109.614 243.889 107.319L223.197 100.218C222.961 102.264 222.472 104.754 221.749 107.73C221.027 110.705 220.208 113.481 219.3 116.127L215.25 127.93C214.342 130.576 213.284 133.27 212.037 136.032C210.79 138.795 209.647 141.061 208.568 142.85L229.26 149.951ZM233.716 119.147L239.781 121.228C241.832 121.932 243.351 123.218 244.339 125.085C245.316 126.982 245.397 129.07 244.601 131.389C243.795 133.738 242.449 135.336 240.553 136.214C238.627 137.082 236.638 137.164 234.557 136.45L228.492 134.368L233.716 119.147ZM276.53 166.172C283.278 168.488 289.44 168.542 294.588 166.42C299.736 164.299 303.922 159.555 306.32 152.568C308.697 145.641 308.316 139.296 305.555 134.461C302.795 129.626 297.848 125.835 291.159 123.54L270.467 116.439C270.231 118.485 269.741 120.975 269.019 123.951C268.297 126.926 267.478 129.702 266.57 132.348L262.52 144.151C261.612 146.797 260.554 149.491 259.307 152.253C258.06 155.016 256.917 157.282 255.838 159.071L276.53 166.172ZM280.986 135.368L287.051 137.449C289.102 138.153 290.621 139.439 291.609 141.306C292.586 143.203 292.667 145.291 291.871 147.61C291.065 149.959 289.719 151.557 287.823 152.435C285.897 153.303 283.908 153.385 281.827 152.671L275.762 150.589L280.986 135.368ZM334.186 186.987C335.851 187.558 337.926 187.805 339.139 187.756C340.362 187.678 341.626 187.58 341.755 187.591L347.097 172.41C343.89 173.137 339.898 172.665 335.112 171.022L323.012 166.87L327.735 153.105C329.755 147.219 331.976 142.298 334.416 138.383L317.737 132.66C317.501 134.706 317.011 137.196 316.289 140.172C315.567 143.147 314.748 145.923 313.84 148.569L309.79 160.372C308.861 163.077 307.743 165.95 306.394 169.01C305.034 172.099 303.821 174.474 302.792 176.214C304.245 175.948 306.084 175.915 308.329 176.054C310.575 176.193 312.926 176.701 315.393 177.548C322.688 179.918 328.051 185.015 334.186 186.987ZM383.645 202.929L391.303 187.779C390.087 188.126 388.417 188.151 386.342 187.904C384.267 187.657 381.074 186.794 376.763 185.315L366.06 181.642L367.642 177.034L377.423 180.391C380.544 181.462 383.001 182.438 384.792 183.318L386.945 177.045C385.229 176.623 382.701 175.855 379.371 174.712L369.59 171.356L371.304 166.361L383.701 170.615C386.674 171.636 388.883 172.56 390.337 173.358C391.791 174.156 392.787 175.029 393.296 175.968L396.58 159.716L360.786 147.432C360.549 149.478 360.06 151.969 359.338 154.944C358.616 157.92 357.796 160.696 356.888 163.342L352.838 175.144C351.93 177.79 350.873 180.484 349.626 183.247C348.379 186.009 347.236 188.275 346.156 190.065L383.645 202.929ZM428.458 219.337C429.975 219.858 431.604 219.952 433.336 219.649C435.039 219.336 436.386 218.702 437.378 217.746L443.464 199.431C440.411 203.002 436.962 204.145 433.126 202.829C431.491 202.268 430.27 200.985 429.418 199.595C428.173 197.606 426.912 195.18 423.85 194.129L423.731 194.088L423.853 193.732L424.388 193.915C427.51 194.986 430.418 195.519 433.101 195.543C435.785 195.566 438.146 194.981 440.194 193.756C442.232 192.562 443.65 190.755 444.476 188.347C445.282 185.998 445.222 183.751 444.317 181.547C442.457 177.187 437.934 173.906 431.601 171.733L405.737 162.858C405.261 167.247 403.971 172.553 401.839 178.767L397.789 190.57C395.667 196.753 393.427 201.733 391.107 205.49L407.786 211.213C408.262 206.824 409.551 201.518 411.673 195.334L412.53 192.837C413.136 192.812 414.029 193.019 415.248 193.437C420.064 195.09 420.344 199.406 420.481 204.139C420.589 210.024 420.391 216.602 428.458 219.337ZM416.498 181.272L424.644 184.067C427.528 185.057 429.11 187.128 428.386 189.239C427.61 191.498 425.16 192.053 421.949 190.951L414.101 188.258L416.498 181.272Z" fill="white"/>
</svg>
