<svg width="762" height="1760" viewBox="0 0 762 1760" fill="none" xmlns="http://www.w3.org/2000/svg">
<g clip-path="url(#clip0)">
<path fill-rule="evenodd" clip-rule="evenodd" d="M752.709 1754.03C755.695 1756.23 758.472 1758.22 761.014 1760H762V1509.55C757.925 1508.44 752.299 1506.54 745.275 1503.84C715.382 1492.33 711.814 1497.92 737.816 1515.16C765.346 1533.41 748.726 1530.41 714.998 1520.58C691.459 1513.72 694.491 1516.23 705.772 1525.59H705.776L705.784 1525.6L705.8 1525.61C708.483 1527.84 711.631 1530.45 714.998 1533.41C743.432 1550.26 745.275 1556.23 711.136 1545C709.009 1544.3 707.007 1543.63 705.129 1543.01L705.044 1542.98C679.118 1534.37 677.051 1533.69 697.446 1556.23C698.1 1556.95 698.733 1557.65 699.345 1558.33H699.346H699.349H699.351L699.353 1558.34C708.019 1567.91 712.505 1572.86 711.768 1573.82C710.978 1574.86 704.177 1571.3 690.08 1563.92H690.077H690.074H690.07L689.354 1563.54C674.902 1558.17 668.365 1554.46 659.002 1547.6C653.757 1541.71 647.835 1536.32 642.865 1531.79C631.538 1521.47 625.161 1515.66 643.034 1518.81L644.832 1519.13H644.833C668.781 1523.36 669.21 1523.43 648.65 1511.44C627.588 1499.15 671.958 1510.46 671.958 1510.46C671.958 1510.46 686.914 1513.55 664.096 1501.82C641.279 1490.09 668.309 1494.45 674.277 1495.5C680.244 1496.55 697.445 1496.93 674.277 1483.95C651.108 1470.96 654.267 1470.22 680.244 1473.03C689.655 1474.05 695.748 1475.34 698.742 1475.98H698.743H698.751H698.757C700.179 1476.28 700.897 1476.44 700.934 1476.34C700.971 1476.23 700.298 1475.87 698.938 1475.14H698.936C696.717 1473.94 692.674 1471.75 686.914 1468.12C683.326 1465.85 680.439 1464.1 678.265 1462.79L678.257 1462.78C674.88 1460.74 673.225 1459.74 673.34 1459.45C673.451 1459.18 675.192 1459.57 678.605 1460.32C682.102 1461.1 687.352 1462.26 694.401 1463.51C698.635 1464.25 701.986 1464.93 704.552 1465.44C709.009 1466.33 711.099 1466.75 711.341 1466.26C711.555 1465.83 710.328 1464.68 708.018 1462.53C705.304 1460 701.094 1456.07 695.968 1450.26C695.968 1450.26 694.106 1448.61 691.649 1444.39C690.034 1441.63 695.9 1443.56 700.909 1445.21H700.912C703.524 1446.08 705.903 1446.86 706.866 1446.86C706.866 1446.86 736.678 1462.31 752.709 1470.03C756.086 1472.52 759.195 1474.74 762 1476.69V1279.55C757.925 1278.44 752.299 1276.54 745.275 1273.84C715.382 1262.33 711.814 1267.92 737.816 1285.16C765.346 1303.41 748.726 1300.41 714.998 1290.58C691.459 1283.72 694.491 1286.23 705.772 1295.59H705.776L705.784 1295.6L705.8 1295.61C708.483 1297.84 711.631 1300.45 714.998 1303.41C743.432 1320.26 745.275 1326.23 711.136 1315C709.009 1314.3 707.007 1313.63 705.129 1313.01L705.044 1312.98C679.118 1304.37 677.051 1303.69 697.446 1326.23L698.134 1326.99L699.345 1328.33H699.346H699.349H699.351L699.353 1328.34C708.019 1337.91 712.505 1342.86 711.768 1343.82C710.978 1344.86 704.177 1341.3 690.08 1333.92H690.077H690.074H690.07L689.354 1333.54C674.902 1328.17 668.365 1324.46 659.002 1317.6C653.757 1311.71 647.835 1306.32 642.865 1301.79C631.538 1291.47 625.161 1285.66 643.034 1288.81L644.832 1289.13H644.833C668.781 1293.36 669.21 1293.43 648.65 1281.44C627.588 1269.15 671.958 1280.46 671.958 1280.46C671.958 1280.46 686.914 1283.55 664.096 1271.82C641.279 1260.09 668.309 1264.45 674.277 1265.5C680.244 1266.55 697.445 1266.93 674.277 1253.95C651.108 1240.96 654.267 1240.22 680.244 1243.03C689.655 1244.05 695.748 1245.34 698.742 1245.98H698.743H698.751H698.757C700.179 1246.28 700.897 1246.44 700.934 1246.34C700.971 1246.23 700.298 1245.87 698.938 1245.14H698.936C696.717 1243.94 692.674 1241.75 686.914 1238.12C683.326 1235.85 680.439 1234.1 678.265 1232.79L678.257 1232.78C674.88 1230.74 673.225 1229.74 673.34 1229.45C673.451 1229.18 675.192 1229.57 678.605 1230.32C682.102 1231.1 687.352 1232.26 694.401 1233.51C698.635 1234.25 701.986 1234.93 704.552 1235.44C709.009 1236.33 711.099 1236.75 711.341 1236.26C711.555 1235.83 710.328 1234.68 708.018 1232.53C705.304 1230 701.094 1226.07 695.968 1220.26C695.968 1220.26 694.106 1218.61 691.649 1214.39C690.034 1211.63 695.9 1213.56 700.909 1215.21H700.912C703.524 1216.08 705.903 1216.86 706.866 1216.86C706.866 1216.86 736.678 1232.31 752.709 1240.03C756.086 1242.52 759.195 1244.74 762 1246.69L762 995.551C757.925 994.439 752.299 992.541 745.275 989.836C715.382 978.325 711.814 983.917 737.816 1001.16C765.346 1019.41 748.726 1016.41 714.998 1006.58C691.459 999.721 694.491 1002.23 705.772 1011.59H705.773C708.462 1013.82 711.619 1016.44 714.998 1019.41C743.432 1036.26 745.275 1042.23 711.136 1031C709.009 1030.3 707.007 1029.63 705.129 1029.01L705.044 1028.98C679.118 1020.37 677.051 1019.69 697.446 1042.23C698.019 1042.86 698.576 1043.48 699.118 1044.08L699.345 1044.33H699.346H699.349H699.351L699.353 1044.34C708.019 1053.91 712.505 1058.86 711.768 1059.82C710.978 1060.86 704.177 1057.3 690.08 1049.92H690.077H690.074H690.07L689.354 1049.54C674.902 1044.17 668.365 1040.46 659.002 1033.6C653.758 1027.71 647.836 1022.32 642.867 1017.79H642.866H642.865C631.538 1007.47 625.161 1001.66 643.034 1004.81L644.833 1005.13C668.781 1009.36 669.21 1009.43 648.65 997.441C627.588 985.154 671.958 996.458 671.958 996.458C671.958 996.458 686.914 999.547 664.096 987.817C641.279 976.087 668.309 980.446 674.277 981.499C680.244 982.551 697.445 982.934 674.277 969.945C651.108 956.957 654.267 956.224 680.244 959.032C689.655 960.049 695.748 961.343 698.742 961.979H698.743C700.175 962.283 700.897 962.436 700.934 962.336C700.971 962.235 700.298 961.871 698.938 961.137L698.936 961.136L698.934 961.135H698.933C696.714 959.936 692.672 957.753 686.914 954.117C683.322 951.848 680.432 950.099 678.257 948.783H678.256C674.879 946.739 673.225 945.738 673.34 945.453C673.451 945.18 675.19 945.565 678.598 946.321L678.601 946.322L678.605 946.323H678.605C682.102 947.098 687.352 948.263 694.401 949.506C698.635 950.253 701.985 950.925 704.551 951.44C709.009 952.335 711.099 952.754 711.341 952.263C711.555 951.828 710.328 950.684 708.018 948.528C705.304 945.996 701.094 942.068 695.968 936.258C695.968 936.258 694.106 934.607 691.649 930.394C690.034 927.626 695.9 929.56 700.909 931.213C703.522 932.075 705.903 932.86 706.866 932.86C706.866 932.86 736.678 948.307 752.709 956.03C756.086 958.523 759.195 960.736 762 962.688V765.551C757.925 764.439 752.299 762.541 745.275 759.836C715.382 748.325 711.814 753.917 737.816 771.157C765.346 789.411 748.726 786.409 714.998 776.58C691.459 769.721 694.491 772.234 705.772 781.589L705.773 781.59C708.462 783.82 711.619 786.439 714.998 789.411C743.432 806.261 745.275 812.229 711.136 800.996C708.977 800.285 706.946 799.611 705.044 798.98C679.118 790.374 677.051 789.688 697.446 812.229C698.1 812.952 698.733 813.652 699.346 814.328C708.017 823.904 712.505 828.86 711.768 829.824C710.978 830.859 704.173 827.298 690.068 819.917L689.354 819.543C674.902 814.171 668.365 810.464 659.002 803.6C653.757 797.713 647.835 792.317 642.865 787.79C631.538 777.471 625.161 771.661 643.034 774.813L644.833 775.13C668.781 779.358 669.21 779.434 648.65 767.441C627.588 755.154 671.958 766.458 671.958 766.458C671.958 766.458 686.914 769.547 664.096 757.817C641.279 746.087 668.309 750.446 674.277 751.499C680.244 752.551 697.445 752.934 674.277 739.945C651.108 726.957 654.267 726.224 680.244 729.032C689.655 730.049 695.748 731.343 698.742 731.979H698.743C700.175 732.283 700.897 732.436 700.934 732.336C700.971 732.235 700.298 731.871 698.938 731.137L698.936 731.136L698.934 731.135H698.933C696.714 729.936 692.672 727.753 686.914 724.117C683.322 721.848 680.432 720.099 678.257 718.783H678.256C674.879 716.739 673.225 715.738 673.34 715.453C673.451 715.18 675.19 715.565 678.598 716.321L678.601 716.322L678.605 716.323H678.605C682.102 717.098 687.352 718.263 694.401 719.506C698.635 720.253 701.985 720.925 704.551 721.44C709.009 722.335 711.099 722.754 711.341 722.263C711.555 721.828 710.328 720.684 708.018 718.528C705.304 715.996 701.094 712.068 695.968 706.258C695.968 706.258 694.106 704.607 691.649 700.394C690.034 697.626 695.9 699.56 700.909 701.213C703.522 702.075 705.903 702.86 706.866 702.86C706.866 702.86 736.678 718.307 752.709 726.03C756.086 728.523 759.195 730.736 762 732.688V481.551C757.925 480.439 752.299 478.541 745.275 475.836C715.382 464.325 711.814 469.917 737.816 487.157C765.346 505.411 748.726 502.41 714.998 492.58C691.459 485.721 694.491 488.234 705.772 497.589C708.461 499.819 711.619 502.438 714.998 505.411C743.432 522.261 745.275 528.229 711.136 516.996C708.977 516.285 706.946 515.611 705.044 514.98C679.118 506.374 677.051 505.688 697.446 528.229C698.1 528.952 698.733 529.652 699.346 530.328C708.017 539.904 712.505 544.86 711.768 545.824C710.978 546.859 704.173 543.298 690.068 535.917L689.354 535.543C674.902 530.171 668.365 526.464 659.002 519.6C653.757 513.713 647.835 508.318 642.865 503.79C631.538 493.471 625.161 487.661 643.034 490.813L644.833 491.13C668.781 495.358 669.21 495.434 648.65 483.441C627.588 471.154 671.958 482.458 671.958 482.458C671.958 482.458 686.914 485.547 664.096 473.817C641.279 462.087 668.309 466.446 674.277 467.499C680.244 468.551 697.445 468.934 674.277 455.945C651.108 442.957 654.267 442.224 680.244 445.032C689.655 446.049 695.749 447.343 698.742 447.979H698.743C700.175 448.283 700.897 448.436 700.934 448.337C700.971 448.235 700.298 447.871 698.938 447.137H698.937H698.937H698.937C696.718 445.939 692.674 443.755 686.914 440.117C683.322 437.848 680.432 436.099 678.257 434.783C674.879 432.739 673.225 431.738 673.34 431.453C673.451 431.179 675.192 431.566 678.605 432.323C682.102 433.098 687.352 434.263 694.401 435.506C698.635 436.253 701.986 436.925 704.552 437.44C709.009 438.335 711.099 438.754 711.341 438.263C711.555 437.828 710.328 436.684 708.018 434.528C705.304 431.996 701.094 428.068 695.968 422.258C695.968 422.258 694.106 420.607 691.649 416.394C690.034 413.626 695.9 415.561 700.909 417.213H700.909C703.522 418.075 705.903 418.86 706.866 418.86C706.866 418.86 736.678 434.307 752.709 442.03C756.086 444.523 759.195 446.736 762 448.688V251.551C757.925 250.439 752.299 248.541 745.275 245.836C715.382 234.325 711.814 239.917 737.816 257.157C765.346 275.411 748.726 272.41 714.998 262.58C691.459 255.721 694.491 258.234 705.772 267.589C708.461 269.819 711.619 272.438 714.998 275.411C743.432 292.261 745.275 298.229 711.136 286.996C708.978 286.286 706.948 285.612 705.047 284.981L705.044 284.98C679.118 276.374 677.051 275.688 697.446 298.229C698.099 298.952 698.733 299.651 699.345 300.327C708.017 309.904 712.505 314.86 711.768 315.824C710.978 316.859 704.174 313.298 690.07 305.918L689.354 305.543C674.902 300.171 668.365 296.464 659.002 289.6C653.757 283.713 647.835 278.318 642.865 273.79C631.538 263.471 625.161 257.661 643.034 260.813L644.833 261.13C668.781 265.358 669.21 265.434 648.65 253.441C627.588 241.154 671.958 252.458 671.958 252.458C671.958 252.458 686.914 255.547 664.096 243.817C641.279 232.087 668.309 236.446 674.277 237.499C680.244 238.551 697.445 238.934 674.277 225.945C651.108 212.957 654.267 212.223 680.244 215.032C689.655 216.049 695.749 217.343 698.742 217.979C700.174 218.283 700.897 218.436 700.934 218.337C700.971 218.235 700.298 217.871 698.938 217.137C696.719 215.939 692.675 213.756 686.914 210.117C683.324 207.85 680.435 206.101 678.26 204.785L678.258 204.784L678.257 204.783H678.257C674.879 202.739 673.225 201.738 673.34 201.453C673.451 201.179 675.193 201.566 678.606 202.323C682.102 203.098 687.352 204.263 694.401 205.506C698.634 206.253 701.985 206.925 704.551 207.44H704.552H704.552H704.553H704.553C709.009 208.335 711.099 208.754 711.341 208.263C711.555 207.828 710.328 206.684 708.018 204.528C705.304 201.995 701.094 198.068 695.968 192.258C695.968 192.258 694.106 190.607 691.649 186.394C690.034 183.626 695.9 185.56 700.909 187.213C703.522 188.075 705.903 188.86 706.866 188.86C706.866 188.86 736.678 204.307 752.709 212.03C756.086 214.523 759.195 216.736 762 218.688V-3.05176e-05L728.557 -3.05176e-05C742.777 9.93754 738.6 12.0328 711.136 2.99583C708.977 2.28522 706.946 1.61119 705.044 0.979797L705.039 0.978153C704.019 0.639513 703.035 0.31314 702.089 -3.05176e-05L685.33 -3.05176e-05C687.411 3.00118 691.462 7.61537 697.446 14.2293C698.099 14.9513 698.732 15.6501 699.344 16.3259L699.345 16.3277L699.346 16.3279C708.017 25.9038 712.505 30.8601 711.768 31.8242C710.978 32.8586 704.174 29.2981 690.07 21.9177L690.07 21.9176L689.354 21.5431C674.902 16.1706 668.365 12.4635 659.002 5.60031C657.288 3.67662 655.502 1.80547 653.701 -3.05176e-05L512.557 -3.05176e-05C526.777 9.93754 522.6 12.0328 495.136 2.99583C492.977 2.28522 490.946 1.61119 489.044 0.979798C488.022 0.640571 487.037 0.313647 486.089 -3.05176e-05L469.33 -3.05176e-05C471.411 3.00118 475.462 7.61537 481.446 14.2293C482.061 14.909 482.658 15.5682 483.236 16.207L483.321 16.3011L483.345 16.3276C492.017 25.9037 496.505 30.86 495.768 31.8242C494.978 32.8586 488.174 29.2981 474.07 21.9176L473.354 21.5431C458.902 16.1706 452.365 12.4635 443.002 5.60031C441.288 3.67662 439.502 1.80547 437.701 -3.05176e-05L296.557 -3.05176e-05C310.777 9.93754 306.6 12.0328 279.136 2.99583C276.977 2.28522 274.946 1.6112 273.044 0.979811L273.009 0.968199C272 0.633116 271.026 0.310071 270.089 -3.05176e-05L253.33 -3.05176e-05C255.411 3.00118 259.462 7.61537 265.446 14.2293C266.09 14.9414 266.714 15.6309 267.318 16.298L267.345 16.3276C276.017 25.9037 280.505 30.86 279.768 31.8242C278.978 32.8586 272.174 29.2981 258.07 21.9176L257.354 21.5431C242.902 16.1706 236.365 12.4635 227.002 5.60031C225.288 3.67662 223.502 1.80547 221.701 -3.05176e-05L80.557 -3.05176e-05C94.777 9.93754 90.6 12.0328 63.136 2.99583C61.006 2.29475 59.001 1.62929 57.121 1.00524L57.089 0.994925L57.056 0.983835L57.049 0.981466L57.044 0.979809C56.022 0.640577 55.037 0.313651 54.089 -3.05176e-05L37.33 -3.05176e-05C39.411 3.00118 43.462 7.61537 49.446 14.2293L50.033 14.8787L50.643 15.5525L51.345 16.3278C60.017 25.9038 64.505 30.86 63.768 31.8242C62.978 32.8587 56.174 29.2981 42.069 21.9175L41.354 21.5431C26.902 16.1706 20.365 12.4635 11.002 5.60031C9.28802 3.67662 7.50201 1.80547 5.70099 -3.05176e-05L0 -3.05176e-05V247.806C8.297 248.468 23.958 252.458 23.958 252.458C23.958 252.458 38.914 255.547 16.096 243.817C-6.72101 232.087 20.309 236.446 26.277 237.499C32.244 238.551 49.4449 238.934 26.277 225.945C3.10797 212.957 6.26703 212.223 32.244 215.032C41.655 216.049 47.749 217.343 50.742 217.979C52.175 218.283 52.897 218.436 52.934 218.337C52.971 218.235 52.297 217.871 50.938 217.137H50.937L50.936 217.136C48.717 215.938 44.673 213.755 38.914 210.117C35.322 207.848 32.432 206.099 30.256 204.783C26.879 202.739 25.225 201.738 25.34 201.453C25.451 201.179 27.193 201.566 30.605 202.323C34.102 203.098 39.352 204.263 46.401 205.506C50.634 206.253 53.985 206.925 56.551 207.44H56.552C61.009 208.335 63.099 208.754 63.341 208.263C63.555 207.828 62.328 206.684 60.018 204.528C57.304 201.996 53.094 198.068 47.968 192.258C47.968 192.258 46.106 190.607 43.649 186.394C42.034 183.626 47.9 185.56 52.909 187.213C55.522 188.075 57.903 188.86 58.866 188.86C58.866 188.86 88.678 204.307 104.709 212.03C112.911 218.085 119.527 222.488 124.07 225.511L124.071 225.512H124.072C128.721 228.607 131.2 230.257 130.987 230.753C130.744 231.32 126.993 230.384 118.958 228.38H118.957C116.189 227.689 112.914 226.872 109.098 225.945C77.391 218.248 71.561 224.24 100.726 238.869C131.59 254.349 126.675 257.157 97.275 245.836C67.382 234.325 63.814 239.917 89.816 257.157C117.346 275.411 100.726 272.41 66.998 262.58C43.459 255.721 46.491 258.234 57.772 267.59L57.773 267.591C60.462 269.82 63.62 272.439 66.998 275.411C95.432 292.261 97.275 298.229 63.136 286.996C61.015 286.298 59.018 285.635 57.145 285.014L57.051 284.982L57.044 284.98C31.118 276.374 29.051 275.688 49.446 298.229L50.265 299.135L51.345 300.328C60.017 309.904 64.505 314.86 63.768 315.824C62.978 316.859 56.174 313.298 42.07 305.918L41.354 305.543C26.902 300.171 20.365 296.464 11.002 289.6C7.47601 285.642 3.64301 281.906 0 278.507V477.806C8.297 478.468 23.958 482.458 23.958 482.458C23.958 482.458 38.914 485.547 16.096 473.817C-6.72101 462.087 20.309 466.446 26.277 467.499C32.244 468.551 49.4449 468.934 26.277 455.945C3.10797 442.957 6.26703 442.224 32.244 445.032C41.655 446.049 47.749 447.343 50.742 447.979C52.175 448.283 52.897 448.436 52.934 448.337C52.971 448.235 52.297 447.871 50.938 447.137H50.937L50.935 447.136C48.716 445.937 44.673 443.754 38.914 440.117C35.322 437.848 32.432 436.099 30.256 434.783L30.255 434.782L30.253 434.781L30.252 434.78L30.249 434.778C26.877 432.737 25.225 431.738 25.34 431.453C25.451 431.179 27.193 431.566 30.605 432.323C34.102 433.098 39.352 434.263 46.401 435.506C50.635 436.253 53.985 436.925 56.552 437.44C61.009 438.335 63.099 438.754 63.341 438.263C63.555 437.828 62.328 436.684 60.018 434.528C57.304 431.996 53.094 428.068 47.968 422.258C47.968 422.258 46.106 420.607 43.649 416.394C42.034 413.626 47.9 415.561 52.909 417.213C55.523 418.075 57.903 418.86 58.866 418.86C58.866 418.86 88.678 434.307 104.709 442.03C112.911 448.085 119.527 452.488 124.07 455.511L124.071 455.512C128.721 458.607 131.2 460.257 130.987 460.753C130.744 461.32 126.992 460.384 118.957 458.379C116.189 457.689 112.914 456.872 109.098 455.945C77.391 448.248 71.561 454.24 100.726 468.869C131.59 484.349 126.675 487.157 97.275 475.836C67.382 464.325 63.814 469.917 89.816 487.157C117.346 505.411 100.726 502.41 66.998 492.58C43.459 485.721 46.491 488.234 57.772 497.59L57.773 497.591C60.462 499.82 63.62 502.439 66.998 505.411C95.432 522.261 97.275 528.229 63.136 516.996C60.977 516.285 58.946 515.611 57.044 514.98C31.118 506.374 29.051 505.688 49.446 528.229C49.818 528.64 50.183 529.044 50.542 529.44L51.346 530.328C60.017 539.904 64.505 544.86 63.768 545.824C62.978 546.859 56.173 543.298 42.069 535.917H42.068L41.354 535.543C26.902 530.171 20.365 526.464 11.002 519.6C7.47601 515.642 3.64301 511.906 0 508.507V761.806C8.297 762.468 23.958 766.458 23.958 766.458C23.958 766.458 38.914 769.547 16.096 757.817C-6.72101 746.087 20.309 750.446 26.277 751.499C32.244 752.551 49.4449 752.934 26.277 739.945C3.10797 726.957 6.26703 726.224 32.244 729.032C41.655 730.049 47.749 731.343 50.742 731.979H50.743C52.175 732.283 52.897 732.436 52.934 732.336C52.971 732.235 52.298 731.871 50.938 731.137L50.936 731.136C48.717 729.938 44.674 727.755 38.914 724.117C35.322 721.848 32.432 720.099 30.256 718.783V718.782H30.255C26.879 716.739 25.225 715.738 25.34 715.453C25.451 715.179 27.193 715.566 30.606 716.323C34.102 717.098 39.352 718.263 46.401 719.506C50.634 720.252 53.984 720.925 56.55 721.44H56.551H56.552L56.555 721.441C61.01 722.335 63.099 722.754 63.341 722.263C63.555 721.828 62.328 720.684 60.018 718.528L60.017 718.527C57.303 715.995 53.093 712.067 47.968 706.258C47.968 706.258 46.106 704.607 43.649 700.394C42.034 697.626 47.9 699.56 52.909 701.213C55.522 702.075 57.903 702.86 58.866 702.86C58.866 702.86 88.678 718.307 104.709 726.03C112.911 732.084 119.526 736.487 124.069 739.511H124.07C128.721 742.607 131.2 744.257 130.987 744.753C130.744 745.32 126.992 744.384 118.957 742.38C116.19 741.689 112.914 740.872 109.098 739.945C77.391 732.247 71.561 738.24 100.726 752.869C131.59 768.349 126.675 771.157 97.275 759.836C67.382 748.325 63.814 753.917 89.816 771.157C117.346 789.411 100.726 786.409 66.998 776.58C43.459 769.721 46.491 772.234 57.772 781.589L57.773 781.591L57.776 781.593C60.464 783.822 63.621 786.44 66.998 789.411C95.432 806.261 97.275 812.229 63.136 800.996C60.977 800.285 58.946 799.611 57.044 798.98C31.118 790.374 29.051 789.688 49.446 812.229L50.607 813.513L51.346 814.328C60.017 823.904 64.505 828.86 63.768 829.824C62.978 830.859 56.173 827.298 42.069 819.917H42.068L41.354 819.543C26.902 814.171 20.365 810.464 11.002 803.6C7.47601 799.642 3.64301 795.906 0 792.507V991.806C8.297 992.468 23.958 996.458 23.958 996.458C23.958 996.458 38.914 999.547 16.096 987.817C-6.72101 976.087 20.309 980.446 26.277 981.499C32.244 982.551 49.4449 982.934 26.277 969.945C3.10797 956.957 6.26703 956.224 32.244 959.032C41.655 960.049 47.749 961.343 50.742 961.979H50.743C52.175 962.283 52.897 962.436 52.934 962.336C52.971 962.235 52.298 961.871 50.938 961.137L50.936 961.136C48.717 959.938 44.674 957.755 38.914 954.117C35.322 951.848 32.432 950.099 30.256 948.783V948.782H30.255C26.879 946.739 25.225 945.738 25.34 945.453C25.451 945.179 27.193 945.566 30.606 946.323C34.102 947.098 39.352 948.263 46.401 949.506C50.634 950.252 53.984 950.925 56.55 951.44H56.551H56.552L56.555 951.441C61.01 952.335 63.099 952.754 63.341 952.263C63.555 951.828 62.328 950.684 60.018 948.528L60.017 948.527C57.303 945.995 53.093 942.067 47.968 936.258C47.968 936.258 46.106 934.607 43.649 930.394C42.034 927.626 47.9 929.56 52.909 931.213C55.522 932.075 57.903 932.86 58.866 932.86C58.866 932.86 88.678 948.307 104.709 956.03C112.911 962.084 119.526 966.487 124.069 969.511H124.07C128.721 972.607 131.2 974.257 130.987 974.753C130.744 975.32 126.992 974.384 118.957 972.38C116.19 971.689 112.914 970.872 109.098 969.945C77.391 962.247 71.561 968.24 100.726 982.869C131.59 998.349 126.675 1001.16 97.275 989.836C67.382 978.325 63.814 983.917 89.816 1001.16C117.346 1019.41 100.726 1016.41 66.998 1006.58C43.459 999.721 46.491 1002.23 57.772 1011.59H57.773H57.776C60.464 1013.82 63.621 1016.44 66.998 1019.41C95.432 1036.26 97.275 1042.23 63.136 1031C62.268 1030.71 61.421 1030.43 60.594 1030.16C59.561 1029.82 58.56 1029.48 57.592 1029.16L57.539 1029.14L57.429 1029.11L57.283 1029.06L57.116 1029L57.044 1028.98C31.118 1020.37 29.051 1019.69 49.446 1042.23C50.1 1042.95 50.733 1043.65 51.345 1044.33C60.017 1053.9 64.505 1058.86 63.768 1059.82C62.978 1060.86 56.18 1057.3 42.089 1049.93H42.088H42.086H42.085L42.083 1049.92H42.082H42.08H42.079H42.077H42.076H42.074H42.073H42.071H42.07L41.354 1049.54C26.902 1044.17 20.365 1040.46 11.002 1033.6C7.47601 1029.64 3.64301 1025.91 0 1022.51L0 1275.81C8.297 1276.47 23.958 1280.46 23.958 1280.46C23.958 1280.46 38.914 1283.55 16.096 1271.82C-6.72101 1260.09 20.309 1264.45 26.277 1265.5C32.244 1266.55 49.4449 1266.93 26.277 1253.95C3.10797 1240.96 6.26703 1240.22 32.244 1243.03C41.655 1244.05 47.748 1245.34 50.742 1245.98H50.743H50.752C52.178 1246.28 52.897 1246.44 52.934 1246.34C52.971 1246.23 52.298 1245.87 50.938 1245.14H50.936C48.717 1243.94 44.674 1241.75 38.914 1238.12C35.327 1235.85 32.439 1234.1 30.265 1232.79L30.257 1232.78C26.88 1230.74 25.225 1229.74 25.34 1229.45C25.451 1229.18 27.192 1229.57 30.605 1230.32C34.102 1231.1 39.352 1232.26 46.401 1233.51C50.635 1234.25 53.986 1234.93 56.552 1235.44C61.009 1236.33 63.099 1236.75 63.341 1236.26C63.555 1235.83 62.328 1234.68 60.018 1232.53H60.017C57.302 1229.99 53.093 1226.07 47.968 1220.26C47.968 1220.26 46.106 1218.61 43.649 1214.39C42.034 1211.63 47.899 1213.56 52.908 1215.21H52.909H52.912C55.524 1216.08 57.903 1216.86 58.866 1216.86C58.866 1216.86 88.678 1232.31 104.709 1240.03C112.91 1246.08 119.525 1250.49 124.068 1253.51H124.071C128.721 1256.61 131.2 1258.26 130.987 1258.75C130.744 1259.32 126.994 1258.38 118.961 1256.38H118.957C116.19 1255.69 112.914 1254.87 109.098 1253.95C77.391 1246.25 71.561 1252.24 100.726 1266.87C131.59 1282.35 126.675 1285.16 97.275 1273.84C67.382 1262.33 63.814 1267.92 89.816 1285.16C117.346 1303.41 100.726 1300.41 66.998 1290.58C43.459 1283.72 46.491 1286.23 57.772 1295.59C60.461 1297.82 63.619 1300.44 66.998 1303.41C95.432 1320.26 97.275 1326.23 63.136 1315C61.004 1314.29 58.998 1313.63 57.116 1313L57.044 1312.98C31.118 1304.37 29.051 1303.69 49.446 1326.23L50.463 1327.35L51.345 1328.33C60.017 1337.9 64.505 1342.86 63.768 1343.82C62.978 1344.86 56.181 1341.3 42.091 1333.93H42.089H42.088H42.086H42.085L42.083 1333.92H42.082H42.08H42.079H42.077H42.076H42.074H42.073H42.071H42.07L41.354 1333.54C26.902 1328.17 20.365 1324.46 11.002 1317.6C7.47601 1313.64 3.64301 1309.91 0 1306.51V1505.81C8.297 1506.47 23.958 1510.46 23.958 1510.46C23.958 1510.46 38.914 1513.55 16.096 1501.82C-6.72101 1490.09 20.309 1494.45 26.277 1495.5C32.244 1496.55 49.4449 1496.93 26.277 1483.95C3.10797 1470.96 6.26703 1470.22 32.244 1473.03C41.655 1474.05 47.748 1475.34 50.742 1475.98H50.743C52.175 1476.28 52.897 1476.44 52.934 1476.34C52.971 1476.23 52.298 1475.87 50.938 1475.14H50.936C48.717 1473.94 44.674 1471.75 38.914 1468.12C35.327 1465.85 32.439 1464.1 30.265 1462.79L30.257 1462.78C26.88 1460.74 25.225 1459.74 25.34 1459.45C25.451 1459.18 27.192 1459.57 30.605 1460.32C34.102 1461.1 39.352 1462.26 46.401 1463.51C50.635 1464.25 53.986 1464.93 56.552 1465.44C61.009 1466.33 63.099 1466.75 63.341 1466.26C63.555 1465.83 62.328 1464.68 60.018 1462.53H60.017C57.302 1459.99 53.093 1456.07 47.968 1450.26C47.968 1450.26 46.106 1448.61 43.649 1444.39C42.034 1441.63 47.899 1443.56 52.908 1445.21H52.909H52.912C55.524 1446.08 57.903 1446.86 58.866 1446.86C58.866 1446.86 88.678 1462.31 104.709 1470.03C112.91 1476.08 119.525 1480.49 124.068 1483.51H124.071C128.721 1486.61 131.2 1488.26 130.987 1488.75C130.744 1489.32 126.994 1488.38 118.961 1486.38H118.957C116.19 1485.69 112.914 1484.87 109.098 1483.95C77.391 1476.25 71.561 1482.24 100.726 1496.87C131.59 1512.35 126.675 1515.16 97.275 1503.84C67.382 1492.33 63.814 1497.92 89.816 1515.16C117.346 1533.41 100.726 1530.41 66.998 1520.58C43.459 1513.72 46.491 1516.23 57.772 1525.59C60.461 1527.82 63.619 1530.44 66.998 1533.41C95.432 1550.26 97.275 1556.23 63.136 1545C61.067 1544.32 59.116 1543.67 57.283 1543.06L57.116 1543L57.044 1542.98C31.118 1534.37 29.051 1533.69 49.446 1556.23C50.1 1556.95 50.733 1557.65 51.345 1558.33C60.017 1567.9 64.505 1572.86 63.768 1573.82C62.978 1574.86 56.174 1571.3 42.071 1563.92H42.07L41.354 1563.54C26.902 1558.17 20.365 1554.46 11.002 1547.6C7.47601 1543.64 3.64301 1539.91 0 1536.51V1760H13.287C6.41901 1754.82 13.199 1754.97 32.244 1757.03C41.656 1758.05 47.749 1759.34 50.743 1759.98L50.843 1760H52.504C52.1721 1759.8 51.649 1759.52 50.938 1759.14C48.72 1757.94 44.676 1755.76 38.914 1752.12C35.327 1749.85 32.439 1748.1 30.265 1746.79L30.257 1746.78C26.88 1744.74 25.225 1743.74 25.34 1743.45C25.451 1743.18 27.192 1743.57 30.605 1744.32C34.102 1745.1 39.352 1746.26 46.401 1747.51C50.635 1748.25 53.986 1748.93 56.552 1749.44C61.009 1750.33 63.099 1750.75 63.341 1750.26C63.555 1749.83 62.328 1748.68 60.018 1746.53H60.017C57.302 1743.99 53.093 1740.07 47.968 1734.26C47.968 1734.26 46.106 1732.61 43.649 1728.39C42.034 1725.63 47.899 1727.56 52.908 1729.21H52.909H52.912C55.524 1730.08 57.903 1730.86 58.866 1730.86C58.866 1730.86 88.678 1746.31 104.709 1754.03C107.695 1756.23 110.472 1758.22 113.014 1760H229.287C222.419 1754.82 229.199 1754.97 248.244 1757.03C257.641 1758.05 263.73 1759.34 266.729 1759.98H266.733H266.737H266.742H266.743L266.843 1760H268.504C268.325 1759.89 268.09 1759.76 267.8 1759.6C267.553 1759.47 267.266 1759.31 266.938 1759.14C264.72 1757.94 260.676 1755.76 254.914 1752.12C251.327 1749.85 248.439 1748.1 246.265 1746.79L246.257 1746.78C242.88 1744.74 241.225 1743.74 241.34 1743.45C241.451 1743.18 243.192 1743.57 246.605 1744.32C250.102 1745.1 255.352 1746.26 262.401 1747.51C266.635 1748.25 269.986 1748.93 272.552 1749.44C277.009 1750.33 279.099 1750.75 279.341 1750.26C279.555 1749.83 278.328 1748.68 276.018 1746.53C273.304 1744 269.094 1740.07 263.968 1734.26C263.968 1734.26 262.106 1732.61 259.649 1728.39C258.034 1725.63 263.899 1727.56 268.908 1729.21H268.909H268.912C271.524 1730.08 273.903 1730.86 274.866 1730.86C274.866 1730.86 304.678 1746.31 320.709 1754.03C323.695 1756.23 326.472 1758.22 329.014 1760H445.287C438.419 1754.82 445.199 1754.97 464.244 1757.03C473.641 1758.05 479.73 1759.34 482.729 1759.98H482.733H482.737H482.742H482.743L482.843 1760H484.504C484.173 1759.8 483.654 1759.52 482.95 1759.14H482.938C480.72 1757.94 476.676 1755.76 470.914 1752.12C467.339 1749.86 464.459 1748.12 462.287 1746.8H462.278L462.268 1746.79H462.264L462.258 1746.78C458.88 1744.74 457.225 1743.74 457.34 1743.45C457.451 1743.18 459.192 1743.57 462.605 1744.32C466.102 1745.1 471.352 1746.26 478.401 1747.51C482.635 1748.25 485.986 1748.93 488.552 1749.44C493.009 1750.33 495.099 1750.75 495.341 1750.26C495.555 1749.83 494.328 1748.68 492.018 1746.53C489.304 1744 485.094 1740.07 479.968 1734.26C479.968 1734.26 478.106 1732.61 475.649 1728.39C474.034 1725.63 479.899 1727.56 484.908 1729.21H484.909H484.912C487.524 1730.08 489.903 1730.86 490.866 1730.86C490.866 1730.86 520.678 1746.31 536.709 1754.03C539.695 1756.23 542.472 1758.22 545.014 1760H661.287C654.419 1754.82 661.199 1754.97 680.244 1757.03C689.656 1758.05 695.749 1759.34 698.743 1759.98L698.843 1760H700.504C700.179 1759.81 699.673 1759.53 698.988 1759.16L698.964 1759.15L698.949 1759.14H698.938C696.72 1757.94 692.676 1755.76 686.914 1752.12C683.326 1749.85 680.439 1748.1 678.265 1746.79L678.257 1746.78C674.88 1744.74 673.225 1743.74 673.34 1743.45C673.451 1743.18 675.192 1743.57 678.605 1744.32C682.102 1745.1 687.352 1746.26 694.401 1747.51C698.635 1748.25 701.986 1748.93 704.552 1749.44C709.009 1750.33 711.099 1750.75 711.341 1750.26C711.555 1749.83 710.328 1748.68 708.018 1746.53C705.304 1744 701.094 1740.07 695.968 1734.26C695.968 1734.26 694.106 1732.61 691.649 1728.39C690.034 1725.63 695.9 1727.56 700.909 1729.21H700.912C703.524 1730.08 705.903 1730.86 706.866 1730.86C706.866 1730.86 736.678 1746.31 752.709 1754.03ZM0 1519.69C20.776 1523.34 20.261 1522.88 0.651001 1511.44C0.426025 1511.31 0.210022 1511.18 0 1511.06V1519.69ZM762 1485.15C760.477 1484.77 758.844 1484.37 757.098 1483.95C725.391 1476.25 719.561 1482.24 748.726 1496.87C754.292 1499.66 758.695 1502.04 762 1504V1485.15ZM0 1005.69C20.776 1009.34 20.261 1008.88 0.651001 997.441C0.426025 997.31 0.210022 997.182 0 997.057V1005.69ZM757.098 1253.95C758.844 1254.37 760.477 1254.77 762 1255.15V1274C758.695 1272.04 754.292 1269.66 748.726 1266.87C719.561 1252.24 725.391 1246.25 757.098 1253.95ZM0 1281.06V1289.69C20.776 1293.34 20.261 1292.88 0.651001 1281.44C0.426025 1281.31 0.210022 1281.18 0 1281.06ZM762 971.147C760.477 970.77 758.844 970.369 757.098 969.945C725.391 962.247 719.561 968.24 748.726 982.869C754.292 985.661 758.695 988.04 762 989.999V971.147ZM0 491.689C20.776 495.34 20.261 494.88 0.651001 483.441C0.426025 483.31 0.210022 483.182 0 483.057V491.689ZM757.098 739.945C758.844 740.369 760.477 740.77 762 741.147V759.999C758.695 758.04 754.292 755.661 748.726 752.869C719.561 738.24 725.391 732.247 757.098 739.945ZM0 767.057V775.689C20.776 779.34 20.261 778.88 0.651001 767.441C0.426025 767.31 0.210022 767.182 0 767.057ZM762 457.147C760.477 456.77 758.844 456.369 757.098 455.945C725.391 448.248 719.561 454.24 748.726 468.869C754.292 471.661 758.695 474.04 762 475.999V457.147ZM757.098 225.945C758.844 226.369 760.477 226.77 762 227.147V245.999C758.695 244.04 754.292 241.661 748.726 238.869C719.561 224.24 725.391 218.248 757.098 225.945ZM0 261.689C20.776 265.34 20.261 264.88 0.651001 253.441L0.510986 253.359C0.450012 253.323 0.388977 253.287 0.328003 253.252C0.21698 253.186 0.106995 253.121 0 253.057V261.689ZM340.07 225.511C344.721 228.607 347.2 230.257 346.987 230.753C346.744 231.32 342.992 230.384 334.957 228.38V228.379H334.953C332.186 227.688 328.912 226.871 325.098 225.945C293.391 218.248 287.561 224.24 316.726 238.869C347.59 254.349 342.675 257.157 313.275 245.836C283.382 234.325 279.814 239.917 305.816 257.157C333.346 275.411 316.726 272.41 282.998 262.58C259.459 255.721 262.491 258.234 273.772 267.59C276.461 269.82 279.619 272.438 282.998 275.411C311.432 292.261 313.275 298.229 279.136 286.996C276.979 286.286 274.951 285.613 273.051 284.982L273.044 284.98C247.118 276.374 245.051 275.688 265.446 298.229C266.099 298.952 266.733 299.651 267.345 300.327C276.017 309.904 280.505 314.86 279.768 315.824C278.978 316.859 272.174 313.298 258.07 305.918L257.354 305.543C242.902 300.171 236.365 296.464 227.002 289.6C221.757 283.713 215.835 278.317 210.865 273.79C199.538 263.471 193.161 257.661 211.034 260.813L212.833 261.13C236.781 265.358 237.21 265.434 216.651 253.441C195.588 241.154 239.958 252.458 239.958 252.458C239.958 252.458 254.914 255.547 232.096 243.817C209.279 232.087 236.309 236.446 242.277 237.499C248.244 238.551 265.445 238.934 242.277 225.945C219.108 212.957 222.267 212.223 248.244 215.032C257.655 216.049 263.749 217.343 266.742 217.979C268.175 218.283 268.897 218.436 268.934 218.337C268.971 218.235 268.297 217.871 266.938 217.137C264.719 215.939 260.675 213.756 254.914 210.117C251.322 207.848 248.432 206.099 246.256 204.783C242.879 202.739 241.225 201.738 241.34 201.453C241.451 201.179 243.193 201.566 246.605 202.323C250.102 203.098 255.352 204.263 262.401 205.506C266.634 206.253 269.984 206.925 272.55 207.44H272.552C277.009 208.335 279.099 208.754 279.341 208.263C279.555 207.828 278.328 206.684 276.018 204.528C273.304 201.995 269.094 198.068 263.968 192.258C263.968 192.258 262.106 190.607 259.649 186.394C258.034 183.626 263.9 185.56 268.909 187.213C271.522 188.075 273.903 188.86 274.866 188.86C274.866 188.86 304.678 204.307 320.709 212.03C328.911 218.085 335.527 222.488 340.07 225.511ZM562.987 230.753C563.2 230.257 560.721 228.607 556.07 225.511C551.527 222.488 544.911 218.085 536.709 212.03C520.678 204.307 490.866 188.86 490.866 188.86C489.903 188.86 487.522 188.075 484.909 187.213C479.9 185.56 474.034 183.626 475.649 186.394C478.106 190.607 479.968 192.258 479.968 192.258C485.094 198.068 489.304 201.995 492.018 204.528C494.328 206.684 495.555 207.828 495.341 208.263C495.099 208.754 493.009 208.335 488.552 207.44H488.55C485.984 206.925 482.634 206.253 478.401 205.506C471.352 204.263 466.102 203.098 462.605 202.323C459.193 201.566 457.451 201.179 457.34 201.453C457.225 201.738 458.879 202.739 462.256 204.783H462.257C464.433 206.1 467.322 207.849 470.914 210.117C476.675 213.756 480.719 215.939 482.938 217.137C484.297 217.871 484.971 218.235 484.934 218.337C484.897 218.436 484.174 218.283 482.742 217.979C479.749 217.343 473.655 216.049 464.244 215.032C438.267 212.223 435.108 212.957 458.277 225.945C481.445 238.934 464.244 238.551 458.277 237.499C452.309 236.446 425.279 232.087 448.096 243.817C470.914 255.547 455.958 252.458 455.958 252.458C455.958 252.458 411.588 241.154 432.651 253.441C453.21 265.434 452.781 265.358 428.833 261.13L427.034 260.813C409.161 257.661 415.538 263.471 426.865 273.79H426.866V273.791H426.867C431.836 278.319 437.757 283.713 443.002 289.6C452.365 296.464 458.902 300.171 473.354 305.543L474.07 305.918C488.174 313.298 494.978 316.859 495.768 315.824C496.505 314.86 492.017 309.904 483.345 300.327L482.383 299.265L481.446 298.229C461.051 275.688 463.118 276.374 489.044 284.98C490.946 285.611 492.977 286.285 495.136 286.996C529.275 298.229 527.432 292.261 498.998 275.411C495.619 272.438 492.461 269.82 489.772 267.59C478.491 258.234 475.459 255.721 498.998 262.58C532.726 272.41 549.346 275.411 521.816 257.157C495.814 239.917 499.382 234.325 529.275 245.836C558.675 257.157 563.59 254.349 532.726 238.869C503.561 224.24 509.391 218.248 541.098 225.945C544.903 226.869 548.172 227.685 550.935 228.374L550.952 228.378L550.957 228.379C558.992 230.384 562.744 231.32 562.987 230.753ZM556.07 455.511C560.721 458.607 563.2 460.257 562.987 460.753C562.744 461.32 558.992 460.384 550.957 458.379L550.947 458.377C548.181 457.687 544.909 456.871 541.098 455.945C509.391 448.248 503.561 454.24 532.726 468.869C563.59 484.349 558.675 487.157 529.275 475.836C499.382 464.325 495.814 469.917 521.816 487.157C549.346 505.411 532.726 502.41 498.998 492.58C475.459 485.721 478.491 488.234 489.772 497.59C492.461 499.82 495.619 502.438 498.998 505.411C527.432 522.261 529.275 528.229 495.136 516.996C492.977 516.285 490.946 515.611 489.044 514.98C463.118 506.374 461.051 505.688 481.446 528.229C482.1 528.952 482.733 529.652 483.346 530.328V530.329H483.347V530.33H483.348V530.331H483.349L483.35 530.333H483.351V530.334C492.019 539.906 496.505 544.86 495.768 545.824C494.978 546.859 488.173 543.298 474.068 535.917L473.354 535.543C458.902 530.171 452.365 526.464 443.002 519.6C437.757 513.713 431.835 508.318 426.866 503.79H426.865C415.538 493.471 409.161 487.661 427.034 490.813L428.833 491.13C452.781 495.358 453.21 495.434 432.651 483.441C411.588 471.154 455.958 482.458 455.958 482.458C455.958 482.458 470.914 485.547 448.096 473.817C425.279 462.087 452.309 466.446 458.277 467.499C464.244 468.551 481.445 468.934 458.277 455.945C435.108 442.957 438.267 442.224 464.244 445.032C473.655 446.049 479.749 447.343 482.742 447.979H482.743C484.175 448.283 484.897 448.436 484.934 448.337C484.971 448.235 484.297 447.871 482.938 447.137H482.937C480.718 445.939 476.675 443.755 470.914 440.117C467.322 437.848 464.432 436.099 462.256 434.783C458.879 432.739 457.225 431.738 457.34 431.453C457.451 431.179 459.193 431.566 462.605 432.323C466.102 433.098 471.352 434.263 478.401 435.506C482.635 436.253 485.986 436.925 488.552 437.44C493.009 438.335 495.099 438.754 495.341 438.263C495.555 437.828 494.328 436.684 492.018 434.528C489.304 431.995 485.094 428.068 479.968 422.258C479.968 422.258 478.106 420.607 475.649 416.394C474.034 413.626 479.9 415.561 484.909 417.213C487.522 418.075 489.903 418.86 490.866 418.86C490.866 418.86 520.678 434.307 536.709 442.03C544.911 448.085 551.527 452.488 556.07 455.511ZM340.07 739.511C344.721 742.607 347.2 744.257 346.987 744.753C346.744 745.32 342.992 744.384 334.957 742.38L334.94 742.375L334.922 742.371C332.162 741.682 328.898 740.868 325.098 739.945C293.391 732.247 287.561 738.24 316.726 752.869C347.59 768.349 342.675 771.157 313.275 759.836C283.382 748.325 279.814 753.917 305.816 771.157C333.346 789.411 316.726 786.409 282.998 776.58C259.459 769.721 262.491 772.234 273.772 781.589L273.773 781.591H273.774L273.775 781.592L273.779 781.596C276.467 783.824 279.622 786.441 282.998 789.411C311.432 806.261 313.275 812.229 279.136 800.996C276.977 800.285 274.946 799.611 273.044 798.98C247.118 790.374 245.051 789.688 265.446 812.229L266.168 813.028L267.346 814.328V814.329H267.347V814.33H267.348V814.331H267.349L267.35 814.333H267.351V814.334C276.019 823.906 280.505 828.86 279.768 829.824C278.978 830.859 272.173 827.298 258.068 819.917L257.354 819.543C242.902 814.171 236.365 810.464 227.002 803.6C221.757 797.713 215.835 792.317 210.865 787.79C199.538 777.471 193.161 771.661 211.034 774.813L212.833 775.13C236.781 779.358 237.21 779.434 216.651 767.441C195.588 755.154 239.958 766.458 239.958 766.458C239.958 766.458 254.914 769.547 232.096 757.817C209.279 746.087 236.309 750.446 242.277 751.499C248.244 752.551 265.445 752.934 242.277 739.945C219.108 726.957 222.267 726.224 248.244 729.032C257.655 730.049 263.749 731.343 266.742 731.979H266.743C268.175 732.283 268.897 732.436 268.934 732.336C268.971 732.235 268.298 731.871 266.938 731.137C264.72 729.939 260.675 727.756 254.914 724.117C251.322 721.848 248.432 720.099 246.256 718.783V718.782H246.255C242.879 716.739 241.225 715.738 241.34 715.453C241.451 715.179 243.193 715.566 246.606 716.323H246.607C250.103 717.099 255.353 718.263 262.401 719.506C266.635 720.253 269.985 720.925 272.551 721.44C277.009 722.335 279.099 722.754 279.341 722.263C279.555 721.828 278.328 720.684 276.018 718.528C273.304 715.995 269.094 712.068 263.968 706.258C263.968 706.258 262.106 704.607 259.649 700.394C258.034 697.626 263.9 699.56 268.909 701.213C271.522 702.075 273.903 702.86 274.866 702.86C274.866 702.86 304.678 718.307 320.709 726.03C328.911 732.085 335.527 736.487 340.07 739.511ZM562.987 744.753C563.2 744.257 560.721 742.607 556.07 739.511H556.069C551.526 736.487 544.911 732.084 536.709 726.03C520.678 718.307 490.866 702.86 490.866 702.86C489.903 702.86 487.522 702.075 484.909 701.213C479.9 699.56 474.034 697.626 475.649 700.394C478.106 704.607 479.968 706.258 479.968 706.258C485.094 712.068 489.304 715.995 492.018 718.528C494.328 720.684 495.555 721.828 495.341 722.263C495.099 722.754 493.009 722.335 488.551 721.44C485.985 720.925 482.635 720.253 478.401 719.506C471.352 718.263 466.102 717.098 462.606 716.323H462.605L462.601 716.322L462.598 716.321L462.596 716.32C459.189 715.565 457.451 715.18 457.34 715.453C457.225 715.738 458.878 716.739 462.254 718.782H462.255L462.256 718.783H462.257L462.258 718.784L462.267 718.789L462.271 718.792L462.274 718.793C464.447 720.109 467.331 721.854 470.914 724.117C476.675 727.756 480.72 729.939 482.938 731.137C484.298 731.871 484.971 732.235 484.934 732.336C484.897 732.436 484.174 732.283 482.742 731.978C479.748 731.343 473.655 730.049 464.244 729.032C438.267 726.224 435.108 726.957 458.277 739.945C481.445 752.934 464.244 752.551 458.277 751.499C452.309 750.446 425.279 746.087 448.096 757.817C470.914 769.547 455.958 766.458 455.958 766.458C455.958 766.458 411.588 755.154 432.651 767.441C453.21 779.434 452.781 779.358 428.833 775.13L427.034 774.813C409.161 771.661 415.538 777.471 426.865 787.79C431.835 792.317 437.757 797.713 443.002 803.6C452.365 810.464 458.902 814.171 473.354 819.543L474.068 819.917C488.173 827.298 494.978 830.859 495.768 829.824C496.505 828.86 492.019 823.906 483.351 814.334V814.333H483.35L483.349 814.331H483.348V814.33H483.347V814.329H483.346V814.328C482.733 813.652 482.1 812.952 481.446 812.229C461.051 789.688 463.118 790.374 489.044 798.98C490.946 799.611 492.977 800.285 495.136 800.996C529.275 812.229 527.432 806.261 498.998 789.411C495.622 786.441 492.467 783.824 489.779 781.596L489.775 781.592L489.774 781.591H489.773L489.772 781.589C478.491 772.234 475.459 769.721 498.998 776.58C532.726 786.409 549.346 789.411 521.816 771.157C495.814 753.917 499.382 748.325 529.275 759.836C558.675 771.157 563.59 768.349 532.726 752.869C503.561 738.24 509.391 732.247 541.098 739.945C544.905 740.87 548.175 741.685 550.939 742.375L550.957 742.38C558.992 744.384 562.744 745.32 562.987 744.753ZM340.071 455.512L340.07 455.511C335.527 452.488 328.911 448.085 320.709 442.03C304.678 434.307 274.866 418.86 274.866 418.86C273.903 418.86 271.522 418.075 268.909 417.213C263.9 415.561 258.034 413.626 259.649 416.394C262.106 420.607 263.968 422.258 263.968 422.258C269.094 428.068 273.304 431.995 276.018 434.528C278.328 436.684 279.555 437.828 279.341 438.263C279.099 438.754 277.009 438.335 272.552 437.44C269.986 436.925 266.635 436.253 262.401 435.506C255.352 434.263 250.102 433.098 246.605 432.323C243.193 431.566 241.451 431.179 241.34 431.453C241.225 431.738 242.877 432.737 246.249 434.778L246.252 434.78L246.253 434.781L246.255 434.782L246.256 434.783C248.432 436.099 251.322 437.848 254.914 440.117C260.675 443.756 264.719 445.939 266.938 447.137C268.298 447.871 268.971 448.235 268.934 448.337C268.897 448.436 268.175 448.283 266.742 447.979C263.749 447.343 257.655 446.049 248.244 445.032C222.267 442.224 219.108 442.957 242.277 455.945C265.445 468.934 248.244 468.551 242.277 467.499C236.309 466.446 209.279 462.087 232.096 473.817C254.914 485.547 239.958 482.458 239.958 482.458C239.958 482.458 195.588 471.154 216.651 483.441C237.21 495.434 236.781 495.358 212.833 491.13L211.034 490.813C193.161 487.661 199.538 493.471 210.865 503.79C215.835 508.317 221.757 513.713 227.002 519.6C236.365 526.464 242.902 530.171 257.354 535.543L258.068 535.917C272.173 543.298 278.978 546.859 279.768 545.824C280.505 544.86 276.019 539.906 267.351 530.334V530.333H267.35L267.349 530.331H267.348V530.33H267.347V530.329H267.346V530.328L266.766 529.688C266.335 529.212 265.895 528.726 265.446 528.229C245.051 505.688 247.118 506.374 273.044 514.98C274.946 515.611 276.977 516.285 279.136 516.996C313.275 528.229 311.432 522.261 282.998 505.411C279.619 502.438 276.461 499.82 273.772 497.59C262.491 488.234 259.459 485.721 282.998 492.58C316.726 502.41 333.346 505.411 305.816 487.157C279.814 469.917 283.382 464.325 313.275 475.836C342.675 487.157 347.59 484.349 316.726 468.869C287.561 454.24 293.391 448.248 325.098 455.945C328.914 456.872 332.189 457.689 334.957 458.379C342.992 460.384 346.744 461.32 346.987 460.753C347.2 460.257 344.721 458.607 340.071 455.512ZM556.07 969.511C560.721 972.607 563.2 974.257 562.987 974.753C562.744 975.32 558.992 974.384 550.957 972.38L550.939 972.375C548.175 971.685 544.905 970.87 541.098 969.945C509.391 962.247 503.561 968.24 532.726 982.869C563.59 998.349 558.675 1001.16 529.275 989.836C499.382 978.325 495.814 983.917 521.816 1001.16C549.346 1019.41 532.726 1016.41 498.998 1006.58C475.459 999.721 478.491 1002.23 489.772 1011.59H489.773H489.774H489.775L489.779 1011.6C492.467 1013.82 495.622 1016.44 498.998 1019.41C527.432 1036.26 529.275 1042.23 495.136 1031C493.008 1030.3 491.004 1029.63 489.126 1029.01L489.044 1028.98C463.118 1020.37 461.051 1019.69 481.446 1042.23L482.569 1043.47L483.345 1044.33C492.017 1053.9 496.505 1058.86 495.768 1059.82C494.978 1060.86 488.178 1057.3 474.083 1049.92H474.08H474.077H474.073H474.07L473.354 1049.54C458.902 1044.17 452.365 1040.46 443.002 1033.6C437.758 1027.71 431.838 1022.32 426.87 1017.79H426.867H426.866H426.865C415.538 1007.47 409.161 1001.66 427.034 1004.81L428.833 1005.13C452.781 1009.36 453.21 1009.43 432.651 997.441C411.588 985.154 455.958 996.458 455.958 996.458C455.958 996.458 470.914 999.547 448.096 987.817C425.279 976.087 452.309 980.446 458.277 981.499C464.244 982.551 481.445 982.934 458.277 969.945C435.108 956.957 438.267 956.224 464.244 959.032C473.655 960.049 479.748 961.343 482.742 961.978C484.174 962.283 484.897 962.436 484.934 962.336C484.971 962.235 484.298 961.871 482.938 961.137C480.72 959.939 476.675 957.756 470.914 954.117C467.331 951.854 464.447 950.109 462.274 948.793L462.271 948.792L462.267 948.789L462.258 948.784L462.257 948.783H462.256L462.255 948.782H462.254C458.878 946.739 457.225 945.738 457.34 945.453C457.451 945.18 459.189 945.565 462.596 946.32L462.598 946.321L462.601 946.322L462.605 946.323H462.606C466.102 947.098 471.352 948.263 478.401 949.506C482.635 950.253 485.985 950.925 488.551 951.44C493.009 952.335 495.099 952.754 495.341 952.263C495.555 951.828 494.328 950.684 492.018 948.528C489.304 945.995 485.094 942.068 479.968 936.258C479.968 936.258 478.106 934.607 475.649 930.394C474.034 927.626 479.9 929.56 484.909 931.213C487.522 932.075 489.903 932.86 490.866 932.86C490.866 932.86 520.678 948.307 536.709 956.03C544.911 962.084 551.526 966.487 556.069 969.511H556.07ZM340.071 1253.51C344.721 1256.61 347.2 1258.26 346.987 1258.75C346.745 1259.32 342.999 1258.39 334.978 1256.38H334.97H334.969H334.966H334.958H334.957C332.189 1255.69 328.914 1254.87 325.098 1253.95C293.391 1246.25 287.561 1252.24 316.726 1266.87C347.59 1282.35 342.675 1285.16 313.275 1273.84C283.382 1262.33 279.814 1267.92 305.816 1285.16C333.346 1303.41 316.726 1300.41 282.998 1290.58C259.459 1283.72 262.491 1286.23 273.772 1295.59C276.461 1297.82 279.619 1300.44 282.998 1303.41C311.432 1320.26 313.275 1326.23 279.136 1315C276.977 1314.29 274.946 1313.61 273.044 1312.98C247.118 1304.37 245.051 1303.69 265.446 1326.23L266.596 1327.5L267.345 1328.33C276.017 1337.9 280.505 1342.86 279.768 1343.82C278.978 1344.86 272.178 1341.3 258.083 1333.92H258.08H258.077H258.073H258.07L257.354 1333.54C242.902 1328.17 236.365 1324.46 227.002 1317.6C221.757 1311.71 215.835 1306.32 210.865 1301.79C199.538 1291.47 193.161 1285.66 211.034 1288.81L212.832 1289.13H212.833C236.781 1293.36 237.21 1293.43 216.651 1281.44C195.588 1269.15 239.958 1280.46 239.958 1280.46C239.958 1280.46 254.914 1283.55 232.096 1271.82C209.279 1260.09 236.309 1264.45 242.277 1265.5C248.244 1266.55 265.445 1266.93 242.277 1253.95C219.108 1240.96 222.267 1240.22 248.244 1243.03C257.655 1244.05 263.748 1245.34 266.742 1245.98H266.743H266.751H266.757C268.179 1246.28 268.897 1246.44 268.934 1246.34C268.971 1246.23 268.298 1245.87 266.938 1245.14C264.72 1243.94 260.675 1241.76 254.914 1238.12C251.327 1235.85 248.439 1234.1 246.265 1232.79L246.257 1232.78C242.88 1230.74 241.225 1229.74 241.34 1229.45C241.451 1229.18 243.192 1229.57 246.605 1230.32C250.102 1231.1 255.352 1232.26 262.401 1233.51C266.635 1234.25 269.986 1234.93 272.552 1235.44C277.009 1236.33 279.099 1236.75 279.341 1236.26C279.555 1235.83 278.328 1234.68 276.018 1232.53C273.304 1230 269.094 1226.07 263.968 1220.26C263.968 1220.26 262.106 1218.61 259.649 1214.39C258.034 1211.63 263.899 1213.56 268.908 1215.21H268.909H268.912C271.524 1216.08 273.903 1216.86 274.866 1216.86C274.866 1216.86 304.678 1232.31 320.709 1240.03C328.909 1246.08 335.524 1250.49 340.067 1253.51H340.071ZM562.987 1258.75C563.2 1258.26 560.721 1256.61 556.071 1253.51H556.066H556.062L556.057 1253.5C551.514 1250.48 544.903 1246.08 536.709 1240.03C520.678 1232.31 490.866 1216.86 490.866 1216.86C489.903 1216.86 487.524 1216.08 484.912 1215.21H484.909H484.908C479.899 1213.56 474.034 1211.63 475.649 1214.39C478.106 1218.61 479.968 1220.26 479.968 1220.26C485.094 1226.07 489.304 1230 492.018 1232.53C494.328 1234.68 495.555 1235.83 495.341 1236.26C495.099 1236.75 493.009 1236.33 488.552 1235.44C485.986 1234.93 482.635 1234.25 478.401 1233.51C471.352 1232.26 466.102 1231.1 462.605 1230.32C459.192 1229.57 457.451 1229.18 457.34 1229.45C457.225 1229.74 458.88 1230.74 462.258 1232.78L462.264 1232.79H462.268L462.278 1232.8H462.287C464.459 1234.12 467.339 1235.86 470.914 1238.12C476.675 1241.76 480.72 1243.94 482.938 1245.14C484.298 1245.87 484.971 1246.23 484.934 1246.34C484.897 1246.44 484.179 1246.28 482.756 1245.98H482.751H482.743H482.742C479.748 1245.34 473.654 1244.05 464.244 1243.03C438.267 1240.22 435.108 1240.96 458.277 1253.95C481.445 1266.93 464.244 1266.55 458.277 1265.5C452.309 1264.45 425.279 1260.09 448.096 1271.82C470.914 1283.55 455.958 1280.46 455.958 1280.46C455.958 1280.46 411.588 1269.15 432.651 1281.44C453.21 1293.43 452.781 1293.36 428.833 1289.13H428.832L427.034 1288.81C409.161 1285.66 415.538 1291.47 426.865 1301.79C431.835 1306.32 437.757 1311.71 443.002 1317.6C452.365 1324.46 458.902 1328.17 473.354 1333.54L474.07 1333.92H474.073H474.077H474.08H474.083C488.178 1341.3 494.978 1344.86 495.768 1343.82C496.505 1342.86 492.017 1337.9 483.345 1328.33L482.311 1327.19L481.446 1326.23C461.051 1303.69 463.118 1304.37 489.044 1312.98L489.126 1313.01C491.004 1313.63 493.008 1314.3 495.136 1315C529.275 1326.23 527.432 1320.26 498.998 1303.41C495.619 1300.44 492.461 1297.82 489.772 1295.59C478.491 1286.23 475.459 1283.72 498.998 1290.58C532.726 1300.41 549.346 1303.41 521.816 1285.16C495.814 1267.92 499.382 1262.33 529.275 1273.84C558.675 1285.16 563.59 1282.35 532.726 1266.87C503.561 1252.24 509.391 1246.25 541.098 1253.95C544.914 1254.87 548.189 1255.69 550.957 1256.38H550.961C558.994 1258.38 562.744 1259.32 562.987 1258.75ZM346.987 974.753C347.2 974.257 344.721 972.607 340.07 969.511C335.527 966.487 328.911 962.085 320.709 956.03C304.678 948.307 274.866 932.86 274.866 932.86C273.903 932.86 271.522 932.075 268.909 931.213C263.9 929.56 258.034 927.626 259.649 930.394C262.106 934.607 263.968 936.258 263.968 936.258C269.094 942.068 273.304 945.995 276.018 948.528C278.328 950.684 279.555 951.828 279.341 952.263C279.099 952.754 277.009 952.335 272.551 951.44C269.985 950.925 266.635 950.253 262.401 949.506C255.353 948.263 250.103 947.099 246.607 946.323H246.606C243.193 945.566 241.451 945.179 241.34 945.453C241.225 945.738 242.879 946.739 246.255 948.782H246.256V948.783C248.432 950.099 251.322 951.848 254.914 954.117C260.675 957.756 264.72 959.939 266.938 961.137C268.298 961.871 268.971 962.235 268.934 962.336C268.897 962.436 268.175 962.283 266.743 961.979H266.742C263.749 961.343 257.655 960.049 248.244 959.032C222.267 956.224 219.108 956.957 242.277 969.945C265.445 982.934 248.244 982.551 242.277 981.499C236.309 980.446 209.279 976.087 232.096 987.817C254.914 999.547 239.958 996.458 239.958 996.458C239.958 996.458 195.588 985.154 216.651 997.441C237.21 1009.43 236.781 1009.36 212.833 1005.13L211.034 1004.81C193.161 1001.66 199.538 1007.47 210.865 1017.79H210.866H210.867H210.869L210.874 1017.8H210.876C215.843 1022.33 221.761 1027.72 227.002 1033.6C236.365 1040.46 242.902 1044.17 257.354 1049.54L258.07 1049.92H258.073H258.077H258.08H258.083C272.178 1057.3 278.978 1060.86 279.768 1059.82C280.505 1058.86 276.017 1053.9 267.345 1044.33L266.44 1043.33L265.446 1042.23C245.051 1019.69 247.118 1020.37 273.044 1028.98L273.135 1029.01C275.011 1029.63 277.011 1030.3 279.136 1031C313.275 1042.23 311.432 1036.26 282.998 1019.41C279.622 1016.44 276.467 1013.82 273.779 1011.6L273.775 1011.59H273.774H273.773H273.772C262.491 1002.23 259.459 999.721 282.998 1006.58C316.726 1016.41 333.346 1019.41 305.816 1001.16C279.814 983.917 283.382 978.325 313.275 989.836C342.675 1001.16 347.59 998.349 316.726 982.869C287.561 968.24 293.391 962.247 325.098 969.945C328.906 970.87 332.176 971.686 334.94 972.375L334.957 972.38C342.992 974.384 346.744 975.32 346.987 974.753ZM556.071 1483.51C560.721 1486.61 563.2 1488.26 562.987 1488.75C562.744 1489.32 558.994 1488.38 550.961 1486.38H550.957C548.189 1485.69 544.914 1484.87 541.098 1483.95C509.391 1476.25 503.561 1482.24 532.726 1496.87C563.59 1512.35 558.675 1515.16 529.275 1503.84C499.382 1492.33 495.814 1497.92 521.816 1515.16C549.346 1533.41 532.726 1530.41 498.998 1520.58C475.459 1513.72 478.491 1516.23 489.772 1525.59C492.461 1527.82 495.619 1530.44 498.998 1533.41C527.432 1550.26 529.275 1556.23 495.136 1545C492.977 1544.29 490.946 1543.61 489.044 1542.98C463.118 1534.37 461.051 1533.69 481.446 1556.23C482.099 1556.95 482.733 1557.65 483.345 1558.33C492.017 1567.9 496.505 1572.86 495.768 1573.82C494.978 1574.86 488.178 1571.3 474.083 1563.92H474.08H474.077H474.073H474.07L473.354 1563.54C458.902 1558.17 452.365 1554.46 443.002 1547.6C437.757 1541.71 431.835 1536.32 426.865 1531.79C415.538 1521.47 409.161 1515.66 427.034 1518.81L428.832 1519.13H428.833C452.781 1523.36 453.21 1523.43 432.651 1511.44C411.588 1499.15 455.958 1510.46 455.958 1510.46C455.958 1510.46 470.914 1513.55 448.096 1501.82C425.279 1490.09 452.309 1494.45 458.277 1495.5C464.244 1496.55 481.445 1496.93 458.277 1483.95C435.108 1470.96 438.267 1470.22 464.244 1473.03C473.654 1474.05 479.748 1475.34 482.742 1475.98H482.743H482.751H482.756C484.179 1476.28 484.897 1476.44 484.934 1476.34C484.971 1476.23 484.298 1475.87 482.938 1475.14C480.72 1473.94 476.675 1471.76 470.914 1468.12C467.339 1465.86 464.459 1464.12 462.287 1462.8H462.278L462.268 1462.79H462.264L462.258 1462.78C458.88 1460.74 457.225 1459.74 457.34 1459.45C457.451 1459.18 459.192 1459.57 462.605 1460.32C466.102 1461.1 471.352 1462.26 478.401 1463.51C482.635 1464.25 485.986 1464.93 488.552 1465.44C493.009 1466.33 495.099 1466.75 495.341 1466.26C495.555 1465.83 494.328 1464.68 492.018 1462.53C489.304 1460 485.094 1456.07 479.968 1450.26C479.968 1450.26 478.106 1448.61 475.649 1444.39C474.034 1441.63 479.899 1443.56 484.908 1445.21H484.909H484.912C487.524 1446.08 489.903 1446.86 490.866 1446.86C490.866 1446.86 520.678 1462.31 536.709 1470.03C544.903 1476.08 551.514 1480.48 556.057 1483.5L556.062 1483.51H556.066H556.071ZM346.987 1488.75C347.2 1488.26 344.721 1486.61 340.071 1483.51H340.067C335.524 1480.49 328.909 1476.08 320.709 1470.03C304.678 1462.31 274.866 1446.86 274.866 1446.86C273.903 1446.86 271.524 1446.08 268.912 1445.21H268.909H268.908C263.899 1443.56 258.034 1441.63 259.649 1444.39C262.106 1448.61 263.968 1450.26 263.968 1450.26C269.094 1456.07 273.304 1460 276.018 1462.53C278.328 1464.68 279.555 1465.83 279.341 1466.26C279.099 1466.75 277.009 1466.33 272.552 1465.44C269.986 1464.93 266.635 1464.25 262.401 1463.51C255.352 1462.26 250.102 1461.1 246.605 1460.32C243.192 1459.57 241.451 1459.18 241.34 1459.45C241.225 1459.74 242.88 1460.74 246.257 1462.78L246.265 1462.79C248.439 1464.1 251.327 1465.85 254.914 1468.12C260.675 1471.76 264.72 1473.94 266.938 1475.14C268.298 1475.87 268.971 1476.23 268.934 1476.34C268.897 1476.44 268.179 1476.28 266.757 1475.98H266.751H266.743H266.742C263.748 1475.34 257.655 1474.05 248.244 1473.03C222.267 1470.22 219.108 1470.96 242.277 1483.95C265.445 1496.93 248.244 1496.55 242.277 1495.5C236.309 1494.45 209.279 1490.09 232.096 1501.82C254.914 1513.55 239.958 1510.46 239.958 1510.46C239.958 1510.46 195.588 1499.15 216.651 1511.44C237.21 1523.43 236.781 1523.36 212.833 1519.13H212.832L211.034 1518.81C193.161 1515.66 199.538 1521.47 210.865 1531.79C215.835 1536.32 221.757 1541.71 227.002 1547.6C236.365 1554.46 242.902 1558.17 257.354 1563.54L258.07 1563.92H258.073H258.077H258.08C272.177 1571.3 278.978 1574.86 279.768 1573.82C280.505 1572.86 276.017 1567.9 267.345 1558.33L266.229 1557.09L265.446 1556.23C245.051 1533.69 247.118 1534.37 273.044 1542.98L273.096 1543C274.045 1543.31 275.026 1543.64 276.038 1543.97C277.04 1544.3 278.072 1544.65 279.136 1545C313.275 1556.23 311.432 1550.26 282.998 1533.41C279.619 1530.44 276.461 1527.82 273.772 1525.59C262.491 1516.23 259.459 1513.72 282.998 1520.58C316.726 1530.41 333.346 1533.41 305.816 1515.16C279.814 1497.92 283.382 1492.33 313.275 1503.84C342.675 1515.16 347.59 1512.35 316.726 1496.87C287.561 1482.24 293.391 1476.25 325.098 1483.95C328.914 1484.87 332.189 1485.69 334.957 1486.38H334.958H334.966H334.969C342.996 1488.39 346.745 1489.32 346.987 1488.75Z" fill="white"/>
</g>
<defs>
<clipPath id="clip0">
<rect width="1760" height="762" fill="white" transform="translate(762) rotate(90)"/>
</clipPath>
</defs>
</svg>
