<svg width="529" height="331" viewBox="0 0 529 331" fill="none" xmlns="http://www.w3.org/2000/svg">
<path d="M14.8242 199.97L59.2229 329.353L88.0655 275.267L44.6535 148.759L14.8242 199.97Z" fill="#FE3176"/>
<path d="M490.5 181.358L512.873 129.491L476.933 141.824L490.5 181.358Z" fill="#FE3176"/>
<path d="M88.0655 275.267L59.2229 329.353L490.5 181.358L476.933 141.824L88.0655 275.267Z" fill="#FE3176"/>
<path d="M512.873 129.491L469.461 2.98346L476.933 141.824L512.873 129.491Z" fill="#FE3176"/>
<path d="M42.1029 149.412L469.067 2.89638L511.985 127.967L85.0216 274.482L42.1029 149.412Z" fill="#1C1CD2" stroke="black" stroke-width="4.55963"/>
<path d="M38.8833 148.329L13.6346 201.182L58.0333 330.565L84.4728 276.5L38.8833 148.329Z" fill="black"/>
<path d="M182.797 193.69C180.477 189.933 178.237 184.953 176.115 178.769L171.575 165.54L176.867 163.724C180.018 162.642 182.988 162.387 185.796 162.919L177.978 147.691L141.321 160.27L144.501 177.09C146.331 174.966 148.832 173.344 152.013 172.252L157.691 170.304L162.231 183.533C164.353 189.717 165.642 195.024 166.118 199.413L182.797 193.69ZM237.34 176.003C238.856 175.483 240.199 174.556 241.381 173.254C242.532 171.961 243.206 170.633 243.403 169.27L236.961 151.077C236.744 155.771 234.723 158.79 230.888 160.106C229.253 160.667 227.501 160.405 225.975 159.832C223.771 159.026 221.286 157.885 218.224 158.936L218.105 158.977L217.983 158.62L218.518 158.436C221.639 157.365 224.261 156 226.394 154.371C228.527 152.742 230.031 150.83 230.896 148.606C231.771 146.411 231.78 144.115 230.954 141.707C230.148 139.359 228.721 137.622 226.653 136.437C222.508 134.138 216.924 134.326 210.591 136.499L184.727 145.375C187.046 149.132 189.286 154.112 191.419 160.325L195.469 172.128C197.591 178.311 198.88 183.618 199.356 188.007L216.034 182.284C213.715 178.527 211.474 173.547 209.352 167.363L208.495 164.866C208.959 164.474 209.791 164.089 211.01 163.671C215.826 162.018 218.697 165.253 221.711 168.905C225.41 173.484 229.293 178.797 237.34 176.003ZM204.527 153.301L212.673 150.506C215.557 149.516 218.077 150.18 218.802 152.291C219.577 154.55 217.984 156.493 214.773 157.595L206.924 160.288L204.527 153.301ZM260.51 167.022C259.785 164.911 259.22 161.715 258.834 157.395L258.821 155.904L270.802 151.793L271.717 152.908C274.086 156.714 275.642 159.603 276.356 161.584L293.034 155.861C289.462 152.135 285.854 147.624 282.249 142.348L274.007 131.984C272.487 129.781 271.034 127.289 269.598 124.558C268.163 121.828 267.019 119.462 266.215 117.412L241.391 125.93C242.015 127.942 242.574 130.442 243.118 133.479C243.661 136.516 244.005 139.455 244.189 142.217L244.017 155.468C244.406 162.413 244.318 168.159 243.772 172.765L260.51 167.022ZM258.468 141.803C258.433 140.054 258.102 137.442 257.514 133.889L258.317 133.614C259.893 136.562 261.275 138.846 262.482 140.425L267.314 146.178L258.187 149.31L258.468 141.803ZM316.311 148.837C319.908 147.603 323.007 146.273 325.649 144.868C328.251 143.444 330.81 141.801 333.329 139.94L327.85 123.975C326.617 126.093 324.835 128.067 322.505 129.897C320.175 131.726 317.514 133.171 314.541 134.191C307.287 136.681 299.93 136.447 297.89 130.501C296.961 127.796 297.515 125.247 299.512 122.833C301.518 120.45 304.523 118.555 308.507 117.188C310.856 116.382 313.327 115.933 315.891 115.85C318.435 115.808 320.584 116.068 322.349 116.658L317.397 101.842C315.378 101.671 312.904 101.822 309.996 102.255C307.097 102.718 304.162 103.459 301.159 104.49C296.135 106.214 291.646 108.917 288.122 112.785C286.359 114.719 284.957 116.829 283.933 119.074C281.865 123.605 281.519 129.373 283.549 135.29C285.589 141.236 289.385 145.615 293.799 147.922C300.45 151.422 308.879 151.487 316.311 148.837ZM375.77 128.433C377.286 127.913 378.59 126.967 379.751 125.605C380.911 124.243 381.535 122.866 381.633 121.503L375.332 103.528C374.987 107.268 373.525 109.398 369.689 110.714C367.579 111.439 365.329 111.081 363.384 110.353C360.632 109.303 357.101 107.923 352.622 109.493L351.879 109.748L351.644 109.064L355.301 107.81C360.385 106.065 363.464 104.676 366.001 102.775C369.714 99.9395 370.311 96.6441 368.583 91.2223C367.553 88.2196 366.05 85.7777 364.085 83.8269L348.447 89.1931C350.74 91.0317 352.36 93.3333 353.309 96.0982C355.349 102.044 353.716 106.193 348.721 107.907L345.273 109.091L344.457 106.712C342.467 100.915 341.29 95.9358 340.896 91.7844L324.218 97.5077C326.537 101.264 328.777 106.244 330.91 112.458L334.96 124.26C337.082 130.444 338.371 135.751 338.847 140.14L355.525 134.417C353.288 130.898 351.057 125.947 348.843 119.496L346.987 114.085C347.618 113.503 348.567 112.978 349.846 112.539C354.87 110.815 357.381 114.839 359.916 119.418C361.208 121.733 362.511 124.077 364.258 125.97C366.747 128.771 370.3 130.31 375.77 128.433ZM406.421 117.915C412.694 115.763 417.5 113.016 420.761 109.638C423.991 106.27 425.098 102.135 423.588 97.735C422.323 94.0486 419.62 91.8856 416.504 91.3266C413.398 90.7974 409.533 90.9607 405.932 91.7975C398.619 93.2436 391.653 95.7005 390.5 92.3411C390.164 91.36 390.662 90.3915 391.946 89.3862C393.229 88.3809 395.02 87.5003 397.339 86.7046C400.401 85.6538 403.616 85.0489 406.945 84.8705C410.273 84.6921 413.059 84.9657 415.291 85.6617L410.007 70.2618C407.611 70.2531 404.77 70.4968 401.455 71.0031C398.14 71.5095 394.986 72.2927 392.042 73.3027C387.94 74.7105 384.476 76.4309 381.691 78.4831C378.876 80.5456 376.859 82.8992 375.69 85.5933C374.521 88.2874 374.406 91.0516 375.386 93.9057C376.539 97.2651 378.835 99.5012 381.506 100.313C384.187 101.154 387.439 101.334 390.714 100.808C398.835 99.6827 407.214 96.2095 408.254 99.2419C408.907 101.145 406.558 103.014 401.236 104.84C397.58 106.095 393.739 106.815 389.745 106.989C385.721 107.174 382.148 106.639 378.966 105.404L383.93 121.612C387.15 121.604 390.944 121.232 395.321 120.528C399.699 119.823 403.389 118.956 406.421 117.915Z" fill="white"/>
</svg>
