<svg width="58" height="58" viewBox="0 0 58 58" fill="none" xmlns="http://www.w3.org/2000/svg">
<path d="M28.5796 57.3408C36.1594 57.3408 43.4287 54.3298 48.7884 48.97C54.1481 43.6103 57.1592 36.341 57.1592 28.7612C57.1592 21.1814 54.1481 13.9121 48.7884 8.55241C43.4287 3.1927 36.1594 0.181641 28.5796 0.181641C20.9998 0.181641 13.7305 3.1927 8.37077 8.55241C3.01105 13.9121 0 21.1814 0 28.7612C0 36.341 3.01105 43.6103 8.37077 48.97C13.7305 54.3298 20.9998 57.3408 28.5796 57.3408ZM31.902 23.7169L28.3295 40.5253C28.0794 41.7399 28.4331 42.4294 29.4155 42.4294C30.1086 42.4294 31.1553 42.1793 31.8662 41.5506L31.5519 43.0367C30.5266 44.2728 28.2652 45.173 26.3182 45.173C23.8068 45.173 22.7386 43.6655 23.4317 40.461L26.0681 28.0717C26.2968 27.025 26.0896 26.6463 25.0429 26.3927L23.4317 26.1033L23.7246 24.7422L31.9055 23.7169H31.902ZM28.5796 19.8301C27.6321 19.8301 26.7234 19.4537 26.0535 18.7838C25.3835 18.1138 25.0071 17.2051 25.0071 16.2577C25.0071 15.3102 25.3835 14.4015 26.0535 13.7316C26.7234 13.0616 27.6321 12.6852 28.5796 12.6852C29.5271 12.6852 30.4357 13.0616 31.1057 13.7316C31.7756 14.4015 32.152 15.3102 32.152 16.2577C32.152 17.2051 31.7756 18.1138 31.1057 18.7838C30.4357 19.4537 29.5271 19.8301 28.5796 19.8301Z" fill="black"/>
</svg>
