<svg width="35" height="35" viewBox="0 0 54 55" fill="none" xmlns="http://www.w3.org/2000/svg">
<path d="M12.1342 54.857H2.6965C1.21342 54.857 0 53.4947 0 51.8297V21.5565C0 19.8914 1.21342 18.5291 2.6965 18.5291H12.1342C13.6173 18.5291 14.8307 19.8914 14.8307 21.5565V51.8297C14.8307 53.4947 13.6173 54.857 12.1342 54.857ZM31.6839 0.365234H22.2461C20.763 0.365234 19.5496 1.72753 19.5496 3.39255V51.8297C19.5496 53.4947 20.763 54.857 22.2461 54.857H31.6839C33.1669 54.857 34.3804 53.4947 34.3804 51.8297V3.39255C34.3804 1.72753 33.1669 0.365234 31.6839 0.365234ZM51.2335 24.5838H41.7957C40.3127 24.5838 39.0992 25.9461 39.0992 27.6111V51.8297C39.0992 53.4947 40.3127 54.857 41.7957 54.857H51.2335C52.7165 54.857 53.93 53.4947 53.93 51.8297V27.6111C53.93 25.9461 52.7165 24.5838 51.2335 24.5838Z" fill="current"/>
</svg>
