<svg width="156" height="134" viewBox="0 0 156 134" fill="none" xmlns="http://www.w3.org/2000/svg">
<path d="M37.4245 0H117.991L155.416 66.5325L117.991 133.585H37.4245L0 66.5325L37.4245 0Z" fill="#FE3176"/>
<path d="M49.6116 77.0746H51.9938V77.2489C51.9163 77.3263 51.8647 77.4167 51.8388 77.52C51.8259 77.6104 51.8195 77.7589 51.8195 77.9654V87.3586H57.3585V89.1404H49.6116V77.0746ZM59.1791 89.1404V77.0746H67.0422V78.8563H61.3095V81.9551H66.0157V83.7563H61.3095V87.3586H66.9841V89.1404H59.1791ZM75.1183 89.1404L74.2855 86.3321H71.1287L70.2765 89.1404H68.1074L72.1939 76.9971H73.2397L77.3262 89.1404H75.1183ZM72.7168 81.0448L71.5935 84.7634H73.8207L72.7168 81.0448ZM78.372 89.1404V77.0746H81.4902C82.5489 77.0746 83.3688 77.223 83.9498 77.52C84.5438 77.8041 85.0409 78.2108 85.4411 78.7401C85.8414 79.2824 86.1512 79.928 86.3707 80.6769C86.6032 81.4257 86.7194 82.265 86.7194 83.1946C86.6935 84.4083 86.4934 85.467 86.119 86.3709C85.7445 87.2618 85.1571 87.9461 84.3565 88.4238C83.5689 88.9015 82.536 89.1404 81.2578 89.1404H78.372ZM80.5025 87.4361H81.1997C82.026 87.4361 82.6845 87.2618 83.1751 86.9131C83.6787 86.5645 84.0402 86.0739 84.2597 85.4412C84.4792 84.8086 84.5825 84.0661 84.5696 83.214C84.5696 82.3231 84.4727 81.5484 84.2791 80.8899C84.0983 80.2314 83.7755 79.7214 83.3107 79.3599C82.8459 78.9984 82.2132 78.8176 81.4127 78.8176H80.5025V87.4361ZM88.23 89.1404V77.0746H96.0931V78.8563H90.3604V81.9551H95.0667V83.7563H90.3604V87.3586H96.035V89.1404H88.23ZM97.7975 89.1404V77.0746H101.613C103.085 77.0746 104.163 77.3973 104.847 78.0429C105.531 78.6885 105.874 79.5471 105.874 80.6188C105.874 81.0578 105.777 81.5032 105.583 81.9551C105.402 82.3941 105.138 82.7879 104.789 83.1365C104.453 83.4851 104.06 83.7434 103.608 83.9112L106.203 89.1404H103.898L101.458 84.1242H100.005V89.1404H97.7975ZM100.005 82.3037H101.768C102.388 82.3037 102.852 82.1617 103.162 81.8776C103.472 81.5807 103.627 81.1804 103.627 80.6769C103.627 80.2121 103.472 79.8118 103.162 79.4761C102.852 79.1404 102.388 78.9725 101.768 78.9725H100.005V82.3037ZM54.0661 109.14V97.0746H57.7459C59.192 97.0746 60.2636 97.3586 60.9608 97.9267C61.6581 98.4948 62.0067 99.2243 62.0067 100.115C62.0067 100.632 61.8582 101.142 61.5612 101.645C61.2772 102.149 60.8576 102.51 60.3024 102.73C60.9608 103.014 61.4838 103.421 61.8711 103.95C62.2714 104.466 62.4715 105.035 62.4715 105.654C62.4715 106.7 62.0777 107.546 61.2901 108.191C60.5154 108.824 59.3275 109.14 57.7265 109.14H54.0661ZM56.2546 101.897H57.5716C58.4237 101.897 59.0047 101.755 59.3146 101.471C59.6374 101.174 59.7988 100.787 59.7988 100.309C59.7988 99.8699 59.6374 99.5148 59.3146 99.2437C58.9918 98.9725 58.4754 98.837 57.7652 98.837H56.2546V101.897ZM56.2546 107.339H57.9589C58.6432 107.339 59.1855 107.191 59.5858 106.894C59.9989 106.597 60.2055 106.164 60.2055 105.596C60.2055 105.015 60.0118 104.544 59.6245 104.182C59.2501 103.821 58.5851 103.64 57.6297 103.64H56.2546V107.339ZM67.9137 109.373C66.4289 109.373 65.3056 108.831 64.5438 107.746C63.782 106.661 63.4011 105.118 63.4011 103.117C63.4011 101.168 63.782 99.6439 64.5438 98.5465C65.3056 97.449 66.4289 96.9002 67.9137 96.9002C69.3727 96.9002 70.4831 97.449 71.2449 98.5465C72.0196 99.6439 72.4069 101.168 72.4069 103.117C72.4069 105.118 72.0196 106.661 71.2449 107.746C70.4831 108.831 69.3727 109.373 67.9137 109.373ZM67.9137 107.591C68.6368 107.591 69.2049 107.223 69.618 106.487C70.0312 105.738 70.2378 104.608 70.2378 103.098C70.2378 101.69 70.0312 100.606 69.618 99.8441C69.2049 99.0694 68.6368 98.682 67.9137 98.682C67.1648 98.682 66.5838 99.0694 66.1706 99.8441C65.7704 100.606 65.5703 101.69 65.5703 103.098C65.5703 104.608 65.7704 105.738 66.1706 106.487C66.5838 107.223 67.1648 107.591 67.9137 107.591ZM79.9602 109.14L79.1274 106.332H75.9705L75.1183 109.14H72.9492L77.0357 96.9971H78.0815L82.168 109.14H79.9602ZM77.5586 101.045L76.4353 104.763H78.6626L77.5586 101.045ZM83.272 109.14V97.0746H87.0873C88.5593 97.0746 89.6374 97.3973 90.3217 98.0429C91.006 98.6885 91.3481 99.5471 91.3481 100.619C91.3481 101.058 91.2513 101.503 91.0576 101.955C90.8769 102.394 90.6122 102.788 90.2636 103.137C89.9279 103.485 89.5341 103.743 89.0822 103.911L91.6774 109.14H89.3727L86.9324 104.124H85.4798V109.14H83.272ZM85.4798 102.304H87.2423C87.862 102.304 88.3268 102.162 88.6367 101.878C88.9466 101.581 89.1015 101.18 89.1015 100.677C89.1015 100.212 88.9466 99.8118 88.6367 99.4761C88.3268 99.1404 87.862 98.9725 87.2423 98.9725H85.4798V102.304ZM92.8975 109.14V97.0746H96.0157C97.0744 97.0746 97.8943 97.223 98.4753 97.52C99.0692 97.8041 99.5663 98.2108 99.9666 98.7401C100.367 99.2824 100.677 99.928 100.896 100.677C101.129 101.426 101.245 102.265 101.245 103.195C101.219 104.408 101.019 105.467 100.644 106.371C100.27 107.262 99.6825 107.946 98.882 108.424C98.0944 108.902 97.0615 109.14 95.7833 109.14H92.8975ZM95.0279 107.436H95.7252C96.5515 107.436 97.21 107.262 97.7006 106.913C98.2042 106.565 98.5657 106.074 98.7852 105.441C99.0047 104.809 99.108 104.066 99.0951 103.214C99.0951 102.323 98.9982 101.548 98.8046 100.89C98.6238 100.231 98.301 99.7214 97.8362 99.3599C97.3714 98.9984 96.7387 98.8176 95.9382 98.8176H95.0279V107.436Z" fill="black"/>
<path d="M63.7117 65.9181H54.8996C53.5148 65.9181 52.3818 64.6461 52.3818 63.0915V34.8251C52.3818 33.2704 53.5148 31.9984 54.8996 31.9984H63.7117C65.0965 31.9984 66.2295 33.2704 66.2295 34.8251V63.0915C66.2295 64.6461 65.0965 65.9181 63.7117 65.9181ZM81.9654 15.0386H73.1533C71.7685 15.0386 70.6355 16.3106 70.6355 17.8652V63.0915C70.6355 64.6461 71.7685 65.9181 73.1533 65.9181H81.9654C83.3502 65.9181 84.4831 64.6461 84.4831 63.0915V17.8652C84.4831 16.3106 83.3502 15.0386 81.9654 15.0386ZM100.219 37.6517H91.407C90.0222 37.6517 88.8892 38.9237 88.8892 40.4783V63.0915C88.8892 64.6461 90.0222 65.9181 91.407 65.9181H100.219C101.604 65.9181 102.737 64.6461 102.737 63.0915V40.4783C102.737 38.9237 101.604 37.6517 100.219 37.6517Z" fill="black"/>
</svg>
