<svg width="319" height="274" viewBox="0 0 319 274" fill="none" xmlns="http://www.w3.org/2000/svg">
<path d="M76.7514 0H241.98L318.732 136.447L241.98 273.96H76.7514L0 136.447L76.7514 0Z" fill="#FE3176"/>
<path d="M111.722 174.174H115.439V174.446C115.318 174.567 115.238 174.708 115.198 174.869C115.177 175.01 115.167 175.242 115.167 175.564V190.22H123.81V193H111.722V174.174ZM126.65 193V174.174H138.919V176.954H129.974V181.789H137.318V184.599H129.974V190.22H138.828V193H126.65ZM151.52 193L150.221 188.618H145.295L143.966 193H140.581L146.957 174.053H148.589L154.965 193H151.52ZM147.773 180.369L146.02 186.171H149.496L147.773 180.369ZM156.597 193V174.174H161.462C163.114 174.174 164.393 174.406 165.3 174.869C166.227 175.312 167.002 175.947 167.627 176.773C168.251 177.619 168.735 178.626 169.077 179.795C169.44 180.963 169.621 182.272 169.621 183.723C169.581 185.617 169.269 187.269 168.684 188.679C168.1 190.069 167.183 191.137 165.934 191.882C164.706 192.627 163.094 193 161.099 193H156.597ZM159.921 190.341H161.009C162.298 190.341 163.326 190.069 164.091 189.525C164.877 188.981 165.441 188.215 165.783 187.228C166.126 186.241 166.287 185.083 166.267 183.753C166.267 182.363 166.116 181.154 165.814 180.127C165.532 179.099 165.028 178.304 164.303 177.74C163.577 177.176 162.59 176.894 161.341 176.894H159.921V190.341ZM171.978 193V174.174H184.247V176.954H175.302V181.789H182.645V184.599H175.302V190.22H184.156V193H171.978ZM186.906 193V174.174H192.859C195.156 174.174 196.838 174.678 197.906 175.685C198.973 176.692 199.507 178.032 199.507 179.704C199.507 180.389 199.356 181.084 199.054 181.789C198.772 182.474 198.359 183.088 197.815 183.632C197.291 184.176 196.677 184.579 195.972 184.841L200.021 193H196.425L192.617 185.173H190.351V193H186.906ZM190.351 182.333H193.101C194.068 182.333 194.793 182.111 195.277 181.668C195.76 181.205 196.002 180.58 196.002 179.795C196.002 179.069 195.76 178.445 195.277 177.921C194.793 177.397 194.068 177.135 193.101 177.135H190.351V182.333Z" fill="black"/>
<path d="M120.118 219V200.174H125.86C128.116 200.174 129.788 200.617 130.876 201.503C131.964 202.39 132.508 203.528 132.508 204.918C132.508 205.724 132.276 206.52 131.813 207.305C131.369 208.091 130.715 208.655 129.848 208.998C130.876 209.441 131.692 210.075 132.296 210.901C132.921 211.707 133.233 212.594 133.233 213.561C133.233 215.192 132.618 216.512 131.39 217.519C130.181 218.506 128.327 219 125.829 219H120.118ZM123.533 207.698H125.588C126.917 207.698 127.824 207.477 128.307 207.033C128.811 206.57 129.063 205.966 129.063 205.22C129.063 204.535 128.811 203.981 128.307 203.558C127.804 203.135 126.998 202.924 125.89 202.924H123.533V207.698ZM123.533 216.19H126.192C127.26 216.19 128.106 215.958 128.73 215.495C129.375 215.031 129.697 214.356 129.697 213.47C129.697 212.563 129.395 211.828 128.791 211.264C128.207 210.7 127.169 210.418 125.678 210.418H123.533V216.19ZM141.724 219.363C139.408 219.363 137.655 218.517 136.466 216.824C135.278 215.132 134.683 212.725 134.683 209.602C134.683 206.56 135.278 204.183 136.466 202.47C137.655 200.758 139.408 199.902 141.724 199.902C144.001 199.902 145.733 200.758 146.922 202.47C148.131 204.183 148.735 206.56 148.735 209.602C148.735 212.725 148.131 215.132 146.922 216.824C145.733 218.517 144.001 219.363 141.724 219.363ZM141.724 216.583C142.852 216.583 143.739 216.008 144.384 214.86C145.028 213.692 145.351 211.929 145.351 209.572C145.351 207.376 145.028 205.684 144.384 204.495C143.739 203.286 142.852 202.682 141.724 202.682C140.556 202.682 139.649 203.286 139.005 204.495C138.38 205.684 138.068 207.376 138.068 209.572C138.068 211.929 138.38 213.692 139.005 214.86C139.649 216.008 140.556 216.583 141.724 216.583ZM160.52 219L159.221 214.618H154.295L152.966 219H149.581L155.957 200.053H157.589L163.965 219H160.52ZM156.773 206.369L155.02 212.171H158.496L156.773 206.369ZM165.688 219V200.174H171.641C173.937 200.174 175.619 200.678 176.687 201.685C177.755 202.692 178.289 204.032 178.289 205.704C178.289 206.389 178.138 207.084 177.835 207.789C177.553 208.474 177.14 209.088 176.596 209.632C176.073 210.176 175.458 210.579 174.753 210.841L178.802 219H175.206L171.399 211.173H169.132V219H165.688ZM169.132 208.333H171.882C172.849 208.333 173.575 208.111 174.058 207.668C174.542 207.205 174.783 206.58 174.783 205.795C174.783 205.069 174.542 204.445 174.058 203.921C173.575 203.397 172.849 203.135 171.882 203.135H169.132V208.333ZM180.706 219V200.174H185.571C187.223 200.174 188.503 200.406 189.409 200.869C190.336 201.312 191.111 201.947 191.736 202.773C192.36 203.619 192.844 204.626 193.186 205.795C193.549 206.963 193.73 208.272 193.73 209.723C193.69 211.617 193.378 213.269 192.794 214.679C192.209 216.069 191.293 217.137 190.044 217.882C188.815 218.627 187.203 219 185.209 219H180.706ZM184.03 216.341H185.118C186.407 216.341 187.435 216.069 188.2 215.525C188.986 214.981 189.55 214.215 189.893 213.228C190.235 212.241 190.396 211.083 190.376 209.753C190.376 208.363 190.225 207.154 189.923 206.127C189.641 205.099 189.137 204.304 188.412 203.74C187.687 203.176 186.7 202.894 185.45 202.894H184.03V216.341Z" fill="black"/>
<path d="M129.185 154.609H110.374C107.419 154.609 105 151.894 105 148.576V88.237C105 84.9184 107.419 82.2031 110.374 82.2031H129.185C132.141 82.2031 134.56 84.9184 134.56 88.237V148.576C134.56 151.894 132.141 154.609 129.185 154.609ZM168.15 46H149.34C146.384 46 143.965 48.7152 143.965 52.0339V148.576C143.965 151.894 146.384 154.609 149.34 154.609H168.15C171.106 154.609 173.525 151.894 173.525 148.576V52.0339C173.525 48.7152 171.106 46 168.15 46ZM207.115 94.2709H188.305C185.349 94.2709 182.93 96.9861 182.93 100.305V148.576C182.93 151.894 185.349 154.609 188.305 154.609H207.115C210.071 154.609 212.49 151.894 212.49 148.576V100.305C212.49 96.9861 210.071 94.2709 207.115 94.2709Z" fill="black"/>
</svg>
