<svg width="745" height="719" viewBox="0 0 745 719" fill="none" xmlns="http://www.w3.org/2000/svg">
<path d="M627.58 104.22L741.56 2" stroke="white" stroke-width="5" stroke-miterlimit="10"/>
<path d="M274.371 469.14L344.911 427.58L416.181 467.88L416.901 549.75L346.361 591.32L275.101 551.01L274.371 469.14Z" fill="#FE3176" stroke="black" stroke-width="4" stroke-miterlimit="10"/>
<path d="M416.27 467.94L486.81 426.37L558.07 466.68L558.8 548.55L488.26 590.12L416.99 549.81L416.27 467.94Z" fill="#FE3176" stroke="black" stroke-width="4" stroke-miterlimit="10"/>
<path d="M487.219 345.28L557.759 303.72L629.019 344.03L629.749 425.9L559.209 467.46L487.939 427.15L487.219 345.28Z" fill="#FE3176" stroke="black" stroke-width="4" stroke-miterlimit="10"/>
<path d="M557.781 224.68L628.321 183.12L699.581 223.43L700.311 305.3L629.771 346.86L558.501 306.56L557.781 224.68Z" fill="#FF610B" stroke="black" stroke-width="4" stroke-miterlimit="10"/>
<path d="M485.631 105.33L556.171 63.77L627.431 104.07L628.161 185.94L557.621 227.51L486.351 187.2L485.631 105.33Z" fill="#FF610B" stroke="black" stroke-width="4" stroke-miterlimit="10"/>
<path d="M344.93 104.13L415.47 62.5601L486.74 102.87L487.46 184.74L416.92 226.31L345.66 186L344.93 104.13Z" fill="#FF610B" stroke="black" stroke-width="4" stroke-miterlimit="10"/>
<path d="M204.67 355.88L275.21 314.32L346.47 354.62L347.2 436.49L276.66 478.06L205.39 437.75L204.67 355.88Z" fill="#DBF429" stroke="black" stroke-width="4" stroke-miterlimit="10"/>
<path d="M204.24 108.66L274.78 67.0996L346.04 107.41L346.77 189.28L276.23 230.84L204.96 190.54L204.24 108.66Z" fill="#DBF429" stroke="black" stroke-width="4" stroke-miterlimit="10"/>
<path d="M136.15 231.79L206.69 190.23L277.95 230.53L278.68 312.4L208.14 353.97L136.88 313.66L136.15 231.79Z" fill="#DBF429" stroke="black" stroke-width="4" stroke-miterlimit="10"/>
<path d="M128.43 224.36L2 138.02" stroke="white" stroke-width="5" stroke-miterlimit="10"/>
<path d="M276.62 370.5C275.62 360.61 272.09 344.5 259.56 346C223.84 350.16 238.73 326.86 234.56 318C232.288 313.325 228.418 309.618 223.65 307.55" stroke="black" stroke-width="2" stroke-miterlimit="10" stroke-dasharray="4.95 4.95"/>
<path d="M219.32 265C219.32 265 216.56 234.57 234.56 231.78C252.56 228.99 258.56 216.01 257.56 203.5C256.56 190.99 265.41 179.5 265.41 179.5" stroke="black" stroke-width="2" stroke-miterlimit="10" stroke-dasharray="5 5"/>
<path d="M21.8809 139.52C21.8809 139.52 54.1009 122.81 85.7109 126.63C117.321 130.45 28.0309 187.82 37.7109 241.18C47.3909 294.54 110.781 229.87 110.781 229.87" stroke="white" stroke-width="5" stroke-miterlimit="10" stroke-dasharray="15 12"/>
<path d="M744.061 38.5001C744.061 38.5001 731.581 34.1301 741.271 55.7701C750.961 77.4101 666.361 -7.07987 673.061 73.5001C676.411 113.74 628.061 91.5001 628.061 91.5001" stroke="white" stroke-width="5" stroke-miterlimit="10" stroke-dasharray="15 12"/>
<path d="M67.6504 271.52C67.6504 271.52 81.6004 252.72 81.7604 237.36" stroke="white" stroke-width="5" stroke-miterlimit="10" stroke-linecap="round"/>
<path d="M57.4414 252.61C57.4414 252.61 77.5614 256.8 90.2714 268" stroke="white" stroke-width="5" stroke-miterlimit="10" stroke-linecap="round"/>
<path d="M450.951 673.45C450.951 673.45 468.351 657.78 471.541 642.76" stroke="white" stroke-width="5" stroke-miterlimit="10" stroke-linecap="round"/>
<path d="M444.691 652.89C444.691 652.89 463.551 660.98 473.821 674.45" stroke="white" stroke-width="5" stroke-miterlimit="10" stroke-linecap="round"/>
<path d="M374.699 501.91C376.069 497.02 378.699 491.11 383.559 488.61C392.559 484 417.559 486.1 421.559 504.05C425.559 522 435.809 533.92 451.689 535.96C457.859 536.75 461.589 536.37 463.839 535.6" stroke="black" stroke-width="2" stroke-miterlimit="10" stroke-dasharray="5.18 5.18"/>
<path d="M515.889 511.46C515.889 511.46 527.559 501 535.559 506C543.559 511 535.889 483.52 519.559 485C497.559 487 504.429 472 504.429 472C504.429 472 500.559 452 531.559 440C531.559 440 540.559 433.43 550.559 444C560.559 454.57 572.929 425 577.559 413" stroke="black" stroke-width="2" stroke-miterlimit="10" stroke-dasharray="5 5"/>
<path d="M605.321 272C605.321 272 580.921 272.37 581.241 248.7C581.561 225.03 601.561 222 610.561 214C619.561 206 608.561 176 589.561 170" stroke="black" stroke-width="2" stroke-miterlimit="10" stroke-dasharray="5 5"/>
<path d="M523.232 137.76C523.232 137.76 510.952 116.42 485.762 120.21C460.572 124 445.762 142 445.762 142" stroke="black" stroke-width="2" stroke-miterlimit="10" stroke-dasharray="5 5"/>
<path d="M489.061 602.5C489.061 602.5 524.201 643.85 493.061 650.5C398.061 670.8 432.061 716.5 494.061 716.5" stroke="white" stroke-width="5" stroke-miterlimit="10" stroke-dasharray="15 12"/>
<path d="M561.561 443.14C561.561 443.14 569.881 435.65 571.411 428.47" stroke="black" stroke-width="3" stroke-miterlimit="10" stroke-linecap="round"/>
<path d="M558.561 433.31C558.561 433.31 567.56 437.18 572.5 443.62" stroke="black" stroke-width="3" stroke-miterlimit="10" stroke-linecap="round"/>
</svg>
