<svg width="304" height="306" viewBox="0 0 304 306" fill="none" xmlns="http://www.w3.org/2000/svg">
<ellipse cx="152" cy="153" rx="152" ry="153" fill="#DBF429"/>
<path d="M220 153.255L117.25 211.499L117.25 95.0104L220 153.255Z" fill="black"/>
<path d="M48.3162 237.155L66.0976 219.321L72.1664 225.372C73.5404 226.742 74.4381 228.113 74.8593 229.484C75.2806 230.856 75.3016 232.151 74.9222 233.371C74.581 234.592 73.9348 235.679 72.9834 236.633C72.051 237.568 70.9848 238.217 69.7849 238.581C68.6039 238.926 67.3366 238.899 65.9831 238.501C64.6485 238.084 63.3133 237.209 61.9774 235.877L59.0576 232.966L51.6082 240.438L48.3162 237.155ZM61.7405 230.275L64.4313 232.958C65.3474 233.872 66.2723 234.337 67.206 234.355C68.1398 234.372 68.9587 234.028 69.6627 233.322C70.3668 232.616 70.7086 231.796 70.6881 230.862C70.6677 229.929 70.209 229.015 69.312 228.12L66.5926 225.409L61.7405 230.275Z" fill="black"/>
<path d="M82.4611 234.834L86.5983 237.592L86.3965 237.895C86.1723 237.94 85.978 238.037 85.8135 238.186C85.6865 238.328 85.5034 238.579 85.2642 238.938L74.3901 255.251L84.01 261.664L81.9472 264.758L68.4929 255.79L82.4611 234.834Z" fill="black"/>
<path d="M103.452 274.83L104.085 268.749L97.9958 266.232L94.113 270.969L89.9289 269.24L107.493 249.075L109.511 249.909L107.711 276.59L103.452 274.83ZM105.275 257.299L100.143 263.577L104.439 265.352L105.275 257.299Z" fill="black"/>
<path d="M122.827 280.459L124.764 270.705L120.356 254.293L124.956 255.206L128.024 266.531L134.591 257.119L138.992 257.993L129.236 271.634L127.308 281.349L122.827 280.459Z" fill="black"/>
<path d="M179.657 281.215C177.595 281.624 175.706 281.45 173.989 280.691C172.299 279.928 170.869 278.673 169.698 276.928C168.527 275.182 167.69 273.04 167.186 270.502C166.666 267.886 166.572 265.679 166.902 263.882C167.253 262.054 167.853 260.575 168.7 259.445C169.568 258.284 170.537 257.419 171.605 256.849C172.668 256.254 173.649 255.866 174.548 255.688C176.16 255.368 177.743 255.452 179.296 255.941C180.871 256.397 182.164 257.239 183.177 258.467L181.072 261.564L180.889 261.889L180.557 261.666C180.488 261.46 180.396 261.272 180.28 261.103C180.185 260.902 179.971 260.656 179.639 260.365C179.085 259.925 178.472 259.607 177.801 259.411C177.157 259.209 176.358 259.203 175.407 259.392C174.429 259.586 173.559 260.047 172.797 260.775C172.061 261.498 171.557 262.56 171.286 263.96C171.036 265.328 171.123 267.083 171.548 269.224C172.178 272.396 173.15 274.662 174.464 276.023C175.804 277.377 177.294 277.892 178.933 277.567C179.594 277.436 180.225 277.228 180.828 276.943C181.452 276.627 181.995 276.176 182.455 275.59L181.55 271.03L177.466 271.841L176.726 268.114L184.855 266.5L186.956 277.087C185.956 278.274 184.834 279.198 183.591 279.857C182.343 280.489 181.031 280.942 179.657 281.215Z" fill="black"/>
<path d="M209.088 271.303L205.243 266.55L199.153 269.067L199.749 275.163L195.564 276.893L193.765 250.211L195.782 249.377L213.347 269.542L209.088 271.303ZM198.001 257.602L198.799 265.67L203.095 263.895L198.001 257.602Z" fill="black"/>
<path d="M221.031 265.441L207.063 244.485L210.393 242.266L220.875 249.173L218.51 236.806L221.84 234.587L235.831 255.575L232.535 257.773L222.781 243.141L224.619 253.041L222.77 254.274L214.563 248.668L224.294 263.266L221.031 265.441Z" fill="black"/>
<path d="M243.651 249.158L225.869 231.324L237.491 219.736L240.117 222.369L231.644 230.818L236.211 235.398L243.167 228.462L245.821 231.125L238.865 238.06L244.174 243.385L252.561 235.022L255.187 237.656L243.651 249.158Z" fill="black"/>
<path d="M255.689 73.3955L237.907 91.2295L231.839 85.1787C230.464 83.8087 229.567 82.438 229.146 81.0666C228.724 79.6952 228.703 78.3995 229.083 77.1793C229.424 75.9592 230.07 74.8721 231.022 73.9179C231.954 72.9828 233.02 72.3333 234.22 71.9694C235.401 71.6247 236.668 71.6514 238.022 72.0496C239.356 72.4668 240.692 73.3414 242.027 74.6734L244.947 77.5846L252.397 70.1132L255.689 73.3955ZM242.264 80.2755L239.574 77.5926C238.658 76.6792 237.733 76.2137 236.799 76.1961C235.865 76.1784 235.046 76.5226 234.342 77.2287C233.638 77.9348 233.296 78.7547 233.317 79.6884C233.337 80.6221 233.796 81.5362 234.693 82.4305L237.412 85.1419L242.264 80.2755Z" fill="black"/>
<path d="M221.544 75.7163L217.407 72.9586L217.608 72.6558C217.833 72.611 218.027 72.5138 218.191 72.3643C218.318 72.2223 218.502 71.9719 218.741 71.6131L229.615 55.2997L219.995 48.8873L222.058 45.7928L235.512 54.7611L221.544 75.7163Z" fill="black"/>
<path d="M200.552 35.7209L199.92 41.8018L206.009 44.3188L209.892 39.5813L214.076 41.3108L196.511 61.4761L194.494 60.6422L196.294 33.9605L200.552 35.7209ZM198.73 53.2513L203.862 46.9742L199.566 45.1984L198.73 53.2513Z" fill="black"/>
<path d="M181.178 30.0916L179.241 39.8455L183.649 56.2576L179.049 55.3445L175.981 44.0201L169.414 53.4317L165.013 52.5579L174.769 38.9163L176.697 29.2021L181.178 30.0916Z" fill="black"/>
<path d="M124.348 29.3361C126.41 28.9268 128.299 29.1012 130.016 29.8594C131.706 30.6229 133.136 31.8775 134.307 33.6233C135.478 35.369 136.315 37.5107 136.819 40.0483C137.338 42.6652 137.433 44.8719 137.103 46.6684C136.752 48.4965 136.152 49.9755 135.305 51.1053C134.437 52.2669 133.468 53.1323 132.4 53.7015C131.337 54.2973 130.356 54.6843 129.457 54.8627C127.844 55.1829 126.262 55.0987 124.709 54.6103C123.134 54.1535 121.841 53.3113 120.828 52.0837L122.933 48.987L123.116 48.6622L123.448 48.8846C123.517 49.0909 123.609 49.2786 123.725 49.4479C123.82 49.6489 124.033 49.8949 124.366 50.1861C124.92 50.6256 125.533 50.9435 126.204 51.14C126.848 51.3418 127.646 51.3482 128.598 51.1593C129.576 50.9651 130.446 50.5039 131.208 49.7756C131.944 49.0526 132.447 47.991 132.719 46.5908C132.969 45.2223 132.882 43.4675 132.457 41.3264C131.827 38.1544 130.855 35.8883 129.541 34.5282C128.201 33.1733 126.711 32.6585 125.072 32.9839C124.411 33.1151 123.779 33.323 123.177 33.6075C122.552 33.9237 122.01 34.3748 121.549 34.9608L122.455 39.5206L126.539 38.7098L127.279 42.4369L119.15 44.0506L117.049 33.464C118.049 32.2763 119.171 31.353 120.414 30.6941C121.662 30.0616 122.973 29.609 124.348 29.3361Z" fill="black"/>
<path d="M94.9169 39.2479L98.7623 44.0009L104.852 41.4838L104.256 35.3875L108.44 33.658L110.24 60.3397L108.223 61.1736L90.658 41.0083L94.9169 39.2479ZM106.004 52.9488L105.206 44.8804L100.91 46.6563L106.004 52.9488Z" fill="black"/>
<path d="M82.9739 45.1101L96.9421 66.0653L93.6121 68.285L83.1298 61.378L85.4947 73.7445L82.1647 75.9642L68.174 54.9753L71.4704 52.7781L81.2235 67.4097L79.3854 57.5098L81.2354 56.2767L89.4419 61.8829L79.7112 47.2849L82.9739 45.1101Z" fill="black"/>
<path d="M60.3543 61.393L78.1357 79.227L66.5135 90.8149L63.8877 88.1813L72.361 79.733L67.7944 75.1528L60.8382 82.0884L58.1839 79.4262L65.14 72.4906L59.8313 67.1661L51.4438 75.5288L48.818 72.8952L60.3543 61.393Z" fill="black"/>
</svg>
