<svg width="46" height="47" viewBox="0 0 46 47" fill="none" xmlns="http://www.w3.org/2000/svg">
<path d="M23 0C10.2987 0 0 10.5225 0 23.5C0 36.4775 10.2987 47 23 47C35.7013 47 46 36.4775 46 23.5C46 10.5225 35.7013 0 23 0ZM30.398 23.8619L19.1855 32.1971C19.124 32.2422 19.0516 32.2692 18.9761 32.275C18.9006 32.2808 18.825 32.2652 18.7576 32.23C18.6902 32.1947 18.6337 32.1412 18.5941 32.0752C18.5546 32.0093 18.5336 31.9335 18.5335 31.8561V15.1963C18.5332 15.1188 18.554 15.0428 18.5935 14.9766C18.6329 14.9104 18.6896 14.8567 18.7571 14.8214C18.8246 14.7861 18.9004 14.7706 18.976 14.7766C19.0516 14.7826 19.1241 14.8098 19.1855 14.8554L30.398 23.1853C30.451 23.2235 30.4942 23.2742 30.524 23.3331C30.5538 23.392 30.5694 23.4573 30.5694 23.5236C30.5694 23.5899 30.5538 23.6552 30.524 23.7141C30.4942 23.773 30.451 23.8237 30.398 23.8619Z" fill="black"/>
</svg>
