<svg width="58" height="58" viewBox="0 0 58 58" fill="none" xmlns="http://www.w3.org/2000/svg">
<path d="M28.9688 0C12.9713 0 0 12.9713 0 28.9688C0 44.9664 12.9713 57.9377 28.9688 57.9377C44.9664 57.9377 57.9377 44.9664 57.9377 28.9688C57.9377 12.9713 44.9664 0 28.9688 0ZM38.2867 29.415L24.1644 39.6899C24.087 39.7455 23.9957 39.7788 23.9007 39.7859C23.8056 39.7931 23.7104 39.7738 23.6255 39.7304C23.5407 39.687 23.4694 39.621 23.4196 39.5397C23.3698 39.4584 23.3434 39.3649 23.3432 39.2696V18.7328C23.3429 18.6372 23.369 18.5435 23.4187 18.4619C23.4685 18.3803 23.5398 18.3141 23.6248 18.2706C23.7099 18.227 23.8053 18.2079 23.9005 18.2153C23.9958 18.2227 24.0871 18.2563 24.1644 18.3125L38.2867 28.5809C38.3535 28.6281 38.4079 28.6906 38.4454 28.7631C38.483 28.8357 38.5026 28.9162 38.5026 28.9979C38.5026 29.0797 38.483 29.1602 38.4454 29.2328C38.4079 29.3053 38.3535 29.3678 38.2867 29.415Z" fill="current"/>
</svg>
