<svg width="316" height="316" viewBox="0 0 316 316" fill="none" xmlns="http://www.w3.org/2000/svg">
<rect x="156.703" width="223.095" height="223.095" transform="rotate(44.6205 156.703 0)" fill="#6666EE"/>
<path d="M108.289 207V181.816H116.253C119.325 181.816 121.575 182.49 123.004 183.837C124.432 185.185 125.146 186.977 125.146 189.214C125.146 190.13 124.944 191.06 124.54 192.003C124.162 192.919 123.61 193.741 122.882 194.469C122.182 195.196 121.36 195.735 120.417 196.086L125.833 207H121.023L115.93 196.53H112.898V207H108.289ZM112.898 192.73H116.576C117.87 192.73 118.84 192.434 119.487 191.841C120.134 191.221 120.457 190.386 120.457 189.335C120.457 188.365 120.134 187.529 119.487 186.829C118.84 186.128 117.87 185.778 116.576 185.778H112.898V192.73ZM136.788 207.526C134.012 207.526 131.87 206.704 130.361 205.06C128.879 203.416 128.137 201.125 128.137 198.188V181.816H133.029V182.18C132.894 182.342 132.8 182.53 132.746 182.746C132.719 182.934 132.705 183.244 132.705 183.676V198.228C132.705 199.953 133.002 201.314 133.595 202.311C134.188 203.308 135.266 203.807 136.829 203.807C138.392 203.807 139.483 203.308 140.103 202.311C140.723 201.314 141.033 199.912 141.033 198.107V181.816H145.479V198.066C145.479 201.3 144.671 203.685 143.054 205.221C141.437 206.757 139.348 207.526 136.788 207.526ZM149.198 181.816H154.17V182.18C154.009 182.342 153.901 182.53 153.847 182.746C153.82 182.934 153.807 183.244 153.807 183.676V203.281H165.368V207H149.198V181.816ZM169.168 207V181.816H185.58V185.535H173.614V192.003H183.437V195.762H173.614V203.281H185.458V207H169.168ZM197.1 207.445C195.429 207.445 193.853 207.202 192.371 206.717C190.915 206.205 189.703 205.437 188.733 204.413L190.956 200.653L191.118 200.33L191.481 200.532C191.535 200.748 191.603 200.963 191.684 201.179C191.791 201.368 192.007 201.61 192.33 201.907C193.004 202.419 193.745 202.836 194.554 203.16C195.389 203.483 196.292 203.645 197.262 203.645C198.529 203.645 199.553 203.375 200.334 202.836C201.143 202.27 201.547 201.448 201.547 200.371C201.547 199.832 201.426 199.333 201.183 198.875C200.941 198.39 200.455 197.905 199.728 197.42C199.027 196.934 197.976 196.369 196.575 195.722C194.85 194.967 193.476 194.213 192.452 193.458C191.454 192.677 190.74 191.841 190.309 190.952C189.878 190.036 189.662 189.011 189.662 187.88C189.662 186.64 189.999 185.535 190.673 184.565C191.374 183.595 192.33 182.827 193.543 182.261C194.756 181.695 196.144 181.412 197.707 181.412C200.806 181.412 203.353 182.49 205.347 184.646L202.679 187.718L202.436 188.001L202.113 187.758C202.086 187.543 202.032 187.341 201.951 187.152C201.897 186.936 201.722 186.667 201.426 186.343C200.914 185.858 200.361 185.535 199.768 185.373C199.202 185.212 198.529 185.131 197.747 185.131C196.642 185.131 195.766 185.387 195.12 185.899C194.473 186.411 194.149 187.004 194.149 187.677C194.149 188.216 194.271 188.702 194.513 189.133C194.756 189.564 195.241 190.022 195.968 190.507C196.723 190.992 197.868 191.572 199.404 192.245C201.102 193.027 202.436 193.795 203.406 194.55C204.377 195.277 205.05 196.086 205.428 196.975C205.832 197.864 206.034 198.902 206.034 200.088C206.034 201.3 205.724 202.473 205.104 203.604C204.484 204.736 203.514 205.666 202.194 206.394C200.873 207.094 199.175 207.445 197.1 207.445Z" fill="black"/>
<path d="M157.671 147.342C167.396 147.342 176.724 143.478 183.601 136.601C190.478 129.724 194.342 120.396 194.342 110.671C194.342 100.945 190.478 91.6177 183.601 84.7406C176.724 77.8635 167.396 74 157.671 74C147.945 74 138.618 77.8635 131.741 84.7406C124.864 91.6177 121 100.945 121 110.671C121 120.396 124.864 129.724 131.741 136.601C138.618 143.478 147.945 147.342 157.671 147.342ZM161.934 104.198L157.35 125.765C157.029 127.324 157.483 128.209 158.743 128.209C159.633 128.209 160.976 127.888 161.888 127.081L161.485 128.988C160.169 130.574 157.267 131.729 154.769 131.729C151.547 131.729 150.176 129.795 151.065 125.683L154.448 109.786C154.742 108.443 154.476 107.957 153.133 107.632L151.065 107.26L151.441 105.514L161.938 104.198H161.934ZM157.671 99.2112C156.455 99.2112 155.289 98.7282 154.43 97.8686C153.57 97.0089 153.087 95.843 153.087 94.6273C153.087 93.4116 153.57 92.2457 154.43 91.386C155.289 90.5264 156.455 90.0435 157.671 90.0435C158.886 90.0435 160.052 90.5264 160.912 91.386C161.772 92.2457 162.255 93.4116 162.255 94.6273C162.255 95.843 161.772 97.0089 160.912 97.8686C160.052 98.7282 158.886 99.2112 157.671 99.2112Z" fill="black"/>
</svg>
