<svg width="100" height="100" viewBox="0 0 139 179" fill="none" xmlns="http://www.w3.org/2000/svg">
<path d="M69.5 4.34375C69.5 4.34375 70.6556 48.8693 88.2713 67.7546C103.16 83.7161 139 91.2188 139 91.2188C139 91.2188 103.16 98.7214 88.2713 114.683C70.6556 133.568 69.5 178.094 69.5 178.094C69.5 178.094 68.3444 133.568 50.7287 114.683C35.8403 98.7214 0 91.2188 0 91.2188C0 91.2188 35.8403 83.7161 50.7287 67.7546C68.3444 48.8693 69.5 4.34375 69.5 4.34375Z" fill="#DBF429"/>
<path d="M69.5 0C69.5 0 70.6556 44.5255 88.2713 63.4109C103.16 79.3723 139 86.875 139 86.875C139 86.875 103.16 94.3776 88.2713 110.339C70.6556 129.224 69.5 173.75 69.5 173.75C69.5 173.75 68.3444 129.224 50.7287 110.339C35.8403 94.3776 0 86.875 0 86.875C0 86.875 35.8403 79.3723 50.7287 63.4109C68.3444 44.5255 69.5 0 69.5 0Z" fill="#FE3176"/>
</svg>
