<svg width="55" height="49" viewBox="0 0 105 99" fill="none" xmlns="http://www.w3.org/2000/svg">
<path d="M57.098 30.8168L57.1772 31.0086L57.3362 30.8752L83.016 9.32247L69.3896 39.1318L69.2968 39.3349L69.5197 39.3468L103.368 41.1525L71.7575 53.3894L71.5493 53.47L71.7006 53.6342L93.9174 77.7317L62.8106 65.2282L62.618 65.1508L62.6023 65.3578L60.1598 97.6567L47.7992 67.7168L47.72 67.5249L47.561 67.6584L21.8812 89.2111L35.5076 59.4017L35.6004 59.1987L35.3775 59.1868L1.52921 57.3811L33.1397 45.1442L33.3479 45.0635L33.1966 44.8994L10.9798 20.8019L42.0866 33.3053L42.2792 33.3827L42.2949 33.1757L44.7374 0.876892L57.098 30.8168Z" fill="#43DAF9" stroke="black" stroke-width="0.303986"/>
</svg>
