<svg width="525" height="385" viewBox="0 0 525 385" fill="none" xmlns="http://www.w3.org/2000/svg">
<g clip-path="url(#clip0)">
<path d="M63.7085 37.4538L1.69849 159.38L60.6107 142.45L121.243 23.2336L63.7085 37.4538Z" fill="#FE3176"/>
<path d="M408.119 366.08L460.934 346.05L427.066 328.825L408.119 366.08Z" fill="#FE3176"/>
<path d="M60.6107 142.45L1.69849 159.38L408.119 366.08L427.066 328.825L60.6107 142.45Z" fill="#FE3176"/>
<path d="M460.934 346.05L521.566 226.833L427.066 328.825L460.934 346.05Z" fill="#FE3176"/>
<path d="M59.0557 139.718L118.999 21.8564L521.355 226.489L461.412 344.351L59.0557 139.718Z" fill="#1C1CD2" stroke="black" stroke-width="4.55963"/>
<path d="M117.535 18.7906L62.01 37.4429L0 159.369L57.2245 140.728L117.535 18.7906Z" fill="black"/>
<path d="M180.724 141.584C181.736 139.595 183.637 136.965 186.471 133.681L187.532 132.634L198.823 138.377L198.659 139.809C197.574 144.159 196.583 147.287 195.656 149.179L211.374 157.172C211.563 152.014 212.291 146.284 213.571 140.024L215.278 126.892C215.802 124.267 216.58 121.489 217.542 118.558C218.504 115.627 219.406 113.159 220.319 111.155L196.926 99.2574C195.915 101.106 194.509 103.247 192.707 105.751C190.904 108.255 189.033 110.547 187.178 112.601L177.543 121.7C172.827 126.813 168.639 130.748 164.951 133.562L180.724 141.584ZM197.413 122.567C198.644 121.324 200.289 119.269 202.432 116.374L203.188 116.759C202.168 119.943 201.49 122.525 201.195 124.491L200.427 131.964L191.826 127.589L197.413 122.567ZM240.202 171.834C242.92 173.216 245.529 174.049 248.042 174.376C253.07 175.029 257.567 173.19 259.833 168.735C260.93 166.578 261.268 164.387 260.833 162.192C259.921 157.814 256.418 154.233 251.123 151.54L250.142 151.042L250.527 150.285L250.751 150.399C257.852 154.117 265.615 153.551 268.509 147.723C271.714 141.49 267.163 134.838 259.318 130.989L233.571 117.895C232.402 122.272 230.358 127.333 227.437 133.076L221.78 144.199C218.873 149.914 215.988 154.547 213.139 158.07L240.202 171.834ZM242.544 135.752L249.828 139.457C252.853 140.995 254.216 143.17 253.176 145.215C252.107 147.316 249.52 147.481 246.522 145.956L239.238 142.252L242.544 135.752ZM236.844 146.958L245.445 151.333C248.611 152.943 250.041 155.469 248.845 157.822C247.648 160.176 244.82 160.465 241.682 158.87L233.025 154.467L236.844 146.958ZM278.395 192.281C284.419 195.344 290.584 196.188 296.258 194.807C301.904 193.412 307.107 189.076 310.541 182.324C313.291 176.917 314.13 171.454 313.191 166.851C311.735 159.869 306.812 154.157 299.64 150.509C293.588 147.431 287.353 146.587 281.721 147.954C276.046 149.335 270.816 153.657 267.396 160.381C263.962 167.133 263.55 173.905 265.777 179.304C267.975 184.689 272.344 189.203 278.395 192.281ZM283.596 182.055C281.27 180.872 279.85 178.951 279.32 176.319C278.761 173.672 279.344 170.654 281.04 167.32C282.736 163.986 284.817 161.765 287.257 160.643C289.696 159.522 292.099 159.58 294.425 160.763C296.722 161.931 298.157 163.825 298.687 166.457C299.217 169.089 298.649 172.079 296.953 175.413C295.257 178.747 293.162 180.996 290.722 182.118C288.283 183.24 285.893 183.223 283.596 182.055ZM325.098 216.033C331.486 219.282 337.158 220.263 342.157 218.962C347.128 217.646 351.06 214.145 353.981 208.401L358.412 199.688C361.475 193.665 364.361 189.032 367.068 185.789L351.351 177.796C350.381 181.852 348.364 186.926 345.272 193.006L342.708 198.049C340.086 203.204 336.179 205.201 331.808 202.978C327.438 200.756 326.778 196.436 329.4 191.281L331.965 186.238C334.943 180.382 337.856 175.764 340.677 172.367L324.96 164.374C323.876 168.654 321.859 173.728 318.881 179.584L314.45 188.297C311.33 194.432 310.967 200.137 313.143 204.734C315.276 209.345 319.271 213.07 325.098 216.033ZM378.293 242.065C379.377 237.785 381.394 232.711 384.357 226.883L390.698 214.416L395.685 216.952C398.655 218.463 400.904 220.418 402.477 222.804L407.971 206.592L373.427 189.024L363.562 203.013C366.361 202.849 369.266 203.516 372.264 205.041L377.615 207.762L371.274 220.229C368.31 226.057 365.397 230.675 362.576 234.072L378.293 242.065Z" fill="white"/>
</g>
<defs>
<clipPath id="clip0">
<rect width="525" height="385" fill="white"/>
</clipPath>
</defs>
</svg>
