<svg width="529" height="331" viewBox="0 0 529 331" fill="none" xmlns="http://www.w3.org/2000/svg">
<path d="M14.7543 199.616L59.147 329.001L87.9921 274.916L44.5859 148.406L14.7543 199.616Z" fill="#FE3176"/>
<path d="M490.43 181.025L512.806 129.159L476.866 141.491L490.43 181.025Z" fill="#FE3176"/>
<path d="M87.9921 274.916L59.147 329.001L490.43 181.025L476.866 141.491L87.9921 274.916Z" fill="#FE3176"/>
<path d="M512.806 129.159L469.4 2.64966L476.866 141.491L512.806 129.159Z" fill="#FE3176"/>
<path d="M84.6245 274.465L41.7115 149.392L468.682 2.89636L511.595 127.969L84.6245 274.465Z" fill="#DBF429" stroke="black" stroke-width="4.55963"/>
<path d="M38.8156 147.976L13.5645 200.828L57.9573 330.213L84.3993 276.149L38.8156 147.976Z" fill="black"/>
<path d="M173.466 204.339C174.983 203.819 176.326 202.893 177.508 201.59C178.659 200.298 179.333 198.97 179.53 197.606L173.089 179.413C172.871 184.107 170.85 187.126 167.015 188.442C165.38 189.003 163.628 188.74 162.102 188.167C159.899 187.362 157.414 186.22 154.351 187.271L154.233 187.312L154.11 186.955L154.645 186.772C157.767 185.701 160.389 184.336 162.522 182.707C164.654 181.078 166.158 179.166 167.024 176.942C167.899 174.747 167.909 172.451 167.082 170.043C166.277 167.694 164.85 165.958 162.782 164.773C158.637 162.473 153.052 162.662 146.72 164.834L120.855 173.709C123.174 177.466 125.414 182.446 127.546 188.659L131.596 200.462C133.717 206.646 135.006 211.952 135.482 216.342L152.161 210.619C149.842 206.862 147.601 201.882 145.48 195.698L144.623 193.201C145.086 192.809 145.918 192.424 147.137 192.006C151.953 190.354 154.824 193.589 157.838 197.24C161.536 201.82 165.42 207.133 173.466 204.339ZM140.655 181.636L148.801 178.841C151.685 177.852 154.205 178.515 154.929 180.626C155.705 182.886 154.111 184.828 150.901 185.93L143.052 188.623L140.655 181.636ZM201.215 193.788C198.978 190.269 196.748 185.319 194.534 178.868L190.484 167.065C188.271 160.613 186.982 155.307 186.588 151.155L169.909 156.878C172.137 160.466 174.348 165.457 176.541 171.849L180.591 183.652C182.774 190.014 184.092 195.31 184.537 199.511L201.215 193.788ZM228.359 184.475C235.107 182.16 240.005 178.419 242.765 173.584C245.526 168.749 245.918 162.434 243.521 155.447C241.144 148.52 236.947 143.746 231.8 141.624C226.652 139.502 220.42 139.547 213.731 141.842L193.039 148.942C194.108 150.702 195.251 152.968 196.508 155.76C197.765 158.552 198.823 161.246 199.73 163.892L203.78 175.695C204.688 178.341 205.507 181.117 206.219 184.063C206.931 187.009 207.42 189.499 207.667 191.575L228.359 184.475ZM212.963 157.425L219.028 155.344C221.08 154.64 223.068 154.722 224.994 155.59C226.93 156.487 228.276 158.086 229.072 160.405C229.878 162.753 229.797 164.841 228.839 166.699C227.851 168.566 226.332 169.852 224.251 170.566L218.186 172.646L212.963 157.425ZM275.629 168.256C282.378 165.941 287.276 162.2 290.036 157.365C292.797 152.53 293.189 146.215 290.792 139.228C288.415 132.301 284.218 127.527 279.071 125.405C273.923 123.284 267.691 123.328 261.002 125.623L240.31 132.723C241.379 134.483 242.522 136.749 243.779 139.541C245.036 142.333 246.093 145.027 247.001 147.673L251.051 159.476C251.959 162.122 252.778 164.898 253.49 167.844C254.202 170.79 254.691 173.281 254.937 175.356L275.629 168.256ZM260.234 141.206L266.299 139.125C268.35 138.421 270.339 138.503 272.265 139.371C274.201 140.268 275.547 141.867 276.343 144.186C277.149 146.534 277.068 148.622 276.11 150.48C275.122 152.347 273.603 153.633 271.522 154.347L265.457 156.428L260.234 141.206ZM333.919 149.287C335.584 148.716 337.374 147.636 338.301 146.853C339.218 146.04 340.155 145.187 340.264 145.116L335.16 129.854C333.075 132.397 329.634 134.474 324.848 136.117L312.748 140.268L308.025 126.503C306.005 120.617 304.737 115.37 304.259 110.782L287.581 116.504C288.65 118.264 289.793 120.53 291.05 123.322C292.307 126.114 293.364 128.809 294.272 131.455L298.322 143.257C299.25 145.963 300.131 148.917 300.944 152.16C301.768 155.433 302.268 158.053 302.524 160.059C303.509 158.957 304.94 157.801 306.797 156.532C308.655 155.264 310.823 154.221 313.29 153.374C320.503 150.766 327.865 151.497 333.919 149.287ZM382.747 131.504L379.489 114.843C378.743 115.864 377.44 116.909 375.65 117.988C373.861 119.067 370.811 120.347 366.5 121.826L355.797 125.498L354.216 120.89L363.997 117.534C367.119 116.463 369.657 115.725 371.611 115.32L369.459 109.047C367.845 109.767 365.378 110.713 362.049 111.855L352.268 115.211L350.554 110.217L362.951 105.963C365.924 104.943 368.235 104.316 369.872 104.054C371.51 103.791 372.833 103.869 373.811 104.297L366.425 89.4523L330.63 101.734C331.699 103.494 332.842 105.76 334.099 108.552C335.356 111.344 336.413 114.038 337.321 116.684L341.371 128.487C342.278 131.133 343.098 133.909 343.81 136.855C344.521 139.801 345.01 142.291 345.257 144.367L382.747 131.504ZM428.193 116.941C429.709 116.421 431.053 115.494 432.234 114.192C433.386 112.9 434.06 111.572 434.257 110.208L427.815 92.0152C427.598 96.7087 425.577 99.7282 421.742 101.044C420.107 101.605 418.355 101.342 416.829 100.769C414.625 99.9634 412.14 98.8223 409.078 99.8729L408.959 99.9137L408.837 99.557L409.372 99.3734C412.494 98.3023 415.116 96.9374 417.249 95.3085C419.381 93.6795 420.885 91.7678 421.75 89.5437C422.626 87.3492 422.635 85.053 421.809 82.6449C421.003 80.2962 419.577 78.5593 417.509 77.3748C413.364 75.0752 407.779 75.2634 401.446 77.4361L375.581 86.3106C377.9 90.0674 380.141 95.0474 382.273 101.261L386.322 113.064C388.444 119.248 389.733 124.554 390.209 128.943L406.887 123.221C404.568 119.464 402.328 114.484 400.206 108.3L399.349 105.803C399.813 105.411 400.645 105.026 401.864 104.608C406.68 102.955 409.551 106.191 412.565 109.842C416.263 114.421 420.146 119.735 428.193 116.941ZM395.381 94.2379L403.527 91.4429C406.411 90.4535 408.932 91.1172 409.656 93.2281C410.431 95.4875 408.838 97.4298 405.627 98.5315L397.779 101.224L395.381 94.2379Z" fill="black"/>
</svg>
