<svg width="89" height="87" viewBox="0 0 89 87" fill="none" xmlns="http://www.w3.org/2000/svg">
<path d="M15.5486 14.7599C15.2361 14.7599 14.9506 14.8818 14.7511 15.0766L15.5486 14.7599ZM15.5486 14.7599C15.8612 14.7599 16.1469 14.882 16.3464 15.077M15.5486 14.7599L16.3464 15.077M16.3464 15.077C16.3466 15.0771 16.3467 15.0772 16.3468 15.0773M16.3464 15.077L16.3468 15.0773M16.3468 15.0773L20.7141 19.3498C20.896 19.5407 20.9844 19.7785 20.9823 20.011C20.9802 20.2491 20.8831 20.4918 20.6881 20.6825C20.4908 20.8755 20.2091 20.9973 19.8999 21C19.5977 21.0025 19.319 20.8907 19.1184 20.708L14.7511 16.4355C14.751 16.4354 14.751 16.4354 14.7509 16.4353C14.7508 16.4352 14.7508 16.4352 14.7507 16.4351C14.5539 16.2423 14.457 15.9966 14.457 15.7561C14.457 15.5157 14.5538 15.2701 14.7504 15.0773H16.3468ZM69.0889 20.7348L69.0684 20.7549L69.0483 20.7753C68.951 20.8739 68.8307 20.9564 68.6923 21.0145C68.5538 21.0727 68.4023 21.1043 68.2472 21.1056C68.092 21.107 67.9398 21.0779 67.8 21.022C67.6603 20.966 67.5381 20.8853 67.4387 20.7881C67.3395 20.6911 67.2651 20.5797 67.2161 20.4625C67.1671 20.3454 67.1435 20.2226 67.1445 20.1006C67.1456 19.9785 67.1715 19.856 67.2227 19.7394C67.2739 19.6227 67.3506 19.5122 67.4519 19.4165L67.4727 19.3968L67.4932 19.3767L71.8881 15.0773C71.8882 15.0772 71.8883 15.0771 71.8884 15.077C72.088 14.882 72.3736 14.7599 72.6863 14.7599C72.9987 14.7599 73.2842 14.8818 73.4838 15.0766C73.6809 15.2695 73.7779 15.5154 73.7779 15.7561C73.7779 15.9966 73.681 16.2423 73.4841 16.4351C73.484 16.4352 73.4839 16.4354 73.4838 16.4355L69.0889 20.7348ZM21.0488 43.7054V43.7047C21.0494 39.7702 22.1084 35.9009 24.1249 32.4849C26.1419 29.0684 29.0479 26.2225 32.5581 24.2404C36.0688 22.258 40.0564 21.2119 44.1195 21.2122C48.1825 21.2126 52.17 22.2594 55.6803 24.2424C59.1901 26.2251 62.0956 29.0715 64.1119 32.4884C66.1279 35.9047 67.1862 39.7742 67.186 43.7087C67.1859 47.6432 66.1274 51.5126 64.1111 54.9288C63.0878 56.6627 61.8356 58.2495 60.3916 59.6512C57.1143 62.8324 54.0004 67.3388 54.0004 72.7968V73.8023C54.0004 76.3238 52.9772 78.757 51.1315 80.5626C49.2834 82.3705 46.7617 83.3988 44.1174 83.3988C41.4732 83.3988 38.9515 82.3705 37.1033 80.5626C35.2577 78.757 34.2345 76.3238 34.2345 73.8023V72.7982C34.2345 67.3393 31.1193 62.8323 27.8415 59.6508C26.3972 58.249 25.1449 56.662 24.1215 54.9277C22.1053 51.5108 21.0475 47.6405 21.0488 43.7054ZM44.1174 4.00969C44.4303 4.00969 44.7162 4.13196 44.9158 4.32723C45.1129 4.52008 45.21 4.76602 45.21 5.00675V9.30648C45.21 9.54721 45.1129 9.79315 44.9158 9.986C44.7162 10.1813 44.4303 10.3035 44.1174 10.3035C43.8046 10.3035 43.5187 10.1813 43.3191 9.986C43.122 9.79315 43.0249 9.54721 43.0249 9.30648V5.00675C43.0249 4.76602 43.122 4.52008 43.3191 4.32723C43.5187 4.13196 43.8046 4.00969 44.1174 4.00969ZM44.1174 23.2027C38.6019 23.2027 33.2981 25.3455 29.3764 29.182C25.4522 33.0209 23.2339 38.2432 23.2339 43.7043C23.2339 49.1653 25.4522 54.3876 29.3764 58.2265C33.2981 62.063 38.6019 64.2058 44.1174 64.2058C49.633 64.2058 54.9368 62.063 58.8585 58.2265C62.7827 54.3876 65.0009 49.1653 65.0009 43.7043C65.0009 38.2432 62.7827 33.0209 58.8585 29.182C54.9368 25.3455 49.633 23.2027 44.1174 23.2027ZM36.4196 73.5604V73.8023C36.4196 75.8423 37.2486 77.7837 38.7 79.2035C40.1489 80.621 42.099 81.4047 44.1174 81.4047C46.1359 81.4047 48.0859 80.621 49.5349 79.2035C50.9862 77.7837 51.8153 75.8423 51.8153 73.8023V73.5604C51.8153 69.0893 47.9009 66.2019 44.1174 66.2019C40.334 66.2019 36.4196 69.0893 36.4196 73.5604ZM3.46802 43.7043C3.46802 43.4635 3.56509 43.2176 3.76223 43.0247C3.96183 42.8295 4.24769 42.7072 4.56057 42.7072H8.95577C9.26865 42.7072 9.55451 42.8295 9.75411 43.0247C9.95125 43.2176 10.0483 43.4635 10.0483 43.7043C10.0483 43.945 9.95125 44.1909 9.75411 44.3838C9.55451 44.579 9.26865 44.7013 8.95577 44.7013H4.56057C4.24769 44.7013 3.96183 44.579 3.76223 44.3838C3.5651 44.1909 3.46802 43.945 3.46802 43.7043ZM78.1865 43.7043C78.1865 43.4635 78.2836 43.2176 78.4808 43.0247C78.6804 42.8295 78.9662 42.7072 79.2791 42.7072H83.6743C83.9872 42.7072 84.273 42.8295 84.4726 43.0247C84.6698 43.2176 84.7668 43.4635 84.7668 43.7043C84.7668 43.945 84.6698 44.1909 84.4726 44.3838C84.273 44.579 83.9872 44.7013 83.6743 44.7013H79.2791C78.9662 44.7013 78.6804 44.579 78.4808 44.3838C78.2836 44.1909 78.1865 43.945 78.1865 43.7043Z" stroke="black" stroke-width="6.60531"/>
</svg>
