<svg width="32" height="31" viewBox="0 0 32 31" fill="none" xmlns="http://www.w3.org/2000/svg">
<path d="M16 31C20.2435 31 24.3131 29.367 27.3137 26.4602C30.3143 23.5533 32 19.6109 32 15.5C32 11.3891 30.3143 7.44666 27.3137 4.53984C24.3131 1.63303 20.2435 0 16 0C11.7565 0 7.68687 1.63303 4.68629 4.53984C1.68571 7.44666 0 11.3891 0 15.5C0 19.6109 1.68571 23.5533 4.68629 26.4602C7.68687 29.367 11.7565 31 16 31ZM17.86 12.7642L15.86 21.8802C15.72 22.5389 15.918 22.9129 16.468 22.9129C16.856 22.9129 17.442 22.7773 17.84 22.4363L17.664 23.2423C17.09 23.9126 15.824 24.4009 14.734 24.4009C13.328 24.4009 12.73 23.5833 13.118 21.8453L14.594 15.1261C14.722 14.5584 14.606 14.353 14.02 14.2154L13.118 14.0585L13.282 13.3203L17.862 12.7642H17.86ZM16 10.6562C15.4696 10.6562 14.9609 10.4521 14.5858 10.0888C14.2107 9.72542 14 9.23261 14 8.71875C14 8.20489 14.2107 7.71208 14.5858 7.34873C14.9609 6.98538 15.4696 6.78125 16 6.78125C16.5304 6.78125 17.0391 6.98538 17.4142 7.34873C17.7893 7.71208 18 8.20489 18 8.71875C18 9.23261 17.7893 9.72542 17.4142 10.0888C17.0391 10.4521 16.5304 10.6562 16 10.6562Z" fill="black"/>
</svg>
