<svg width="156" height="135" viewBox="0 0 156 135" fill="none" xmlns="http://www.w3.org/2000/svg">
<path d="M37.5041 0.597412H118.242L155.746 67.2714L118.242 134.466H37.5041L0 67.2714L37.5041 0.597412Z" fill="#15BCFF"/>
<path d="M55.3699 104.713C54.1672 104.713 53.1264 104.404 52.2475 103.788C51.3841 103.171 50.7211 102.307 50.2585 101.197C49.7959 100.087 49.5647 98.7918 49.5647 97.3116C49.5647 95.7851 49.7574 94.5362 50.1429 93.5648C50.5438 92.578 51.0449 91.8148 51.6462 91.2751C52.263 90.72 52.9028 90.3423 53.5659 90.1418C54.2289 89.926 54.8225 89.818 55.3467 89.818C56.2873 89.818 57.1662 90.0416 57.9834 90.4887C58.816 90.9205 59.4482 91.5372 59.8799 92.339L58.3534 93.8424L58.2147 94.0042L58.0528 93.8424C58.0373 93.719 58.0065 93.6034 57.9602 93.4954C57.9294 93.3721 57.8369 93.2102 57.6827 93.0097C57.4206 92.7014 57.1122 92.4547 56.7576 92.2696C56.4184 92.0846 55.9712 91.9921 55.4161 91.9921C54.8456 91.9921 54.306 92.154 53.7971 92.4778C53.3037 92.8016 52.9028 93.3412 52.5945 94.0968C52.3015 94.8369 52.155 95.8314 52.155 97.0803C52.155 98.9306 52.448 100.311 53.0339 101.22C53.6352 102.13 54.4139 102.585 55.3699 102.585C55.7553 102.585 56.1331 102.539 56.5032 102.446C56.8886 102.338 57.2433 102.145 57.5671 101.868V99.2081H55.1848V97.0341H59.9261V103.209C59.2323 103.764 58.4999 104.158 57.729 104.389C56.958 104.605 56.1716 104.713 55.3699 104.713ZM66.3327 104.759C64.7445 104.759 63.5187 104.289 62.6553 103.348C61.8072 102.408 61.3832 101.097 61.3832 99.4163V90.0493H64.1818V90.2575C64.1047 90.35 64.0507 90.4579 64.0199 90.5813C64.0044 90.6892 63.9967 90.8665 63.9967 91.1132V99.4394C63.9967 100.426 64.1663 101.205 64.5056 101.775C64.8448 102.346 65.4615 102.631 66.3558 102.631C67.2501 102.631 67.8746 102.346 68.2292 101.775C68.5838 101.205 68.7612 100.403 68.7612 99.37V90.0493H71.3053V99.3469C71.3053 101.197 70.8427 102.562 69.9176 103.441C68.9924 104.319 67.7975 104.759 66.3327 104.759ZM73.7338 104.458V102.354H76.5554V92.154H73.8957V90.0493H81.8518V92.154H79.0301V102.354H81.9674V104.458H73.7338ZM84.6503 104.458V90.0493H88.374C89.6383 90.0493 90.6174 90.2266 91.3113 90.5813C92.0205 90.9205 92.6142 91.4062 93.0922 92.0383C93.5701 92.6859 93.9402 93.4569 94.2023 94.3512C94.4799 95.2455 94.6186 96.2477 94.6186 97.3579C94.5878 98.8072 94.3488 100.072 93.9017 101.151C93.4545 102.215 92.7529 103.032 91.797 103.603C90.8564 104.173 89.6229 104.458 88.0964 104.458H84.6503ZM87.1944 102.423H88.0271C89.0139 102.423 89.8002 102.215 90.3861 101.798C90.9875 101.382 91.4192 100.796 91.6813 100.041C91.9435 99.2852 92.0668 98.3986 92.0514 97.381C92.0514 96.3171 91.9357 95.3919 91.7045 94.6056C91.4886 93.8192 91.1031 93.2102 90.548 92.7784C89.993 92.3467 89.2374 92.1309 88.2815 92.1309H87.1944V102.423ZM96.4226 104.458V90.0493H105.813V92.1771H98.9668V95.8776H104.587V98.0286H98.9668V102.33H105.743V104.458H96.4226Z" fill="black"/>
<path d="M77.8225 79.7699C85.6384 79.7699 93.1342 76.6651 98.6608 71.1384C104.188 65.6117 107.292 58.1159 107.292 50.3C107.292 42.4841 104.188 34.9883 98.6608 29.4616C93.1342 23.9349 85.6384 20.8301 77.8225 20.8301C70.0066 20.8301 62.5108 23.9349 56.9841 29.4616C51.4574 34.9883 48.3525 42.4841 48.3525 50.3C48.3525 58.1159 51.4574 65.6117 56.9841 71.1384C62.5108 76.6651 70.0066 79.7699 77.8225 79.7699ZM81.2483 45.0986L77.5646 62.4306C77.3067 63.683 77.6714 64.394 78.6845 64.394C79.3991 64.394 80.4784 64.1361 81.2115 63.4878L80.8873 65.0202C79.8301 66.2948 77.4983 67.2231 75.4907 67.2231C72.901 67.2231 71.7995 65.6686 72.5142 62.3642L75.2328 49.589C75.4685 48.5097 75.2549 48.1192 74.1756 47.8577L72.5142 47.5593L72.8163 46.1558L81.252 45.0986H81.2483ZM77.8225 41.0906C76.8455 41.0906 75.9085 40.7025 75.2177 40.0117C74.5268 39.3209 74.1387 38.3839 74.1387 37.4069C74.1387 36.4299 74.5268 35.4929 75.2177 34.8021C75.9085 34.1113 76.8455 33.7232 77.8225 33.7232C78.7994 33.7232 79.7364 34.1113 80.4273 34.8021C81.1181 35.4929 81.5062 36.4299 81.5062 37.4069C81.5062 38.3839 81.1181 39.3209 80.4273 40.0117C79.7364 40.7025 78.7994 41.0906 77.8225 41.0906Z" fill="black"/>
</svg>
