<svg width="158" height="135" viewBox="0 0 158 135" fill="none" xmlns="http://www.w3.org/2000/svg">
<path d="M39.0727 1H118.882L155.955 66.9071L118.882 133.329H39.0727L2 66.9071L39.0727 1Z" fill="black" stroke="white" stroke-width="2"/>
<path d="M56.7321 104.148C55.5433 104.148 54.5145 103.843 53.6457 103.233C52.7922 102.624 52.1368 101.77 51.6796 100.673C51.2223 99.5755 50.9937 98.2952 50.9937 96.832C50.9937 95.3231 51.1842 94.0886 51.5652 93.1283C51.9615 92.1529 52.4569 91.3984 53.0513 90.865C53.661 90.3163 54.2935 89.9429 54.9489 89.7447C55.6043 89.5313 56.1911 89.4247 56.7093 89.4247C57.639 89.4247 58.5078 89.6457 59.3156 90.0877C60.1386 90.5144 60.7635 91.1241 61.1903 91.9166L59.6814 93.4027L59.5442 93.5627L59.3842 93.4027C59.3689 93.2808 59.3384 93.1664 59.2927 93.0598C59.2622 92.9378 59.1708 92.7778 59.0184 92.5796C58.7593 92.2748 58.4544 92.031 58.1039 91.8481C57.7686 91.6652 57.3265 91.5737 56.7779 91.5737C56.2139 91.5737 55.6805 91.7337 55.1775 92.0538C54.6898 92.3739 54.2935 92.9073 53.9887 93.6542C53.6991 94.3858 53.5543 95.3688 53.5543 96.6034C53.5543 98.4324 53.8439 99.7965 54.423 100.696C55.0175 101.595 55.7872 102.045 56.7321 102.045C57.1132 102.045 57.4866 101.999 57.8524 101.907C58.2334 101.801 58.584 101.61 58.904 101.336V98.7067H56.5492V96.5577H61.236V102.662C60.5501 103.211 59.8262 103.599 59.0641 103.828C58.302 104.041 57.5247 104.148 56.7321 104.148ZM67.5689 104.194C65.999 104.194 64.7873 103.729 63.9337 102.799C63.0955 101.869 62.6763 100.574 62.6763 98.9125V89.6533H65.4427V89.859C65.3665 89.9505 65.3131 90.0572 65.2826 90.1791C65.2674 90.2858 65.2598 90.4611 65.2598 90.7049V98.9354C65.2598 99.9108 65.4274 100.681 65.7627 101.244C66.098 101.808 66.7077 102.09 67.5917 102.09C68.4757 102.09 69.093 101.808 69.4436 101.244C69.7941 100.681 69.9694 99.888 69.9694 98.8668V89.6533H72.4842V98.8439C72.4842 100.673 72.027 102.022 71.1125 102.891C70.198 103.759 69.0168 104.194 67.5689 104.194ZM74.8848 103.896V101.816H77.674V91.7337H75.0448V89.6533H82.9095V91.7337H80.1203V101.816H83.0238V103.896H74.8848ZM85.6758 103.896V89.6533H89.3566C90.6064 89.6533 91.5743 89.8286 92.2601 90.1791C92.9612 90.5144 93.548 90.9945 94.0205 91.6194C94.493 92.2596 94.8588 93.0217 95.1179 93.9057C95.3923 94.7897 95.5294 95.7804 95.5294 96.8778C95.499 98.3105 95.2627 99.5603 94.8207 100.627C94.3787 101.679 93.6852 102.487 92.7402 103.051C91.8105 103.615 90.5912 103.896 89.0823 103.896H85.6758ZM88.1906 101.885H89.0137C89.9891 101.885 90.7665 101.679 91.3456 101.267C91.9401 100.856 92.3668 100.277 92.6259 99.5298C92.885 98.783 93.007 97.9066 92.9917 96.9006C92.9917 95.849 92.8774 94.9345 92.6488 94.1571C92.4354 93.3798 92.0544 92.7778 91.5057 92.351C90.957 91.9243 90.2101 91.7109 89.2652 91.7109H88.1906V101.885ZM97.3127 103.896V89.6533H106.595V91.7566H99.8276V95.4146H105.383V97.5408H99.8276V101.793H106.526V103.896H97.3127Z" fill="white"/>
<path d="M78.9278 79.2619C86.6538 79.2619 94.0634 76.1928 99.5265 70.7296C104.99 65.2665 108.059 57.857 108.059 50.1309C108.059 42.4049 104.99 34.9954 99.5265 29.5323C94.0634 24.0691 86.6538 21 78.9278 21C71.2018 21 63.7922 24.0691 58.3291 29.5323C52.866 34.9954 49.7969 42.4049 49.7969 50.1309C49.7969 57.857 52.866 65.2665 58.3291 70.7296C63.7922 76.1928 71.2018 79.2619 78.9278 79.2619V79.2619ZM82.3143 44.9893L78.6729 62.122C78.418 63.36 78.7785 64.0628 79.7799 64.0628C80.4863 64.0628 81.5532 63.8079 82.2779 63.167L81.9574 64.6819C80.9124 65.9418 78.6074 66.8594 76.6228 66.8594C74.063 66.8594 72.9742 65.3227 73.6806 62.0564L76.3679 49.4282C76.601 48.3612 76.3898 47.9753 75.3229 47.7167L73.6806 47.4218L73.9792 46.0344L82.3179 44.9893H82.3143ZM78.9278 41.0275C77.9621 41.0275 77.0359 40.6439 76.353 39.961C75.6701 39.2781 75.2865 38.3519 75.2865 37.3862C75.2865 36.4204 75.6701 35.4942 76.353 34.8113C77.0359 34.1284 77.9621 33.7448 78.9278 33.7448C79.8936 33.7448 80.8198 34.1284 81.5027 34.8113C82.1855 35.4942 82.5692 36.4204 82.5692 37.3862C82.5692 38.3519 82.1855 39.2781 81.5027 39.961C80.8198 40.6439 79.8936 41.0275 78.9278 41.0275V41.0275Z" fill="white"/>
</svg>
