<svg width="158" height="135" viewBox="0 0 158 135" fill="none" xmlns="http://www.w3.org/2000/svg">
<path d="M39.0727 1H118.882L155.955 66.9071L118.882 133.329H39.0727L2 66.9071L39.0727 1Z" fill="black" stroke="white" stroke-width="2"/>
<path d="M51.1468 77.5002H53.5065V77.6729C53.4298 77.7496 53.3786 77.8392 53.3531 77.9415C53.3403 78.031 53.3339 78.1781 53.3339 78.3827V87.6876H58.8209V89.4526H51.1468V77.5002ZM60.6243 89.4526V77.5002H68.4135V79.2653H62.7346V82.3349H67.3967V84.1191H62.7346V87.6876H68.3559V89.4526H60.6243ZM76.4137 89.4526L75.5888 86.6708H72.4616L71.6174 89.4526H69.4687L73.5168 77.4235H74.5528L78.6008 89.4526H76.4137ZM74.0348 81.4332L72.922 85.1168H75.1283L74.0348 81.4332ZM79.6369 89.4526V77.5002H82.7257C83.7745 77.5002 84.5866 77.6473 85.1622 77.9415C85.7505 78.2229 86.243 78.6258 86.6395 79.1502C87.036 79.6873 87.3429 80.3269 87.5604 81.0687C87.7906 81.8105 87.9057 82.6419 87.9057 83.5628C87.8801 84.765 87.6819 85.8138 87.3109 86.7091C86.94 87.5917 86.3581 88.2695 85.5651 88.7428C84.7849 89.216 83.7617 89.4526 82.4955 89.4526H79.6369ZM81.7472 87.7643H82.4379C83.2565 87.7643 83.9088 87.5917 84.3948 87.2463C84.8936 86.901 85.2517 86.415 85.4692 85.7883C85.6866 85.1615 85.7889 84.4261 85.7761 83.582C85.7761 82.6994 85.6802 81.932 85.4884 81.2797C85.3093 80.6274 84.9895 80.1222 84.5291 79.7641C84.0686 79.406 83.4419 79.2269 82.6489 79.2269H81.7472V87.7643ZM89.4021 89.4526V77.5002H97.1913V79.2653H91.5125V82.3349H96.1745V84.1191H91.5125V87.6876H97.1338V89.4526H89.4021ZM98.8796 89.4526V77.5002H102.659C104.117 77.5002 105.185 77.82 105.863 78.4595C106.541 79.099 106.88 79.9495 106.88 81.0111C106.88 81.446 106.784 81.8873 106.592 82.3349C106.413 82.7698 106.151 83.1599 105.806 83.5052C105.473 83.8505 105.083 84.1063 104.635 84.2726L107.206 89.4526H104.923L102.506 84.4837H101.067V89.4526H98.8796ZM101.067 82.6802H102.813C103.427 82.6802 103.887 82.5396 104.194 82.2582C104.501 81.964 104.654 81.5675 104.654 81.0687C104.654 80.6082 104.501 80.2117 104.194 79.8792C103.887 79.5467 103.427 79.3804 102.813 79.3804H101.067V82.6802ZM55.5594 109.453V97.5002H59.2046C60.6371 97.5002 61.6986 97.7816 62.3893 98.3444C63.08 98.9071 63.4253 99.6298 63.4253 100.512C63.4253 101.024 63.2782 101.529 62.9841 102.028C62.7027 102.527 62.287 102.885 61.737 103.102C62.3893 103.384 62.9073 103.787 63.291 104.311C63.6875 104.823 63.8858 105.385 63.8858 105.999C63.8858 107.035 63.4957 107.873 62.7155 108.513C61.9481 109.139 60.7714 109.453 59.1854 109.453H55.5594ZM57.7273 102.277H59.0319C59.876 102.277 60.4516 102.137 60.7586 101.855C61.0783 101.561 61.2382 101.177 61.2382 100.704C61.2382 100.269 61.0783 99.9176 60.7586 99.649C60.4388 99.3804 59.9272 99.2461 59.2238 99.2461H57.7273V102.277ZM57.7273 107.668H59.4156C60.0935 107.668 60.6307 107.521 61.0272 107.227C61.4364 106.933 61.6411 106.505 61.6411 105.942C61.6411 105.366 61.4492 104.899 61.0655 104.541C60.6946 104.183 60.0359 104.004 59.0895 104.004H57.7273V107.668ZM69.2768 109.683C67.8059 109.683 66.6932 109.146 65.9386 108.071C65.184 106.997 64.8067 105.469 64.8067 103.486C64.8067 101.555 65.184 100.045 65.9386 98.9583C66.6932 97.8711 67.8059 97.3276 69.2768 97.3276C70.7221 97.3276 71.8221 97.8711 72.5767 98.9583C73.3441 100.045 73.7278 101.555 73.7278 103.486C73.7278 105.469 73.3441 106.997 72.5767 108.071C71.8221 109.146 70.7221 109.683 69.2768 109.683ZM69.2768 107.918C69.9931 107.918 70.5558 107.553 70.9651 106.824C71.3744 106.082 71.579 104.963 71.579 103.467C71.579 102.073 71.3744 100.998 70.9651 100.244C70.5558 99.4763 69.9931 99.0926 69.2768 99.0926C68.535 99.0926 67.9594 99.4763 67.5501 100.244C67.1537 100.998 66.9554 102.073 66.9554 103.467C66.9554 104.963 67.1537 106.082 67.5501 106.824C67.9594 107.553 68.535 107.918 69.2768 107.918ZM81.21 109.453L80.3851 106.671H77.2579L76.4137 109.453H74.265L78.3131 97.4235H79.3491L83.3972 109.453H81.21ZM78.8311 101.433L77.7183 105.117H79.9246L78.8311 101.433ZM84.4907 109.453V97.5002H88.2702C89.7283 97.5002 90.7963 97.82 91.4741 98.4595C92.152 99.099 92.491 99.9495 92.491 101.011C92.491 101.446 92.395 101.887 92.2032 102.335C92.0241 102.77 91.7619 103.16 91.4166 103.505C91.084 103.851 90.6939 104.106 90.2463 104.273L92.8171 109.453H90.5341L88.1167 104.484H86.6778V109.453H84.4907ZM86.6778 102.68H88.4237C89.0376 102.68 89.4981 102.54 89.805 102.258C90.112 101.964 90.2655 101.568 90.2655 101.069C90.2655 100.608 90.112 100.212 89.805 99.8792C89.4981 99.5467 89.0376 99.3804 88.4237 99.3804H86.6778V102.68ZM94.0258 109.453V97.5002H97.1146C98.1634 97.5002 98.9756 97.6473 99.5511 97.9415C100.139 98.2229 100.632 98.6258 101.028 99.1502C101.425 99.6873 101.732 100.327 101.949 101.069C102.18 101.811 102.295 102.642 102.295 103.563C102.269 104.765 102.071 105.814 101.7 106.709C101.329 107.592 100.747 108.27 99.954 108.743C99.1738 109.216 98.1506 109.453 96.8844 109.453H94.0258ZM96.1362 107.764H96.8268C97.6454 107.764 98.2977 107.592 98.7837 107.246C99.2825 106.901 99.6407 106.415 99.8581 105.788C100.076 105.162 100.178 104.426 100.165 103.582C100.165 102.699 100.069 101.932 99.8773 101.28C99.6982 100.627 99.3785 100.122 98.918 99.7641C98.4576 99.406 97.8309 99.2269 97.0379 99.2269H96.1362V107.764Z" fill="white"/>
<path d="M65.114 66.2987H56.3847C55.013 66.2987 53.8906 65.0387 53.8906 63.4986V35.4979C53.8906 33.9579 55.013 32.6979 56.3847 32.6979H65.114C66.4857 32.6979 67.6081 33.9579 67.6081 35.4979V63.4986C67.6081 65.0387 66.4857 66.2987 65.114 66.2987ZM83.1961 15.8975H74.4668C73.0951 15.8975 71.9727 17.1575 71.9727 18.6975V63.4986C71.9727 65.0387 73.0951 66.2987 74.4668 66.2987H83.1961C84.5678 66.2987 85.6902 65.0387 85.6902 63.4986V18.6975C85.6902 17.1575 84.5678 15.8975 83.1961 15.8975ZM101.278 38.298H92.5489C91.1772 38.298 90.0548 39.558 90.0548 41.0981V63.4986C90.0548 65.0387 91.1772 66.2987 92.5489 66.2987H101.278C102.65 66.2987 103.772 65.0387 103.772 63.4986V41.0981C103.772 39.558 102.65 38.298 101.278 38.298Z" fill="white"/>
</svg>
