<svg width="30" height="30" viewBox="0 0 30 30" fill="none" xmlns="http://www.w3.org/2000/svg">
<path d="M6.75 30H1.5C0.675 30 0 29.25 0 28.3333V11.6667C0 10.75 0.675 10 1.5 10H6.75C7.575 10 8.25 10.75 8.25 11.6667V28.3333C8.25 29.25 7.575 30 6.75 30ZM17.625 0H12.375C11.55 0 10.875 0.75 10.875 1.66667V28.3333C10.875 29.25 11.55 30 12.375 30H17.625C18.45 30 19.125 29.25 19.125 28.3333V1.66667C19.125 0.75 18.45 0 17.625 0ZM28.5 13.3333H23.25C22.425 13.3333 21.75 14.0833 21.75 15V28.3333C21.75 29.25 22.425 30 23.25 30H28.5C29.325 30 30 29.25 30 28.3333V15C30 14.0833 29.325 13.3333 28.5 13.3333Z" fill="black"/>
</svg>
