<svg width="50" height="49" viewBox="0 0 50 49" fill="none" xmlns="http://www.w3.org/2000/svg">
<path d="M48.9822 12.5059C48.9822 10.9991 48.8551 9.49845 48.4952 8.03149C47.849 5.35943 46.3254 3.31825 44.0454 1.81914C42.8724 1.05351 41.5815 0.583413 40.2095 0.335347C39.1559 0.15101 38.0894 0.049635 37.0199 0.0321566C36.9403 0.0245003 36.853 0.00765633 36.7642 0H12.2164C11.9056 0.0245003 11.5948 0.0398129 11.2839 0.0551256C9.76029 0.142408 8.24587 0.30166 6.80954 0.875885C4.08236 1.95236 2.11162 3.83429 0.963167 6.54616C0.565037 7.46339 0.364441 8.43575 0.222034 9.42495C0.102595 10.2227 0.0382817 11.0282 0.0153127 11.8336C0.0153127 11.8979 0 11.9607 0 12.025V36.9801L0.0474693 37.8422C0.151595 39.5097 0.365973 41.1604 1.06882 42.6917C2.39337 45.5873 4.6183 47.4922 7.67318 48.4095C8.52609 48.6728 9.42035 48.7923 10.3131 48.8719C11.4462 48.9837 12.5778 48.999 13.711 48.999H36.2328C37.3017 48.999 38.3705 48.927 39.4393 48.7923C41.1222 48.5764 42.7009 48.0818 44.1296 47.1416C45.8207 46.046 47.1541 44.4795 47.9654 42.6351C48.3482 41.773 48.5641 40.8573 48.7234 39.9308C48.9546 38.5512 49.0021 37.1547 49.0021 35.7597C48.9944 28.0069 49.0021 20.2556 48.9944 12.5028L48.9822 12.5059ZM35.8699 20.6476V32.3082C35.8699 33.1611 35.7505 33.9987 35.3677 34.772C34.7781 35.9756 33.8211 36.7336 32.5364 37.1011C31.8246 37.305 31.091 37.4227 30.3512 37.4517C29.4209 37.5067 28.5029 37.2177 27.7719 36.6397C27.0408 36.0617 26.5479 35.2351 26.3868 34.3172C26.2392 33.4914 26.3668 32.6399 26.7499 31.8936C27.133 31.1473 27.7505 30.5473 28.5076 30.1859C29.1614 29.8674 29.872 29.6759 30.5809 29.532C31.3542 29.3651 32.1275 29.2135 32.8931 29.0374C33.4597 28.9103 33.8257 28.5673 33.9375 27.9839C33.9696 27.8568 33.9773 27.7205 33.9773 27.5934V16.4764C33.9745 16.3496 33.956 16.2236 33.9221 16.1013C33.8425 15.7904 33.619 15.6067 33.3005 15.622C32.9728 15.6373 32.6543 15.694 32.3358 15.7583C30.78 16.0615 29.2258 16.3723 27.6776 16.6908L20.1254 18.2144C20.0933 18.2221 20.0535 18.2389 20.0213 18.2389C19.4547 18.3982 19.2557 18.6539 19.2312 19.2434C19.2235 19.3307 19.2312 19.4195 19.2312 19.5068C19.2235 24.8188 19.2312 30.1307 19.2235 35.4412C19.2235 36.3033 19.1271 37.1485 18.7856 37.9448C18.219 39.2525 17.2145 40.0748 15.8593 40.4653C15.1429 40.6738 14.4031 40.7916 13.6574 40.8159C11.7035 40.8879 10.0757 39.5878 9.74192 37.6661C9.45404 36.0077 10.212 34.2207 12.0939 33.423C12.8274 33.1198 13.5854 32.9529 14.3587 32.7936L16.1135 32.4353C16.8945 32.2684 17.3018 31.7738 17.3416 30.976V30.6728V12.5365C17.3416 12.2808 17.3738 12.0266 17.4289 11.7785C17.5728 11.1966 17.9878 10.8613 18.5452 10.725C19.0643 10.5887 19.5987 10.4938 20.1239 10.382C21.623 10.0788 23.1145 9.77561 24.6136 9.48007L29.2472 8.53834C30.6192 8.26731 31.982 7.98862 33.354 7.71758C33.8012 7.6303 34.256 7.53383 34.7092 7.50168C35.3386 7.44655 35.778 7.84468 35.8424 8.48322C35.8577 8.63481 35.8669 8.78641 35.8669 8.938V20.6384L35.8699 20.6476Z" fill="black"/>
</svg>
