<svg width="146" height="147" viewBox="0 0 146 147" fill="none" xmlns="http://www.w3.org/2000/svg">
<ellipse cx="72.6856" cy="73.1638" rx="72.6856" ry="73.1638" fill="#DBF429"/>
<path d="M105.204 73.2855L56.0696 101.138L56.0696 45.4335L105.204 73.2855Z" fill="black"/>
<path d="M23.6247 112.884L32.1277 104.356L35.0298 107.25C35.6868 107.905 36.1161 108.56 36.3175 109.216C36.519 109.872 36.529 110.492 36.3476 111.075C36.1844 111.659 35.8754 112.178 35.4204 112.635C34.9746 113.082 34.4648 113.392 33.8909 113.566C33.3262 113.731 32.7202 113.718 32.0729 113.528C31.4348 113.329 30.7963 112.91 30.1575 112.273L28.7612 110.881L25.199 114.454L23.6247 112.884ZM30.0442 109.595L31.3309 110.877C31.769 111.314 32.2112 111.537 32.6578 111.545C33.1043 111.554 33.4959 111.389 33.8325 111.051C34.1692 110.714 34.3326 110.322 34.3229 109.875C34.3131 109.429 34.0938 108.992 33.6648 108.564L32.3644 107.267L30.0442 109.595Z" fill="black"/>
<path d="M39.8411 111.683L41.8195 113.002L41.723 113.147C41.6158 113.168 41.5229 113.215 41.4443 113.286C41.3835 113.354 41.2959 113.474 41.1816 113.645L35.9816 121.446L40.5818 124.513L39.5954 125.992L33.1616 121.704L39.8411 111.683Z" fill="black"/>
<path d="M49.7529 130.742L50.0554 127.834L47.1435 126.63L45.2868 128.896L43.286 128.069L51.6853 118.426L52.6499 118.825L51.7894 131.584L49.7529 130.742ZM50.6243 122.359L48.1704 125.361L50.2248 126.21L50.6243 122.359Z" fill="black"/>
<path d="M58.8788 133.392L59.8048 128.727L57.6973 120.879L59.8967 121.316L61.3639 126.731L64.504 122.231L66.6086 122.648L61.9436 129.172L61.0213 133.817L58.8788 133.392Z" fill="black"/>
<path d="M85.7671 133.752C84.7811 133.948 83.8777 133.865 83.0568 133.502C82.2486 133.137 81.5646 132.537 81.0047 131.702C80.4448 130.867 80.0444 129.843 79.8035 128.63C79.555 127.378 79.5098 126.323 79.6677 125.464C79.8357 124.59 80.1223 123.883 80.5275 123.342C80.9427 122.787 81.4058 122.373 81.9167 122.101C82.4251 121.816 82.8942 121.631 83.324 121.546C84.095 121.392 84.8519 121.433 85.5946 121.666C86.3475 121.885 86.9661 122.287 87.4505 122.874L86.4438 124.355L86.3564 124.511L86.1973 124.404C86.1646 124.306 86.1205 124.216 86.065 124.135C86.0197 124.039 85.9175 123.921 85.7584 123.782C85.4934 123.572 85.2004 123.42 84.8796 123.326C84.5714 123.229 84.1897 123.226 83.7347 123.317C83.267 123.409 82.8509 123.63 82.4865 123.978C82.1347 124.324 81.8939 124.832 81.7641 125.501C81.6444 126.156 81.6861 126.995 81.8894 128.019C82.1905 129.535 82.6553 130.619 83.2837 131.269C83.9247 131.917 84.6371 132.164 85.4208 132.008C85.7368 131.945 86.0389 131.846 86.3272 131.71C86.6257 131.559 86.885 131.343 87.1053 131.063L86.6724 128.882L84.7195 129.27L84.3657 127.488L88.2526 126.716L89.2576 131.778C88.7791 132.346 88.2427 132.788 87.6483 133.103C87.0514 133.405 86.4244 133.622 85.7671 133.752Z" fill="black"/>
<path d="M99.7035 129.055L97.8646 126.782L94.9527 127.986L95.2374 130.901L93.2365 131.728L92.376 118.969L93.3407 118.57L101.74 128.213L99.7035 129.055ZM94.4017 122.503L94.7833 126.362L96.8377 125.513L94.4017 122.503Z" fill="black"/>
<path d="M105.288 126.319L98.608 116.298L100.2 115.237L105.213 118.54L104.082 112.626L105.674 111.565L112.365 121.602L110.788 122.652L106.125 115.656L107.003 120.39L106.119 120.979L102.195 118.298L106.848 125.279L105.288 126.319Z" fill="black"/>
<path d="M115.992 118.624L107.489 110.096L113.047 104.554L114.303 105.814L110.251 109.854L112.434 112.044L115.761 108.727L117.03 110L113.704 113.317L116.242 115.863L120.253 111.864L121.509 113.124L115.992 118.624Z" fill="black"/>
<path d="M121.749 35.6182L113.246 44.1464L110.344 41.2529C109.687 40.5978 109.258 39.9423 109.056 39.2865C108.855 38.6307 108.845 38.0111 109.026 37.4276C109.19 36.8442 109.499 36.3243 109.954 35.868C110.399 35.4208 110.909 35.1103 111.483 34.9363C112.048 34.7714 112.654 34.7842 113.301 34.9746C113.939 35.1741 114.578 35.5924 115.217 36.2293L116.613 37.6214L120.175 34.0486L121.749 35.6182ZM115.33 38.9082L114.043 37.6252C113.605 37.1885 113.163 36.9659 112.716 36.9574C112.27 36.949 111.878 37.1136 111.541 37.4512C111.205 37.7889 111.041 38.181 111.051 38.6275C111.061 39.074 111.28 39.511 111.709 39.9387L113.01 41.2353L115.33 38.9082Z" fill="black"/>
<path d="M105.533 36.8196L103.554 35.5008L103.651 35.3561C103.758 35.3346 103.851 35.2881 103.93 35.2166C103.991 35.1487 104.078 35.029 104.192 34.8574L109.392 27.0564L104.792 23.99L105.779 22.5103L112.212 26.7989L105.533 36.8196Z" fill="black"/>
<path d="M95.6211 17.7608L95.3186 20.6687L98.2305 21.8723L100.087 19.6068L102.088 20.4339L93.6888 30.0768L92.7241 29.6781L93.5846 16.919L95.6211 17.7608ZM94.7497 26.1438L97.2036 23.1421L95.1492 22.2929L94.7497 26.1438Z" fill="black"/>
<path d="M86.4952 15.111L85.5692 19.7753L87.6768 27.6235L85.4774 27.1868L84.0101 21.7715L80.87 26.2721L78.7654 25.8543L83.4305 19.3309L84.3527 14.6857L86.4952 15.111Z" fill="black"/>
<path d="M59.607 14.7502C60.5929 14.5544 61.4963 14.6378 62.3172 15.0004C63.1254 15.3655 63.8095 15.9654 64.3694 16.8003C64.9292 17.6351 65.3296 18.6592 65.5705 19.8727C65.819 21.1241 65.8642 22.1793 65.7063 23.0384C65.5383 23.9126 65.2517 24.6198 64.8466 25.1601C64.4313 25.7155 63.9682 26.1294 63.4573 26.4016C62.9489 26.6865 62.4798 26.8716 62.05 26.9569C61.279 27.1099 60.5221 27.0697 59.7794 26.8361C59.0266 26.6177 58.4079 26.215 57.9235 25.628L58.9302 24.1471L59.0176 23.9918L59.1767 24.0982C59.2094 24.1968 59.2535 24.2866 59.309 24.3675C59.3544 24.4636 59.4566 24.5813 59.6156 24.7205C59.8807 24.9307 60.1736 25.0827 60.4945 25.1767C60.8027 25.2732 61.1843 25.2762 61.6393 25.1859C62.107 25.093 62.5231 24.8725 62.8875 24.5242C63.2393 24.1785 63.4801 23.6708 63.61 23.0013C63.7297 22.3469 63.6879 21.5077 63.4846 20.4839C63.1835 18.967 62.7187 17.8834 62.0903 17.233C61.4493 16.5851 60.737 16.3389 59.9533 16.4945C59.6373 16.5572 59.3351 16.6566 59.0468 16.7927C58.7483 16.9439 58.489 17.1597 58.2687 17.4399L58.7016 19.6203L60.6545 19.2326L61.0083 21.0149L57.1215 21.7865L56.1164 16.7241C56.5949 16.1561 57.1313 15.7146 57.7257 15.3995C58.3226 15.0971 58.9497 14.8806 59.607 14.7502Z" fill="black"/>
<path d="M45.6706 19.4475L47.5094 21.7203L50.4213 20.5167L50.1367 17.6015L52.1375 16.7744L52.998 29.5335L52.0333 29.9322L43.634 20.2893L45.6706 19.4475ZM50.9724 25.9992L50.5907 22.1409L48.5363 22.9901L50.9724 25.9992Z" fill="black"/>
<path d="M40.0875 22.1835L46.767 32.2042L45.1747 33.2656L40.1621 29.9628L41.2929 35.8763L39.7005 36.9378L33.0103 26.901L34.5866 25.8503L39.2505 32.8471L38.3715 28.113L39.2562 27.5233L43.1805 30.2042L38.5273 23.2235L40.0875 22.1835Z" fill="black"/>
<path d="M29.3819 29.8786L37.8848 38.4067L32.3272 43.948L31.0715 42.6886L35.1234 38.6487L32.9396 36.4585L29.6133 39.7751L28.344 38.502L31.6703 35.1854L29.1317 32.6393L25.1209 36.6383L23.8652 35.3789L29.3819 29.8786Z" fill="black"/>
</svg>
