<svg width="147" height="148" viewBox="0 0 147 148" fill="none" xmlns="http://www.w3.org/2000/svg">
<path d="M145.839 73.9026C145.839 114.172 113.41 146.805 73.4196 146.805C33.4295 146.805 1 114.172 1 73.9026C1 33.6334 33.4295 1 73.4196 1C113.41 1 145.839 33.6334 145.839 73.9026Z" fill="black" stroke="white" stroke-width="2"/>
<path d="M106.266 74.027L56.6349 102.16L56.6349 45.8937L106.266 74.027Z" fill="white"/>
<path d="M23.272 114.619L31.8608 106.004L34.7922 108.927C35.4559 109.589 35.8895 110.251 36.0929 110.913C36.2964 111.576 36.3066 112.201 36.1233 112.791C35.9585 113.38 35.6464 113.905 35.1868 114.366C34.7365 114.818 34.2215 115.132 33.6419 115.307C33.0714 115.474 32.4593 115.461 31.8055 115.269C31.1609 115.067 30.516 114.645 29.8707 114.001L28.4603 112.595L24.8621 116.204L23.272 114.619ZM29.7562 111.295L31.056 112.591C31.4984 113.032 31.9452 113.257 32.3962 113.266C32.8473 113.274 33.2428 113.108 33.5829 112.767C33.9229 112.426 34.088 112.03 34.0782 111.579C34.0683 111.128 33.8467 110.686 33.4135 110.254L32.0999 108.945L29.7562 111.295Z" fill="white"/>
<path d="M39.7792 113.509L41.7776 114.841L41.6801 114.988C41.5718 115.009 41.4779 115.056 41.3985 115.128C41.3372 115.197 41.2487 115.318 41.1332 115.491L35.8807 123.371L40.5274 126.468L39.531 127.963L33.0322 123.631L39.7792 113.509Z" fill="white"/>
<path d="M49.9344 132.838L50.24 129.901L47.2987 128.685L45.4232 130.973L43.4022 130.138L51.8863 120.397L52.8608 120.8L51.9916 133.688L49.9344 132.838ZM50.8147 124.37L48.336 127.402L50.4111 128.26L50.8147 124.37Z" fill="white"/>
<path d="M59.3108 135.56L60.2462 130.849L58.1174 122.922L60.339 123.363L61.821 128.833L64.9929 124.287L67.1187 124.709L62.4065 131.298L61.475 135.99L59.3108 135.56Z" fill="white"/>
<path d="M86.7973 135.926C85.8014 136.123 84.8889 136.039 84.0597 135.673C83.2433 135.304 82.5523 134.698 81.9868 133.855C81.4213 133.012 81.0168 131.977 80.7735 130.751C80.5225 129.487 80.4768 128.422 80.6363 127.554C80.8061 126.671 81.0955 125.956 81.5048 125.411C81.9242 124.85 82.392 124.432 82.9081 124.157C83.4216 123.869 83.8954 123.682 84.3295 123.596C85.1084 123.441 85.8729 123.482 86.6231 123.718C87.3835 123.938 88.0084 124.345 88.4977 124.938L87.4808 126.434L87.3925 126.591L87.2319 126.483C87.1988 126.384 87.1543 126.293 87.0982 126.211C87.0524 126.114 86.9492 125.995 86.7886 125.855C86.5208 125.642 86.2249 125.489 85.9008 125.394C85.5895 125.296 85.204 125.293 84.7444 125.385C84.272 125.478 83.8517 125.701 83.4836 126.053C83.1283 126.402 82.885 126.915 82.7539 127.591C82.6329 128.252 82.6751 129.1 82.8805 130.134C83.1846 131.666 83.6541 132.761 84.2888 133.418C84.9363 134.072 85.6559 134.321 86.4475 134.164C86.7667 134.1 87.0719 134 87.3631 133.863C87.6646 133.71 87.9265 133.492 88.149 133.209L87.7118 131.006L85.7391 131.398L85.3817 129.598L89.3079 128.818L90.3231 133.932C89.8397 134.505 89.2979 134.951 88.6975 135.27C88.0946 135.575 87.4612 135.794 86.7973 135.926Z" fill="white"/>
<path d="M101.031 131.134L99.1734 128.838L96.2321 130.054L96.5196 132.998L94.4986 133.834L93.6294 120.946L94.6038 120.543L103.088 130.283L101.031 131.134ZM95.6755 124.516L96.061 128.413L98.1362 127.555L95.6755 124.516Z" fill="white"/>
<path d="M106.816 128.293L100.069 118.171L101.678 117.099L106.741 120.435L105.599 114.462L107.207 113.39L113.965 123.528L112.373 124.589L107.662 117.522L108.549 122.304L107.656 122.899L103.692 120.191L108.392 127.243L106.816 128.293Z" fill="white"/>
<path d="M117.756 120.417L109.167 111.803L114.781 106.206L116.049 107.478L111.957 111.558L114.162 113.771L117.522 110.421L118.804 111.707L115.444 115.057L118.009 117.628L122.06 113.589L123.328 114.861L117.756 120.417Z" fill="white"/>
<path d="M123.57 35.3842L114.981 43.9984L112.05 41.0757C111.386 40.414 110.952 39.7519 110.749 39.0895C110.545 38.4271 110.535 37.8012 110.718 37.2118C110.883 36.6225 111.195 36.0974 111.655 35.6365C112.105 35.1848 112.62 34.8711 113.2 34.6953C113.77 34.5288 114.382 34.5417 115.036 34.7341C115.681 34.9356 116.326 35.358 116.971 36.0014L118.381 37.4076L121.98 33.7987L123.57 35.3842ZM117.086 38.7074L115.786 37.4114C115.343 36.9703 114.897 36.7454 114.446 36.7369C113.995 36.7284 113.599 36.8946 113.259 37.2357C112.919 37.5768 112.754 37.9728 112.764 38.4238C112.774 38.8748 112.995 39.3163 113.428 39.7483L114.742 41.058L117.086 38.7074Z" fill="white"/>
<path d="M107.064 36.4934L105.065 35.1613L105.163 35.0151C105.271 34.9934 105.365 34.9465 105.444 34.8743C105.506 34.8057 105.594 34.6847 105.71 34.5114L110.962 26.6316L106.315 23.5343L107.312 22.0396L113.811 26.3715L107.064 36.4934Z" fill="white"/>
<path d="M96.9073 17.1649L96.6018 20.1022L99.5431 21.3179L101.419 19.0296L103.44 19.865L94.9555 29.6053L93.981 29.2025L94.8502 16.3146L96.9073 17.1649ZM96.0271 25.6326L98.5058 22.6006L96.4307 21.7428L96.0271 25.6326Z" fill="white"/>
<path d="M87.5309 14.4423L86.5956 19.1536L88.7244 27.0811L86.5028 26.64L85.0208 21.17L81.8489 25.7161L79.7231 25.294L84.4353 18.7048L85.3668 14.0126L87.5309 14.4423Z" fill="white"/>
<path d="M60.0445 14.077C61.0404 13.8793 61.9529 13.9635 62.7821 14.3298C63.5985 14.6985 64.2895 15.3046 64.855 16.1478C65.4205 16.991 65.825 18.0255 66.0683 19.2512C66.3193 20.5153 66.365 21.5811 66.2055 22.4489C66.0357 23.3319 65.7463 24.0463 65.337 24.5921C64.9176 25.1531 64.4498 25.5711 63.9337 25.8461C63.4202 26.1338 62.9464 26.3208 62.5123 26.407C61.7334 26.5616 60.9689 26.5209 60.2187 26.285C59.4583 26.0644 58.8334 25.6576 58.3441 25.0647L59.361 23.5688L59.4492 23.412L59.6099 23.5194C59.643 23.619 59.6875 23.7097 59.7436 23.7915C59.7894 23.8886 59.8926 24.0074 60.0532 24.148C60.321 24.3603 60.6169 24.5139 60.941 24.6088C61.2523 24.7063 61.6378 24.7094 62.0974 24.6181C62.5698 24.5243 62.9901 24.3015 63.3582 23.9498C63.7135 23.6005 63.9568 23.0878 64.0879 22.4114C64.2089 21.7504 64.1667 20.9028 63.9613 19.8686C63.6572 18.3365 63.1877 17.2419 62.553 16.5849C61.9055 15.9305 61.1859 15.6818 60.3943 15.839C60.0751 15.9023 59.7699 16.0027 59.4787 16.1402C59.1772 16.2929 58.9153 16.5108 58.6928 16.7939L59.13 18.9963L61.1026 18.6047L61.4601 20.405L57.5339 21.1844L56.5187 16.0709C57.002 15.4972 57.5439 15.0512 58.1443 14.7329C58.7472 14.4275 59.3806 14.2088 60.0445 14.077Z" fill="white"/>
<path d="M45.8109 18.8691L47.6684 21.1649L50.6097 19.9491L50.3221 17.0044L52.3432 16.169L53.2124 29.0569L52.2379 29.4597L43.7538 19.7194L45.8109 18.8691ZM51.1663 25.487L50.7808 21.5897L48.7056 22.4475L51.1663 25.487Z" fill="white"/>
<path d="M40.0257 21.7097L46.7727 31.8315L45.1642 32.9037L40.101 29.5674L41.2433 35.5407L39.6348 36.6129L32.877 26.4748L34.4692 25.4135L39.1802 32.4809L38.2924 27.699L39.186 27.1034L43.1499 29.8113L38.4497 22.7601L40.0257 21.7097Z" fill="white"/>
<path d="M29.0857 29.5857L37.6746 38.1999L32.0608 43.7972L30.7924 42.5251L34.8853 38.4443L32.6795 36.232L29.3195 39.5821L28.0374 38.2961L31.3973 34.9461L28.8331 32.3742L24.7818 36.4136L23.5134 35.1415L29.0857 29.5857Z" fill="white"/>
</svg>
