<svg width="33" height="33" viewBox="0 0 33 33" fill="none" xmlns="http://www.w3.org/2000/svg">
<path d="M16.5 0C7.3873 0 0 7.3873 0 16.5C0 25.6127 7.3873 33 16.5 33C22.6163 33 27.9507 29.6696 30.8006 24.7258L24.9917 21.3843C23.2985 24.3211 20.1335 26.3029 16.5 26.3029C11.086 26.3029 6.69707 21.914 6.69707 16.5C6.69707 11.086 11.086 6.69707 16.5 6.69707C18.8206 6.69707 20.9476 7.5089 22.625 8.85827L18.2926 11.9399L33 16.8444V1.47436L28.2103 4.88232C25.2209 1.86868 21.0802 0 16.5 0Z" fill="black"/>
</svg>
