<svg width="60" height="56" viewBox="0 0 60 56" fill="none" xmlns="http://www.w3.org/2000/svg">
<path d="M13.2534 55.1639C20.5731 55.1639 26.5066 49.0256 26.5066 41.4536C26.5066 33.8816 20.5731 27.7432 13.2534 27.7432C5.93379 27.7432 0 33.8816 0 41.4536C0 49.0256 5.93379 55.1639 13.2534 55.1639Z" fill="#15AFE2"/>
<path d="M28.6792 27.8802C36.2513 27.8802 42.3894 21.7419 42.3894 14.1699C42.3894 6.5979 36.2513 0.459534 28.6792 0.459534C21.1071 0.459534 14.9688 6.5979 14.9688 14.1699C14.9688 21.7419 21.1071 27.8802 28.6792 27.8802Z" fill="#D8E224"/>
<path d="M46.273 55.1639C53.845 55.1639 59.9831 49.0256 59.9831 41.4536C59.9831 33.8816 53.845 27.7432 46.273 27.7432C38.7009 27.7432 32.5625 33.8816 32.5625 41.4536C32.5625 49.0256 38.7009 55.1639 46.273 55.1639Z" fill="#FA2E69"/>
</svg>
