<svg width="111" height="110" viewBox="0 0 111 110" fill="none" xmlns="http://www.w3.org/2000/svg">
<path d="M49.2517 14.7106L59.8109 40.2872L81.7561 21.8688L70.1061 47.3545L99.0548 48.8988L72.02 59.3644L91.0144 79.9667L64.4314 69.2817L62.3448 96.8734L51.7856 71.2968L29.8404 89.7152L41.4903 64.2295L12.5417 62.6852L39.5765 52.2196L20.5821 31.6173L47.1651 42.3023L49.2517 14.7106Z" fill="#DBF429"/>
<path d="M48.5603 12.3207L59.1195 37.8973L81.0647 19.4789L69.4147 44.9646L98.3634 46.5089L71.3286 56.9745L90.323 77.5768L63.74 66.8918L61.6534 94.4835L51.0942 68.907L29.149 87.3253L40.7989 61.8396L11.8503 60.2953L38.8851 49.8297L19.8907 29.2274L46.4737 39.9125L48.5603 12.3207Z" fill="#43DAF9"/>
</svg>
