<svg width="40" height="38" viewBox="0 0 40 38" fill="none" xmlns="http://www.w3.org/2000/svg">
<path d="M37.9485 16.3582L37.9599 16.3498C38.2367 16.1435 38.4421 15.8557 38.5472 15.5268C38.6523 15.198 38.6518 14.8444 38.5459 14.5158C38.4399 14.1872 38.2337 13.9 37.9563 13.6945C37.6788 13.489 37.344 13.3755 36.9988 13.3698L36.9881 13.3696L36.9774 13.3692L26.2185 12.9628L26.2029 12.9622L26.1874 12.9611C25.9421 12.9442 25.7069 12.8567 25.5102 12.7092C25.314 12.562 25.1644 12.3614 25.0794 12.1314L37.9485 16.3582ZM37.9485 16.3582L37.9374 16.3669L29.4697 23.0551C29.2695 23.2086 29.1196 23.4186 29.0398 23.6582C28.9586 23.9017 28.9536 24.164 29.0252 24.4102L31.9527 34.7344L31.9544 34.7401C32.0482 35.0637 32.0395 35.4085 31.9294 35.7269C31.8195 36.0447 31.6139 36.3208 31.341 36.5172C31.0655 36.7124 30.7361 36.8173 30.3984 36.8173C30.0599 36.8173 29.7297 36.7119 29.4538 36.5157L29.4425 36.5077L29.431 36.5L20.5166 30.5252C20.3073 30.383 20.06 30.3069 19.8069 30.3069C19.5536 30.3069 19.3063 30.383 19.097 30.5252L10.1827 36.4999L10.1781 36.5031C9.89687 36.6939 9.56369 36.7934 9.2239 36.7881C8.88411 36.7828 8.55419 36.6729 8.27903 36.4735C8.00387 36.274 7.79684 35.9947 7.68609 35.6734C7.57534 35.3521 7.56625 35.0045 7.66007 34.6779L7.66132 34.6734L10.5662 24.3807L10.5682 24.3738L10.5701 24.3667C10.6343 24.1259 10.6265 23.8716 10.5477 23.6351C10.4689 23.3987 10.3225 23.1905 10.1266 23.0364L10.1262 23.0361L1.68644 16.4014L1.67623 16.3934L1.66583 16.3856C1.38895 16.1793 1.18356 15.8916 1.07847 15.5627C0.973381 15.2338 0.973856 14.8803 1.07983 14.5517C1.1858 14.2231 1.39196 13.9359 1.6694 13.7304C1.94683 13.5249 2.28164 13.4113 2.62686 13.4057L2.63757 13.4055L2.64828 13.4051L13.4072 12.9986L13.4228 12.9981L13.4383 12.997C13.6836 12.9801 13.9188 12.8925 14.1155 12.745C14.3122 12.5975 14.462 12.3962 14.547 12.1655L14.5471 12.1652L18.2529 2.08767L18.2536 2.08593C18.37 1.76755 18.5814 1.49263 18.8592 1.2984C19.1371 1.10417 19.4679 1 19.8069 1C20.1459 1 20.4767 1.10417 20.7545 1.2984C21.0323 1.49264 21.2437 1.76755 21.3602 2.08593L21.3616 2.08973L25.0787 12.1296L37.9485 16.3582Z" fill="none" stroke="black" stroke-width="2"/>
</svg>
