<svg width="78" height="84" viewBox="0 0 78 84" fill="none" xmlns="http://www.w3.org/2000/svg">
<g filter="url(#filter0_d)">
<ellipse cx="38.8153" cy="37.972" rx="38.8153" ry="37.972" fill="white"/>
<path d="M21.5149 20.4441C21.3257 20.4441 21.1528 20.518 21.0319 20.6359L21.5149 20.4441ZM21.5149 20.4441C21.7042 20.4441 21.8772 20.5181 21.998 20.6361M21.5149 20.4441L21.998 20.6361M21.998 20.6361C21.9981 20.6362 21.9981 20.6362 21.9981 20.6362M21.998 20.6361L21.9981 20.6362M21.9981 20.6362C21.9982 20.6363 21.9982 20.6363 21.9983 20.6364M21.9981 20.6362L21.9983 20.6364M21.9983 20.6364L24.643 23.2236C24.7531 23.3393 24.8066 23.4832 24.8054 23.624C24.8041 23.7682 24.7453 23.9152 24.6272 24.0307C24.5078 24.1475 24.3372 24.2213 24.1499 24.2229C23.9669 24.2245 23.7981 24.1568 23.6767 24.0461L21.0319 21.4588C21.0319 21.4587 21.0318 21.4587 21.0317 21.4586C20.9125 21.3418 20.8538 21.193 20.8538 21.0474C20.8538 20.9018 20.9125 20.7531 21.0315 20.6364H21.9983ZM53.9375 24.0624L53.925 24.0745L53.9128 24.0869C53.8539 24.1466 53.7811 24.1965 53.6973 24.2317C53.6134 24.267 53.5217 24.2861 53.4277 24.2869C53.3338 24.2877 53.2416 24.2701 53.1569 24.2363C53.0723 24.2024 52.9983 24.1535 52.9381 24.0947C52.8781 24.0359 52.833 23.9684 52.8033 23.8975C52.7737 23.8266 52.7593 23.7522 52.76 23.6783C52.7607 23.6044 52.7763 23.5302 52.8073 23.4596C52.8383 23.3889 52.8848 23.322 52.9461 23.264L52.9587 23.2521L52.9711 23.2399L55.6325 20.6363C55.7534 20.5181 55.9265 20.4441 56.1159 20.4441C56.3054 20.4441 56.4784 20.5181 56.5993 20.6363C56.7183 20.7531 56.777 20.9018 56.777 21.0474C56.777 21.193 56.7183 21.3418 56.5991 21.4586C56.599 21.4587 56.5989 21.4587 56.5989 21.4588L53.9375 24.0624ZM24.8457 37.9727V37.9723C24.846 35.5897 25.4873 33.2465 26.7085 31.1779C27.9299 29.1089 29.6897 27.3855 31.8154 26.1852C33.9414 24.9848 36.3562 24.3513 38.8166 24.3515C41.2771 24.3517 43.6918 24.9856 45.8175 26.1864C47.943 27.3871 49.7025 29.1108 50.9235 31.18C52.1444 33.2488 52.7852 35.5921 52.7851 37.9747C52.785 40.3573 52.144 42.7006 50.923 44.7693C50.3033 45.8193 49.5451 46.7802 48.6706 47.6291C46.686 49.5555 44.8003 52.2845 44.8003 55.5897V56.1986C44.8003 57.7255 44.1806 59.199 43.063 60.2924C41.9438 61.3873 40.4167 62.01 38.8154 62.01C37.2141 62.01 35.687 61.3873 34.5679 60.2924C33.4502 59.199 32.8305 57.7255 32.8305 56.1986V55.5906C32.8305 52.2847 30.9441 49.5554 28.9591 47.6289C28.0845 46.78 27.3261 45.8189 26.7064 44.7687C25.4855 42.6995 24.8449 40.3557 24.8457 37.9727ZM38.8154 13.9341C39.0049 13.9341 39.178 14.0081 39.2989 14.1264C39.4182 14.2432 39.477 14.3921 39.477 14.5379V17.1417C39.477 17.2875 39.4182 17.4364 39.2989 17.5532C39.178 17.6714 39.0049 17.7455 38.8154 17.7455C38.6259 17.7455 38.4528 17.6714 38.332 17.5532C38.2126 17.4364 38.1538 17.2875 38.1538 17.1417V14.5379C38.1538 14.3921 38.2126 14.2432 38.332 14.1264C38.4528 14.0081 38.6259 13.9341 38.8154 13.9341ZM38.8154 25.5569C35.4754 25.5569 32.2635 26.8544 29.8886 29.1777C27.5122 31.5025 26.1689 34.665 26.1689 37.972C26.1689 41.2791 27.5122 44.4416 29.8886 46.7663C32.2635 49.0896 35.4754 50.3872 38.8154 50.3872C42.1555 50.3872 45.3673 49.0896 47.7422 46.7663C50.1186 44.4416 51.4619 41.2791 51.4619 37.972C51.4619 34.665 50.1186 31.5025 47.7422 29.1777C45.3673 26.8544 42.1555 25.5569 38.8154 25.5569ZM38.8154 51.596C36.5242 51.596 34.1538 53.3445 34.1538 56.0521V56.1986C34.1538 57.4339 34.6558 58.6096 35.5348 59.4694C36.4122 60.3278 37.5931 60.8024 38.8154 60.8024C40.0377 60.8024 41.2186 60.3278 42.0961 59.4694C42.975 58.6096 43.477 57.4339 43.477 56.1986V56.0521C43.477 53.3445 41.1066 51.596 38.8154 51.596ZM14.1992 37.972C14.1992 37.8262 14.258 37.6773 14.3774 37.5605C14.4983 37.4423 14.6714 37.3682 14.8608 37.3682H17.5225C17.7119 37.3682 17.885 37.4423 18.0059 37.5605C18.1253 37.6773 18.1841 37.8262 18.1841 37.972C18.1841 38.1178 18.1253 38.2667 18.0059 38.3835C17.885 38.5018 17.7119 38.5758 17.5225 38.5758H14.8608C14.6714 38.5758 14.4983 38.5018 14.3774 38.3835C14.258 38.2667 14.1992 38.1178 14.1992 37.972ZM59.4467 37.972C59.4467 37.8262 59.5055 37.6773 59.6249 37.5605C59.7458 37.4423 59.9189 37.3682 60.1084 37.3682H62.77C62.9594 37.3682 63.1326 37.4423 63.2534 37.5605C63.3728 37.6773 63.4316 37.8262 63.4316 37.972C63.4316 38.1178 63.3728 38.2667 63.2534 38.3835C63.1325 38.5018 62.9594 38.5758 62.77 38.5758H60.1084C59.9189 38.5758 59.7458 38.5018 59.6249 38.3835C59.5055 38.2667 59.4467 38.1178 59.4467 37.972Z" stroke="black" stroke-width="4"/>
</g>
<defs>
<filter id="filter0_d" x="0" y="0" width="77.6305" height="83.944" filterUnits="userSpaceOnUse" color-interpolation-filters="sRGB">
<feFlood flood-opacity="0" result="BackgroundImageFix"/>
<feColorMatrix in="SourceAlpha" type="matrix" values="0 0 0 0 0 0 0 0 0 0 0 0 0 0 0 0 0 0 127 0" result="hardAlpha"/>
<feOffset dy="8"/>
<feComposite in2="hardAlpha" operator="out"/>
<feColorMatrix type="matrix" values="0 0 0 0 0 0 0 0 0 0 0 0 0 0 0 0 0 0 1 0"/>
<feBlend mode="normal" in2="BackgroundImageFix" result="effect1_dropShadow"/>
<feBlend mode="normal" in="SourceGraphic" in2="effect1_dropShadow" result="shape"/>
</filter>
</defs>
</svg>
